<svg xmlns="http://www.w3.org/2000/svg" xmlns:xlink="http://www.w3.org/1999/xlink" width="112" height="24" viewBox="0 0 112 24">
    <defs>
        <path id="wino6b4y1a" d="M0 0L27.094 0 27.094 19.303 0 19.303z"/>
        <path id="j9gih66p3c" d="M0 19.303L104 19.303 104 0 0 0z"/>
    </defs>
    <g fill="none" fill-rule="evenodd">
        <g>
            <g>
                <g>
                    <path d="M0 0H112V24H0z" transform="translate(-132.000000, -92.000000) translate(0.000000, 44.000000) translate(132.000000, 48.000000)"/>
                    <g transform="translate(-132.000000, -92.000000) translate(0.000000, 44.000000) translate(132.000000, 48.000000) translate(4.000000, 2.000000)">
                        <g>
                            <mask id="ajrohg5u6b" fill="#fff">
                                <use xlink:href="#wino6b4y1a"/>
                            </mask>
                            <path fill="#F8B000" d="M26.657 9.905l-.236-.153c-.796-.796-1.908-1.143-3.4-1.057-1.24.078-2.22.57-2.973 1.024v-.03c0-.387.046-.811.09-1.215.04-.424.086-.841.086-1.24 0-.407-.045-.796-.183-1.125-.038-.09-.113-.138-.218-.138-.395.01-1.178.283-1.366.45l-.106.225c-.005.445-.103 1.677-.203 1.828.007 0-.053.155-.053.155-.168 1.763-.17 3.317-.018 4.655.02.131.276.332.475.407.218.08.899-.1 1.293-.25-.008 0 .146-.026.146-.026.122-.012.198-.118.193-.258-.005-.006.01-.39.01-.39.279-1.15 1.426-2.52 2.782-2.726.768-.12 1.37.072 1.853.595.06.092.206.923-.301 1.875-.377.706-1.13 1.298-2.12 1.667-.939.36-1.968.502-3.239.46-.052-.038-1.192-.809-1.192-.809-1.012-.705-2.265-1.584-3.4-2.019-.2-.077-.56-.376-.775-.557l-.116-.093c-.658-.524-1.9-1.355-2.907-2.023 0 0-.45-.302-.538-.364l.003-.116c.028-.028.655-.41.655-.41.886-.512 1.29-.767 1.376-.896-.02.023.118-.067.118-.067l2.184-1.24c2.102-1.15 4.477-2.461 5.725-3.752l.06-.198.028-.178c.083-.274.088-.487.017-.734-.017-.065-.082-.145-.173-.163-.969-.1-2.23.49-3.37 1.565-.263.238-.479.354-.707.482l-.176.097c-1.26.716-4.103 2.481-5.589 3.43.095-1.6.392-3.871.753-5.775l-.04-.225c0-.006-.153-.28-.153-.28l-.118-.21-.03-.013c-.297-.143-.543-.083-.718-.042l-.297.11-.394.146c-.08.015-.135.068-.168.14-.708 1.713-1.3 4.542-1.441 6.804-1.419-.906-2.737-1.554-3.38-1.872l-.015-.006-.075-.017c-.233-.028-.518-.201-.783-.364-.03-.018-.545-.354-.545-.354l-.824-.53c.005.008-.218-.048-.218-.048-.352.063-1.035.518-1.236.831-.027.043-.04.088-.04.136 0 .063.025.13.04.191l.036.17.04.103c.396.405 1.39 1.078 2.37 1.603l1.135.61 1.737.941c0 .008.297.236.297.236l.205.118s.023.013.036.025c-.465.306-3.159 2.107-3.159 2.107l-1.66 1.102c-.158.103-.813.402-.956.457-.362.148-.633.371-.748.615L0 13.4l.043.06.13.098c-.01 0 .17.113.17.113l.184.126.168.027c.297.008.723-.155 1.535-.51.745-.328 2.759-1.549 3.622-2.063l.372-.221c.146.012.316-.12.462-.231.176-.138.552-.362.778-.472.01 0 .141-.073.262-.14v.1c.037 2.636.19 4.554.482 6.033v.025l.03.058c.143.208.301.833.444 1.383l.33 1.1c.009.02.092.103.092.103.188.13.76.351 1.14.309l.098-.018.06-.13c.033-.166.043-.327.043-.507 0-.201-.015-.422-.033-.69l-.025-.403c-.126-1.84-.241-4.5-.241-6.264v-.14c.311.193 1.68 1.054 1.68 1.054 2.33 1.514 5.847 3.796 7.971 4.401.116.03.231.005.31-.073.006-.002.323-.208.323-.208l.065-.025c.123-.058.206-.264.219-.492 1.79-.088 4.29-.773 5.626-2.456.517-.653.754-1.451.754-2.137 0-.557-.156-1.039-.437-1.305" mask="url(#ajrohg5u6b)"/>
                        </g>
                        <path fill="#7A7267" d="M33.245 2.684L35.339 2.684 35.339 8.542 42.372 2.684 45.337 2.684 37.895 8.594 45.949 15.773 42.989 15.773 35.339 8.758 35.339 15.773 33.245 15.773zM49.49 14.319h4.117c2.559 0 3.237-1.002 3.237-2.267 0-1.51-1.04-2.343-3.347-2.343H49.49v4.61zm0-6.096h4.25c1.575 0 2.745-.6 2.745-1.996 0-1.218-.575-2.029-2.988-2.029H49.49v4.025zm-2.084-5.514h6.437c3.064 0 4.663 1.014 4.663 3.239 0 1.58-1.102 2.672-2.574 2.96v.058c2.104.248 3.104 1.632 3.104 3.191 0 1.956-1.432 3.643-4.987 3.643h-6.643V2.71zM75.406 2.73v13.04h-1.572V7.886h-1.368v7.467h-1.572V2.73h1.572v3.746h1.368V2.73h1.572zm-7.532 8.887v-3.73H63.49V6.492h4.384V4.424H63.49V3.01h6.026v8.607h-1.642z"/>
                        <mask id="9ci2z53f2d" fill="#fff">
                            <use xlink:href="#j9gih66p3c"/>
                        </mask>
                        <path fill="#7A7267" d="M87.44 15.7h1.624V2.717H87.44V15.7zm-7.173-5.695h2.661V4.406h-2.661v5.6zm5.71 0V11.4h-8.472v-1.394h1.152V4.406h-1.152V3.01h8.278v1.396h-1.246v5.6h1.44zM100.716 2.666h1.622v2.448H104v1.361h-1.662v2.662h-1.622v-6.47zm1.622 10.852h-8.719v.839h8.854v1.365h-10.46v-3.497h8.733v-.811h-8.734v-1.361h10.326v3.465zm-9.457-5.81h6.223v1.373h-7.815V2.865h7.503v1.38h-5.911v1.017h5.58v1.359h-5.58v1.087z" mask="url(#9ci2z53f2d)"/>
                    </g>
                </g>
            </g>
        </g>
    </g>
</svg>
