<svg xmlns="http://www.w3.org/2000/svg" width="24" height="24" viewBox="0 0 24 24">
    <g fill="none" fill-rule="evenodd">
        <g>
            <g>
                <g>
                    <g>
                        <path d="M0 0H24V24H0z" transform="translate(-17.000000, -184.000000) translate(0.000000, 112.000000) translate(0.000000, 56.000000) translate(17.000000, 16.000000)"/>
                        <g transform="translate(-17.000000, -184.000000) translate(0.000000, 112.000000) translate(0.000000, 56.000000) translate(17.000000, 16.000000) translate(1.600000, 4.500000)">
                            <path stroke="#000" stroke-linecap="round" stroke-linejoin="round" stroke-width="1.5" d="M11.885 14.39H.655c-.36 0-.655-.294-.655-.654V.654C0 .294.294 0 .654 0h3.432c.49 0 .97.151 1.373.433l3.119 2.183h9.083c.36 0 .654.295.654.654v5.233"/>
                            <path stroke="#000" stroke-linecap="round" stroke-linejoin="round" stroke-width="1.5" d="M18.308 13.414c-1.294 2.002-3.966 2.576-5.968 1.282-.942-.61-1.568-1.524-1.832-2.53-.297-1.131-.135-2.379.55-3.438 1.294-2.003 3.966-2.577 5.968-1.283s2.576 3.966 1.282 5.969z"/>
                            <circle cx="14.65" cy="12.95" r="1" fill="#000"/>
                            <path stroke="#000" stroke-linecap="round" stroke-width="1.3" d="M14.7 9L14.7 11"/>
                        </g>
                    </g>
                </g>
            </g>
        </g>
    </g>
</svg>
