<svg xmlns="http://www.w3.org/2000/svg" width="24" height="24" viewBox="0 0 24 24">
    <g fill="none" fill-rule="evenodd">
        <g fill="#666">
            <g>
                <g>
                    <g>
                        <path d="M1.5 12c.828 0 1.5.672 1.5 1.5S2.328 15 1.5 15 0 14.328 0 13.5.672 12 1.5 12zm0-6C2.328 6 3 6.672 3 7.5S2.328 9 1.5 9 0 8.328 0 7.5.672 6 1.5 6zm0-6C2.328 0 3 .672 3 1.5S2.328 3 1.5 3 0 2.328 0 1.5.672 0 1.5 0z" transform="translate(-335.000000, -120.000000) translate(0.000000, 112.000000) translate(335.000000, 8.000000) translate(10.500000, 4.500000)"/>
                    </g>
                </g>
            </g>
        </g>
    </g>
</svg>
