<svg xmlns="http://www.w3.org/2000/svg" width="24" height="24" viewBox="0 0 24 24">
    <g fill="none" fill-rule="evenodd">
        <g>
            <g>
                <g>
                    <path d="M0 0H24V24H0z" transform="translate(-16.000000, -128.000000) translate(0.000000, 112.000000) translate(16.000000, 16.000000)"/>
                    <path stroke="#000" stroke-linecap="round" stroke-linejoin="round" stroke-width="1.5" d="M15.932 8.877l-5.818 5.818c-.617.616-1.62.617-2.238 0-.617-.618-.617-1.622 0-2.239l5.147-5.147h.001l2.344-2.344c1.286-1.287 3.38-1.287 4.666 0 .623.623.966 1.451.966 2.333 0 .88-.343 1.71-.966 2.332l-9.179 8.97c-1.794 1.794-4.714 1.793-6.507 0C3.48 17.73 3 16.575 3 15.346c0-1.23.479-2.385 1.348-3.253l7.504-7.296" transform="translate(-16.000000, -128.000000) translate(0.000000, 112.000000) translate(16.000000, 16.000000)"/>
                </g>
            </g>
        </g>
    </g>
</svg>
