<svg xmlns="http://www.w3.org/2000/svg" width="24" height="24" viewBox="0 0 24 24">
    <g fill="none" fill-rule="evenodd">
        <g>
            <g>
                <g>
                    <g>
                        <path d="M0 0H24V24H0z" transform="translate(-16.000000, -440.000000) translate(0.000000, 112.000000) translate(0.000000, 312.000000) translate(16.000000, 16.000000)"/>
                        <g stroke="#000" stroke-linecap="round" stroke-linejoin="round" stroke-width="1.5">
                            <path d="M1.476 15.588c-.52 0-1.002-.274-1.268-.72-.266-.448-.278-1.002-.03-1.459l1.6-1.485V7.133C1.778 3.333 4.88 0 8.418 0c3.538 0 6.642 3.333 6.642 7.133v4.79l1.599 1.486c.248.457.237 1.011-.03 1.458-.266.447-.747.721-1.268.721H1.476zM6.355 15.936c0 1.14.924 2.064 2.064 2.064 1.14 0 2.064-.924 2.064-2.064M1.778 11.924L10.662 11.924" transform="translate(-16.000000, -440.000000) translate(0.000000, 112.000000) translate(0.000000, 312.000000) translate(16.000000, 16.000000) translate(4.000000, 3.000000)"/>
                        </g>
                    </g>
                </g>
            </g>
        </g>
    </g>
</svg>
