<svg xmlns="http://www.w3.org/2000/svg" width="16" height="16" viewBox="0 0 16 16">
    <g fill="none" fill-rule="evenodd">
        <g>
            <g>
                <g>
                    <g>
                        <g>
                            <path d="M0 0H16V16H0z" transform="translate(-148.000000, -124.000000) translate(0.000000, 112.000000) translate(16.000000, 0.000000) translate(132.000000, 12.000000) translate(0.000000, -0.000000)"/>
                            <g stroke="#888">
                                <path d="M6.717 11.82l-1.702-.738-1.535.737-1.542-.737L0 12V0h8.077C9.139 0 10 .824 10 1.84V12l-1.923-.918-1.36.738zM3 3.5L7 3.5M3 5.5L7 5.5" transform="translate(-148.000000, -124.000000) translate(0.000000, 112.000000) translate(16.000000, 0.000000) translate(132.000000, 12.000000) translate(0.000000, -0.000000) translate(3.000000, 2.000000)"/>
                            </g>
                        </g>
                    </g>
                </g>
            </g>
        </g>
    </g>
</svg>
