<svg xmlns="http://www.w3.org/2000/svg" width="9" height="12" viewBox="0 0 9 12">
    <g fill="none" fill-rule="evenodd">
        <g>
            <g>
                <g>
                    <g>
                        <g>
                            <g>
                                <g>
                                    <path fill="#FFF" d="M1.681 1.564L9.675 9H0V2.296c0-.552.448-1 1-1 .253 0 .496.096.681.268z" transform="translate(-131.000000, -1010.000000) translate(16.000000, 612.000000) translate(0.000000, 74.000000) translate(24.000000, 308.000000) translate(91.000000, 0.000000) translate(4.500000, 22.000000) scale(-1, 1) rotate(90.000000) translate(-4.500000, -22.000000) translate(-1.500000, 17.500000) translate(1.000000, 0.000000)"/>
                                    <path stroke="#DDD" d="M10 8.618L1.653 1.424c-.419-.36-1.05-.313-1.41.105-.157.182-.243.413-.243.653V9h0" transform="translate(-131.000000, -1010.000000) translate(16.000000, 612.000000) translate(0.000000, 74.000000) translate(24.000000, 308.000000) translate(91.000000, 0.000000) translate(4.500000, 22.000000) scale(-1, 1) rotate(90.000000) translate(-4.500000, -22.000000) translate(-1.500000, 17.500000) translate(1.000000, 0.000000)"/>
                                </g>
                            </g>
                        </g>
                    </g>
                </g>
            </g>
        </g>
    </g>
</svg>
