<svg xmlns="http://www.w3.org/2000/svg" width="9" height="12" viewBox="0 0 9 12">
    <g fill="none" fill-rule="evenodd">
        <g>
            <g>
                <g>
                    <g>
                        <g>
                            <path fill="#FFF" d="M1.68 1.563L9.682 9H0V2.295c0-.552.448-1 1-1 .253 0 .496.096.68.268z" transform="translate(-64.000000, -143.000000) translate(16.000000, 128.000000) translate(48.000000, 0.000000) translate(4.500000, 21.000000) scale(-1, 1) rotate(90.000000) translate(-4.500000, -21.000000) translate(-1.500000, 16.500000) translate(1.000000, 0.000000)"/>
                            <path stroke="#FFF" d="M10 8.618L1.653 1.424c-.419-.36-1.05-.313-1.41.105-.157.182-.243.413-.243.653V9h0" transform="translate(-64.000000, -143.000000) translate(16.000000, 128.000000) translate(48.000000, 0.000000) translate(4.500000, 21.000000) scale(-1, 1) rotate(90.000000) translate(-4.500000, -21.000000) translate(-1.500000, 16.500000) translate(1.000000, 0.000000)"/>
                        </g>
                    </g>
                </g>
            </g>
        </g>
    </g>
</svg>
