<svg xmlns="http://www.w3.org/2000/svg" width="24" height="24" viewBox="0 0 24 24">
    <g fill="none" fill-rule="evenodd">
        <g>
            <g>
                <g>
                    <g>
                        <g>
                            <path d="M0 0H24V24H0z" transform="translate(-326.000000, -728.000000) translate(0.000000, 672.000000) translate(0.000000, 47.000000) translate(300.000000, 1.000000) translate(26.000000, 8.000000)"/>
                            <g fill="#FFF" stroke="#888" stroke-width="1.5">
                                <path d="M9.5-.75c.483 0 .92.196 1.237.513.317.316.513.754.513 1.237 0 .484-.196.921-.512 1.238-.317.316-.754.512-1.238.512s-.921-.196-1.238-.512C7.946 1.92 7.75 1.484 7.75 1c0-.483.196-.92.513-1.237.316-.317.754-.513 1.237-.513zM1-.75c.484 0 .921.196 1.238.512C2.554.08 2.75.516 2.75 1c0 .483-.196.92-.513 1.237-.316.317-.754.513-1.237.513-.483 0-.92-.196-1.237-.513C-.554 1.921-.75 1.483-.75 1c0-.484.196-.921.512-1.238C.08-.554.516-.75 1-.75h0zM18-.75c.483 0 .92.196 1.237.513.317.316.513.754.513 1.237 0 .484-.196.921-.512 1.238-.317.316-.754.512-1.238.512s-.921-.196-1.238-.512c-.316-.317-.512-.754-.512-1.238 0-.483.196-.92.513-1.237.316-.317.754-.513 1.237-.513h0z" transform="translate(-326.000000, -728.000000) translate(0.000000, 672.000000) translate(0.000000, 47.000000) translate(300.000000, 1.000000) translate(26.000000, 8.000000) translate(2.500000, 11.000000)"/>
                            </g>
                        </g>
                    </g>
                </g>
            </g>
        </g>
    </g>
</svg>
