<svg xmlns="http://www.w3.org/2000/svg" width="24" height="24" viewBox="0 0 24 24">
    <g fill="none" fill-rule="evenodd">
        <g stroke="#888" stroke-width="1.5">
            <g>
                <g>
                    <g>
                        <g>
                            <g>
                                <path d="M8.347.75c1.945 0 3.89.742 5.373 2.226 1.484 1.483 2.226 3.427 2.226 5.371 0 1.945-.742 3.89-2.226 5.373-1.484 1.484-3.428 2.226-5.373 2.226-1.944 0-3.888-.742-5.371-2.226C1.492 12.236.75 10.292.75 8.347c0-1.944.742-3.888 2.226-5.372C4.459 1.492 6.403.75 8.347.75z" transform="translate(-176.000000, -728.000000) translate(0.000000, 672.000000) translate(0.000000, 47.000000) translate(150.000000, 1.000000) translate(26.000000, 8.000000) translate(2.500000, 2.500000)"/>
                                <path stroke-linecap="round" stroke-linejoin="round" d="M19 19L14.25 14.25" transform="translate(-176.000000, -728.000000) translate(0.000000, 672.000000) translate(0.000000, 47.000000) translate(150.000000, 1.000000) translate(26.000000, 8.000000) translate(2.500000, 2.500000)"/>
                            </g>
                        </g>
                    </g>
                </g>
            </g>
        </g>
    </g>
</svg>
