<svg xmlns="http://www.w3.org/2000/svg" width="24" height="24" viewBox="0 0 24 24">
    <defs>
        <filter id="tz66roy7fa">
            <feColorMatrix in="SourceGraphic" values="0 0 0 0 0.666667 0 0 0 0 0.666667 0 0 0 0 0.666667 0 0 0 1.000000 0"/>
        </filter>
    </defs>
    <g fill="none" fill-rule="evenodd">
        <g>
            <g>
                <g>
                    <g>
                        <g>
                            <path d="M0 0H24V24H0z" opacity=".2" transform="translate(-416 -728) translate(54.5 160) translate(25.5 242) translate(0 276) translate(336 50)"/>
                            <g filter="url(#tz66roy7fa)" transform="translate(-416 -728) translate(54.5 160) translate(25.5 242) translate(0 276) translate(336 50)">
                                <g stroke="#222">
                                    <path stroke-width="1.5" d="M13.655 20.25H4.34c-1.18 0-2.157-.909-2.243-2.085L1.087 4.5h15.788l-.976 13.66c-.084 1.178-1.064 2.09-2.244 2.09z" transform="translate(3 2)"/>
                                    <path stroke-linecap="round" stroke-width="1.3" d="M9 9L9 15.75" transform="translate(3 2)"/>
                                    <path stroke-width="1.5" d="M0 4.5L18 4.5M14.625 4.5l-1.14-3.04C13.154.581 12.316 0 11.377 0H6.622c-.938 0-1.778.582-2.107 1.46L3.375 4.5" transform="translate(3 2)"/>
                                    <path stroke-linecap="round" stroke-width="1.3" d="M12.857 9L12.375 15.75M5.143 9L5.625 15.75" transform="translate(3 2)"/>
                                </g>
                            </g>
                        </g>
                    </g>
                </g>
            </g>
        </g>
    </g>
</svg>
