<svg xmlns="http://www.w3.org/2000/svg" width="24" height="24" viewBox="0 0 24 24">
    <g fill="none" fill-rule="evenodd">
        <g stroke="#222" stroke-width="1.5">
            <g>
                <g>
                    <g>
                        <g>
                            <g>
                                <g transform="translate(-56.000000, -1568.000000) translate(16.000000, 112.000000) translate(0.000000, 1294.000000) translate(0.000000, 46.000000) translate(24.000000, 104.000000) translate(16.000000, 12.000000) translate(2.000000, 2.500000)">
                                    <rect width="18.5" height="15.5" x=".75" y="2.25" fill="#FFF" rx="2"/>
                                    <path fill="#FC0" d="M17 2.25c.621 0 1.184.252 1.591.659.407.407.659.97.659 1.591h0v2.25H.75V3.5c0-.345.14-.658.366-.884.226-.226.539-.366.884-.366h0z"/>
                                    <path stroke-linecap="round" stroke-linejoin="round" d="M5.5 0L5.5 4M14.5 0L14.5 4"/>
                                </g>
                            </g>
                        </g>
                    </g>
                </g>
            </g>
        </g>
    </g>
</svg>
