<svg xmlns="http://www.w3.org/2000/svg" width="40" height="40" viewBox="0 0 40 40">
    <g fill="none" fill-rule="evenodd">
        <g>
            <g>
                <g>
                    <g>
                        <g>
                            <g transform="translate(-16.000000, -1151.000000) translate(0.000000, 112.000000) translate(0.000000, 128.000000) translate(0.000000, 293.000000) translate(0.000000, 608.000000) translate(16.000000, 10.000000)">
                                <circle cx="20" cy="20" r="20" fill="#CCC"/>
                                <g>
                                    <path stroke="#FFF" stroke-width="1.5" d="M12.5.75c3.245 0 6.182 1.315 8.309 3.442 2.126 2.126 3.441 5.063 3.441 8.308s-1.315 6.182-3.441 8.308c-2.127 2.127-5.064 3.442-8.309 3.442-3.245 0-6.182-1.315-8.309-3.441C2.065 18.682.75 15.745.75 12.5c0-3.245 1.315-6.182 3.441-8.309C6.318 2.065 9.255.75 12.5.75z" transform="translate(7.500000, 7.500000)"/>
                                    <g fill="#FFF">
                                        <path d="M1.25 0C1.94 0 2.5.56 2.5 1.25S1.94 2.5 1.25 2.5 0 1.94 0 1.25.56 0 1.25 0M5.75 0C6.44 0 7 .56 7 1.25S6.44 2.5 5.75 2.5 4.5 1.94 4.5 1.25 5.06 0 5.75 0M10.295 0c.69 0 1.25.56 1.25 1.25s-.56 1.25-1.25 1.25-1.25-.56-1.25-1.25S9.605 0 10.295 0" transform="translate(7.500000, 7.500000) translate(6.875000, 11.375000)"/>
                                    </g>
                                </g>
                            </g>
                        </g>
                    </g>
                </g>
            </g>
        </g>
    </g>
</svg>
