<svg xmlns="http://www.w3.org/2000/svg" width="40" height="40" viewBox="0 0 40 40">
    <g fill="none" fill-rule="evenodd">
        <g>
            <g>
                <g>
                    <g>
                        <path fill="#FEE500" d="M20 40C9 40 0 31 0 20S9 0 20 0s20 9 20 20-9 20-20 20" transform="translate(-136.000000, -695.000000) translate(0.000000, 104.000000) translate(0.000000, 509.000000) translate(136.000000, 82.000000)"/>
                        <g fill="#FFF">
                            <path d="M9.524 0C4.264 0 0 3.176 0 7.094c0 2.436 1.65 4.585 4.16 5.862l-1.056 3.722c-.094.33.297.591.596.4l4.632-2.947c.39.036.788.057 1.192.057 5.26 0 9.524-3.176 9.524-7.094S14.784 0 9.524 0" transform="translate(-136.000000, -695.000000) translate(0.000000, 104.000000) translate(0.000000, 509.000000) translate(136.000000, 82.000000) translate(10.476190, 11.428571)"/>
                        </g>
                    </g>
                </g>
            </g>
        </g>
    </g>
</svg>
