<svg xmlns="http://www.w3.org/2000/svg" width="32" height="32" viewBox="0 0 32 32">
    <g fill="none" fill-rule="evenodd">
        <g>
            <g>
                <g>
                    <g>
                        <g>
                            <g>
                                <path stroke="#050101" stroke-width="1.3" d="M13.143 7.631L13.143 14.492M17.293 11.771L17.293 14.515M8.993 10.392L8.993 14.508" transform="translate(-264 -886) translate(54.5 160) translate(0 672) translate(25.5 54) translate(184) translate(2.857 3.857)"/>
                                <path stroke="#050101" stroke-width="1.5" d="M13.143 17.739L13.155 21.856M15.2 24.222c.004 1.137-.915 2.06-2.052 2.063-1.136.004-2.06-.915-2.063-2.051-.003-1.137.916-2.061 2.053-2.064h0c1.137-.004 2.06.915 2.063 2.05v.002zM24.913 4.189v13.72H4.836c-1.834.075-3.382-1.348-3.462-3.18V4.189h23.54z" transform="translate(-264 -886) translate(54.5 160) translate(0 672) translate(25.5 54) translate(184) translate(2.857 3.857)"/>
                                <path fill="#FC0" d="M0 0h22.827c1.902-.008 3.45 1.527 3.459 3.43v.686H0V0z" transform="translate(-264 -886) translate(54.5 160) translate(0 672) translate(25.5 54) translate(184) translate(2.857 3.857)"/>
                                <path stroke="#050101" stroke-width="1.5" d="M0 0h22.827c1.902-.008 3.45 1.527 3.459 3.43h0v.686H0V0z" transform="translate(-264 -886) translate(54.5 160) translate(0 672) translate(25.5 54) translate(184) translate(2.857 3.857)"/>
                            </g>
                        </g>
                    </g>
                </g>
            </g>
        </g>
    </g>
</svg>
