<svg xmlns="http://www.w3.org/2000/svg" width="49" height="48" viewBox="0 0 49 48">
    <g fill="none" fill-rule="evenodd">
        <g>
            <g>
                <g>
                    <g>
                        <path d="M0 0H48V48H0z" transform="translate(-75 -202) translate(16 112) translate(0 62) translate(59.5 28)"/>
                        <g transform="translate(-75 -202) translate(16 112) translate(0 62) translate(59.5 28) translate(9 5)">
                            <rect width="28.5" height="36.5" x=".75" y=".75" fill="#FC0" stroke="#222" stroke-width="1.5" rx="4"/>
                            <path stroke="#1D1D1B" stroke-linecap="round" stroke-linejoin="round" stroke-width="1.3" d="M7.792 28.765L22.539 28.765M7.792 23.508L22.539 23.508M7.792 18.25L22.539 18.25M7.792 12.992L13.166 12.992"/>
                        </g>
                        <g>
                            <path fill="#FFF" d="M16.441 8.22c0 4.54-3.68 8.22-8.221 8.22C3.68 16.44 0 12.76 0 8.22 0 3.68 3.68 0 8.22 0c4.54 0 8.221 3.68 8.221 8.22" transform="translate(-75 -202) translate(16 112) translate(0 62) translate(59.5 28) translate(26.559 2.6)"/>
                            <path stroke="#1D1D1B" stroke-linecap="round" stroke-linejoin="round" stroke-width="1.5" d="M16.441 8.22c0 4.54-3.68 8.22-8.221 8.22C3.68 16.44 0 12.76 0 8.22 0 3.68 3.68 0 8.22 0c4.54 0 8.221 3.68 8.221 8.22z" transform="translate(-75 -202) translate(16 112) translate(0 62) translate(59.5 28) translate(26.559 2.6)"/>
                            <path fill="#FFF" d="M4.133 7.914L7.062 10.844 12.307 5.597" transform="translate(-75 -202) translate(16 112) translate(0 62) translate(59.5 28) translate(26.559 2.6)"/>
                            <path stroke="#1D1D1B" stroke-width="1.3" d="M4.133 7.914L7.062 10.844 12.307 5.597" transform="translate(-75 -202) translate(16 112) translate(0 62) translate(59.5 28) translate(26.559 2.6)"/>
                        </g>
                    </g>
                </g>
            </g>
        </g>
    </g>
</svg>
