<svg xmlns="http://www.w3.org/2000/svg" width="40" height="40" viewBox="0 0 40 40">
    <g fill="none" fill-rule="evenodd">
        <g>
            <g>
                <g>
                    <g>
                        <g fill="#9280FF">
                            <path d="M40 20c0 11.046-8.955 20-20 20C8.954 40 0 31.046 0 20S8.954 0 20 0c11.045 0 20 8.954 20 20" transform="translate(-16.000000, -627.000000) translate(0.000000, 439.000000) translate(0.000000, 168.000000) translate(16.000000, 20.000000)"/>
                        </g>
                        <g>
                            <g>
                                <path stroke="#FFF" stroke-width="1.3" d="M21.203 7.042l-.257-1.671c-.137-.89-.868-1.544-1.724-1.544h-.313L17.863 1.14C17.593.45 16.955 0 16.246 0H8.077c-.626 0-1.204.352-1.515.923L4.94 3.896l-3.515.692C.6 4.75 0 5.51 0 6.393V9.66h22" transform="translate(-16.000000, -627.000000) translate(0.000000, 439.000000) translate(0.000000, 168.000000) translate(16.000000, 20.000000) translate(9.000000, 6.000000) translate(0.000000, 13.000000)"/>
                                <path fill="#FEFEFE" d="M8.198 1.99l-.954 2.303h4.293V1.61h-2.82c-.221 0-.423.147-.519.38M12.61 1.61v2.683h4.292l-.735-2.243c-.086-.264-.313-.44-.567-.44h-2.99z" transform="translate(-16.000000, -627.000000) translate(0.000000, 439.000000) translate(0.000000, 168.000000) translate(16.000000, 20.000000) translate(9.000000, 6.000000) translate(0.000000, 13.000000)"/>
                                <path fill="#9280FF" d="M14.756 9.658c0-1.185.961-2.146 2.146-2.146 1.186 0 2.147.96 2.147 2.146s-.96 2.147-2.147 2.147c-1.185 0-2.146-.961-2.146-2.147M2.416 9.658c0-1.185.962-2.146 2.147-2.146 1.185 0 2.146.96 2.146 2.146s-.96 2.147-2.146 2.147c-1.185 0-2.147-.961-2.147-2.147" transform="translate(-16.000000, -627.000000) translate(0.000000, 439.000000) translate(0.000000, 168.000000) translate(16.000000, 20.000000) translate(9.000000, 6.000000) translate(0.000000, 13.000000)"/>
                                <path stroke="#FFF" stroke-width="1.3" d="M14.756 9.658c0-1.185.961-2.146 2.146-2.146 1.186 0 2.147.96 2.147 2.146s-.96 2.147-2.147 2.147c-1.185 0-2.146-.961-2.146-2.147zM2.416 9.658c0-1.185.962-2.146 2.147-2.146 1.185 0 2.146.96 2.146 2.146s-.96 2.147-2.146 2.147c-1.185 0-2.147-.961-2.147-2.147z" transform="translate(-16.000000, -627.000000) translate(0.000000, 439.000000) translate(0.000000, 168.000000) translate(16.000000, 20.000000) translate(9.000000, 6.000000) translate(0.000000, 13.000000)"/>
                            </g>
                            <g stroke="#FFF" transform="translate(-16.000000, -627.000000) translate(0.000000, 439.000000) translate(0.000000, 168.000000) translate(16.000000, 20.000000) translate(9.000000, 6.000000) translate(6.500000, 0.000000)">
                                <circle cx="5" cy="5" r="4.35" fill="#9280FF" stroke-width="1.3"/>
                                <g stroke-width=".8">
                                    <path stroke-linecap="square" stroke-linejoin="bevel" d="M0.907 0L1.605 2.42 2.423 0.013 3.234 2.42 3.932 0" transform="translate(2.500000, 4.166667)"/>
                                    <path stroke-linejoin="round" d="M1.21.786L0 .786M4.839.786L3.629.786" transform="translate(2.500000, 4.166667)"/>
                                </g>
                            </g>
                        </g>
                    </g>
                </g>
            </g>
        </g>
    </g>
</svg>
