<svg xmlns="http://www.w3.org/2000/svg" width="24" height="24" viewBox="0 0 24 24">
    <g fill="none" fill-rule="evenodd">
        <g>
            <g>
                <g>
                    <path d="M0 0H24V24H0z" transform="translate(-32.000000, -647.000000) translate(16.000000, 631.000000) translate(16.000000, 16.000000)"/>
                    <g>
                        <g fill="#FFF" stroke="#222" stroke-width="1.5">
                            <path d="M7.885 8.75c1.86 0 3.554.732 4.823 1.928 1.28 1.207 2.128 2.885 2.285 4.765.007.69-.077 1.186-.263 1.512h0l-13.228.295c-.206 0-.391-.087-.525-.225-.141-.144-.227-.344-.227-.563h0v-.739c.17-2.004 1.013-3.747 2.287-4.99C4.311 9.491 6.013 8.75 7.885 8.75zM7.75.75c1.035 0 1.973.42 2.652 1.098.678.68 1.098 1.617 1.098 2.652 0 1.036-.42 1.973-1.098 2.652C9.723 7.83 8.786 8.25 7.75 8.25s-1.973-.42-2.652-1.098C4.42 6.473 4 5.536 4 4.5s.42-1.973 1.098-2.652C5.777 1.17 6.714.75 7.75.75z" transform="translate(-32.000000, -647.000000) translate(16.000000, 631.000000) translate(16.000000, 16.000000) translate(1.000000, 2.000000)"/>
                        </g>
                        <g transform="translate(-32.000000, -647.000000) translate(16.000000, 631.000000) translate(16.000000, 16.000000) translate(1.000000, 2.000000) translate(5.000000, 12.000000)">
                            <rect width="15.5" height="6.5" x=".75" y=".75" fill="#FFF" stroke="#222" stroke-width="1.5" rx="2"/>
                            <circle cx="4" cy="4" r="1" fill="#222"/>
                            <circle cx="7" cy="4" r="1" fill="#222"/>
                            <circle cx="10" cy="4" r="1" fill="#222"/>
                            <circle cx="13" cy="4" r="1" fill="#222"/>
                        </g>
                    </g>
                </g>
            </g>
        </g>
    </g>
</svg>
