<svg xmlns="http://www.w3.org/2000/svg" width="40" height="40" viewBox="0 0 40 40">
    <g fill="none" fill-rule="evenodd">
        <g>
            <g>
                <g>
                    <g>
                        <g>
                            <g transform="translate(-16.000000, -695.000000) translate(0.000000, 112.000000) translate(0.000000, 128.000000) translate(0.000000, 293.000000) translate(0.000000, 152.000000) translate(16.000000, 10.000000)">
                                <circle cx="20" cy="20" r="20" fill="#FF9C49"/>
                                <g stroke="#FFF">
                                    <path stroke-width="1.5" d="M10 1.08l6.532 6.763c1.813 1.878 2.718 4.34 2.718 6.801 0 2.462-.905 4.924-2.718 6.802-1.804 1.868-4.167 2.804-6.532 2.804-2.364 0-4.727-.936-6.531-2.804C1.655 19.568.75 17.106.75 14.644c0-2.46.905-4.923 2.719-6.8h0L10 1.08z" transform="translate(10.000000, 7.500000)"/>
                                    <g stroke-linecap="round" stroke-linejoin="round" stroke-width="1.3">
                                        <path d="M0 3.75L7.5 3.75M3.75 0L3.75 7.5" transform="translate(10.000000, 7.500000) translate(6.250000, 10.000000)"/>
                                    </g>
                                </g>
                            </g>
                        </g>
                    </g>
                </g>
            </g>
        </g>
    </g>
</svg>
