<svg xmlns="http://www.w3.org/2000/svg" width="32" height="32" viewBox="0 0 32 32">
    <defs>
        <filter id="0oa2yjapia">
            <feColorMatrix in="SourceGraphic" values="0 0 0 0 0.133333 0 0 0 0 0.133333 0 0 0 0 0.133333 0 0 0 1.000000 0"/>
        </filter>
    </defs>
    <g fill="none" fill-rule="evenodd">
        <g>
            <g>
                <g>
                    <g>
                        <g>
                            <g>
                                <path fill="#FC0" d="M0 17.63C1.227 8.287 5.893 3.616 14 3.616S26.62 8.287 27.543 17.63H0z" transform="translate(-632 -886) translate(54.5 160) translate(0 672) translate(25.5 54) translate(552) translate(2 2)"/>
                                <path stroke="#222" stroke-linecap="square" stroke-linejoin="round" stroke-width="1.5" d="M14.519 17.63v7.407c0 1.628-1.394 2.963-3.112 2.963-1.717 0-3.11-1.335-3.11-2.963M14 0L14 2.5" transform="translate(-632 -886) translate(54.5 160) translate(0 672) translate(25.5 54) translate(552) translate(2 2)"/>
                                <path stroke="#222" stroke-linejoin="round" stroke-width="1.5" d="M26.863 14.044C25.363 7.76 20.013 3.11 13.64 3.11 6.107 3.111 0 9.611 0 17.63h27.543c-.133-.905-.243-1.586-.33-2.043-.064-.34-.18-.854-.35-1.543z" transform="translate(-632 -886) translate(54.5 160) translate(0 672) translate(25.5 54) translate(552) translate(2 2)"/>
                                <g stroke-linecap="round" stroke-linejoin="round" filter="url(#0oa2yjapia)" transform="translate(-632 -886) translate(54.5 160) translate(0 672) translate(25.5 54) translate(552) translate(2 2)">
                                    <g>
                                        <path stroke="#FFF" stroke-width="1.3" d="M1.469 0L3.102 6.016 5.015.043 6.921 6.016 8.567.002M2.001 2.935L0 2.935M10 2.935L7.999 2.935" transform="translate(9 7.976)"/>
                                    </g>
                                </g>
                            </g>
                        </g>
                    </g>
                </g>
            </g>
        </g>
    </g>
</svg>
