<svg xmlns="http://www.w3.org/2000/svg" width="40" height="40" viewBox="0 0 40 40">
    <g fill="none" fill-rule="evenodd">
        <g>
            <g>
                <g>
                    <g transform="translate(-264.000000, -695.000000) translate(0.000000, 104.000000) translate(0.000000, 509.000000) translate(264.000000, 82.000000)">
                        <rect width="40" height="40" fill="#EA4335" rx="20"/>
                        <path fill="#F9F9F9" d="M29.095 20.215c0-.671-.06-1.317-.173-1.937H20v3.664h5.099c-.22 1.184-.888 2.188-1.89 2.86v2.376h3.06c1.792-1.649 2.826-4.078 2.826-6.963z"/>
                        <path fill="#F9F9F9" d="M20 29.474c2.558 0 4.702-.849 6.27-2.296l-3.062-2.377c-.848.569-1.933.905-3.208.905-2.467 0-4.556-1.667-5.301-3.906h-3.165v2.455c1.559 3.096 4.763 5.219 8.466 5.219z"/>
                        <path fill="#F9F9F9" d="M14.699 21.8c-.19-.568-.297-1.176-.297-1.8 0-.624.108-1.232.297-1.8v-2.455h-3.165c-.642 1.28-1.008 2.726-1.008 4.255s.366 2.976 1.008 4.255l3.165-2.455z"/>
                        <path fill="#F9F9F9" d="M20 14.294c1.39 0 2.64.478 3.622 1.417l2.717-2.717c-1.64-1.529-3.785-2.468-6.339-2.468-3.703 0-6.907 2.123-8.466 5.22l3.165 2.454c.745-2.24 2.834-3.906 5.301-3.906z"/>
                    </g>
                </g>
            </g>
        </g>
    </g>
</svg>
