<svg xmlns="http://www.w3.org/2000/svg" width="48" height="48" viewBox="0 0 48 48">
    <g fill="none" fill-rule="evenodd">
        <g>
            <g>
                <g>
                    <g>
                        <path d="M0 0H48V48H0z" transform="translate(-32.000000, -501.000000) translate(16.000000, 112.000000) translate(0.000000, 146.000000) translate(16.000000, 243.000000)"/>
                        <g stroke-width="1.5" transform="translate(-32.000000, -501.000000) translate(16.000000, 112.000000) translate(0.000000, 146.000000) translate(16.000000, 243.000000) translate(3.000000, 6.000000)">
                            <g stroke="#070100">
                                <path d="M0 17c0 1.656 6.044 3 13.501 3C20.956 20 27 18.656 27 17M0 10c0 1.656 6.044 3 13.501 3C20.956 13 27 11.656 27 10M0 3c0 1.656 6.044 3 13.501 3C20.956 6 27 4.656 27 3" transform="translate(13.000300, 0.000000)"/>
                                <path d="M0 24.455C0 26.413 6.044 28 13.501 28 20.956 28 27 26.413 27 24.455V3.544C27 1.587 20.956 0 13.501 0 6.044 0 0 1.587 0 3.544v20.911z" transform="translate(13.000300, 0.000000)"/>
                            </g>
                            <circle cx="13" cy="24" r="12.25" fill="#FC0" stroke="#222"/>
                            <path stroke="#070100" stroke-linejoin="round" d="M8 20c.361 1.53.75 3.063 1.171 4.597.421 1.535.887 3.003 1.394 4.403l2.416-8.548h.02L15.435 29c.225-.628.418-1.25.672-1.994.254-.744.464-1.518.686-2.32.224-.798.442-1.617.643-2.407.202-.8.386-1.558.563-2.28"/>
                            <path stroke="#070100" d="M6 23.5L9 23.5M20 23.5L17 23.5"/>
                        </g>
                    </g>
                </g>
            </g>
        </g>
    </g>
</svg>
