<svg xmlns="http://www.w3.org/2000/svg" width="24" height="24" viewBox="0 0 24 24">
    <g fill="none" fill-rule="evenodd">
        <g>
            <g>
                <g>
                    <g>
                        <g>
                            <g transform="translate(-248 -728) translate(54.5 160) translate(25.5 242) translate(0 276) translate(168 50) translate(4 5)">
                                <path fill="#222" fill-rule="nonzero" d="M15.51 10c.27 0 .49.336.49.75s-.22.75-.49.75H6.588V10h8.922zM3.765 10v1.5H.49c-.27 0-.49-.336-.49-.75S.22 10 .49 10h3.275z"/>
                                <path fill="#222" fill-rule="nonzero" d="M15.51 3c.27 0 .49.336.49.75s-.22.75-.49.75H6.588V3h8.922zM3.765 3v1.5H.49C.22 4.5 0 4.164 0 3.75S.22 3 .49 3h3.275z" transform="rotate(-180 8 3.75)"/>
                                <rect width="2.5" height="5.5" x="9.75" y=".75" stroke="#222" stroke-width="1.5" rx="1.25"/>
                                <rect width="2.5" height="5.5" x="3.75" y="7.75" stroke="#222" stroke-width="1.5" rx="1.25"/>
                            </g>
                        </g>
                    </g>
                </g>
            </g>
        </g>
    </g>
</svg>
