<svg xmlns="http://www.w3.org/2000/svg" width="16" height="16" viewBox="0 0 16 16">
    <defs>
        <filter id="omf4x992ra">
            <feColorMatrix in="SourceGraphic" values="0 0 0 0 0.400000 0 0 0 0 0.400000 0 0 0 0 0.400000 0 0 0 1.000000 0"/>
        </filter>
    </defs>
    <g fill="none" fill-rule="evenodd">
        <g>
            <g>
                <g>
                    <g>
                        <g filter="url(#omf4x992ra)" transform="translate(-764 -260) translate(54.5 160) translate(25.5) translate(0 54) translate(684 46)">
                            <g>
                                <path fill="#000" d="M3.15 9.8L4.55 9.8 4.55 8.4 3.15 8.4zM5.95 9.8L7.35 9.8 7.35 8.4 5.95 8.4zM8.75 9.8L10.15 9.8 10.15 8.4 8.75 8.4z" transform="translate(1.35 1)"/>
                                <g stroke="#222" stroke-width="1.5">
                                    <path d="M0 5.25v-3.5h11.55c.967 0 1.75.783 1.75 1.75v10.15H1.75C.783 13.65 0 12.867 0 11.9V5.25z" transform="translate(1.35 1)"/>
                                    <path stroke-linecap="square" d="M0 5.25L13.3 5.25" transform="translate(1.35 1)"/>
                                    <path d="M3.15 0L3.15 2.5M9.45 0L9.45 2.5" transform="translate(1.35 1)"/>
                                </g>
                            </g>
                        </g>
                    </g>
                </g>
            </g>
        </g>
    </g>
</svg>
