<svg xmlns="http://www.w3.org/2000/svg" width="24" height="24" viewBox="0 0 24 24">
    <g fill="none" fill-rule="evenodd">
        <g>
            <g>
                <g>
                    <g>
                        <path d="M0 0H24V24H0z" transform="translate(-32.000000, -719.000000) translate(0.000000, 487.000000) translate(16.000000, 216.000000) translate(16.000000, 16.000000)"/>
                        <g stroke="#222">
                            <g stroke-width="1.5">
                                <path d="M2.044 12.91l.23-1.61c.08-.555.392-1.051.858-1.363l3.175-2.116M8.499 7.692l3.412 2.274c.436.29.737.742.84 1.255l.321 1.622" transform="translate(-32.000000, -719.000000) translate(0.000000, 487.000000) translate(16.000000, 216.000000) translate(16.000000, 16.000000) translate(2.000000, 4.000000)"/>
                                <path d="M7.105 1.58h.79c1.09 0 1.973.884 1.973 1.974v2.368c0 1.09-.883 1.973-1.973 1.973h-.79c-1.089 0-1.973-.883-1.973-1.973V3.554c0-1.09.884-1.974 1.973-1.974z" transform="translate(-32.000000, -719.000000) translate(0.000000, 487.000000) translate(16.000000, 216.000000) translate(16.000000, 16.000000) translate(2.000000, 4.000000)"/>
                                <path d="M13.155 12.425c-1.03 1.185-2.406 2.02-3.968 2.381-4.036.932-8.062-1.584-8.993-5.62-.932-4.034 1.584-8.06 5.62-8.992 4.035-.932 8.06 1.584 8.992 5.619.336 1.452.231 2.94-.279 4.306" transform="translate(-32.000000, -719.000000) translate(0.000000, 487.000000) translate(16.000000, 216.000000) translate(16.000000, 16.000000) translate(2.000000, 4.000000)"/>
                            </g>
                            <g stroke-linejoin="round" stroke-width="1.3">
                                <path fill="#FFF" stroke-linecap="round" d="M4.916 6.545L3.041 7.481 1.998 8.002 0 9 1.5 4.5 0 0 9 4.505" transform="translate(-32.000000, -719.000000) translate(0.000000, 487.000000) translate(16.000000, 216.000000) translate(16.000000, 16.000000) translate(2.000000, 4.000000) translate(12.000000, 7.000000)"/>
                                <path stroke-linecap="square" d="M8.763 4.5L1.658 4.5" transform="translate(-32.000000, -719.000000) translate(0.000000, 487.000000) translate(16.000000, 216.000000) translate(16.000000, 16.000000) translate(2.000000, 4.000000) translate(12.000000, 7.000000)"/>
                            </g>
                        </g>
                    </g>
                </g>
            </g>
        </g>
    </g>
</svg>
