<svg xmlns="http://www.w3.org/2000/svg" width="16" height="16" viewBox="0 0 16 16">
    <g fill="none" fill-rule="evenodd">
        <g>
            <g>
                <g>
                    <g transform="translate(-157 -166) translate(0 112) translate(16 50) translate(141 4)">
                        <circle cx="8" cy="8" r="7.5" stroke="#AAA"/>
                        <path fill="#AAA" d="M7.928 12.5c-.244 0-.457-.078-.64-.234-.181-.158-.273-.377-.273-.658 0-.25.088-.46.265-.63.176-.17.392-.255.648-.255.252 0 .464.085.636.255.172.17.258.38.258.63 0 .278-.09.495-.27.655-.18.158-.389.237-.624.237M5 5.985c0-.377.122-.758.366-1.145.243-.386.6-.706 1.068-.96.468-.253 1.014-.38 1.638-.38.58 0 1.092.106 1.536.318.444.212.787.5 1.03.865.241.364.362.76.362 1.189 0 .337-.069.632-.207.886-.138.253-.302.472-.492.656-.19.185-.53.495-1.023.93-.136.123-.245.232-.327.325-.082.092-.144.178-.183.256-.04.077-.071.154-.094.231-.021.077-.054.213-.098.407-.076.413-.314.619-.714.619-.209 0-.383-.068-.525-.202-.142-.135-.213-.335-.213-.6 0-.334.052-.622.156-.866.104-.244.242-.458.413-.642.172-.184.405-.403.697-.657.256-.222.441-.39.555-.502.113-.113.21-.238.287-.377.08-.14.118-.29.118-.452 0-.317-.12-.585-.357-.802-.238-.218-.545-.328-.92-.328-.441 0-.765.11-.974.33-.208.22-.384.545-.527.972-.136.448-.394.672-.774.672-.225 0-.413-.079-.568-.235-.153-.156-.23-.326-.23-.508"/>
                    </g>
                </g>
            </g>
        </g>
    </g>
</svg>
