<svg xmlns="http://www.w3.org/2000/svg" width="24" height="24" viewBox="0 0 24 24">
    <g fill="none" fill-rule="evenodd">
        <g>
            <g>
                <g>
                    <g>
                        <g>
                            <path fill-rule="nonzero" stroke="#000" stroke-width="1.5" d="M15.786 5.255c1.018-.05 2.05.264 2.885.941.943.94 1.449 2.04 1.53 3.126.08 1.1-.28 2.178-1.038 3.022h0l-6.528 6.537c-.22.22-.504.342-.794.362-.28.02-.565-.054-.807-.222h0l-6.538-6.51c-.83-.83-1.246-1.919-1.246-3.007 0-1.089.415-2.177 1.246-3.008.803-.803 1.848-1.218 2.9-1.245 1.054-.026 2.115.336 2.95 1.087h0l1.407 1.393 1.235-1.235c.778-.777 1.78-1.191 2.798-1.24z" transform="translate(-500 -728) translate(54.5 160) translate(25.5 242) translate(0 276) translate(420 50)"/>
                        </g>
                    </g>
                </g>
            </g>
        </g>
    </g>
</svg>
