<svg xmlns="http://www.w3.org/2000/svg" width="16" height="16" viewBox="0 0 16 16">
    <g fill="none" fill-rule="evenodd" stroke-linecap="square">
        <g stroke="#AAA" stroke-width="1.5">
            <g>
                <g>
                    <g>
                        <g>
                            <g>
                                <path stroke-linejoin="round" d="M.017 4.05l1.379 1.014c-.03.2-.052.404-.053.613 0 .21.018.413.046.615L0 7.29 1.416 9.75l1.574-.675c.323.255.683.465 1.072.622l.179 1.688 2.858.015.196-1.687c.39-.152.753-.359 1.08-.61l1.566.691 1.442-2.444-1.379-1.014c.03-.2.052-.404.053-.613 0-.21-.018-.414-.046-.615l1.389-.999-1.416-2.46-1.574.676c-.323-.255-.683-.465-1.072-.622L7.159.015 4.301 0l-.196 1.687c-.39.152-.753.358-1.08.61L1.32 1.715.017 4.05z" transform="translate(-536 -260) translate(54.5 160) translate(25.5) translate(0 54) translate(456 46) translate(2.3 2.3) rotate(180 5.7 5.7)"/>
                                <path d="M7.5 5.71c-.005.994-.815 1.795-1.81 1.79-.993-.005-1.795-.815-1.79-1.81.005-.993.815-1.795 1.81-1.79.994.005 1.795.815 1.79 1.81z" transform="translate(-536 -260) translate(54.5 160) translate(25.5) translate(0 54) translate(456 46) translate(2.3 2.3)"/>
                            </g>
                        </g>
                    </g>
                </g>
            </g>
        </g>
    </g>
</svg>
