<?xml version="1.0" encoding="utf-8"?>

<svg version="1.1" xmlns="http://www.w3.org/2000/svg" xmlns:xlink="http://www.w3.org/1999/xlink" x="0px" y="0px" width="32px" height="32px" 
	viewBox="0 0 96 96" style="enable-background:new 0 0 96 96;" xml:space="preserve">
	<style type="text/css">
		.kakao-icon-background { fill:#ffdf00; }
		.kakao-icon-text { fill:#1e1e1e; }
	</style>
	<g id="kakao-icon-group">
		<circle class="kakao-icon-background" cx="48" cy="48" r="48" />
		<g class="kakao-icon-text-group">
			<path class="kakao-icon-text" d="M24.93,54.37c-1.2-0.43-1.95,0.61-2.87,1.16c-1.1,0.66-2.13,1.42-3.19,2.14c-0.27,0.18-0.5,0.45-0.87,0.17
				c-0.35-0.27-0.2-0.6-0.13-0.9c0.32-1.23,0.65-2.45,1-3.68c0.1-0.36,0.07-0.54-0.3-0.78c-2.07-1.4-3.57-3.2-3.79-5.82
				c-0.19-2.28,0.68-4.17,2.29-5.71c2.53-2.42,5.64-3.21,9.06-3c2.9,0.18,5.47,1.17,7.48,3.31c2.97,3.16,2.6,7.72-0.78,10.49
				C30.57,53.59,27.92,54.3,24.93,54.37z" />
			<path class="kakao-icon-text" d="M44.82,40.66c1.81-1.59,3.79-1.9,5.96-1.08c0.99,0.38,1.73,1.1,2.13,2.03c1.28,3.02,1.37,6.07-0.28,8.97
				c-1.1,1.92-2.9,2.84-5.14,2.8c-0.5-0.01-1.02,0.01-1.51-0.1c-0.49-0.11-0.57,0.06-0.56,0.47c0.01,1.27-0.02,2.55,0.01,3.82
				c0.01,0.47-0.08,0.66-0.6,0.63c-0.81-0.05-1.63-0.05-2.44,0c-0.51,0.03-0.62-0.15-0.62-0.63c0.02-5.01,0.02-10.02,0.02-15.02
				c0-0.83,0.02-1.67-0.01-2.5c-0.02-0.39,0.11-0.51,0.48-0.48c0.33,0.03,0.66,0.01,0.99,0.01C44.38,39.58,44.38,39.58,44.82,40.66z
				M45.41,46.53c0,0.97,0,1.93,0,2.9c0.01,1.55-0.06,1.22,1.28,1.25c1.6,0.03,2.61-0.76,3.09-2.31c0.44-1.42,0.39-2.86,0.11-4.29
				c-0.16-0.79-0.56-1.5-1.36-1.8c-0.85-0.32-1.72-0.21-2.58,0.07c-0.41,0.13-0.57,0.37-0.55,0.82
				C45.43,44.28,45.41,45.41,45.41,46.53z" />
			<path class="kakao-icon-text" d="M74.97,49.11c0.29-0.11,0.32-0.32,0.38-0.54c0.87-3.03,1.76-6.06,2.61-9.1c0.11-0.41,0.26-0.48,0.64-0.37
				c0.88,0.27,1.77,0.51,2.65,0.75c0.3,0.08,0.46,0.18,0.33,0.54c-1.61,4.26-3.03,8.59-4.75,12.81c-0.85,2.08-2.05,3.95-3.9,5.33
				c-0.35,0.26-0.55,0.27-0.86-0.06c-0.48-0.51-0.99-0.99-1.53-1.43c-0.33-0.27-0.26-0.39,0.02-0.64c0.94-0.83,1.7-1.8,2.38-2.86
				c0.21-0.32,0.22-0.6,0.09-0.97c-1.49-3.98-2.94-7.97-4.43-11.95c-0.2-0.54-0.04-0.69,0.45-0.8c0.79-0.18,1.59-0.36,2.35-0.63
				c0.52-0.19,0.71-0.1,0.86,0.44C73.13,42.8,74.05,45.93,74.97,49.11z" />
			<path class="kakao-icon-text" d="M66.88,48c0,1.73-0.01,3.14,0.01,4.55c0.01,0.4-0.11,0.55-0.52,0.52c-0.39-0.03-0.79-0.04-1.19,0
				c-0.64,0.07-1.09-0.05-1.19-0.81c-0.07-0.48-0.33-0.14-0.5-0.04c-1.33,0.86-2.73,1.32-4.35,1.13c-1.66-0.19-2.96-1.24-3.25-2.92
				c-0.28-1.64-0.24-3.26,1.21-4.45c0.84-0.69,1.83-1.04,2.89-1.11c0.96-0.07,1.93-0.08,2.9-0.05c0.49,0.01,0.58-0.16,0.56-0.6
				c-0.07-1.2-0.8-1.93-2.01-1.98c-1.23-0.05-2.4,0.19-3.51,0.7c-0.39,0.18-0.55,0.08-0.68-0.28c-0.21-0.55-0.4-1.12-0.66-1.65
				c-0.16-0.34-0.03-0.5,0.22-0.63c2.3-1.17,4.68-1.72,7.21-0.81c1.6,0.57,2.42,1.81,2.7,3.42C67.04,44.77,66.82,46.55,66.88,48z
				M63.47,48.43c0-1.33,0-1.33-1.33-1.33c-0.75,0-1.48,0.06-2.16,0.41c-0.71,0.37-1.08,1.31-0.86,2.07
				c0.22,0.74,0.76,1.07,1.69,1.01c0.5-0.04,0.98-0.18,1.45-0.38C63.47,49.72,63.47,49.72,63.47,48.43z" />
		</g>
	</g>
</svg>
