<?xml version="1.0" encoding="utf-8"?>

<svg version="1.1" xmlns="http://www.w3.org/2000/svg" xmlns:xlink="http://www.w3.org/1999/xlink" x="0px" y="0px" width="32px" height="32px"
	viewBox="0 0 32 32" style="enable-background:new 0 0 32 32;" xml:space="preserve">
	<style type="text/css">
		.toss-icon-background { fill:#e8efff; }
		.toss-icon-text { fill:#0050FF; }
	</style>
	<g id="toss-icon-group">
		<circle class="toss-icon-background" cx="16" cy="16" r="16" />
		<g class="toss-icon-text-group">
			<path class="toss-icon-text" d="M28.81,18.23c-0.15,0.29-0.27,0.6-0.55,0.81c-0.32,0.24-0.67,0.4-1.07,0.43c-0.6,0.04-1.2,0.03-1.75-0.27
				c-0.32-0.17-0.56-0.42-0.75-0.72c-0.06-0.09-0.06-0.14,0.06-0.19c0.29-0.1,0.57-0.22,0.85-0.33c0.13-0.05,0.2-0.01,0.27,0.1
				c0.29,0.42,0.91,0.58,1.39,0.38c0.2-0.08,0.32-0.23,0.31-0.44c-0.01-0.2-0.17-0.3-0.35-0.35c-0.4-0.1-0.81-0.19-1.21-0.29
				c-0.22-0.05-0.43-0.14-0.62-0.25c-0.68-0.41-0.77-1.35-0.19-1.92c0.38-0.37,0.86-0.53,1.37-0.55c0.75-0.03,1.43,0.14,1.95,0.73
				c0.07,0.08,0.15,0.14,0.18,0.26c-0.31,0.13-0.62,0.26-0.93,0.38c-0.11,0.05-0.17-0.02-0.24-0.09c-0.32-0.35-0.72-0.41-1.16-0.3
				c-0.18,0.05-0.32,0.16-0.34,0.36c-0.02,0.21,0.13,0.29,0.29,0.36c0.33,0.14,0.68,0.17,1.02,0.25c0.34,0.09,0.67,0.19,0.97,0.4
				c0.24,0.17,0.34,0.42,0.48,0.66C28.81,17.85,28.81,18.04,28.81,18.23z" />
			<path class="toss-icon-text" d="M13.34,13.07c-0.04,0.52-0.01,1.05-0.02,1.58c0,0.13,0.09,0.13,0.18,0.13c0.29,0,0.58,0.01,0.86,0
				c0.13,0,0.19,0.02,0.18,0.16c-0.01,0.24-0.01,0.48,0,0.72c0,0.11-0.03,0.15-0.15,0.15c-0.29-0.01-0.58,0-0.86-0.01
				c-0.14,0-0.22,0.02-0.21,0.19c0.01,0.59,0,1.18,0.01,1.77c0.01,0.56,0.34,0.76,0.85,0.53c0.09-0.04,0.13-0.03,0.17,0.04
				c0.14,0.23,0.27,0.47,0.4,0.7c0.03,0.05,0.07,0.1-0.01,0.16c-0.53,0.41-1.87,0.46-2.3-0.25c-0.21-0.34-0.28-0.71-0.28-1.09
				c-0.01-0.6-0.01-1.19,0-1.79c0.01-0.21-0.05-0.29-0.27-0.26c-0.13,0.02-0.27,0-0.41,0.01c-0.15,0.01-0.22-0.02-0.21-0.19
				c0.02-0.23,0.01-0.46,0-0.69c0-0.12,0.03-0.15,0.15-0.15c0.18,0.01,0.37,0,0.55,0c0.14,0,0.18-0.05,0.18-0.19
				c-0.01-0.15,0.02-0.31-0.01-0.45c-0.05-0.31,0.1-0.46,0.35-0.59c0.25-0.12,0.48-0.28,0.73-0.42c0.03-0.02,0.06-0.03,0.03-0.07
				C13.28,13.07,13.31,13.07,13.34,13.07z" />
			<path class="toss-icon-text" d="M2.05,18.71c0.18-0.66,0.33-1.32,0.6-1.94c0.4-0.94,0.88-1.81,1.68-2.48c1.93-1.61,4.81-0.7,5.34,1.72
				c0.38,1.72-0.71,3.4-2.44,3.82c-1.38,0.34-2.88-0.41-3.5-1.54c-0.11-0.19-0.2-0.26-0.42-0.16c-0.38,0.15-0.75,0.31-1.1,0.53
				C2.17,18.68,2.13,18.71,2.05,18.71z" />
			<path class="toss-icon-text" d="M17.41,14.68c1.39-0.01,2.47,1.04,2.47,2.4c0.01,1.34-1.06,2.39-2.41,2.42c-1.4,0.03-2.5-1.03-2.51-2.39
				C14.96,15.74,16.02,14.69,17.41,14.68z M18.71,17.07c0-0.71-0.58-1.3-1.26-1.3c-0.71,0-1.31,0.6-1.3,1.31
				c0.01,0.72,0.59,1.3,1.29,1.29C18.16,18.36,18.71,17.79,18.71,17.07z" />
			<path class="toss-icon-text" d="M22.27,19.49c-0.59,0.01-1.14-0.11-1.61-0.49c-0.18-0.14-0.31-0.32-0.43-0.5c-0.07-0.09-0.07-0.16,0.06-0.21
				c0.28-0.1,0.57-0.22,0.85-0.33c0.11-0.04,0.17-0.02,0.24,0.08c0.3,0.44,0.75,0.53,1.24,0.47c0.07-0.01,0.14-0.04,0.2-0.07
				c0.18-0.09,0.3-0.22,0.28-0.43c-0.02-0.21-0.19-0.3-0.35-0.34c-0.41-0.11-0.82-0.2-1.23-0.29c-0.22-0.05-0.42-0.15-0.61-0.26
				c-0.73-0.42-0.64-1.39-0.24-1.82c0.44-0.47,0.99-0.63,1.6-0.63c0.72,0,1.37,0.2,1.85,0.78c0.12,0.15,0.14,0.22-0.06,0.29
				c-0.23,0.08-0.46,0.18-0.69,0.28c-0.12,0.05-0.2,0.04-0.29-0.06c-0.33-0.37-0.74-0.43-1.2-0.3c-0.17,0.05-0.29,0.17-0.31,0.36
				c-0.02,0.19,0.11,0.26,0.26,0.33c0.34,0.15,0.71,0.18,1.06,0.27c0.3,0.08,0.6,0.16,0.86,0.33c0.72,0.46,0.76,1.46,0.08,2.06
				C23.43,19.35,23.01,19.48,22.27,19.49z" />
		</g>
	</g>
</svg>
