<svg xmlns="http://www.w3.org/2000/svg" width="24" height="24" viewBox="0 0 24 24">
    <g fill="none" fill-rule="evenodd">
        <g>
            <g>
                <g>
                    <g>
                        <path d="M0 0H24V24H0z" transform="translate(-32.000000, -647.000000) translate(0.000000, 487.000000) translate(16.000000, 144.000000) translate(16.000000, 16.000000)"/>
                        <g>
                            <g>
                                <path stroke="#222" stroke-linecap="square" stroke-width="1.5" d="M16.575 5.439v.759H2.223C1.23 6.198.425 5.366.425 4.34v-.275L8.484 0l6.895 3.464c.732.368 1.196 1.135 1.196 1.975z" transform="translate(-32.000000, -647.000000) translate(0.000000, 487.000000) translate(16.000000, 144.000000) translate(16.000000, 16.000000) translate(2.000000, 2.000000)"/>
                                <path stroke="#222" stroke-width="1.5" d="M17 16.561L0 16.561M2.516 6.295L2.516 16.834M5.066 16.308L5.066 5.769M12.291 6.461L12.291 17M14.841 14.365L14.841 6.461" transform="translate(-32.000000, -647.000000) translate(0.000000, 487.000000) translate(16.000000, 144.000000) translate(16.000000, 16.000000) translate(2.000000, 2.000000)"/>
                                <path fill="#222" d="M8.5 4.265c-.47 0-.85-.393-.85-.878s.38-.878.85-.878.85.393.85.878-.38.878-.85.878" transform="translate(-32.000000, -647.000000) translate(0.000000, 487.000000) translate(16.000000, 144.000000) translate(16.000000, 16.000000) translate(2.000000, 2.000000)"/>
                            </g>
                            <g stroke="#222" stroke-width="1.5">
                                <path fill="#FFF" d="M7.142 8.143C6.38 8.697 5.462 9 4.5 9 2.015 9 0 6.985 0 4.5S2.015 0 4.5 0 9 2.015 9 4.5c0 .894-.261 1.75-.744 2.48" transform="translate(-32.000000, -647.000000) translate(0.000000, 487.000000) translate(16.000000, 144.000000) translate(16.000000, 16.000000) translate(2.000000, 2.000000) translate(11.000000, 12.000000)"/>
                                <path d="M6.869 4.5L2.132 4.5" transform="translate(-32.000000, -647.000000) translate(0.000000, 487.000000) translate(16.000000, 144.000000) translate(16.000000, 16.000000) translate(2.000000, 2.000000) translate(11.000000, 12.000000)"/>
                            </g>
                        </g>
                    </g>
                </g>
            </g>
        </g>
    </g>
</svg>
