<svg xmlns="http://www.w3.org/2000/svg" width="24" height="24" viewBox="0 0 24 24">
    <g fill="none" fill-rule="evenodd">
        <g>
            <g>
                <g>
                    <g transform="translate(-157.000000, -162.000000) translate(16.000000, 162.000000) translate(141.000000, 0.000000) translate(3.000000, 3.000000)">
                        <circle cx="9" cy="9" r="8.5" stroke="#AAA"/>
                        <path fill="#AAA" d="M8.914 14.214c-.29 0-.544-.093-.76-.279-.218-.187-.326-.448-.326-.782 0-.297.105-.547.314-.75.21-.203.467-.305.772-.305.3 0 .552.102.757.305.205.203.307.453.307.75 0 .33-.107.589-.322.779-.213.188-.462.282-.742.282M5.43 6.458c0-.448.145-.902.435-1.363.29-.46.714-.84 1.271-1.142.557-.302 1.207-.453 1.95-.453.691 0 1.3.126 1.83.378.528.252.936.597 1.225 1.03.288.434.431.906.431 1.416 0 .4-.081.752-.246 1.054-.164.302-.36.563-.586.782-.226.22-.632.589-1.218 1.107-.161.146-.292.276-.389.387-.098.11-.17.211-.218.304-.048.092-.084.184-.111.275-.026.092-.065.254-.117.485-.09.491-.375.736-.85.736-.249 0-.456-.08-.625-.24-.17-.16-.254-.398-.254-.715 0-.396.062-.739.185-1.03.125-.29.29-.545.493-.765.205-.218.481-.48.829-.781.305-.265.525-.464.66-.598.136-.134.25-.284.343-.45.094-.165.14-.343.14-.537 0-.378-.142-.697-.425-.955-.283-.26-.649-.39-1.096-.39-.524 0-.91.131-1.158.392-.248.262-.457.649-.628 1.157-.162.534-.47.801-.922.801-.267 0-.491-.094-.675-.28-.183-.186-.274-.388-.274-.605"/>
                    </g>
                </g>
            </g>
        </g>
    </g>
</svg>
