<svg xmlns="http://www.w3.org/2000/svg" width="24" height="24" viewBox="0 0 24 24">
    <g fill="none" fill-rule="evenodd">
        <g>
            <g>
                <g>
                    <g>
                        <g>
                            <g transform="translate(-332 -506) translate(54.5 160) translate(25.5 242) translate(0 54) translate(0 50) translate(252)">
                                <g stroke="#222">
                                    <path stroke-width="1.5" d="M12 16H0v-1.98l2.125-2.979V6c0-3.314 2.854-6 6.375-6 3.52 0 6.375 2.686 6.375 6v5.082L17 14.052V16h-5z" transform="translate(3.5 2.5)"/>
                                    <path stroke-width="1.3" d="M11.073 15.85c.233.983-.08 1.905-.7 2.524-.479.48-1.141.776-1.873.776s-1.394-.297-1.874-.776c-.618-.619-.932-1.541-.699-2.524h0z" transform="translate(3.5 2.5)"/>
                                </g>
                                <circle cx="17.5" cy="5.5" r="2.5" fill="#FC0"/>
                            </g>
                        </g>
                    </g>
                </g>
            </g>
        </g>
    </g>
</svg>
