<svg xmlns="http://www.w3.org/2000/svg" width="48" height="48" viewBox="0 0 48 48">
    <g fill="none" fill-rule="evenodd">
        <g>
            <g>
                <g>
                    <g>
                        <path d="M0 0H48V48H0z" transform="translate(-32.000000, -258.000000) translate(16.000000, 112.000000) translate(0.000000, 146.000000) translate(16.000000, 0.000000)"/>
                        <g>
                            <path stroke="#070100" stroke-width="1.5" d="M31.762 9.072L36.521 7.541M4.76 9.072L0 7.541" transform="translate(-32.000000, -258.000000) translate(16.000000, 112.000000) translate(0.000000, 146.000000) translate(16.000000, 0.000000) translate(5.000000, 9.000000)"/>
                            <path fill="#FC0" d="M36.38 24h-36V12.443C.38 10.541 1.949 9 3.884 9h28.995c1.934 0 3.503 1.541 3.503 3.443V24z" transform="translate(-32.000000, -258.000000) translate(16.000000, 112.000000) translate(0.000000, 146.000000) translate(16.000000, 0.000000) translate(5.000000, 9.000000)"/>
                            <path fill="#FEFEFE" d="M26.38 24h-15l1-3c.352-1.056 1.562-2 3-2h7c1.44 0 2.65.944 3 2l1 3z" transform="translate(-32.000000, -258.000000) translate(16.000000, 112.000000) translate(0.000000, 146.000000) translate(16.000000, 0.000000) translate(5.000000, 9.000000)"/>
                            <path stroke="#070100" stroke-width="1.5" d="M36.521 24H.381V12c0-1.459 1.567-3 3-3h29c2.41 0 3.979 1.541 4 3v11l.14 1zM31.88 9h-27l3-7c.304-1.153 1.556-2 3-2h15c1.448 0 2.7.847 3 2l3 7z" transform="translate(-32.000000, -258.000000) translate(16.000000, 112.000000) translate(0.000000, 146.000000) translate(16.000000, 0.000000) translate(5.000000, 9.000000)"/>
                            <path fill="#070100" d="M10.38 16c0-1.105-.894-2-2-2-1.102 0-2 .895-2 2 0 1.104.898 2 2 2 1.106 0 2-.896 2-2M31.38 16c0-1.105-.894-2-2-2-1.102 0-2 .895-2 2 0 1.104.898 2 2 2 1.106 0 2-.896 2-2" transform="translate(-32.000000, -258.000000) translate(16.000000, 112.000000) translate(0.000000, 146.000000) translate(16.000000, 0.000000) translate(5.000000, 9.000000)"/>
                            <path stroke="#070100" stroke-width="1.5" d="M5.38 24v5c0 .604-.384 1-1 1h-3c-.614 0-1-.396-1-1v-5M31.38 24v5c0 .604.387 1 1 1h3c.615 0 1-.396 1-1v-5M19.38 9c0-2.21 1.792-4 4-4 2.21 0 4 1.79 4 4" transform="translate(-32.000000, -258.000000) translate(16.000000, 112.000000) translate(0.000000, 146.000000) translate(16.000000, 0.000000) translate(5.000000, 9.000000)"/>
                        </g>
                    </g>
                </g>
            </g>
        </g>
    </g>
</svg>
