<svg xmlns="http://www.w3.org/2000/svg" width="16" height="16" viewBox="0 0 16 16">
    <g fill="none" fill-rule="evenodd">
        <g>
            <g>
                <g>
                    <g>
                        <g>
                            <path fill="#FFA5A5" fill-opacity="0" d="M0 0H16V16H0z" transform="translate(-275.000000, -140.000000) translate(16.000000, 112.000000) translate(24.000000, 24.000000) translate(235.000000, 4.000000) translate(0.000000, -0.000000)"/>
                            <path stroke="#666" stroke-linecap="square" d="M9.143 4H6C3.79 4 2 5.79 2 8c0 1.275.598 2.407 1.527 3.14M6.857 12H10c2.209 0 4-1.791 4-4 0-1.275-.598-2.407-1.527-3.14" transform="translate(-275.000000, -140.000000) translate(16.000000, 112.000000) translate(24.000000, 24.000000) translate(235.000000, 4.000000) translate(0.000000, -0.000000)"/>
                            <path stroke="#666" stroke-linecap="square" d="M7.667 10.333L6 12 7.667 13.667M8.333 5.667L10 4 8.333 2.333" transform="translate(-275.000000, -140.000000) translate(16.000000, 112.000000) translate(24.000000, 24.000000) translate(235.000000, 4.000000) translate(0.000000, -0.000000)"/>
                        </g>
                    </g>
                </g>
            </g>
        </g>
    </g>
</svg>
