<svg xmlns="http://www.w3.org/2000/svg" width="56" height="56" viewBox="0 0 56 56">
    <g fill="none" fill-rule="evenodd">
        <g>
            <g>
                <g transform="translate(-303.000000, -1148.000000) translate(0.000000, 112.000000) translate(303.000000, 1036.000000)">
                    <circle cx="28" cy="28" r="28" fill="#FFF"/>
                    <g>
                        <path fill="#FFF" d="M21.25 6.25v1.04H3.188c-1.128.045-2.079-.815-2.124-1.92-.002-.055-.002-.108 0-.162L10.626 0l9.562 4.166c.915.436 1.062 1.087 1.062 2.083" transform="translate(16.975000, 17.714286)"/>
                        <path stroke="#050101" stroke-linecap="square" stroke-width="1.5" d="M21.25 6.25v1.04H3.188c-1.128.045-2.079-.815-2.124-1.92-.002-.055-.002-.108 0-.162L10.626 0l9.562 4.166c.915.436 1.062 1.087 1.062 2.083z" transform="translate(16.975000, 17.714286)"/>
                        <path stroke="#050101" stroke-linecap="round" stroke-width="1.5" d="M22 19.79L0 19.79" transform="translate(16.975000, 17.714286)"/>
                        <path stroke="#050101" stroke-width="1.5" d="M3.187 7.289L3.187 19.787M6.374 19.79L6.374 7.289M15.937 7.289L15.937 19.787M19.122 7.347L19.122 19.845" transform="translate(16.975000, 17.714286)"/>
                        <path fill="#212222" d="M11.157 4.687c-.586 0-1.062-.466-1.062-1.041 0-.576.475-1.042 1.062-1.042.587 0 1.062.466 1.062 1.042 0 .575-.475 1.041-1.062 1.041" transform="translate(16.975000, 17.714286)"/>
                    </g>
                </g>
            </g>
        </g>
    </g>
</svg>
