<svg xmlns="http://www.w3.org/2000/svg" xmlns:xlink="http://www.w3.org/1999/xlink" width="160" height="160" viewBox="0 0 160 160">
    <defs>
        <filter id="g7kt0up72a" width="200%" height="200%" x="-50%" y="-35.7%" filterUnits="objectBoundingBox">
            <feOffset dy="4" in="SourceAlpha" result="shadowOffsetOuter1"/>
            <feGaussianBlur in="shadowOffsetOuter1" result="shadowBlurOuter1" stdDeviation="4"/>
            <feColorMatrix in="shadowBlurOuter1" values="0 0 0 0 0 0 0 0 0 0 0 0 0 0 0 0 0 0 0.1 0"/>
        </filter>
        <filter id="5xvjoa9rec" width="227.3%" height="227.3%" x="-63.6%" y="-45.5%" filterUnits="objectBoundingBox">
            <feOffset dy="4" in="SourceAlpha" result="shadowOffsetOuter1"/>
            <feGaussianBlur in="shadowOffsetOuter1" result="shadowBlurOuter1" stdDeviation="4"/>
            <feColorMatrix in="shadowBlurOuter1" values="0 0 0 0 0 0 0 0 0 0 0 0 0 0 0 0 0 0 0.1 0"/>
        </filter>
        <filter id="0buxkifu1e">
            <feColorMatrix in="SourceGraphic" values="0 0 0 0 1.000000 0 0 0 0 1.000000 0 0 0 0 1.000000 0 0 0 1.000000 0"/>
        </filter>
        <filter id="d7577btj0f" width="170%" height="170%" x="-35%" y="-25%" filterUnits="objectBoundingBox">
            <feOffset dy="4" in="SourceAlpha" result="shadowOffsetOuter1"/>
            <feGaussianBlur in="shadowOffsetOuter1" result="shadowBlurOuter1" stdDeviation="4"/>
            <feColorMatrix in="shadowBlurOuter1" values="0 0 0 0 0 0 0 0 0 0 0 0 0 0 0 0 0 0 0.1 0"/>
        </filter>
        <path id="dy6njlvtsb" d="M28 14c0 7.732-6.266 14-14.001 14C6.269 28 0 21.732 0 14S6.268 0 13.999 0C21.734 0 28 6.268 28 14z"/>
        <path id="0oqltm6i2d" d="M22 11c0 6.076-4.926 11-11 11S0 17.076 0 11C0 4.926 4.926 0 11 0s11 4.926 11 11z"/>
        <path id="k2a7y2doxg" d="M40 20c0 11.045-8.955 20-20 20S0 31.045 0 20 8.955 0 20 0s20 8.955 20 20z"/>
    </defs>
    <g fill="none" fill-rule="evenodd">
        <g>
            <g>
                <g>
                    <path d="M0 0H160V160H0z" transform="translate(-108 -224) translate(16 224) translate(92)"/>
                    <g>
                        <g>
                            <path fill="#FBFBFB" d="M105.506 14.271v-7.31c0-3.089 1.94-5.715 4.724-6.732H57.327C44.531.229 45.812 14.6 45.812 14.6V48.46h50.323c5.176 0 9.37-4.225 9.37-9.436V23.295v.7V14.6s-.002-.12 0-.329" transform="translate(-108 -224) translate(16 224) translate(92) translate(9 12) translate(24 48)"/>
                            <path fill="#F0F2F5" d="M91.918 40.071H53.447V14.406c0-3.583 2.884-6.488 6.443-6.488h37.98v26.158c0 3.311-2.665 5.995-5.952 5.995" transform="translate(-108 -224) translate(16 224) translate(92) translate(9 12) translate(24 48)"/>
                            <path fill="#DDD" d="M118 14.908v-8.87C118 2.703 115.187 0 111.753 0c-3.434 0-6.247 2.703-6.247 6.038v8.87H118zM86.07 39.023V25.61c0-3.335-2.812-6.038-6.247-6.038-3.433 0-6.247 2.703-6.247 6.038v.481h-42.34v12.932c0 5.211 4.194 9.436 9.37 9.436H95.44c-5.175 0-9.37-4.225-9.37-9.436" transform="translate(-108 -224) translate(16 224) translate(92) translate(9 12) translate(24 48)"/>
                            <path fill="#FBFBFB" d="M73.576 33.843v-7.31c0-3.089 1.94-5.715 4.724-6.733H25.398c-12.796 0-11.516 14.372-11.516 14.372V89h50.324c5.175 0 9.37-4.225 9.37-9.436V34.17s-.002-.119 0-.328" transform="translate(-108 -224) translate(16 224) translate(92) translate(9 12) translate(24 48)"/>
                            <path fill="#FFF" d="M107.646 79.52c0 1.741-1.402 3.153-3.132 3.153-1.73 0-3.132-1.412-3.132-3.154 0-1.741 1.403-3.153 3.132-3.153 1.73 0 3.132 1.412 3.132 3.153" transform="translate(-108 -224) translate(16 224) translate(92) translate(9 12) translate(24 48)"/>
                            <path fill="#F0F2F5" d="M21.518 56.148L65.941 56.148 65.941 45.663 21.518 45.663zM58.763 80.612H21.518v-20.27H65.94v13.042c0 3.992-3.213 7.228-7.178 7.228" transform="translate(-108 -224) translate(16 224) translate(92) translate(9 12) translate(24 48)"/>
                            <path fill="#DDD" d="M9.37 89h54.836c-5.176 0-9.37-4.224-9.37-9.436v-13.63H0v13.63C0 84.776 4.195 89 9.37 89" transform="translate(-108 -224) translate(16 224) translate(92) translate(9 12) translate(24 48)"/>
                            <path fill="#666" d="M32.121 36.835L33.15 35.136 31.429 34.456 31.631 33.811 33.436 34.304 33.589 32.35 34.263 32.35 34.381 34.287 36.186 33.811 36.389 34.456 34.668 35.136 35.714 36.835 35.157 37.226 33.926 35.663 32.677 37.226zM38.597 36.835L39.625 35.136 37.905 34.456 38.107 33.811 39.912 34.304 40.064 32.35 40.739 32.35 40.857 34.287 42.662 33.811 42.865 34.456 41.144 35.136 42.19 36.835 41.633 37.226 40.402 35.663 39.153 37.226zM45.073 36.835L46.101 35.136 44.381 34.456 44.583 33.811 46.388 34.304 46.54 32.35 47.215 32.35 47.333 34.287 49.138 33.811 49.341 34.456 47.62 35.136 48.666 36.835 48.109 37.226 46.877 35.663 45.629 37.226zM51.548 36.835L52.577 35.136 50.857 34.456 51.059 33.811 52.864 34.304 53.016 32.35 53.691 32.35 53.809 34.287 55.614 33.811 55.816 34.456 54.096 35.136 55.142 36.835 54.585 37.226 53.353 35.663 52.105 37.226z" transform="translate(-108 -224) translate(16 224) translate(92) translate(9 12) translate(24 48)"/>
                        </g>
                        <g>
                            <g transform="translate(-108 -224) translate(16 224) translate(92) translate(9 12) translate(77 24)">
                                <use fill="#000" filter="url(#g7kt0up72a)" xlink:href="#dy6njlvtsb"/>
                                <use fill="#2C7BFF" xlink:href="#dy6njlvtsb"/>
                            </g>
                            <path stroke="#FFF" stroke-width="1.5" d="M19 15.178v1.263l-.035.07c-.896 1.782-2.404 3.183-4.246 3.946l-.6.249-.775-.3c-1.872-.723-3.408-2.117-4.309-3.91L9 16.426V9.427L14.075 8 19 9.43v4" transform="translate(-108 -224) translate(16 224) translate(92) translate(9 12) translate(77 24)"/>
                        </g>
                        <g>
                            <g transform="translate(-108 -224) translate(16 224) translate(92) translate(9 12) translate(53)">
                                <use fill="#000" filter="url(#5xvjoa9rec)" xlink:href="#0oqltm6i2d"/>
                                <use fill="#47BE51" xlink:href="#0oqltm6i2d"/>
                            </g>
                            <g stroke-linecap="round" stroke-linejoin="round" filter="url(#0buxkifu1e)" transform="translate(-108 -224) translate(16 224) translate(92) translate(9 12) translate(53)">
                                <g>
                                    <path stroke="#222" stroke-width="1.3" d="M2.201 0L4.021 6.571 6.15.035 8.268 6.571 10.087 0M2.628 3.052L0 3.052M12.222 3.052L9.594 3.052" transform="translate(4.889 8.25)"/>
                                </g>
                            </g>
                        </g>
                        <g>
                            <path fill="#FFF" d="M40 20c0 11.045-8.955 20-20 20S0 31.045 0 20 8.955 0 20 0s20 8.955 20 20" transform="translate(-108 -224) translate(16 224) translate(92) translate(9 12) translate(0 31)"/>
                            <g transform="translate(-108 -224) translate(16 224) translate(92) translate(9 12) translate(0 31)">
                                <use fill="#000" filter="url(#d7577btj0f)" xlink:href="#k2a7y2doxg"/>
                                <use fill="#FC0" xlink:href="#k2a7y2doxg"/>
                            </g>
                            <path fill="#222" d="M32.332 20.24l-.222-.141c-.75-.751-1.796-1.074-3.198-.993-1.165.07-2.087.534-2.794.961l-.002-.031c0-.365.044-.761.083-1.147.042-.388.084-.787.084-1.162 0-.383-.045-.748-.178-1.058-.031-.081-.107-.128-.198-.128-.375.008-1.113.266-1.29.422l-.096.211c-.005.417-.1 1.582-.19 1.723l-.05.14c-.159 1.664-.162 3.126-.018 4.38.018.124.26.312.445.382.206.076.845-.096 1.215-.237-.005.003.14-.02.14-.02.115-.014.183-.11.178-.246l.01-.36c.269-1.08 1.345-2.374 2.62-2.569.721-.115 1.292.07 1.74.56.06.089.193.868-.284 1.765-.351.662-1.06 1.222-1.99 1.569-.882.336-1.851.471-3.047.43-.053-.032-1.124-.759-1.124-.759-.948-.664-2.126-1.496-3.198-1.902-.187-.07-.526-.35-.727-.519l-.112-.089c-.615-.495-1.788-1.28-2.731-1.905l-.508-.341v-.107c.028-.029.62-.386.62-.386.831-.484 1.212-.722 1.295-.844-.015.018.11-.065.11-.065l2.056-1.165c1.973-1.082 4.21-2.314 5.382-3.529l.06-.185.023-.167c.081-.258.084-.459.019-.69-.019-.066-.079-.144-.16-.157-.917-.091-2.1.459-3.176 1.467-.243.227-.446.342-.662.457l-.167.093c-1.186.675-3.857 2.333-5.26 3.23.094-1.504.37-3.647.715-5.432l-.037-.211-.146-.271-.11-.193-.03-.01c-.28-.141-.509-.084-.676-.042l-.278.104-.373.136c-.076.015-.125.06-.157.13-.667 1.616-1.224 4.274-1.357 6.4-1.335-.851-2.57-1.461-3.175-1.756l-.018-.01-.07-.016c-.22-.026-.485-.187-.74-.341-.027-.016-.509-.329-.509-.329l-.776-.497c.005.005-.204-.047-.204-.047-.333.057-.974.487-1.165.779-.023.04-.033.08-.033.125 0 .063.018.125.033.185l.034.157.037.096c.375.38 1.31 1.016 2.233 1.512l1.066.565 1.634.891c0 .008.277.222.277.222l.192.11.037.023-2.974 1.983-1.558 1.035c-.151.101-.766.378-.902.432-.339.139-.594.35-.701.582l-.042.088.042.06.117.091c-.005 0 .162.105.162.105l.172.117c.002.003.164.026.164.026.274.01.68-.146 1.441-.48.699-.31 2.596-1.454 3.407-1.941l.346-.209c.143.013.3-.11.44-.213.162-.13.517-.35.733-.443.008-.003.13-.073.248-.136-.003.037-.003.091-.003.091.036 2.484.177 4.288.45 5.677l.003.026.026.054c.133.196.285.785.423 1.304l.307 1.034c.008.013.086.097.086.097.175.122.714.328 1.074.284l.089-.01.057-.126c.031-.156.039-.307.039-.474 0-.19-.01-.399-.029-.654l-.023-.373c-.115-1.733-.23-4.232-.23-5.895v-.133l1.583.995c2.191 1.42 5.501 3.568 7.5 4.136.104.032.214.006.292-.067l.308-.198.057-.021c.115-.055.193-.25.203-.459 1.686-.086 4.037-.735 5.299-2.317.484-.612.703-1.363.703-2.004 0-.53-.146-.983-.411-1.233" transform="translate(-108 -224) translate(16 224) translate(92) translate(9 12) translate(0 31)"/>
                        </g>
                    </g>
                </g>
            </g>
        </g>
    </g>
</svg>
