<svg xmlns="http://www.w3.org/2000/svg" width="24" height="24" viewBox="0 0 24 24">
    <defs>
        <filter id="wci3dvv3ja">
            <feColorMatrix in="SourceGraphic" values="0 0 0 0 0.666667 0 0 0 0 0.666667 0 0 0 0 0.666667 0 0 0 1.000000 0"/>
        </filter>
    </defs>
    <g fill="none" fill-rule="evenodd">
        <g>
            <g>
                <g>
                    <g>
                        <g>
                            <g transform="translate(-80 -728) translate(54.5 160) translate(25.5 242) translate(0 276) translate(0 50) translate(2 2)">
                                <g filter="url(#wci3dvv3ja)">
                                    <g stroke="#222" stroke-width="1.2">
                                        <path stroke-linecap="round" d="M6.719 0.216L6.719 2.721 4.214 2.721" transform="translate(6 4.5) rotate(-11 5.466 1.469)"/>
                                        <path stroke-linecap="round" d="M3.664 7.585L3.664 10.09 1.159 10.09" transform="translate(6 4.5) rotate(168 2.412 8.837)"/>
                                        <path d="M6.935 2.459C6.205 1.67 5.16 1.177 4 1.177c-2.21 0-4 1.79-4 4 0 .443.072.87.205 1.268m.926 1.519C1.857 8.712 2.874 9.177 4 9.177c2.21 0 4-1.79 4-4 0-.467-.08-.914-.227-1.33" transform="translate(6 4.5)"/>
                                    </g>
                                </g>
                                <circle cx="10" cy="10" r="9.25" stroke="#DDD" stroke-width="1.5"/>
                            </g>
                        </g>
                    </g>
                </g>
            </g>
        </g>
    </g>
</svg>
