<svg xmlns="http://www.w3.org/2000/svg" width="32" height="32" viewBox="0 0 32 32">
    <g fill="none" fill-rule="evenodd">
        <g>
            <g>
                <g>
                    <g>
                        <g>
                            <path fill="#FC0" d="M28.355 8.506v1.418h-24.1c-1.506.06-2.775-1.11-2.836-2.615-.002-.074-.002-.147 0-.22L14.18 0l12.76 5.67c1.22.593 1.416 1.48 1.416 2.836" transform="translate(-80 -886) translate(54.5 160) translate(0 672) translate(25.5 54) translate(1.714 2.286)"/>
                            <path stroke="#050101" stroke-linecap="square" stroke-width="1.5" d="M28.355 8.506v1.418h-24.1c-1.506.06-2.775-1.11-2.836-2.615-.002-.074-.002-.147 0-.22L14.18 0l12.76 5.67c1.22.593 1.416 1.48 1.416 2.836z" transform="translate(-80 -886) translate(54.5 160) translate(0 672) translate(25.5 54) translate(1.714 2.286)"/>
                            <path stroke="#050101" stroke-width="1.5" d="M28.357 26.937L0 26.937M4.253 9.922L4.253 26.934M8.506 26.937L8.506 9.922M21.266 9.922L21.266 26.934M25.516 10L25.516 27.012" transform="translate(-80 -886) translate(54.5 160) translate(0 672) translate(25.5 54) translate(1.714 2.286)"/>
                        </g>
                        <g fill="#222">
                            <path d="M8.855 3.592l-.078-.054c-.265-.29-.635-.415-1.13-.383-.41.027-.737.205-.986.371v-.012c0-.141.014-.293.028-.442.015-.15.03-.303.03-.448 0-.148-.016-.289-.063-.409-.011-.03-.037-.049-.07-.049-.133.003-.393.103-.456.163l-.034.082c-.002.16-.034.61-.067.664l-.018.054c-.056.64-.057 1.204-.005 1.688.006.048.091.121.157.147.072.03.298-.036.429-.09l.049-.009c.04-.004.065-.042.063-.094l.003-.139c.095-.417.475-.916.926-.99.254-.045.456.027.614.216.022.034.068.334-.1.68-.125.255-.374.47-.703.605-.311.13-.654.181-1.076.166l-.396-.293c-.336-.257-.752-.576-1.13-.733-.066-.028-.185-.135-.257-.2l-.039-.035c-.218-.19-.632-.492-.965-.734l-.18-.132.001-.04c.01-.012.22-.15.22-.15.292-.186.427-.278.456-.325-.006.007.039-.026.039-.026.003 0 .726-.448.726-.448.697-.418 1.486-.893 1.9-1.361L6.765.76l.01-.064c.027-.1.028-.177.005-.266-.006-.025-.027-.055-.056-.06-.324-.036-.741.176-1.122.566-.085.087-.157.13-.234.176l-.058.035c-.419.26-1.363.9-1.857 1.245.032-.58.13-1.405.252-2.094L3.69.216 3.64.112 3.6.038 3.59.035C3.49-.02 3.41.002 3.35.018l-.099.04L3.12.11c-.025.006-.044.024-.054.05-.236.624-.433 1.649-.48 2.468-.471-.327-.907-.563-1.121-.677l-.006-.004-.025-.005c-.077-.011-.171-.073-.261-.133l-.18-.127-.274-.191c.002.002-.072-.018-.072-.018-.118.022-.344.188-.411.3-.009.016-.012.032-.012.049 0 .023.007.048.012.07l.012.062.013.036c.132.147.463.392.788.583l.377.218.577.344c0 .003.098.086.098.086l.068.042.012.008c-.153.113-1.049.765-1.049.765l-.552.4c-.052.038-.27.145-.318.166-.12.053-.21.135-.247.223L0 4.86l.015.023.042.035c-.002 0 .057.04.057.04l.06.046.058.01c.097.004.24-.056.509-.185.247-.12.917-.56 1.203-.749L2.066 4c.051.005.106-.042.156-.083.058-.05.182-.134.259-.17l.086-.052v.035c.013.957.063 1.653.159 2.189l.001.009.01.022c.046.075.1.302.148.502l.109.399c.002.005.03.037.03.037.063.047.253.126.38.11l.031-.004.02-.049c.01-.06.015-.118.015-.183 0-.073-.005-.153-.011-.252l-.009-.144c-.04-.667-.08-1.632-.08-2.273v-.051l.558.384c.774.548 1.943 1.376 2.65 1.595.036.012.075.002.102-.026l.108-.076.02-.01c.041-.02.068-.095.073-.176.595-.032 1.425-.283 1.87-.892.172-.237.249-.526.249-.774 0-.203-.052-.378-.145-.475" transform="translate(-80 -886) translate(54.5 160) translate(0 672) translate(25.5 54) translate(11.75 4.25)"/>
                        </g>
                    </g>
                </g>
            </g>
        </g>
    </g>
</svg>
