<svg xmlns="http://www.w3.org/2000/svg" width="24" height="24" viewBox="0 0 24 24">
    <g fill="none" fill-rule="evenodd">
        <g>
            <g>
                <g>
                    <g>
                        <g>
                            <path d="M0 0H24V24H0z" transform="translate(-40.000000, -424.000000) translate(16.000000, 112.000000) translate(0.000000, 92.000000) translate(24.000000, 204.000000) translate(0.000000, 16.000000)"/>
                            <g>
                                <path stroke="#222" stroke-width="1.5" d="M13.229 13H2.5C1.119 13 0 11.881 0 10.5V0h16.5C17.88 0 19 1.119 19 2.5v6.013" transform="translate(-40.000000, -424.000000) translate(16.000000, 112.000000) translate(0.000000, 92.000000) translate(24.000000, 204.000000) translate(0.000000, 16.000000) translate(2.300000, 4.000000)"/>
                                <path stroke="#222" stroke-linecap="square" stroke-width="1.5" d="M1 4L18 4" transform="translate(-40.000000, -424.000000) translate(16.000000, 112.000000) translate(0.000000, 92.000000) translate(24.000000, 204.000000) translate(0.000000, 16.000000) translate(2.300000, 4.000000)"/>
                                <path stroke="#222" stroke-width="1.5" d="M14.903 17.025l-2.734-.05-.098-2.775 5.867-5.866 1.06 1.06c.977.976.977 2.56 0 3.536l-4.095 4.095z" transform="translate(-40.000000, -424.000000) translate(16.000000, 112.000000) translate(0.000000, 92.000000) translate(24.000000, 204.000000) translate(0.000000, 16.000000) translate(2.300000, 4.000000)"/>
                                <path stroke="#202121" stroke-linecap="square" stroke-width="1.3" d="M16.61 10.411L18.732 12.532" transform="translate(-40.000000, -424.000000) translate(16.000000, 112.000000) translate(0.000000, 92.000000) translate(24.000000, 204.000000) translate(0.000000, 16.000000) translate(2.300000, 4.000000)"/>
                            </g>
                        </g>
                    </g>
                </g>
            </g>
        </g>
    </g>
</svg>
