<svg xmlns="http://www.w3.org/2000/svg" width="40" height="40" viewBox="0 0 40 40">
    <g fill="none" fill-rule="evenodd">
        <g>
            <g>
                <g>
                    <g>
                        <g>
                            <g>
                                <path fill="#FF9166" d="M40 20c0 11.046-8.954 20-20 20C8.955 40 0 31.046 0 20S8.955 0 20 0c11.046 0 20 8.954 20 20" transform="translate(-16.000000, -771.000000) translate(0.000000, 112.000000) translate(0.000000, 128.000000) translate(0.000000, 293.000000) translate(0.000000, 228.000000) translate(16.000000, 10.000000)"/>
                                <g>
                                    <g>
                                        <path stroke="#FFF" stroke-linecap="round" stroke-linejoin="round" stroke-width="1.5" d="M6.333 0L0 18.199M15.521 0L21.854 18.199" transform="translate(-16.000000, -771.000000) translate(0.000000, 112.000000) translate(0.000000, 128.000000) translate(0.000000, 293.000000) translate(0.000000, 228.000000) translate(16.000000, 10.000000) translate(8.125000, 10.000000)"/>
                                        <path stroke="#FFF" stroke-dasharray="4 2" stroke-linecap="round" stroke-linejoin="round" stroke-width="1.3" d="M10.927 18.199L10.927 0" transform="translate(-16.000000, -771.000000) translate(0.000000, 112.000000) translate(0.000000, 128.000000) translate(0.000000, 293.000000) translate(0.000000, 228.000000) translate(16.000000, 10.000000) translate(8.125000, 10.000000)"/>
                                        <path fill="#FF9166" d="M25 14.954C25 17.741 22.694 20 19.849 20c-2.846 0-5.153-2.259-5.153-5.046 0-2.786 2.307-5.046 5.153-5.046 2.845 0 5.151 2.26 5.151 5.046" transform="translate(-16.000000, -771.000000) translate(0.000000, 112.000000) translate(0.000000, 128.000000) translate(0.000000, 293.000000) translate(0.000000, 228.000000) translate(16.000000, 10.000000) translate(8.125000, 10.000000)"/>
                                    </g>
                                    <g>
                                        <path fill="#FF9166" d="M11.404 5.625c0 3.105-2.518 5.625-5.625 5.625S.154 8.73.154 5.625 2.672 0 5.78 0s5.625 2.52 5.625 5.625" transform="translate(-16.000000, -771.000000) translate(0.000000, 112.000000) translate(0.000000, 128.000000) translate(0.000000, 293.000000) translate(0.000000, 228.000000) translate(16.000000, 10.000000) translate(8.125000, 10.000000) translate(14.125000, 8.867793)"/>
                                        <path stroke="#FFF" stroke-linecap="square" stroke-width="1.5" d="M5.625.382c3.106 0 5.625 2.519 5.625 5.625s-2.519 5.625-5.625 5.625S0 9.113 0 6.007 2.519.382 5.625.382z" transform="translate(-16.000000, -771.000000) translate(0.000000, 112.000000) translate(0.000000, 128.000000) translate(0.000000, 293.000000) translate(0.000000, 228.000000) translate(16.000000, 10.000000) translate(8.125000, 10.000000) translate(14.125000, 8.867793)"/>
                                        <path stroke="#FFF" stroke-linecap="round" stroke-linejoin="round" stroke-width="1.2" d="M3.369 4.465L4.38 7.978 5.564 4.484 6.741 7.978 7.752 4.465M2.125 5.607L3.375 5.607M9.067 5.607L7.75 5.607" transform="translate(-16.000000, -771.000000) translate(0.000000, 112.000000) translate(0.000000, 128.000000) translate(0.000000, 293.000000) translate(0.000000, 228.000000) translate(16.000000, 10.000000) translate(8.125000, 10.000000) translate(14.125000, 8.867793)"/>
                                    </g>
                                </g>
                            </g>
                        </g>
                    </g>
                </g>
            </g>
        </g>
    </g>
</svg>
