<svg xmlns="http://www.w3.org/2000/svg" width="40" height="40" viewBox="0 0 40 40">
    <g fill="none" fill-rule="evenodd">
        <g>
            <g>
                <g>
                    <g>
                        <g>
                            <g>
                                <path fill="#C9D562" d="M40 20c0 11.046-8.954 20-20 20S0 31.046 0 20 8.954 0 20 0s20 8.954 20 20" transform="translate(-16.000000, -1075.000000) translate(0.000000, 112.000000) translate(0.000000, 128.000000) translate(0.000000, 293.000000) translate(0.000000, 532.000000) translate(16.000000, 10.000000)"/>
                                <g stroke="#FFF">
                                    <path stroke-width="1.4" d="M10.625.735L20.55 3.92v6.28c0 3.423-.983 6.469-2.773 8.752-1.709 2.18-4.153 3.654-7.152 4.092-2.999-.438-5.443-1.913-7.152-4.092C1.683 16.668.7 13.62.7 10.199h0v-6.28L10.625.735z" transform="translate(-16.000000, -1075.000000) translate(0.000000, 112.000000) translate(0.000000, 128.000000) translate(0.000000, 293.000000) translate(0.000000, 532.000000) translate(16.000000, 10.000000) translate(9.375000, 8.125000)"/>
                                    <g stroke-linecap="round" stroke-linejoin="round" stroke-width="1.3">
                                        <path d="M0 3.519L7.083 3.519M3.542 0L3.542 7.037" transform="translate(-16.000000, -1075.000000) translate(0.000000, 112.000000) translate(0.000000, 128.000000) translate(0.000000, 293.000000) translate(0.000000, 532.000000) translate(16.000000, 10.000000) translate(9.375000, 8.125000) translate(7.083333, 8.209877)"/>
                                    </g>
                                </g>
                            </g>
                        </g>
                    </g>
                </g>
            </g>
        </g>
    </g>
</svg>
