<svg xmlns="http://www.w3.org/2000/svg" width="24" height="24" viewBox="0 0 24 24">
    <g fill="none" fill-rule="evenodd">
        <g>
            <g>
                <g>
                    <g>
                        <g>
                            <path d="M0 0H24V24H0z" transform="translate(-40.000000, -312.000000) translate(16.000000, 112.000000) translate(0.000000, 92.000000) translate(24.000000, 92.000000) translate(0.000000, 16.000000)"/>
                            <g>
                                <path stroke="#222" stroke-width="1.5" d="M13.229 13H2.5C1.119 13 0 11.881 0 10.5V0h16.5C17.88 0 19 1.119 19 2.5v7.47" transform="translate(-40.000000, -312.000000) translate(16.000000, 112.000000) translate(0.000000, 92.000000) translate(24.000000, 92.000000) translate(0.000000, 16.000000) translate(2.300000, 4.000000)"/>
                                <path stroke="#222" stroke-linecap="square" stroke-width="1.5" d="M1 4L18 4" transform="translate(-40.000000, -312.000000) translate(16.000000, 112.000000) translate(0.000000, 92.000000) translate(24.000000, 92.000000) translate(0.000000, 16.000000) translate(2.300000, 4.000000)"/>
                                <g transform="translate(-40.000000, -312.000000) translate(16.000000, 112.000000) translate(0.000000, 92.000000) translate(24.000000, 92.000000) translate(0.000000, 16.000000) translate(2.300000, 4.000000) translate(9.700000, 7.600000)">
                                    <circle cx="5" cy="5" r="5" fill="#FFF"/>
                                    <path stroke="#222" stroke-width="1.5" d="M4.75 0C7.373 0 9.5 2.127 9.5 4.75c0 2.624-2.127 4.75-4.75 4.75S0 7.374 0 4.75 2.127 0 4.75 0z"/>
                                    <g stroke="#222" stroke-linecap="round" stroke-width="1.3">
                                        <path d="M2 0L2 4M4 2L0 2" transform="translate(2.700000, 2.700000)"/>
                                    </g>
                                </g>
                            </g>
                        </g>
                    </g>
                </g>
            </g>
        </g>
    </g>
</svg>
