<svg xmlns="http://www.w3.org/2000/svg" width="40" height="40" viewBox="0 0 40 40">
    <g fill="none" fill-rule="evenodd">
        <g>
            <g>
                <g>
                    <g>
                        <g>
                            <g transform="translate(-16.000000, -847.000000) translate(0.000000, 112.000000) translate(0.000000, 128.000000) translate(0.000000, 293.000000) translate(0.000000, 304.000000) translate(16.000000, 10.000000)">
                                <circle cx="20" cy="20" r="20" fill="#6AC1A3"/>
                                <g stroke="#FFF">
                                    <path stroke-width="1.5" d="M12.5.75c3.245 0 6.182 1.315 8.309 3.442 2.126 2.126 3.441 5.063 3.441 8.308s-1.315 6.182-3.441 8.308c-2.127 2.127-5.064 3.442-8.309 3.442-3.245 0-6.182-1.315-8.309-3.441C2.065 18.682.75 15.745.75 12.5c0-3.245 1.315-6.182 3.441-8.309C6.318 2.065 9.255.75 12.5.75z" transform="translate(7.500000, 7.500000)"/>
                                    <path stroke-linecap="square" stroke-width="1.3" d="M9.611 9.611V6.722h4.333c1.85 0 2.89 1.04 2.89 2.89 0 1.852-1.036 2.888-2.89 2.888h-3.699M9.611 7.367L9.611 18.923" transform="translate(7.500000, 7.500000)"/>
                                </g>
                            </g>
                        </g>
                    </g>
                </g>
            </g>
        </g>
    </g>
</svg>
