<svg xmlns="http://www.w3.org/2000/svg" width="24" height="24" viewBox="0 0 24 24">
    <g fill="none" fill-rule="evenodd">
        <g>
            <g>
                <g>
                    <g>
                        <g>
                            <path d="M0 0H24V24H0z" transform="translate(-40.000000, -368.000000) translate(16.000000, 112.000000) translate(0.000000, 92.000000) translate(24.000000, 148.000000) translate(0.000000, 16.000000)"/>
                            <g>
                                <path d="M0 0H24V24H0z" transform="translate(-40.000000, -368.000000) translate(16.000000, 112.000000) translate(0.000000, 92.000000) translate(24.000000, 148.000000) translate(0.000000, 16.000000)"/>
                                <g stroke="#222">
                                    <g>
                                        <path stroke-width="1.5" d="M11.62 9.474H1.4V0h12.167C14.91 0 16 1.06 16 2.368v4.264" transform="translate(-40.000000, -368.000000) translate(16.000000, 112.000000) translate(0.000000, 92.000000) translate(24.000000, 148.000000) translate(0.000000, 16.000000) translate(2.000000, 3.000000)"/>
                                        <path stroke-linecap="square" stroke-linejoin="bevel" d="M6.266 3.316L7.39 7.105 8.705 3.336 10.01 7.105 11.133 3.316" transform="translate(-40.000000, -368.000000) translate(16.000000, 112.000000) translate(0.000000, 92.000000) translate(24.000000, 148.000000) translate(0.000000, 16.000000) translate(2.000000, 3.000000)"/>
                                        <path stroke-linejoin="round" d="M6.753 4.547L4.806 4.547M12.593 4.547L10.647 4.547" transform="translate(-40.000000, -368.000000) translate(16.000000, 112.000000) translate(0.000000, 92.000000) translate(24.000000, 148.000000) translate(0.000000, 16.000000) translate(2.000000, 3.000000)"/>
                                        <path stroke-linecap="round" stroke-width="1.5" d="M13.242 18H2.433C1.09 18 0 16.94 0 15.632c0-.194.024-.387.072-.575l1.435-5.583H11" transform="translate(-40.000000, -368.000000) translate(16.000000, 112.000000) translate(0.000000, 92.000000) translate(24.000000, 148.000000) translate(0.000000, 16.000000) translate(2.000000, 3.000000)"/>
                                    </g>
                                    <g>
                                        <path stroke-width="1.5" d="M4.75 0C7.373 0 9.5 2.127 9.5 4.75c0 2.624-2.127 4.75-4.75 4.75S0 7.374 0 4.75 2.127 0 4.75 0z" transform="translate(-40.000000, -368.000000) translate(16.000000, 112.000000) translate(0.000000, 92.000000) translate(24.000000, 148.000000) translate(0.000000, 16.000000) translate(2.000000, 3.000000) translate(11.000000, 7.000000)"/>
                                        <g stroke-linecap="round" stroke-width="1.3">
                                            <path d="M2 0L2 4M4 2L0 2" transform="translate(-40.000000, -368.000000) translate(16.000000, 112.000000) translate(0.000000, 92.000000) translate(24.000000, 148.000000) translate(0.000000, 16.000000) translate(2.000000, 3.000000) translate(11.000000, 7.000000) translate(2.700000, 2.600000)"/>
                                        </g>
                                    </g>
                                </g>
                            </g>
                        </g>
                    </g>
                </g>
            </g>
        </g>
    </g>
</svg>
