<svg xmlns="http://www.w3.org/2000/svg" width="24" height="24" viewBox="0 0 24 24">
    <g fill="none" fill-rule="evenodd">
        <g>
            <g>
                <g>
                    <g>
                        <g>
                            <path d="M0 0H24V24H0z" transform="translate(-32.000000, -2733.000000) translate(16.000000, 112.000000) translate(0.000000, 2563.000000) translate(0.000000, 46.000000) translate(16.000000, 12.000000)"/>
                            <g>
                                <path fill="#FC0" d="M21.434 6.948l-.257-1.65c-.136-.877-.864-1.522-1.718-1.522h-.312l-1.042-2.651C17.835.445 17.2 0 16.494 0H8.352c-.624 0-1.2.347-1.51.91L5.225 3.845l-3.504.683c-.823.16-1.42.909-1.42 1.781v.64H0v2.581h21.735l-.301-2.581z" transform="translate(-32.000000, -2733.000000) translate(16.000000, 112.000000) translate(0.000000, 2563.000000) translate(0.000000, 46.000000) translate(16.000000, 12.000000) translate(1.000000, 6.000000)"/>
                                <path stroke="#070100" stroke-width="1.5" d="M21.252 8.857l-.293-3.558c-.136-.878-.857-1.523-1.703-1.523h-.31l-1.033-2.651C17.646.445 17.016 0 16.316 0H8.245c-.619 0-1.19.347-1.497.91L5.146 3.845l-3.473.683c-.816.16-1.408.909-1.408 1.781v3.221h20.987v-.672z" transform="translate(-32.000000, -2733.000000) translate(16.000000, 112.000000) translate(0.000000, 2563.000000) translate(0.000000, 46.000000) translate(16.000000, 12.000000) translate(1.000000, 6.000000)"/>
                                <path fill="#FEFEFE" d="M8.364 1.963l-.942 2.272h4.24V1.588H8.879c-.22 0-.419.145-.514.375M12.723 1.588v2.647h4.24l-.725-2.212c-.086-.261-.31-.435-.56-.435h-2.955z" transform="translate(-32.000000, -2733.000000) translate(16.000000, 112.000000) translate(0.000000, 2563.000000) translate(0.000000, 46.000000) translate(16.000000, 12.000000) translate(1.000000, 6.000000)"/>
                                <path fill="#FFF" stroke="#070100" stroke-width="1.5" d="M14.843 9.53c0-1.17.95-2.118 2.12-2.118 1.172 0 2.121.947 2.121 2.117s-.949 2.118-2.12 2.118c-1.171 0-2.12-.948-2.12-2.118zM2.652 9.53c0-1.17.95-2.118 2.12-2.118 1.172 0 2.121.947 2.121 2.117s-.95 2.118-2.12 2.118c-1.17 0-2.12-.948-2.12-2.118z" transform="translate(-32.000000, -2733.000000) translate(16.000000, 112.000000) translate(0.000000, 2563.000000) translate(0.000000, 46.000000) translate(16.000000, 12.000000) translate(1.000000, 6.000000)"/>
                            </g>
                        </g>
                    </g>
                </g>
            </g>
        </g>
    </g>
</svg>
