<svg xmlns="http://www.w3.org/2000/svg" width="32" height="32" viewBox="0 0 32 32">
    <g fill="none" fill-rule="evenodd">
        <g>
            <g>
                <g>
                    <g transform="translate(-16 -212) translate(0 68) translate(0 132) translate(16 12)">
                        <circle cx="16" cy="16" r="16" fill="#F8F8F8"/>
                        <g>
                            <path fill="#45454D" d="M13.647 0H2.353C1.056 0 0 1.035 0 2.308v19.384C0 22.965 1.056 24 2.353 24h11.294C14.944 24 16 22.965 16 21.692V2.308C16 1.035 14.944 0 13.647 0" transform="translate(8 4)"/>
                            <path fill="#575761" d="M2.414 24C1.083 24 0 22.965 0 21.692V2.308C0 1.035 1.083 0 2.414 0H14L2.414 24" transform="translate(8 4)"/>
                            <path fill="#FFFFFE" d="M1 20L15 20 15 4 1 4z" transform="translate(8 4)"/>
                            <path fill="#686773" d="M8.125 21h-1.25C6.391 21 6 21.447 6 22c0 .553.391 1 .875 1h1.25c.483 0 .875-.447.875-1 0-.553-.392-1-.875-1" transform="translate(8 4)"/>
                        </g>
                    </g>
                </g>
            </g>
        </g>
    </g>
</svg>
