<svg xmlns="http://www.w3.org/2000/svg" width="40" height="40" viewBox="0 0 40 40">
    <g fill="none" fill-rule="evenodd">
        <g>
            <g>
                <g>
                    <g>
                        <g>
                            <g>
                                <path fill="#9280FF" d="M40 20c0 11.046-8.955 20-20 20C8.954 40 0 31.046 0 20S8.954 0 20 0c11.045 0 20 8.954 20 20" transform="translate(-16.000000, -923.000000) translate(0.000000, 112.000000) translate(0.000000, 128.000000) translate(0.000000, 293.000000) translate(0.000000, 380.000000) translate(16.000000, 10.000000)"/>
                                <g>
                                    <g>
                                        <path stroke="#FFF" stroke-linecap="square" stroke-linejoin="round" stroke-width="1.5" d="M1.503 16.25L4.967 16.25 4.967 13 1.503 13zM17.669 16.25L21.133 16.25 21.133 13 17.669 13z" transform="translate(-16.000000, -923.000000) translate(0.000000, 112.000000) translate(0.000000, 128.000000) translate(0.000000, 293.000000) translate(0.000000, 380.000000) translate(16.000000, 10.000000) translate(8.750000, 7.000000) translate(0.000000, 7.500000)"/>
                                        <path stroke="#FFF" stroke-linejoin="round" stroke-width="1.5" d="M1.504 13L1.504 5.417 21.134 5.417 21.134 13zM7.723 0h7.192c1.202 0 2.28.701 2.703 1.757l1.462 3.66H3.557l1.463-3.66C5.442.701 6.52 0 7.723 0z" transform="translate(-16.000000, -923.000000) translate(0.000000, 112.000000) translate(0.000000, 128.000000) translate(0.000000, 293.000000) translate(0.000000, 380.000000) translate(16.000000, 10.000000) translate(8.750000, 7.000000) translate(0.000000, 7.500000)"/>
                                        <path fill="#FFF" d="M6.7 8.125c-.636 0-1.155.485-1.155 1.083 0 .6.519 1.083 1.156 1.083.636 0 1.153-.484 1.153-1.083 0-.598-.517-1.083-1.153-1.083M15.938 8.125c-.637 0-1.156.485-1.156 1.083 0 .6.519 1.083 1.156 1.083.637 0 1.155-.484 1.155-1.083 0-.598-.518-1.083-1.155-1.083" transform="translate(-16.000000, -923.000000) translate(0.000000, 112.000000) translate(0.000000, 128.000000) translate(0.000000, 293.000000) translate(0.000000, 380.000000) translate(16.000000, 10.000000) translate(8.750000, 7.000000) translate(0.000000, 7.500000)"/>
                                        <path stroke="#FFF" stroke-width="1.5" d="M19.402 5.417L22.5 3.963M3.097 5.417L0 3.962" transform="translate(-16.000000, -923.000000) translate(0.000000, 112.000000) translate(0.000000, 128.000000) translate(0.000000, 293.000000) translate(0.000000, 380.000000) translate(16.000000, 10.000000) translate(8.750000, 7.000000) translate(0.000000, 7.500000)"/>
                                    </g>
                                    <g fill="#FFF">
                                        <path d="M0 2.413C0 1.674 1.25 0 1.25 0S2.5 1.674 2.5 2.413c0 .737-.56 1.337-1.25 1.337S0 3.15 0 2.413M4.727 2.413C4.727 1.674 5.977 0 5.977 0s1.25 1.674 1.25 2.413c0 .737-.56 1.337-1.25 1.337s-1.25-.6-1.25-1.337M9.455 2.413c0-.739 1.25-2.413 1.25-2.413s1.25 1.674 1.25 2.413c0 .737-.56 1.337-1.25 1.337s-1.25-.6-1.25-1.337" transform="translate(-16.000000, -923.000000) translate(0.000000, 112.000000) translate(0.000000, 128.000000) translate(0.000000, 293.000000) translate(0.000000, 380.000000) translate(16.000000, 10.000000) translate(8.750000, 7.000000) translate(5.000000, 0.000000)"/>
                                    </g>
                                </g>
                            </g>
                        </g>
                    </g>
                </g>
            </g>
        </g>
    </g>
</svg>
