<svg xmlns="http://www.w3.org/2000/svg" width="24" height="24" viewBox="0 0 24 24">
    <g fill="none" fill-rule="evenodd">
        <g>
            <g>
                <g>
                    <g>
                        <g>
                            <g>
                                <path d="M0 0H24V24H0z" transform="translate(-668 -614) translate(54.5 160) translate(25.5 242) translate(0 54) translate(0 158) translate(588)"/>
                                <g transform="translate(-668 -614) translate(54.5 160) translate(25.5 242) translate(0 54) translate(0 158) translate(588) translate(2 2)">
                                    <circle cx="10" cy="10" r="9" fill="#FC0"/>
                                    <path fill="#FFF" d="M8.786 10.474l-4.027 2.45c-.871.945-1.306 1.906-1.306 2.885 0 .978 1.358 2.12 4.076 3.423 3.368.166 5.097.166 5.189 0 .136-.25 4.171-2.45 4.171-2.74 0-.192-.362-1.21-1.088-3.053l-4.229-2.962-2.786-.003z"/>
                                    <path stroke="#222" stroke-width="1.5" d="M3.453 16.671l.304-2.11c.094-.667.47-1.262 1.03-1.636l3.809-2.54M11.199 10.23l4.066 2.72c.52.347.879.887 1 1.5l.624 2.043"/>
                                    <path fill="#FFF" d="M7.158 7.427c-.035-1.624.225-2.618.779-2.981.832-.545 3.467-.683 3.933-.162.466.521.99 1.763.812 4.551-.086 1.47-1.002 2.176-2.746 2.12-1.852-.251-2.778-.958-2.778-2.12V7.427z"/>
                                    <path stroke="#222" stroke-width="1.5" d="M9.526 3.897h.947c1.308 0 2.368.92 2.368 2.055v2.466c0 1.136-1.06 2.056-2.368 2.056h-.947c-1.307 0-2.368-.92-2.368-2.056V5.952c0-1.135 1.061-2.055 2.368-2.055z"/>
                                    <circle cx="10" cy="10" r="9.25" stroke="#222" stroke-width="1.5"/>
                                </g>
                            </g>
                        </g>
                    </g>
                </g>
            </g>
        </g>
    </g>
</svg>
