<svg xmlns="http://www.w3.org/2000/svg" width="49" height="48" viewBox="0 0 49 48">
    <g fill="none" fill-rule="evenodd">
        <g stroke="#222">
            <g>
                <g>
                    <g>
                        <path stroke-width="2" d="M23.613 1.003c6.522.001 12.354 2.557 16.563 6.697C44.41 11.864 47 17.63 47 24c0 6.35-2.575 12.1-6.737 16.263C36.1 44.425 30.35 47 24 47c-6.35 0-12.1-2.575-16.263-6.737C3.575 36.1 1 30.35 1 24c0-6.283 2.519-11.977 6.602-16.127 4.088-4.157 9.745-6.766 16.011-6.87z" transform="translate(-163 -348) translate(16 68) translate(16 280) translate(131.5)"/>
                        <path stroke-linecap="round" stroke-width="2.5" d="M15 24L21 30 28.688 22.313 33 18" transform="translate(-163 -348) translate(16 68) translate(16 280) translate(131.5)"/>
                    </g>
                </g>
            </g>
        </g>
    </g>
</svg>
