<svg xmlns="http://www.w3.org/2000/svg" width="40" height="40" viewBox="0 0 40 40">
    <g fill="none" fill-rule="evenodd">
        <g>
            <g>
                <g>
                    <g>
                        <g>
                            <g>
                                <path fill="#70D5D5" d="M40 20c0 11.046-8.955 20-20 20C8.954 40 0 31.046 0 20 0 8.955 8.954 0 20 0c11.045 0 20 8.955 20 20" transform="translate(-16.000000, -999.000000) translate(0.000000, 112.000000) translate(0.000000, 128.000000) translate(0.000000, 293.000000) translate(0.000000, 456.000000) translate(16.000000, 10.000000) translate(0.000000, -0.000000)"/>
                                <g>
                                    <path fill="#FFF" d="M13.503 12.362c0 .898-.73 1.627-1.628 1.627-.9 0-1.629-.729-1.629-1.627 0-.9.73-1.63 1.63-1.63.898 0 1.627.73 1.627 1.63" transform="translate(-16.000000, -999.000000) translate(0.000000, 112.000000) translate(0.000000, 128.000000) translate(0.000000, 293.000000) translate(0.000000, 456.000000) translate(16.000000, 10.000000) translate(0.000000, -0.000000) translate(8.125000, 8.125000)"/>
                                    <path stroke="#FFF" stroke-linecap="round" stroke-linejoin="round" stroke-width="1.5" d="M13.719 20.839c.052-3.072 1.386-6.76 4.609-7.143.88-.106 1.725-.102 2.515-.003-.723 3.587-3.543 6.413-7.124 7.146zM2.902 13.664c.86-.052 1.855-.048 2.52.032 3.221.383 4.557 4.071 4.609 7.143-3.593-.735-6.415-3.575-7.129-7.175zm8.974-10.94c4.232 0 7.784 2.877 8.828 6.781-2.042-.942-5.273-1.552-8.91-1.552-3.532 0-6.678.574-8.727 1.47 1.072-3.86 4.605-6.7 8.809-6.7zm0-2.724C5.317 0 0 5.316 0 11.874 0 18.433 5.317 23.75 11.876 23.75c6.557 0 11.874-5.316 11.874-11.875C23.75 5.316 18.433 0 11.876 0z" transform="translate(-16.000000, -999.000000) translate(0.000000, 112.000000) translate(0.000000, 128.000000) translate(0.000000, 293.000000) translate(0.000000, 456.000000) translate(16.000000, 10.000000) translate(0.000000, -0.000000) translate(8.125000, 8.125000)"/>
                                </g>
                            </g>
                        </g>
                    </g>
                </g>
            </g>
        </g>
    </g>
</svg>
