<svg xmlns="http://www.w3.org/2000/svg" width="24" height="24" viewBox="0 0 24 24">
    <defs>
        <filter id="3cxaomkxaa">
            <feColorMatrix in="SourceGraphic" values="0 0 0 0 0.133333 0 0 0 0 0.133333 0 0 0 0 0.133333 0 0 0 1.000000 0"/>
        </filter>
        <filter id="z1d75y3urb">
            <feColorMatrix in="SourceGraphic" values="0 0 0 0 1.000000 0 0 0 0 1.000000 0 0 0 0 1.000000 0 0 0 1.000000 0"/>
        </filter>
    </defs>
    <g fill="none" fill-rule="evenodd">
        <g>
            <g>
                <g>
                    <g filter="url(#3cxaomkxaa)" transform="translate(-319.000000, -348.000000) translate(-112.000000, 0.000000) translate(0.000000, 152.000000) translate(415.000000, 144.000000)">
                        <g filter="url(#z1d75y3urb)" transform="translate(16.000000, 52.000000)">
                            <g>
                                <path stroke="#AAA" d="M15.155 20.25H5.84c-1.18 0-2.157-.909-2.243-2.085L2.587 4.5h15.788l-.976 13.66c-.084 1.178-1.064 2.09-2.244 2.09zM10.5 9L10.5 15.75M0 4.5L21 4.5M16.125 4.5l-1.14-3.04C14.654.581 13.816 0 12.877 0H8.122c-.938 0-1.778.582-2.107 1.46L4.875 4.5M14.357 9L13.875 15.75M6.643 9L7.125 15.75" transform="translate(1.500112, 2.000225)"/>
                            </g>
                        </g>
                    </g>
                </g>
            </g>
        </g>
    </g>
</svg>
