<svg xmlns="http://www.w3.org/2000/svg" width="40" height="40" viewBox="0 0 40 40">
    <g fill="none" fill-rule="evenodd">
        <g>
            <g>
                <g>
                    <g>
                        <g>
                            <g>
                                <path fill="#85D1E9" d="M40 20c0 11.046-8.954 20-20 20C8.955 40 0 31.046 0 20S8.955 0 20 0c11.046 0 20 8.954 20 20" transform="translate(-136 -478) translate(80 160) translate(0 54) translate(40 252) translate(16 8) translate(0 4)"/>
                                <g stroke="#FFF" transform="translate(-136 -478) translate(80 160) translate(0 54) translate(40 252) translate(16 8) translate(0 4) translate(8.75 9.375)">
                                    <g stroke-linecap="round" stroke-linejoin="round" stroke-width="1.3">
                                        <path d="M1.07 0L2.259 4.355 3.651.031 5.039 4.355 6.237.001M1.457 2.125L0 2.125M7.28 2.125L5.824 2.125" transform="translate(3.562 8.264)"/>
                                    </g>
                                    <rect width="12.748" height="19.75" x=".75" y=".75" stroke-width="1.5" rx="2"/>
                                    <g stroke-linecap="round" stroke-width="1.3">
                                        <path d="M2.956 9.687L2.956.849M0 3.84L2.938 0 5.877 3.84" transform="translate(16.623 5.903)"/>
                                    </g>
                                </g>
                            </g>
                        </g>
                    </g>
                </g>
            </g>
        </g>
    </g>
</svg>
