<svg xmlns="http://www.w3.org/2000/svg" width="24" height="24" viewBox="0 0 24 24">
    <g fill="none" fill-rule="evenodd">
        <g>
            <g>
                <g>
                    <g>
                        <path d="M0 0H24V24H0z" transform="translate(-32.000000, -575.000000) translate(0.000000, 487.000000) translate(16.000000, 72.000000) translate(16.000000, 16.000000)"/>
                        <g stroke="#222">
                            <g>
                                <path stroke-width="1.5" d="M13.141 9.474H1.4V0h12.167C14.91 0 16 1.06 16 2.368v4.264" transform="translate(-32.000000, -575.000000) translate(0.000000, 487.000000) translate(16.000000, 72.000000) translate(16.000000, 16.000000) translate(2.000000, 3.000000)"/>
                                <path stroke-linecap="square" stroke-linejoin="bevel" stroke-width="1.3" d="M6.266 3.316L7.39 7.105 8.705 3.336 10.01 7.105 11.133 3.316" transform="translate(-32.000000, -575.000000) translate(0.000000, 487.000000) translate(16.000000, 72.000000) translate(16.000000, 16.000000) translate(2.000000, 3.000000)"/>
                                <path stroke-linejoin="round" stroke-width="1.3" d="M6.753 4.547L4.806 4.547M12.593 4.547L10.647 4.547" transform="translate(-32.000000, -575.000000) translate(0.000000, 487.000000) translate(16.000000, 72.000000) translate(16.000000, 16.000000) translate(2.000000, 3.000000)"/>
                                <path stroke-linecap="round" stroke-width="1.5" d="M13.242 18H2.433C1.09 18 0 16.94 0 15.632c0-.194.024-.387.072-.575l1.435-5.583H13.14" transform="translate(-32.000000, -575.000000) translate(0.000000, 487.000000) translate(16.000000, 72.000000) translate(16.000000, 16.000000) translate(2.000000, 3.000000)"/>
                            </g>
                            <g stroke-width="1.3">
                                <path fill="#FFF" d="M7.142 8.143C6.38 8.697 5.462 9 4.5 9 2.015 9 0 6.985 0 4.5S2.015 0 4.5 0 9 2.015 9 4.5c0 .894-.261 1.75-.744 2.48" transform="translate(-32.000000, -575.000000) translate(0.000000, 487.000000) translate(16.000000, 72.000000) translate(16.000000, 16.000000) translate(2.000000, 3.000000) translate(12.000000, 7.000000)"/>
                                <path d="M4.5 6.868L4.5 2.131M6.869 4.5L2.132 4.5" transform="translate(-32.000000, -575.000000) translate(0.000000, 487.000000) translate(16.000000, 72.000000) translate(16.000000, 16.000000) translate(2.000000, 3.000000) translate(12.000000, 7.000000)"/>
                            </g>
                        </g>
                    </g>
                </g>
            </g>
        </g>
    </g>
</svg>
