<svg xmlns="http://www.w3.org/2000/svg" width="48" height="48" viewBox="0 0 48 48">
    <g fill="none" fill-rule="evenodd">
        <g>
            <g>
                <g>
                    <g>
                        <g>
                            <path d="M0 0H48V48H0z" transform="translate(-252 -202) translate(16 112) translate(0 62) translate(176) translate(60 28)"/>
                            <g transform="translate(-252 -202) translate(16 112) translate(0 62) translate(176) translate(60 28) translate(2.4 5)">
                                <rect width="28.5" height="36.5" x="7.75" y=".75" fill="#FC0" stroke="#222" stroke-width="1.5" rx="4"/>
                                <g>
                                    <path fill="#FFF" d="M18.714 9.357c0 5.168-4.19 9.357-9.357 9.357C4.19 18.714 0 14.524 0 9.357 0 4.19 4.19 0 9.357 0c5.168 0 9.357 4.19 9.357 9.357" transform="translate(12.19 5.57)"/>
                                    <path stroke="#1D1D1B" stroke-linecap="round" stroke-linejoin="round" stroke-width="1.5" d="M18.714 9.357c0 5.168-4.19 9.357-9.357 9.357C4.19 18.714 0 14.524 0 9.357 0 4.19 4.19 0 9.357 0c5.168 0 9.357 4.19 9.357 9.357z" transform="translate(12.19 5.57)"/>
                                    <path fill="#F8B000" d="M15.126 9.469l-.103-.066c-.351-.351-.84-.502-1.496-.464-.545.033-.977.25-1.307.45l-.002-.015c0-.17.021-.356.04-.537.019-.181.038-.368.038-.543 0-.18-.02-.35-.083-.495-.014-.038-.05-.06-.092-.06-.176.003-.52.124-.604.197l-.045.1c-.002.194-.046.74-.089.805l-.023.066c-.074.778-.076 1.462-.009 2.048.009.059.122.147.209.18.096.035.395-.046.568-.111l.066-.01c.054-.006.085-.051.083-.115l.005-.168c.125-.506.629-1.11 1.225-1.202.338-.054.605.033.815.262.028.041.09.406-.133.825-.165.31-.497.572-.932.734-.412.158-.866.221-1.425.202-.025-.015-.526-.355-.526-.355-.444-.311-.995-.7-1.496-.89-.088-.033-.246-.164-.34-.243l-.052-.041c-.288-.232-.837-.6-1.278-.892l-.238-.16v-.05c.013-.013.29-.18.29-.18.39-.227.567-.338.606-.395-.007.009.051-.03.051-.03l.962-.546c.923-.506 1.97-1.082 2.518-1.65.002-.002.028-.087.028-.087l.011-.078c.038-.12.04-.215.009-.323-.009-.03-.037-.067-.075-.073-.429-.043-.982.214-1.486.686-.113.106-.208.16-.31.213l-.078.044c-.554.316-1.804 1.092-2.46 1.511.044-.703.173-1.706.334-2.54l-.017-.1c-.003-.003-.068-.127-.068-.127l-.052-.09-.014-.005c-.13-.065-.238-.039-.316-.02l-.13.05-.175.063c-.035.007-.058.028-.073.061-.312.756-.573 2-.635 2.995-.625-.399-1.203-.684-1.486-.822l-.008-.005-.033-.007c-.102-.013-.227-.088-.346-.16l-.238-.154-.363-.233c.002.003-.095-.022-.095-.022-.157.027-.457.228-.546.365-.01.018-.015.038-.015.059 0 .029.008.058.015.086l.016.073.017.045c.176.178.614.476 1.045.708l.499.264.765.417c0 .004.129.104.129.104l.09.051.017.011-1.391.928-.73.484c-.07.048-.358.177-.421.202-.159.065-.278.164-.328.272l-.02.042.02.028.055.043c-.003 0 .075.048.075.048l.08.055.078.012c.128.005.318-.068.674-.224.327-.145 1.214-.68 1.594-.908l.162-.098c.067.006.14-.051.206-.1.075-.06.241-.163.342-.207.004-.001.061-.034.116-.064l-.001.043c.017 1.162.083 2.006.21 2.656l.002.012.012.026c.063.091.133.367.198.61l.144.483c.003.006.04.045.04.045.082.058.334.154.502.133l.042-.005.027-.058c.014-.073.018-.144.018-.222 0-.09-.005-.187-.013-.306l-.011-.174c-.054-.811-.108-1.98-.108-2.759v-.062l.74.466c1.026.665 2.574 1.67 3.51 1.935.048.015.1.003.136-.032l.144-.092.027-.01c.054-.026.09-.117.095-.215.789-.04 1.889-.343 2.479-1.084.227-.286.33-.637.33-.937 0-.248-.07-.46-.194-.577" transform="translate(12.19 5.57)"/>
                                </g>
                                <g>
                                    <path fill="#FFF" d="M7.587 15.176C3.397 15.176 0 11.779 0 7.588 0 3.397 3.397 0 7.587 0c4.192 0 7.587 3.397 7.587 7.588 0 4.19-3.395 7.588-7.587 7.588z" transform="translate(27.484 26.624)"/>
                                    <path stroke="#1D1D1B" stroke-linecap="round" stroke-linejoin="round" stroke-width="1.5" d="M15.174 7.588c0 4.19-3.395 7.588-7.587 7.588C3.397 15.176 0 11.779 0 7.588 0 3.397 3.397 0 7.587 0c4.192 0 7.587 3.397 7.587 7.588z" transform="translate(27.484 26.624)"/>
                                    <path fill="#008077" d="M9.054 9.01c-.023-.13-.058-.259-.112-.377-.166-.36-.398-.662-.745-.865-.541-.316-1.196-.312-1.73.011-.243.147-.442.358-.571.61-.043.086-.078.177-.107.268-.142.449-.137 1.051.118 1.46.082.134.204.248.35.305.146.057.32.05.451-.036.17-.11.201-.318.17-.506-.04-.238-.071-.472.017-.706.028-.074.068-.145.125-.201.034-.033.077-.061.12-.082.092-.045.197-.064.298-.048.177.028.322.167.4.328.08.16.102.343.11.523.037.78-.149 1.588-.347 2.34l-.065.23c-.018.06-.046.135-.01.194.017.024.043.041.07.053.114.047.21-.025.288-.103.458-.461.752-1.055.952-1.667.075-.228.14-.46.183-.695.06-.324.092-.695.035-1.035M12.332 5.4c0-.117-.104-.195-.216-.19-.113.004-.217.062-.32.101-2.016.766-4.288.911-6.41.605-.364-.052-.73-.125-1.097-.183-.228-.035-.454-.086-.684-.104-.196-.015-.442-.022-.6.115-.21.18-.196.523-.076.75.142.272.392.476.652.63.252.152.554.312.855.292.81-.051 1.62-.13 2.427-.235 1.376-.178 2.816-.347 4.108-.88.422-.174.84-.392 1.201-.674.065-.048.16-.131.16-.227" transform="translate(27.484 26.624)"/>
                                    <path fill="#D01F37" d="M6.555 4.71c0 .438.355.792.792.792.438 0 .793-.354.793-.792 0-.065-.016-.13-.043-.19-.067-.143-.145-.214-.138-.387.011-.232-.287-.235-.447-.235-.176 0-.361.024-.52.103-.126.064-.235.161-.31.28-.08.123-.124.265-.127.41v.019" transform="translate(27.484 26.624)"/>
                                </g>
                                <g>
                                    <path fill="#FFF" d="M11.403 5.702c0 3.149-2.553 5.701-5.701 5.701C2.553 11.403 0 8.851 0 5.702 0 2.553 2.553 0 5.702 0c3.148 0 5.701 2.553 5.701 5.702" transform="translate(0 20.602)"/>
                                    <path stroke="#1D1D1B" stroke-linecap="round" stroke-linejoin="round" stroke-width="1.5" d="M11.403 5.702c0 3.149-2.553 5.701-5.701 5.701C2.553 11.403 0 8.851 0 5.702 0 2.553 2.553 0 5.702 0c3.148 0 5.701 2.553 5.701 5.702z" transform="translate(0 20.602)"/>
                                    <path fill="#F9C00B" d="M6.791 2.938l-1.084.545-.006.004s-1.018-.513-1.089-.55c.038.074 1.066 2.029 1.09 2.072.024-.043 1.052-1.998 1.09-2.071" transform="translate(0 20.602)"/>
                                    <path fill="#F9C00B" d="M7.174 4.54l-.019-.015s.762-.32.78-.326V3.105c-.038.016-1.344.572-1.352.577-.004.007-.732 1.385-.75 1.416.575.07 1.005.55 1.005 1.13 0 .626-.51 1.136-1.136 1.136-.627 0-1.138-.51-1.138-1.136 0-.58.432-1.06 1.005-1.13-.017-.031-.744-1.41-.749-1.416-.008-.005-1.312-.561-1.348-.577v1.094l.776.326-.017.015c-.487.427-.767 1.041-.767 1.688 0 1.234 1.004 2.238 2.238 2.238s2.237-1.004 2.237-2.238c0-.647-.28-1.261-.765-1.688" transform="translate(0 20.602)"/>
                                </g>
                            </g>
                        </g>
                    </g>
                </g>
            </g>
        </g>
    </g>
</svg>
