<svg xmlns="http://www.w3.org/2000/svg" width="24" height="24" viewBox="0 0 24 24">
    <g fill="none" fill-rule="evenodd">
        <g>
            <g>
                <g>
                    <g>
                        <path d="M0 0H16V16H0z" transform="translate(-40.000000, -928.000000) translate(16.000000, 46.000000) translate(0.000000, 808.000000) translate(24.000000, 74.000000)"/>
                        <g>
                            <path d="M0 0H24V24H0z" transform="translate(-40.000000, -928.000000) translate(16.000000, 46.000000) translate(0.000000, 808.000000) translate(24.000000, 74.000000)"/>
                            <path fill="#90DAFF" stroke="#222" d="M19.55 13.876c1.172 0 2.121-1.005 2.121-2.245 0-1.24-.95-2.245-2.121-2.245-.183 0-.357.033-.525.078-.164-2.088-1.816-3.73-3.832-3.73-1.675 0-3.095 1.133-3.625 2.712-.296-.121-.617-.19-.955-.19-1.466 0-2.656 1.258-2.656 2.81 0 1.551 1.19 2.81 2.656 2.81h8.937z" transform="translate(-40.000000, -928.000000) translate(16.000000, 46.000000) translate(0.000000, 808.000000) translate(24.000000, 74.000000)"/>
                            <path fill="#FFF" stroke="#222" d="M14.192 16.019c1.173 0 2.122-1.005 2.122-2.245 0-1.24-.95-2.245-2.122-2.245-.182 0-.356.032-.525.078-.163-2.089-1.815-3.73-3.831-3.73-1.675 0-3.095 1.133-3.625 2.712-.296-.121-.617-.19-.955-.19-1.466 0-2.656 1.258-2.656 2.81 0 1.551 1.19 2.81 2.656 2.81h8.936z" transform="translate(-40.000000, -928.000000) translate(16.000000, 46.000000) translate(0.000000, 808.000000) translate(24.000000, 74.000000)"/>
                            <path stroke="#222" stroke-linejoin="bevel" d="M9.886 7.876c-2.13 0-3.857 1.726-3.857 3.857M14.172 11.519c-.702 0-1.324.336-1.715.857" transform="translate(-40.000000, -928.000000) translate(16.000000, 46.000000) translate(0.000000, 808.000000) translate(24.000000, 74.000000)"/>
                        </g>
                    </g>
                </g>
            </g>
        </g>
    </g>
</svg>
