<svg xmlns="http://www.w3.org/2000/svg" width="48" height="48" viewBox="0 0 48 48">
    <g fill="none" fill-rule="evenodd">
        <g>
            <g>
                <g>
                    <g>
                        <path d="M0 0H48V48H0z" transform="translate(-32.000000, -339.000000) translate(16.000000, 112.000000) translate(0.000000, 146.000000) translate(16.000000, 81.000000)"/>
                        <g>
                            <path fill="#FC0" d="M36 22V3.846C36 1.721 34.434 0 32.504 0H0v18.155C0 20.278 1.565 22 3.497 22H36z" transform="translate(-32.000000, -339.000000) translate(16.000000, 112.000000) translate(0.000000, 146.000000) translate(16.000000, 81.000000) translate(6.000000, 11.000000)"/>
                            <path stroke="#070100" stroke-width="1.5" d="M30.016 22H3.496C1.565 22 0 20.278 0 18.155V0h32.504C34.434 0 36 1.721 36 3.846v8.755" transform="translate(-32.000000, -339.000000) translate(16.000000, 112.000000) translate(0.000000, 146.000000) translate(16.000000, 81.000000) translate(6.000000, 11.000000)"/>
                            <path fill="#FEFEFE" d="M4.001 8L19.001 8 19.001 4 4.001 4z" transform="translate(-32.000000, -339.000000) translate(16.000000, 112.000000) translate(0.000000, 146.000000) translate(16.000000, 81.000000) translate(6.000000, 11.000000)"/>
                            <path fill="#070100" stroke="#FFF" stroke-width="1.5" d="M26.11 16.592c-.105-.406-.21-.814-.311-1.223l-.185-.745 3.412-.761.176.71c.253 1.019.519 2.032.799 3.04l.8-2.685c.218-.731.908-1.226 1.68-1.226.788 0 1.479.489 1.7 1.223l.81 2.7c.089-.313.173-.62.252-.917.087-.327.176-.665.288-1.1l.137-.528.136-.524.184-.708 3.403.795-.193.744-.136.523-.137.529-.04.153h1.366v3.396h-2.304l-.123.42c-.236.8-.387 1.278-.563 1.767l-.262.74-.127.364-.04.11c-.005.019-.005.019-.01.03l-.002.008s0-.004.01-.031l-.011.024v.013c-.077.215-.141.393-.205.564l-.018.046c-.006.019-.006.019-.018.048-.582 1.535-2.85 1.463-3.322-.111l-.758-2.523-.751 2.52c-.47 1.574-2.736 1.65-3.322.118-.505-1.321-.966-2.691-1.38-4.107H24.75v-3.396h1.359z" transform="translate(-32.000000, -339.000000) translate(16.000000, 112.000000) translate(0.000000, 146.000000) translate(16.000000, 81.000000) translate(6.000000, 11.000000)"/>
                        </g>
                    </g>
                </g>
            </g>
        </g>
    </g>
</svg>
