<svg xmlns="http://www.w3.org/2000/svg" width="24" height="24" viewBox="0 0 24 24">
    <g fill="none" fill-rule="evenodd">
        <g>
            <g>
                <g>
                    <g>
                        <g>
                            <g>
                                <path fill="#222" d="M5.359 6.644c0 .523-.437.949-.974.949-.538 0-.975-.426-.975-.95 0-.523.437-.949.975-.949.537 0 .974.426.974.95M9.256 7.593c-.537 0-.974-.426-.974-.95 0-.523.437-.949.974-.949.538 0 .975.426.975.95 0 .523-.437.949-.975.949M15.103 6.644c0 .523-.437.949-.975.949s-.974-.426-.974-.95c0-.523.436-.949.974-.949s.975.426.975.95" transform="translate(-836 -728) translate(54.5 160) translate(25.5 242) translate(0 276) translate(756 50) translate(3 4)"/>
                                <path stroke="#222" stroke-width="1.5" d="M19.263 13.287h-8.739l-2.961 2.621c-.143.127-.362.122-.499-.011-.156-.152-.243-.358-.243-.573v-2.037H1.949C.873 13.287 0 12.437 0 11.39V0h16.564c1.076 0 1.949.85 1.949 1.898v12.136" transform="translate(-836 -728) translate(54.5 160) translate(25.5 242) translate(0 276) translate(756 50) translate(3 4)"/>
                            </g>
                        </g>
                    </g>
                </g>
            </g>
        </g>
    </g>
</svg>
