<svg xmlns="http://www.w3.org/2000/svg" width="24" height="24" viewBox="0 0 24 24">
    <g fill="none" fill-rule="evenodd">
        <g>
            <g>
                <g>
                    <g>
                        <path d="M0 0H24V24H0z" transform="translate(-40.000000, -165.000000) translate(16.000000, 46.000000) translate(0.000000, 45.000000) translate(24.000000, 74.000000)"/>
                        <g>
                            <path fill="#FC0" d="M14.34 8.94c0-3.06-2.481-5.541-5.542-5.541-3.06 0-5.54 2.48-5.54 5.54 0 3.061 2.48 5.542 5.54 5.542s5.542-2.48 5.542-5.541" transform="translate(-40.000000, -165.000000) translate(16.000000, 46.000000) translate(0.000000, 45.000000) translate(24.000000, 74.000000) translate(3.000000, 3.000000)"/>
                            <g>
                                <path stroke="#070100" d="M6.394 1.967c0 1.739-1.432 3.148-3.197 3.148C1.43 5.115 0 3.705 0 1.967" transform="translate(-40.000000, -165.000000) translate(16.000000, 46.000000) translate(0.000000, 45.000000) translate(24.000000, 74.000000) translate(3.000000, 3.000000) translate(5.541163, 6.819877)"/>
                                <path fill="#070100" d="M2.398.787c0 .434-.358.787-.8.787C1.157 1.574.8 1.22.8.787.8.352 1.157 0 1.6 0c.44 0 .799.352.799.787M5.594.787c0 .434-.358.787-.799.787-.441 0-.799-.353-.799-.787 0-.435.358-.787.8-.787.44 0 .798.352.798.787" transform="translate(-40.000000, -165.000000) translate(16.000000, 46.000000) translate(0.000000, 45.000000) translate(24.000000, 74.000000) translate(3.000000, 3.000000) translate(5.541163, 6.819877)"/>
                            </g>
                            <path stroke="#070100" d="M3.746 14.254L2.239 15.761M15.716 2.284L14.209 3.791M2.131 9.076L0 9.076M18 9.076L15.869 9.076M15.716 15.869L14.209 14.362M8.924 15.869L8.924 18M3.746 3.899L2.239 2.392M8.924 0L8.924 2.131M14.34 8.94c0-3.06-2.481-5.541-5.542-5.541-3.06 0-5.54 2.48-5.54 5.54 0 3.061 2.48 5.542 5.54 5.542 1.69 0 3.204-.757 4.22-1.95" transform="translate(-40.000000, -165.000000) translate(16.000000, 46.000000) translate(0.000000, 45.000000) translate(24.000000, 74.000000) translate(3.000000, 3.000000)"/>
                        </g>
                    </g>
                </g>
            </g>
        </g>
    </g>
</svg>
