<svg xmlns="http://www.w3.org/2000/svg" width="63" height="65" viewBox="0 0 63 65">
    <g fill="none" fill-rule="evenodd">
        <g>
            <g>
                <g>
                    <g transform="translate(-185.000000, -325.000000) translate(16.000000, 282.000000) translate(115.000000, 0.000000) translate(54.000000, 43.000000)">
                        <path d="M0 0H63V65H0z"/>
                        <path fill="#787878" d="M60.48 61.078v.001c-1.361 1.361-3.568 1.361-4.928 0L34.397 39.924l-2.687-2.687c1.957-1.292 3.635-2.972 4.927-4.928l23.842 23.843c1.361 1.36 1.361 3.567 0 4.926"/>
                        <path fill="#FFDE00" d="M37.708 33.38l5.511 5.512c-1.29 1.958-2.968 3.636-4.925 4.928l-2.825-2.825-2.689-2.688c1.96-1.292 3.637-2.97 4.928-4.926"/>
                        <circle cx="22" cy="22.791" r="19" fill="#FFF" opacity=".4"/>
                        <path fill="#B8B8B8" d="M22.206 40.081c-3.78 0-7.277-1.214-10.122-3.274-2.76-1.998-4.906-4.793-6.103-8.05-.68-1.856-1.051-3.86-1.051-5.95 0-.789.053-1.564.155-2.32.86-6.407 5.23-11.702 11.113-13.885 1.871-.693 3.895-1.073 6.008-1.073.764 0 1.515.05 2.253.147 3.504.456 6.677 1.96 9.195 4.19 3.574 3.165 5.828 7.789 5.828 12.94 0 .264-.006.524-.018.785-.055 1.268-.25 2.5-.566 3.683-.483 1.813-1.255 3.508-2.261 5.034-1.292 1.958-2.97 3.636-4.927 4.928-.482.317-.978.61-1.49.879-1.093.574-2.257 1.034-3.474 1.364-1.447.393-2.969.602-4.54.602m20.996-18.18c-.04-.894-.132-1.771-.277-2.632-.83-4.89-3.347-9.205-6.933-12.323-3.69-3.212-8.511-5.155-13.786-5.155C10.6 1.791 1.192 11.2 1.192 22.806c0 .802.045 1.596.132 2.376.275 2.445.97 4.762 2.012 6.88 1.494 3.044 3.704 5.673 6.41 7.666.44.325.893.634 1.357.923 3.223 2.008 7.027 3.17 11.103 3.17 4.545 0 8.754-1.444 12.19-3.896l.002-.001c1.903-1.357 3.568-3.025 4.926-4.927h.002c1.363-1.912 2.415-4.062 3.08-6.375.53-1.848.814-3.798.814-5.816 0-.303-.007-.606-.018-.906"/>
                    </g>
                </g>
            </g>
        </g>
    </g>
</svg>
