<svg xmlns="http://www.w3.org/2000/svg" width="162" height="77" viewBox="0 0 162 77">
    <g fill="none" fill-rule="evenodd">
        <g>
            <g>
                <g>
                    <g>
                        <g>
                            <path fill="#F4F4F4" d="M26.728 14.16c.197-.892.292-1.823.266-2.781C26.826 5.09 21.34-.134 15.05.003 8.715.14 3.623 5.32 3.623 11.687c0 .84.092 1.656.263 2.442.31 1.425.045 2.886-.83 4.052-1.72 2.29-2.815 5.078-3.023 8.11C-.55 34.756 6.614 42.55 15.1 42.667c8.554.117 15.526-6.784 15.526-15.312 0-3.44-1.137-6.61-3.053-9.165-.87-1.161-1.157-2.612-.844-4.03" transform="translate(-107.000000, -285.000000) translate(16.000000, 284.000000) translate(52.000000, 0.000000) translate(39.000000, 1.000000) translate(0.000000, 23.000000)"/>
                            <path fill="#E8E8E8" d="M13.407 53.64L17.217 53.64 17.217 23.163 13.407 23.163z" transform="translate(-107.000000, -285.000000) translate(16.000000, 284.000000) translate(52.000000, 0.000000) translate(39.000000, 1.000000) translate(0.000000, 23.000000)"/>
                            <path fill="#E8E8E8" d="M23.696 31.954L21.002 29.26 13.407 36.855 16.101 39.549z" transform="translate(-107.000000, -285.000000) translate(16.000000, 284.000000) translate(52.000000, 0.000000) translate(39.000000, 1.000000) translate(0.000000, 23.000000)"/>
                        </g>
                        <g>
                            <path fill="#F4F4F4" d="M19.201 10.172c.141-.641.21-1.309.19-1.998-.12-4.516-4.062-8.27-8.579-8.172-4.55.1-8.208 3.82-8.208 8.394 0 .602.065 1.189.189 1.754.222 1.024.032 2.073-.597 2.911C.96 14.707.174 16.708.024 18.887c-.419 6.08 4.729 11.68 10.823 11.763 6.145.083 11.153-4.874 11.153-11 0-2.47-.817-4.747-2.192-6.583-.626-.834-.832-1.877-.607-2.895" transform="translate(-107.000000, -285.000000) translate(16.000000, 284.000000) translate(52.000000, 0.000000) translate(39.000000, 1.000000) translate(140.000000, 38.000000)"/>
                            <path fill="#E8E8E8" d="M9.632 38.533L12.369 38.533 12.369 16.64 9.632 16.64z" transform="translate(-107.000000, -285.000000) translate(16.000000, 284.000000) translate(52.000000, 0.000000) translate(39.000000, 1.000000) translate(140.000000, 38.000000)"/>
                            <path fill="#E8E8E8" d="M17.023 22.954L15.088 21.019 9.633 26.475 11.567 28.41z" transform="translate(-107.000000, -285.000000) translate(16.000000, 284.000000) translate(52.000000, 0.000000) translate(39.000000, 1.000000) translate(140.000000, 38.000000)"/>
                        </g>
                        <g>
                            <path fill="#F4F4F4" d="M38.183 20.229c.281-1.275.416-2.604.38-3.974C38.322 7.273 30.483-.192 21.5.004 12.451.202 5.176 7.6 5.176 16.696c0 1.199.131 2.365.376 3.489.443 2.034.064 4.122-1.186 5.788C1.908 29.245.346 33.226.047 37.558-.785 49.65 9.45 60.788 21.57 60.953c12.221.165 22.18-9.692 22.18-21.875 0-4.913-1.624-9.443-4.36-13.092-1.245-1.66-1.653-3.732-1.206-5.757" transform="translate(-107.000000, -285.000000) translate(16.000000, 284.000000) translate(52.000000, 0.000000) translate(39.000000, 1.000000) translate(41.000000, 0.000000)"/>
                            <path fill="#E8E8E8" d="M19.969 76.802L23.779 76.802 23.779 36.572 19.969 36.572z" transform="translate(-107.000000, -285.000000) translate(16.000000, 284.000000) translate(52.000000, 0.000000) translate(39.000000, 1.000000) translate(41.000000, 0.000000)"/>
                            <path fill="#E8E8E8" d="M33.205 46.074L30.511 43.38 19.97 53.92 22.664 56.615z" transform="translate(-107.000000, -285.000000) translate(16.000000, 284.000000) translate(52.000000, 0.000000) translate(39.000000, 1.000000) translate(41.000000, 0.000000)"/>
                            <path fill="#E8E8E8" d="M21.086 52.828L23.779 50.135 15.924 42.279 13.231 44.973z" transform="translate(-107.000000, -285.000000) translate(16.000000, 284.000000) translate(52.000000, 0.000000) translate(39.000000, 1.000000) translate(41.000000, 0.000000)"/>
                        </g>
                    </g>
                </g>
            </g>
        </g>
    </g>
</svg>
