<svg xmlns="http://www.w3.org/2000/svg" xmlns:xlink="http://www.w3.org/1999/xlink" width="40" height="40" viewBox="0 0 40 40">
    <defs>
        <path id="p8ulf8yraa" d="M0 0L2.142 0 2.142 2.924 0 2.924z"/>
        <path id="4jyg71gbqc" d="M0 0L2.141 0 2.141 2.924 0 2.924z"/>
        <path id="y8dkoax6re" d="M0 0L17.5 0 17.5 8.106 0 8.106z"/>
        <path id="64w0qqti7g" d="M0 0L17.5 0 17.5 8.106 0 8.106z"/>
    </defs>
    <g fill="none" fill-rule="evenodd">
        <g>
            <g>
                <g>
                    <g>
                        <g transform="translate(-40 -382) translate(16 204) translate(24 92) translate(0 76) translate(0 10)">
                            <circle cx="20" cy="20" r="19.5" fill="#FFF" stroke="#EEE"/>
                            <g>
                                <path fill="#060101" d="M17.517 8.119L17.518 8.119 17.517 8.118z" transform="translate(2.5 13.75)"/>
                                <g>
                                    <path fill="#060101" d="M23.334 2.993c-.402.243-.481.377-.826.856-.455.634-1.293 1.886-2.248 2.774 1.002-.773 1.94-1.98 2.358-2.569.223-.314.512-.603.808-.78.334-.202.706-.304 1.798-.498 0 0 2.234-.33 3.853-.52 2.304-.269 4.429-.689 4.429-.689l-5.16.597c-1.462.169-3.095.378-3.095.378-1.45.202-1.68.308-1.917.451M13.953 12.628l-.104-.32h-2.045l-.046.097.1.062c.086.053.11.094.11.19l-.001 2.452h1.98v-.333h-1.406v-.963h1.227v-.32H12.54v-.865h1.412zM19.811 12.628l-.104-.32h-2.045l-.046.097.1.062c.086.053.11.094.11.19v2.452h1.98v-.333H18.4v-.963h1.225v-.32H18.4v-.865h1.411zM22.88 12.405l.1.062c.086.053.11.093.11.19v2.452h.573v-2.8h-.737l-.046.096zM10.2 13.711l.255.113c.081.036.112.077.112.17v.729c-.119.06-.279.114-.463.111-.298-.003-.637-.19-.784-.467-.111-.21-.166-.451-.166-.653 0-.644.359-1.143.99-1.143.15 0 .47-.002.851.344l.123-.454c-.418-.174-1.012-.292-1.545-.153-.619.16-1.018.665-1.018 1.415 0 .92.6 1.446 1.47 1.446.643 0 1.036-.21 1.128-.285v-1.27h-.912l-.041.097zM16.59 14.277l-1.537-1.97h-.543l-.045.098.1.062c.085.053.11.094.11.18v2.462h.406v-1.883l1.473 1.883H16.997v-2.801h-.406v1.969z" transform="translate(2.5 13.75)"/>
                                    <g transform="translate(2.5 13.75) translate(20.357 12.247)">
                                        <mask id="8w2cfe7j0b" fill="#fff">
                                            <use xlink:href="#p8ulf8yraa"/>
                                        </mask>
                                        <path fill="#060101" d="M1.28 1.189C.914 1.019.57.874.576.616.579.44.768.303 1.028.303c.346 0 .624.084.898.196l.07-.347C1.754.067 1.403 0 1.12 0 .412 0 .009.285 0 .687c-.01.438.356.664.734.846.214.102.382.177.506.252.365.221.34.468.228.629-.097.137-.311.178-.47.178-.28 0-.666-.12-.89-.227l-.045.444c.118.03.469.115.829.115.7 0 1.236-.227 1.25-.842.01-.47-.442-.698-.862-.893" mask="url(#8w2cfe7j0b)"/>
                                    </g>
                                    <g transform="translate(2.5 13.75) translate(24.242 12.247)">
                                        <mask id="jqsfp31m2d" fill="#fff">
                                            <use xlink:href="#4jyg71gbqc"/>
                                        </mask>
                                        <path fill="#060101" d="M1.28 1.189C.913 1.019.57.874.576.616.579.44.767.303 1.028.303c.345 0 .624.084.898.196l.071-.347C1.753.067 1.402 0 1.119 0 .411 0 .01.285 0 .687c-.009.438.356.664.734.846.214.102.381.177.506.252.365.221.34.468.227.629-.096.137-.31.178-.469.178-.28 0-.666-.12-.89-.227l-.046.444c.118.03.47.115.83.115.7 0 1.237-.227 1.25-.842.01-.47-.442-.698-.862-.893" mask="url(#jqsfp31m2d)"/>
                                    </g>
                                    <path fill="#060101" d="M20.022 3.461c-.12 0-.234-.027-.277-.037l-.032-.008.003-.03.02-.194.044.021c.074.035.193.07.276.07.01 0 .096 0 .126-.043.01-.015.022-.039.016-.066-.006-.032-.034-.062-.08-.09-.028-.017-.063-.034-.104-.053l-.06-.029c-.127-.061-.262-.141-.259-.308.004-.16.157-.259.4-.259.092 0 .212.021.3.052l.028.01-.038.184-.038-.016c-.075-.03-.167-.062-.28-.062-.064 0-.114.03-.115.069 0 .057.088.099.19.146l.02.01c.13.06.308.141.303.324-.003.14-.083.309-.443.309zm-.46-.02h-.256v-.837c0-.02-.002-.022-.02-.033l-.058-.036.036-.08h.298v.986zm-.837.02c-.12 0-.238-.028-.277-.037l-.03-.007.001-.03.02-.195.044.021c.074.035.193.07.277.07.01 0 .096 0 .125-.043.01-.015.022-.038.016-.066-.007-.032-.033-.062-.08-.09-.026-.016-.059-.032-.1-.051l-.063-.03c-.127-.062-.263-.142-.26-.309.004-.16.157-.259.401-.259.09 0 .21.021.299.052l.028.01-.037.184-.039-.016c-.075-.03-.167-.062-.28-.062-.064 0-.113.03-.114.069-.001.058.088.1.192.148l.018.008c.13.06.306.141.302.324-.003.14-.083.309-.443.309zm-.504-.618v.174h-.402v.246h.46v.178h-.716v-.837c0-.02-.002-.022-.02-.033l-.059-.036.037-.08h.717l.002.009.053.165h-.474v.214h.402zm-.872.598h-.196l-.007-.009-.424-.542v.552h-.012l-.19-.005v-.836c0-.014 0-.018-.019-.03l-.06-.036.038-.08h.217l.007.01.444.57v-.58h.202v.986zm-1.066-.598v.174h-.402v.246h.461v.178h-.716v-.837c0-.019-.002-.021-.02-.033l-.059-.036.037-.08h.717l.003.009.052.165h-.475v.214h.402zm-.866.506l-.012.01c-.035.029-.173.102-.392.102-.318 0-.516-.195-.516-.508 0-.252.134-.438.36-.497.155-.04.353-.021.528.052l.027.012-.004.019-.058.213-.042-.038c-.115-.104-.21-.104-.255-.104-.174 0-.29.137-.29.34 0 .064.019.138.05.198.04.075.137.133.227.134h.002c.048 0 .087-.012.114-.024v-.216c0-.016 0-.018-.016-.024l-.114-.051.036-.084h.355v.466zm5.675-1.036c-.051-.15-.155-.226-.212-.267-.064-.045-.705-.364-1.578-.634-.669-.207-1.314-.326-1.626-.384L17.485.99l-.168.04c-.31.057-.956.176-1.626.383-.871.27-1.513.59-1.58.635-.055.04-.158.115-.21.266-.043.13-.004.298 0 .316.082.337.385 1.306.717 2.023.125.269.227.467.346.628.373.546 1.561 1.333 2.25 1.658l.283.122.284-.123c.687-.324 1.876-1.111 2.248-1.656.12-.161.221-.36.347-.63.332-.716.635-1.685.716-2.021.005-.02.044-.186 0-.317z" transform="translate(2.5 13.75)"/>
                                    <g transform="translate(2.5 13.75) translate(17.5)">
                                        <mask id="j8if22gxvf" fill="#fff">
                                            <use xlink:href="#y8dkoax6re"/>
                                        </mask>
                                        <path fill="#060101" d="M16.057 1.764s-.212.36-.505.675c-.317.34-.683.656-1.544.858-.764.178-1.176.153-1.763.175-.758.03-4.24.105-5.478.118 0 0-.46.004-.605.066-.145.062-.205.116-.242.166-.054.071.063.128.352.142.289.014 4.874.239 5.232.262 0 0 .015.043-.118.09-.133.046-.982.31-1.96.608-.976.298-1.62.502-2.09.588-.511.093-1.453.137-2.293.073-.466-.036-.674.012-.836.133-.179.133.058.156.26.214.21.062.588.172.655.19.068.018.242.084.077.14-.165.055-1.386.382-2.197.634-.878.271-1.116.274-1.016.123.054-.082.193-.181.418-.402.328-.324.888-1.007 1.16-1.407.386-.565.664-.944 1.148-1.642.236-.34.477-.627.908-.897 0 0 .442-.307 2.1-.492 1.656-.185 4.97-.652 8.286-.92l1.136-.548c-.557-.112-11.442.501-11.89.52-.446.018-.765.097-1.596-.217C3.096.802 1.132.198 0 0l.004.008.434.696c.377.072.958.193 1.56.38.983.303 1.678.653 1.753.705.066.048.198.144.263.334.055.162.011.356.002.394-.09.37-.424 1.44-.79 2.23-.14.3-.254.522-.389.704-.368.539-1.451 1.29-2.222 1.702L0 8.105 0 8.106C1.668 7.788 9.637 5.4 14.2 4.037c1.133-.338 1.521-.635 1.521-.635.767-.515 1.4-1.524 1.717-2.14.036-.07.062-.156.062-.156s-.495.296-1.443.658" mask="url(#j8if22gxvf)"/>
                                    </g>
                                    <path fill="#060101" d="M17.518 8.123zM11.666 2.993c.402.243.481.377.826.856.455.634 1.293 1.886 2.248 2.774-1.002-.773-1.94-1.98-2.358-2.569-.222-.314-.512-.603-.808-.78-.334-.202-.706-.304-1.799-.498 0 0-2.233-.33-3.852-.52-2.304-.269-4.429-.689-4.429-.689l5.16.597c1.462.169 3.095.378 3.095.378 1.45.202 1.68.308 1.917.451" transform="translate(2.5 13.75)"/>
                                    <g transform="translate(2.5 13.75)">
                                        <mask id="jrasd47a8h" fill="#fff">
                                            <use xlink:href="#64w0qqti7g"/>
                                        </mask>
                                        <path fill="#060101" d="M1.443 1.764s.212.36.505.675c.317.34.683.656 1.544.858.763.178 1.175.153 1.762.175.76.03 4.24.105 5.479.118 0 0 .46.004.605.066.145.062.205.116.242.166.054.071-.063.128-.352.142-.289.014-4.874.239-5.232.262 0 0-.015.043.118.09.133.046.982.31 1.959.608.977.298 1.62.502 2.09.588.512.093 1.454.137 2.294.073.466-.036.674.012.836.133.178.133-.059.156-.26.214-.211.062-.588.172-.655.19-.068.018-.242.084-.077.14.165.055 1.386.382 2.197.634.877.271 1.116.274 1.016.123-.054-.082-.194-.181-.418-.402-.328-.324-.89-1.007-1.161-1.407-.385-.565-.663-.944-1.147-1.642-.236-.34-.477-.627-.909-.897 0 0-.442-.307-2.099-.492-1.656-.185-4.971-.652-8.286-.92L.358.711c.556-.112 11.442.501 11.889.52.447.018.766.097 1.597-.217C14.404.802 16.368.198 17.5 0l-.005.008-.433.696c-.378.072-.959.193-1.561.38-.983.303-1.677.653-1.752.705-.066.048-.199.144-.263.334-.055.162-.011.356-.002.394.09.37.424 1.44.79 2.23.14.3.253.522.389.704.368.539 1.45 1.29 2.222 1.702l.614.952v.001C15.832 7.788 7.863 5.4 3.3 4.037c-1.133-.338-1.522-.635-1.522-.635-.766-.515-1.4-1.524-1.716-2.14C.025 1.192 0 1.106 0 1.106s.494.296 1.443.658" mask="url(#jrasd47a8h)"/>
                                    </g>
                                </g>
                            </g>
                        </g>
                    </g>
                </g>
            </g>
        </g>
    </g>
</svg>
