<svg xmlns="http://www.w3.org/2000/svg" xmlns:xlink="http://www.w3.org/1999/xlink" width="40" height="40" viewBox="0 0 40 40">
    <defs>
        <path id="md9yu0c14a" d="M0 0L7.911 0 7.911 11.654 0 11.654z"/>
        <path id="h7r0atoegc" d="M0 0L22.155 0 22.155 5.156 0 5.156z"/>
        <path id="2u70grpx6e" d="M0 0L3.7 0 3.7 3.746 0 3.746z"/>
    </defs>
    <g fill="none" fill-rule="evenodd">
        <g>
            <g>
                <g>
                    <g>
                        <g transform="translate(-16 -1370) translate(0 1111) translate(0 112) translate(0 137) translate(16 10)">
                            <circle cx="20" cy="20" r="20" fill="#008375"/>
                            <g>
                                <g transform="translate(8.75 10.563) translate(6.661 8.49)">
                                    <mask id="47ljnv76jb" fill="#fff">
                                        <use xlink:href="#md9yu0c14a"/>
                                    </mask>
                                    <path fill="#FFF" d="M7.841 3.447c-.052-.307-.136-.604-.26-.88-.388-.84-.93-1.546-1.742-2.019-1.263-.738-2.79-.732-4.04.026C1.234.915.77 1.407.468 1.998c-.1.2-.183.41-.25.624-.33 1.046-.319 2.454.276 3.41.193.311.473.577.816.71.342.133.748.119 1.057-.082.397-.256.468-.747.394-1.183-.093-.554-.165-1.103.04-1.647.065-.174.157-.342.292-.47.081-.078.178-.143.279-.192.216-.105.46-.152.698-.113.413.068.751.388.935.765.184.376.235.802.255 1.22.087 1.824-.348 3.714-.814 5.465-.048.181-.098.36-.148.54-.04.138-.112.314-.023.45.038.057.099.097.162.124.27.11.492-.056.672-.24 1.07-1.075 1.757-2.462 2.224-3.89.176-.532.325-1.076.427-1.627.138-.756.216-1.619.082-2.415" mask="url(#47ljnv76jb)"/>
                                </g>
                                <g transform="translate(8.75 10.563) translate(0 3.062)">
                                    <mask id="0dywp5z4kd" fill="#fff">
                                        <use xlink:href="#h7r0atoegc"/>
                                    </mask>
                                    <path fill="#FFF" d="M22.155.446c0-.273-.241-.454-.501-.446-.264.011-.51.145-.752.239-4.703 1.788-10.008 2.126-14.965 1.413-.847-.123-1.707-.293-2.56-.427-.532-.083-1.06-.204-1.597-.245C1.32.946.749.93.379 1.247-.111 1.67-.076 2.471.2 3c.333.634.917 1.11 1.523 1.472.59.35 1.293.725 1.995.68 1.895-.12 3.784-.303 5.667-.547 3.21-.418 6.577-.812 9.592-2.057.987-.407 1.959-.915 2.804-1.571.153-.117.373-.308.373-.531" mask="url(#0dywp5z4kd)"/>
                                </g>
                                <g transform="translate(8.75 10.563) translate(8.668)">
                                    <mask id="8mj1ccgpef" fill="#fff">
                                        <use xlink:href="#2u70grpx6e"/>
                                    </mask>
                                    <path fill="#FFF" d="M0 1.896c0 1.022.829 1.85 1.85 1.85 1.021 0 1.85-.828 1.85-1.85 0-.152-.035-.304-.1-.442-.159-.337-.337-.5-.319-.903C3.305.007 2.608 0 2.233 0c-.41 0-.844.056-1.213.242C.725.391.472.62.294.896c-.185.284-.286.62-.294.958v.042" mask="url(#8mj1ccgpef)"/>
                                </g>
                            </g>
                        </g>
                    </g>
                </g>
            </g>
        </g>
    </g>
</svg>
