<svg xmlns="http://www.w3.org/2000/svg" xmlns:xlink="http://www.w3.org/1999/xlink" width="40" height="40" viewBox="0 0 40 40">
    <defs>
        <path id="d6zyc7xuga" d="M0 0L17.5 0 17.5 20.964 0 20.964z"/>
    </defs>
    <g fill="none" fill-rule="evenodd">
        <g>
            <g>
                <g>
                    <g>
                        <g>
                            <g transform="translate(-16.000000, -2035.000000) translate(0.000000, 1410.000000) translate(0.000000, 112.000000) translate(0.000000, 366.000000) translate(0.000000, 137.000000) translate(16.000000, 10.000000)">
                                <circle cx="20" cy="20" r="20" fill="#006DBA"/>
                                <g>
                                    <path fill="#FABC1C" d="M8.749 2.143L4.488 0 8.749 8.103 13.014 0z" transform="translate(11.250000, 8.750097)"/>
                                    <g transform="translate(11.250000, 8.750097) translate(0.000000, 0.653722)">
                                        <mask id="7yacldr9rb" fill="#fff">
                                            <use xlink:href="#d6zyc7xuga"/>
                                        </mask>
                                        <path fill="#FABC1C" d="M14.505 5.61l-.067-.057 3.041-1.278V0l-5.285 2.252s-2.86 5.422-2.927 5.545c2.243.269 3.924 2.148 3.924 4.413 0 2.453-1.992 4.448-4.443 4.448-2.45 0-4.445-1.995-4.445-4.448 0-2.265 1.684-4.143 3.924-4.413-.063-.123-2.922-5.545-2.922-5.545L.023 0v4.275l3.041 1.278-.067.057C1.093 7.276 0 9.682 0 12.21c0 4.827 3.924 8.754 8.748 8.754 4.825 0 8.752-3.927 8.752-8.754 0-2.527-1.093-4.933-2.995-6.6" mask="url(#7yacldr9rb)"/>
                                    </g>
                                </g>
                            </g>
                        </g>
                    </g>
                </g>
            </g>
        </g>
    </g>
</svg>
