<svg xmlns="http://www.w3.org/2000/svg" xmlns:xlink="http://www.w3.org/1999/xlink" width="56" height="56" viewBox="0 0 56 56">
    <defs>
        <path id="i78cqvp8la" d="M0 0L40 0 40 32.238 0 32.238z"/>
    </defs>
    <g fill="none" fill-rule="evenodd">
        <g>
            <g>
                <g>
                    <g>
                        <g>
                            <path d="M0 0H56V56H0z" transform="translate(-32.000000, -1410.000000) translate(0.000000, 598.000000) translate(0.000000, 728.000000) translate(16.000000, 72.000000) translate(16.000000, 12.000000)"/>
                            <g>
                                <path fill="#FFC031" d="M11.85 6.347c-1.166 4.506 1.54 9.088 6.04 10.234 4.502 1.145 9.095-1.58 10.26-6.086 1.166-4.507-1.54-9.088-6.04-10.233-4.501-1.146-9.095 1.579-10.26 6.085" transform="translate(-32.000000, -1410.000000) translate(0.000000, 598.000000) translate(0.000000, 728.000000) translate(16.000000, 72.000000) translate(16.000000, 12.000000) translate(8.000000, 6.000000)"/>
                                <path stroke="#FFF" stroke-linecap="round" stroke-linejoin="round" d="M15.79 8.29h1.804m4.812 0h1.805m-1.053-3.027l-1.549 5.528-1.55-5.528h-.119l-1.548 5.528-1.55-5.528" transform="translate(-32.000000, -1410.000000) translate(0.000000, 598.000000) translate(0.000000, 728.000000) translate(16.000000, 72.000000) translate(16.000000, 12.000000) translate(8.000000, 6.000000)"/>
                                <g transform="translate(-32.000000, -1410.000000) translate(0.000000, 598.000000) translate(0.000000, 728.000000) translate(16.000000, 72.000000) translate(16.000000, 12.000000) translate(8.000000, 6.000000) translate(0.000000, 14.115437)">
                                    <mask id="l7fdjy2bvb" fill="#fff">
                                        <use xlink:href="#i78cqvp8la"/>
                                    </mask>
                                    <path fill="#FFBBC1" d="M36.615 8.16c-.08-.089-.153-.184-.222-.282-.07-.097-.134-.2-.194-.304-.06-.105-.116-.212-.167-.322l-.038-.083-.036-.082c-.022-.054-.043-.108-.062-.163-.075-.217-.117-.444-.099-.641.01-.099.034-.187.074-.258.041-.071.095-.13.162-.173.135-.09.335-.118.489-.079.078.019.14.056.183.099l.016.016.026.03c.017.02.035.038.05.058.03.041.063.082.088.126.22.341.274.771.204 1.197-.035.212-.1.423-.187.618-.044.097-.094.19-.148.27-.013.02-.026.04-.04.056l-.01.013-.09-.096M.745 18.886l2.156.987c.458.21.824.577 1.035 1.034.83 1.804 2.036 3.432 3.533 4.807.663.61 1.147 1.39 1.405 2.254l1.06 3.563c.125.42.51.707.948.707h5.662c.387 0 .738-.225.9-.576l.454-.99c.122-.266.394-.431.686-.416.32.017.644.024.97.024.343 0 .685-.008 1.024-.027.293-.016.565.15.687.416l.497 1.08c.136.298.434.49.762.49h5.937c.332 0 .624-.219.719-.537l.92-3.091c.378-1.27 1.075-2.416 2.012-3.351 2.69-2.682 4.326-6.23 4.326-10.12 0-1.728-.323-3.39-.918-4.937l.022-.005c.258-.073.476-.183.675-.304.2-.122.378-.256.546-.399.084-.072.165-.145.244-.22.04-.039.079-.077.117-.117l.058-.06.055-.058.016-.015.055-.056.013-.015.108.02c.133.018.268.024.402.017.134-.007.266-.028.396-.062.065-.016.127-.038.19-.06.062-.025.124-.048.182-.078.24-.116.447-.281.626-.467.179-.187.329-.397.455-.618.126-.222.23-.454.321-.69-.109.229-.23.45-.37.659-.141.207-.303.4-.487.565-.184.164-.39.302-.616.39-.055.024-.113.041-.17.06-.058.014-.116.03-.175.04-.118.02-.238.03-.356.028-.112-.003-.225-.016-.335-.04l.039-.066c.076-.137.135-.274.185-.411.098-.275.16-.558.185-.848.024-.289.01-.586-.061-.878-.034-.146-.084-.29-.148-.427-.03-.07-.068-.136-.105-.202-.042-.063-.081-.128-.129-.188-.043-.061-.095-.117-.144-.173-.025-.028-.053-.054-.079-.08l-.04-.039-.055-.046c-.15-.122-.327-.191-.497-.217-.171-.027-.34-.017-.501.023-.16.038-.315.11-.452.215s-.247.247-.317.404c-.07.156-.098.32-.1.473-.001.155.02.302.054.44.034.139.08.27.135.396.028.064.057.125.088.185l.047.09.048.085c.065.115.135.227.21.337.073.109.153.216.238.318.085.102.174.201.27.294l.093.085-.087.074c-.07.057-.141.112-.214.165-.145.105-.295.199-.443.275-.074.038-.148.07-.22.097-.073.027-.142.045-.207.058-.064.013-.123.016-.172.012-.015 0-.028-.003-.042-.005C32.485 3.774 26.51 0 19.552 0 12.26 0 6.048 4.145 3.685 9.95c-.08.195-.227.355-.417.446l-1.883.907c-.337.162-.571.483-.623.853l-.75 5.394c-.077.558.22 1.101.733 1.336" mask="url(#l7fdjy2bvb)"/>
                                </g>
                                <path fill="#FFB8BE" d="M13.03 16.358c-.454-.472-3.213-3.12-8.25-3.285-.184-.006-.308.186-.228.351.593 1.236 2.526 5.404 3.09 8.36.022.121.129.206.25.2 1.012-.044 5.243-.524 5.205-5.46 0-.062-.025-.122-.068-.166" transform="translate(-32.000000, -1410.000000) translate(0.000000, 598.000000) translate(0.000000, 728.000000) translate(16.000000, 72.000000) translate(16.000000, 12.000000) translate(8.000000, 6.000000)"/>
                                <path fill="#FFA6AD" d="M9.91 18.149c.001-.107-.004-.213-.012-.317-.083-1.02-.549-1.966-1.276-2.684-.85-.84-2.147-1.72-3.996-2.027.042-.03.095-.05.154-.048 5.038.166 7.797 2.813 8.25 3.284.042.046.066.105.067.167.038 4.936-4.193 5.416-5.204 5.46-.122.006-.23-.08-.252-.2-.014-.08-.032-.16-.049-.242 1.363-.435 2.152-1.04 2.318-3.393" transform="translate(-32.000000, -1410.000000) translate(0.000000, 598.000000) translate(0.000000, 728.000000) translate(16.000000, 72.000000) translate(16.000000, 12.000000) translate(8.000000, 6.000000)"/>
                                <path fill="#77262E" d="M14.529 16.28c5.403-1.331 9.825-.07 10.91.288.152.05.317-.009.404-.143l.02-.033c.12-.187.038-.438-.17-.516-.594-.225-1.814-.624-3.399-.776-1.964-.186-4.723-.268-7.931.502-.225.053-.337.308-.223.51.077.137.236.206.389.169M8.684 25.255c0 .522-.423.945-.946.945-.522 0-.944-.423-.944-.945 0-.521.422-.945.944-.945.523 0 .946.424.946.945" transform="translate(-32.000000, -1410.000000) translate(0.000000, 598.000000) translate(0.000000, 728.000000) translate(16.000000, 72.000000) translate(16.000000, 12.000000) translate(8.000000, 6.000000)"/>
                            </g>
                        </g>
                    </g>
                </g>
            </g>
        </g>
    </g>
</svg>
