<svg xmlns="http://www.w3.org/2000/svg" xmlns:xlink="http://www.w3.org/1999/xlink" width="40" height="40" viewBox="0 0 40 40">
    <defs>
        <path id="u4fvlnsz9a" d="M0 0L30.388 0 30.388 9.298 0 9.298z"/>
    </defs>
    <g fill="none" fill-rule="evenodd">
        <g>
            <g>
                <g>
                    <g>
                        <g transform="translate(-16 -2359) translate(0 2029) translate(0 168) translate(0 152) translate(16 10)">
                            <circle cx="20" cy="20" r="20" fill="#0060A8"/>
                            <g transform="translate(4.8 15.2)">
                                <mask id="tqltnwmi8b" fill="#fff">
                                    <use xlink:href="#u4fvlnsz9a"/>
                                </mask>
                                <path fill="#FFF" d="M2.612 7.879h3.163V6.804H2.612V7.88zm-1.157 1.2H6.92V5.604H1.455V9.08zm3.007-4.101c-.327-.167-.658-.398-.996-.694-.338-.296-.627-.645-.865-1.049-.184.404-.436.773-.758 1.107-.322.333-.658.615-1.008.845L0 4.237c.509-.264.968-.672 1.378-1.221.41-.55.614-1.11.614-1.68V.219h1.23v1.117c0 .57.208 1.106.626 1.607.417.501.852.839 1.306 1.012l-.692 1.023zM6.92 3.214v1.951H5.762V0H6.92v2.014h1.001v1.2H6.92zM13.08 6.773c-.33-.153-.741-.23-1.234-.23-.478 0-.883.071-1.218.214-.334.143-.5.34-.5.59 0 .236.166.44.5.61.335.17.74.256 1.218.256.493 0 .905-.079 1.234-.235.33-.157.496-.353.496-.59 0-.257-.166-.462-.496-.615zm.955 1.988c-.537.357-1.27.537-2.201.537-.923 0-1.652-.178-2.19-.533-.536-.354-.805-.817-.805-1.387 0-.563.269-1.026.806-1.388.537-.361 1.266-.542 2.189-.542.922 0 1.654.179 2.195.537.54.358.811.823.811 1.393 0 .564-.268 1.024-.805 1.383zm-2.046-3.762c-.318-.167-.649-.399-.99-.694-.343-.296-.633-.646-.871-1.05-.184.404-.434.774-.752 1.107-.318.334-.656.616-1.014.845l-.835-.95c.51-.263.968-.67 1.378-1.22.41-.55.614-1.11.614-1.68V.186h1.24v1.17c0 .57.21 1.106.628 1.607.417.501.852.838 1.306 1.012l-.704 1.023zm1.515.354V2.797h-1.491V1.576h1.491V0h1.157v5.353h-1.157zM22.136 4.894v4.289h-1.145V0h1.145v3.621h1.074v1.273h-1.074zm-3.186.298c-.668 1.116-1.515 1.977-2.54 2.582l-.895-.834c.43-.223.914-.595 1.455-1.117s.903-1.047 1.086-1.576c-.278.07-.603.126-.973.167-.37.042-.792.063-1.27.063V3.37c.516 0 1.03-.024 1.539-.073.51-.049.879-.105 1.11-.167.031-.153.059-.322.083-.507.024-.184.044-.349.06-.495h-2.53V.939h3.878c0 1.718-.334 3.136-1.003 4.253zM22.79 8.203h7.598V7.014H22.79v1.19zm6.764-2.775H23.72V.805h5.786v1.2h-4.63v2.222h4.678v1.201z" mask="url(#tqltnwmi8b)"/>
                            </g>
                        </g>
                    </g>
                </g>
            </g>
        </g>
    </g>
</svg>
