<svg xmlns="http://www.w3.org/2000/svg" width="40" height="40" viewBox="0 0 40 40">
    <g fill="none" fill-rule="evenodd">
        <g>
            <g>
                <g>
                    <g transform="translate(-16 -513) translate(0 431) translate(0 72) translate(16 10)">
                        <circle cx="20" cy="20" r="20" fill="#5A9EE9"/>
                        <g stroke="#FFF">
                            <path stroke-width="1.5" d="M12.5.75c3.245 0 6.182 1.315 8.309 3.442 2.126 2.126 3.441 5.063 3.441 8.308s-1.315 6.182-3.441 8.308c-2.127 2.127-5.064 3.442-8.309 3.442-3.245 0-6.182-1.315-8.309-3.441C2.065 18.682.75 15.745.75 12.5c0-3.245 1.315-6.182 3.441-8.309C6.318 2.065 9.255.75 12.5.75z" transform="translate(7.5 7.5)"/>
                            <path stroke-linecap="round" stroke-linejoin="round" stroke-width="1.3" d="M12.5 4.803L12.5 5.987M20.197 12.5L19.013 12.5M5.987 12.5L4.803 12.5M7.894 7.895L7.057 7.057M17.106 7.895L17.943 7.057M12.5 10.132L12.5 16.053M13.816 17.895c0 .69-.56 1.25-1.25 1.25s-1.25-.56-1.25-1.25.56-1.25 1.25-1.25 1.25.56 1.25 1.25z" transform="translate(7.5 7.5)"/>
                        </g>
                    </g>
                </g>
            </g>
        </g>
    </g>
</svg>
