<svg xmlns="http://www.w3.org/2000/svg" width="40" height="40" viewBox="0 0 40 40">
    <g fill="none" fill-rule="evenodd">
        <g>
            <g>
                <g>
                    <g>
                        <g>
                            <g transform="translate(-16 -663) translate(0 504) translate(0 104) translate(0 45) translate(16 8) translate(0 2)">
                                <circle cx="20" cy="20" r="20" fill="#FC0"/>
                                <g fill="#222">
                                    <path d="M24.84 7.492l-.177-.113c-.605-.603-1.447-.865-2.572-.799-.937.057-1.68.429-2.247.774l-.001-.026c0-.293.033-.611.066-.92.032-.315.066-.634.066-.936 0-.309-.035-.602-.141-.852-.027-.064-.086-.102-.16-.102-.303.007-.894.214-1.038.34l-.078.17c-.005.335-.079 1.271-.154 1.385.004-.004-.039.113-.039.113-.128 1.336-.13 2.512-.012 3.52.013.102.207.253.357.308.165.06.68-.077.977-.189l.11-.017c.095-.01.15-.09.146-.196-.002-.003.007-.291.007-.291.214-.87 1.08-1.91 2.107-2.066.58-.092 1.038.057 1.4.45.048.072.154.699-.228 1.419-.285.533-.853.982-1.602 1.263-.708.27-1.488.378-2.451.345l-.901-.61c-.764-.536-1.713-1.203-2.572-1.529-.152-.058-.422-.283-.585-.417l-.09-.073c-.495-.398-1.439-1.027-2.197-1.532l-.408-.274v-.085c.022-.024.5-.31.5-.31.666-.39.974-.581 1.04-.68-.014.015.088-.053.088-.053l1.653-.935c1.587-.872 3.385-1.862 4.329-2.84l.046-.149.02-.133c.064-.209.067-.369.014-.555-.013-.053-.062-.115-.128-.126-.737-.074-1.688.369-2.554 1.18-.195.183-.359.274-.532.367l-.133.075c-.954.542-3.104 1.877-4.23 2.596.074-1.21.298-2.931.574-4.367l-.031-.17-.117-.218-.087-.155-.025-.007c-.225-.113-.409-.067-.543-.034l-.225.083-.3.11c-.06.011-.1.048-.124.105-.537 1.299-.986 3.436-1.092 5.145C9.492 4.798 8.5 4.307 8.012 4.07l-.013-.007-.058-.013c-.176-.022-.39-.15-.594-.276-.022-.012-.41-.264-.41-.264l-.623-.4c.005.004-.165-.037-.165-.037-.268.045-.782.392-.936.628-.02.03-.028.064-.028.1 0 .049.016.1.028.148l.028.127.03.076c.299.307 1.054.818 1.794 1.215l.858.455 1.313.718c0 .006.224.178.224.178l.155.088.028.018-2.39 1.595-1.255.833c-.12.08-.615.303-.725.347-.272.111-.478.281-.563.466l-.034.073.034.048.096.072c-.005 0 .129.084.129.084l.138.095c.003.002.131.021.131.021.22.01.548-.117 1.16-.385.561-.249 2.087-1.17 2.74-1.562l.277-.167c.116.01.242-.088.355-.173.13-.104.415-.28.589-.356.005-.001.104-.057.198-.109l-.002.075c.03 1.996.143 3.446.362 4.564l.003.02.021.045c.107.157.23.63.338 1.047l.248.833c.006.01.07.078.07.078.142.096.575.262.864.228l.071-.009.046-.101c.024-.124.033-.247.033-.382 0-.152-.01-.32-.025-.525l-.02-.3c-.09-1.393-.182-3.404-.182-4.741V8.43l1.272.8c1.762 1.144 4.423 2.87 6.031 3.327.084.025.172.005.234-.053.002-.004.247-.16.247-.16l.047-.018c.092-.045.154-.2.164-.368 1.356-.069 3.246-.59 4.258-1.862.392-.494.568-1.097.568-1.614 0-.424-.118-.789-.331-.99M13.142 18.954L13.142 19.687 14.863 19.687 14.863 21.596 14.275 21.596 14.275 20.195 10.822 20.195 10.822 19.687 12.556 19.687 12.556 18.954 10.463 18.954 10.463 18.446 14.248 18.446 14.248 17.432 10.887 17.432 10.887 16.928 14.836 16.928 14.836 18.443 15.257 18.443 15.257 18.954zM15.848 19.346h2.782v-2.35h-2.782v2.35zm.585-.513h1.613v-1.326h-1.613v1.326zM20.069 21.577L16.378 21.577 16.378 19.85 16.965 19.85 16.965 21.068 20.069 21.068zM19.44 19.968L20.024 19.968 20.024 16.884 19.44 16.884zM25.338 19.849L25.338 19.343 20.547 19.343 20.547 19.849 21.064 19.849 21.064 21.576 24.898 21.576 24.898 21.069 21.649 21.069 21.649 19.849zM22.942 16.655c-.946 0-1.714.4-1.714 1.213 0 .808.768 1.214 1.714 1.214.947 0 1.714-.406 1.714-1.214 0-.813-.767-1.213-1.714-1.213m0 1.891c-.606 0-1.097-.21-1.097-.679 0-.464.49-.677 1.097-.677.605 0 1.097.213 1.097.677 0 .47-.492.68-1.097.68M28.366 19.196L28.935 19.196 28.935 18.269 29.26 18.269 29.26 19.346 29.831 19.346 29.831 16.884 29.26 16.884 29.26 17.78 28.935 17.78 28.935 16.884 28.366 16.884zM26.771 18.709c-.357 0-.646-.155-.646-.502 0-.346.289-.504.646-.504.356 0 .647.158.647.504 0 .347-.29.502-.647.502zm1.333-1.618h-1.037v-.413h-.585v.413h-1.044v.497h.418c-.207.159-.335.39-.335.696 0 .638.56.96 1.25.96s1.251-.322 1.251-.96c0-.306-.128-.537-.336-.696h.418v-.497zM28.158 19.367c-.935 0-1.69.396-1.69 1.206 0 .801.755 1.205 1.69 1.205.932 0 1.689-.404 1.689-1.205 0-.81-.757-1.206-1.69-1.206m-.001 1.886c-.6 0-1.084-.21-1.084-.681 0-.468.484-.681 1.084-.681.598 0 1.083.213 1.083.68 0 .472-.485.682-1.083.682M5.797 21.077h1.469c.911 0 1.153-.356 1.153-.81 0-.536-.371-.833-1.193-.833h-1.43v1.643zm0-2.174h1.515c.563 0 .978-.214.978-.711 0-.435-.204-.725-1.064-.725h-1.43v1.436zm-.744-1.968h2.296c1.092 0 1.663.363 1.663 1.156 0 .564-.393.953-.918 1.058v.02c.752.09 1.107.582 1.107 1.138 0 .698-.51 1.3-1.78 1.3H5.054v-4.672zM0 16.935L.746 16.935.746 19.026 3.257 16.935 4.313 16.935 1.659 19.045 4.533 21.607 3.478 21.607.746 19.104.746 21.607 0 21.607z" transform="translate(5 8.333)"/>
                                </g>
                            </g>
                        </g>
                    </g>
                </g>
            </g>
        </g>
    </g>
</svg>
