<svg xmlns="http://www.w3.org/2000/svg" width="40" height="40" viewBox="0 0 40 40">
    <g fill="none" fill-rule="evenodd">
        <g>
            <g>
                <g>
                    <g transform="translate(-16 -2995) translate(0 2889) translate(0 96) translate(16 10)">
                        <circle cx="20" cy="20" r="20" fill="#0060A8"/>
                        <g fill="#FFF">
                            <path d="M2.256 2.448s.808 1.529 1.614 1.787l.597-.597S2.722 2.552 2.807.212H1.702S1.956 2.49 0 3.594l.594.683s1.148-.64 1.662-1.83zm7.147 0s.81 1.529 1.617 1.787l.594-.597S9.871 2.552 9.957.212H8.848s.256 2.277-1.7 3.382l.594.683s1.15-.64 1.66-1.83zm-3.022 0h.893v-.98h-.893V.042H5.317V4.36h1.064V2.448zM1.32 8.445h5.105V4.786H1.32v3.659zm1.061-.978h2.938V5.723H2.38v1.744zm10.214-3.02h1.148V.064h-1.148v1.403h-1.32v.98h1.32v2zm-1.574 0c-1.551 0-2.81.953-2.81 2.127C8.21 7.749 9.47 8.7 11.02 8.7c1.55 0 2.807-.952 2.807-2.127 0-1.174-1.256-2.127-2.807-2.127zm0 3.32c-.964 0-1.746-.534-1.746-1.193 0-.658.782-1.192 1.746-1.192.962 0 1.743.534 1.743 1.192 0 .66-.78 1.192-1.743 1.192zM18.932.743H17.4V0h-1.105v.703h-1.66v.893h4.296V.744zM21.57 3.27h-1.02V.064h-1.02v8.38h1.02V4.12h1.02v-.85zm2.468-1.876h1.276V.448h-3.403v.945h1.192s.254 3.905-1.7 5.224l.679.723s1.062-.68 1.446-2.001c0 0 .767 1.577 1.404 2.001l.722-.723s-1.732-1.07-1.616-5.224zm3.32-1.329v2.993h-.512V.064h-1.02v8.38h1.02V3.909h.511v4.537h1.065V.065h-1.065zM17.358 5.56c.937-.191 1.635-.903 1.635-1.754 0-.995-.957-1.804-2.14-1.804-1.182 0-2.139.809-2.139 1.804 0 .835.67 1.534 1.581 1.742v.688h-1.704v.89h4.511v-.85H17.36V5.56zm-1.644-1.754c0-.536.51-.97 1.139-.97.63 0 1.138.434 1.138.97 0 .54-.507.973-1.138.973-.629 0-1.14-.434-1.14-.973z" transform="translate(5.6 15.2)"/>
                        </g>
                    </g>
                </g>
            </g>
        </g>
    </g>
</svg>
