<svg xmlns="http://www.w3.org/2000/svg" xmlns:xlink="http://www.w3.org/1999/xlink" width="40" height="40" viewBox="0 0 40 40">
    <defs>
        <path id="ed72ye8jfa" d="M0 0L6.875 0 6.875 9.963 0 9.963z"/>
    </defs>
    <g fill="none" fill-rule="evenodd">
        <g>
            <g>
                <g>
                    <g>
                        <g fill="#F8F8F8" transform="translate(-16 -3557) translate(0 3375) translate(0 96) translate(16 86)">
                            <circle cx="20" cy="20" r="20"/>
                        </g>
                        <g>
                            <g transform="translate(-16 -3557) translate(0 3375) translate(0 96) translate(16 86) translate(7.5 7.5) translate(0 12.712)">
                                <mask id="ztnaz0iugb" fill="#fff">
                                    <use xlink:href="#ed72ye8jfa"/>
                                </mask>
                                <path fill="#DC062B" d="M4.264 3.93c-.807-.377-1.468-.681-1.468-1.298 0-.47.377-.812 1.122-.812.272 0 .496.031.728.075.12.02.25.038.357.038.648 0 1.016-.388 1.26-1.123l.1-.3C6.26.466 5.198 0 3.814 0 1.612 0 .449 1.414.45 2.879c0 .74.231 1.275.593 1.697.468.543 1.133.898 1.755 1.203.91.445 1.728.774 1.728 1.434 0 .586-.605.918-1.415.918-1.109 0-2.076-.634-2.201-.71L0 9.127c.161.092 1.334.837 3.263.837 2.056-.003 3.612-1.18 3.612-2.994 0-1.805-1.442-2.474-2.611-3.04" mask="url(#ztnaz0iugb)"/>
                            </g>
                            <path fill="#DC062B" d="M12.305 17.484l3.728-4.572h-2.657l-2.973 3.946h-.046v-3.946h-2.19l.001 9.686h.13c.948 0 2.074-.439 2.074-2.02v-2.224h.045l3.031 4.123h2.788l-3.931-4.993zM16.157 2.537c-.77.146-1.914.845-1.91 2.084.004 1.122.923 1.805.925 3.277.004 1.108-.606 1.854-1.267 2.268.267-.024.56-.039.88-.04.676-.001 1.083.062 1.107.067l3.46-4.245c-.961-1.438-2.082-2.553-3.195-3.41" transform="translate(-16 -3557) translate(0 3375) translate(0 96) translate(16 86) translate(7.5 7.5)"/>
                            <path fill="#DC062B" d="M19.064 14c.436-.678.49-1.758.527-2.86.041-1.024.255-1.798 1.629-1.802.304 0 .592.04 1.117.04 2.013-.01 3.325-.702 4.143-1.157-1.669-1.064-4.106-2.15-7.129-2.273-.196.555-1.727 4.815-1.844 5.16.018.02.285.32.62.907.494.805.76 1.487.937 1.985" transform="translate(-16 -3557) translate(0 3375) translate(0 96) translate(16 86) translate(7.5 7.5)"/>
                            <path fill="#ED7013" d="M11.758 10.521c-.176 0-.263-.115-.286-.316-.023-.201-.887-8.115-1.017-9.314-.018-.173-.062-.496-.062-.61 0-.183.12-.281.261-.281.41-.001 2.644.521 5.015 2.184-.684.192-1.919.902-1.914 2.374.005 1.302.938 2.018.943 3.325.006 2.123-2.435 2.637-2.94 2.638M19.261 14.565c.038.099.074.181.11.239.053.093.124.135.212.135.055-.002.12-.02.197-.054.183-.084 7.405-3.445 8.495-3.949.158-.075.456-.209.555-.267.103-.058.149-.143.149-.23 0-.048-.014-.097-.041-.142-.137-.22-.835-.962-2.003-1.772-.929.511-2.377 1.3-4.531 1.31-.529 0-.649-.036-1.009-.034-1.052.004-1.315.454-1.352 1.376-.008.174-.01.409-.02.665-.034.824-.132 1.962-.762 2.723" transform="translate(-16 -3557) translate(0 3375) translate(0 96) translate(16 86) translate(7.5 7.5)"/>
                        </g>
                    </g>
                </g>
            </g>
        </g>
    </g>
</svg>
