<svg xmlns="http://www.w3.org/2000/svg" width="56" height="56" viewBox="0 0 56 56">
    <g fill="none" fill-rule="evenodd">
        <g>
            <g>
                <g>
                    <g>
                        <g>
                            <path d="M0 0H56V56H0z" transform="translate(-32.000000, -710.000000) translate(0.000000, 598.000000) translate(0.000000, 24.000000) translate(16.000000, 72.000000) translate(16.000000, 16.000000)"/>
                            <g>
                                <path fill="#3787FF" d="M37.195 21.355H2.805L.081 29.409c-.332.983.398 2.001 1.435 2.001h36.968c1.036 0 1.767-1.018 1.435-2l-2.724-8.055z" transform="translate(-32.000000, -710.000000) translate(0.000000, 598.000000) translate(0.000000, 24.000000) translate(16.000000, 72.000000) translate(16.000000, 16.000000) translate(8.000000, 12.000000)"/>
                                <path fill="#65ACFF" d="M37.163 21.355H2.837V2.022C2.837.905 3.742 0 4.86 0h30.282c1.117 0 2.022.905 2.022 2.022v19.333z" transform="translate(-32.000000, -710.000000) translate(0.000000, 598.000000) translate(0.000000, 24.000000) translate(16.000000, 72.000000) translate(16.000000, 16.000000) translate(8.000000, 12.000000)"/>
                                <path fill="#FFF" d="M23.397 8.16H9.064c-.576 0-1.043-.467-1.043-1.043 0-.575.467-1.042 1.043-1.042h14.333c.576 0 1.043.467 1.043 1.042 0 .576-.467 1.043-1.043 1.043M18.398 13.795H9.064c-.576 0-1.043-.467-1.043-1.043 0-.575.467-1.042 1.043-1.042h9.334c.575 0 1.042.467 1.042 1.042 0 .576-.467 1.043-1.042 1.043" transform="translate(-32.000000, -710.000000) translate(0.000000, 598.000000) translate(0.000000, 24.000000) translate(16.000000, 72.000000) translate(16.000000, 16.000000) translate(8.000000, 12.000000)"/>
                            </g>
                        </g>
                    </g>
                </g>
            </g>
        </g>
    </g>
</svg>
