<svg xmlns="http://www.w3.org/2000/svg" width="40" height="40" viewBox="0 0 40 40">
    <g fill="none" fill-rule="evenodd">
        <g>
            <g>
                <g>
                    <g>
                        <g>
                            <g transform="translate(-16 -876) translate(0 504) translate(0 104) translate(0 213) translate(0 45) translate(16 10)">
                                <circle cx="20" cy="20" r="20" fill="#00337F"/>
                                <g fill="#D3A243">
                                    <path d="M11.293 22.473c-.013-.287.408-.36.408-.36 3.761-.74 2.662-3.207 1.33-4.465-.56-.53-5.793-5.045-5.793-5.045-4.993-4.299-4.592-7.654-4.592-7.654C2.886.82 6.501-.205 9.237.032c.32.028.497.223.44.489-.06.292-.484.313-.484.313-.87.05-1.648.14-2.24.538C4.749 2.855 5.4 5.378 8.339 8.185c.368.353.763.725 1.165 1.101 0 0 .592.522 1.765 1.639 2.261 2.083 3.5 3.207 3.5 3.207 3.983 3.317 2.624 6.35 1.099 7.404-1.16.804-2.446 1.182-4.134 1.272-.014.002-.03.003-.046.003-.155 0-.383-.095-.394-.338zm.93-12.246c-1.29-.272-1.553-1.445-1.553-1.445-.105-.41-.131-.93-.045-1.593.177-1.388.55-2.04.976-3.116.575-1.445-.822-2.29-.59-2.822.313-.72 1.31.195 2.422.261.96.054 1.534.005 2.278.106.992.131 2.175.466 2.702 1.085.483.564-.255 1.258-1.145.824-.647-.316-1.464-.123-.984.554.575.643.854.663 1.44.816 1.62.427 1.654 1.977.557 2.78-1.247.913-2.51.535-3.017-1.256-.252-.893-.884-1.348-1.53-1.092-.643.251-.263 1.428.226 2.517.849 2.167-.871 2.39-1.525 2.39-.1 0-.174-.005-.211-.01zM7.487 22.069c-1.404-.138-3.082-.58-4.542-1.846C1.6 19.061.767 17.464.364 16.063c-.414-1.436-.587-3.117.095-2.984.21.042.573.964.969 1.638.407.693.738 1.076 1.052 1.31.14.107.62-.96 1.316-1.567.405-.333.849-.448.92.55.088 1.224-.133 2.683.224 2.683.336 0 1.087-.254 2.744-.393.624-.054.977.064.383.901-.296.417-.692 1.007-1.63 1.679 1.406 1.317 3.094 1.161 3.124 1.72.019.323-.612.5-1.442.5-.201 0-.415-.01-.633-.031z" transform="translate(10 8.75)"/>
                                </g>
                            </g>
                        </g>
                    </g>
                </g>
            </g>
        </g>
    </g>
</svg>
