<svg xmlns="http://www.w3.org/2000/svg" xmlns:xlink="http://www.w3.org/1999/xlink" width="40" height="40" viewBox="0 0 40 40">
    <defs>
        <path id="bfajus26ga" d="M0 0L22.5 0 22.5 21.793 0 21.793z"/>
        <path id="mgcaqfmyuc" d="M0 21.794L22.5 21.794 22.5 0 0 0z"/>
    </defs>
    <g fill="none" fill-rule="evenodd">
        <g>
            <g>
                <g>
                    <g>
                        <g>
                            <g transform="translate(-16.000000, -656.000000) translate(0.000000, 204.000000) translate(0.000000, 402.000000) translate(0.000000, 40.000000) translate(16.000000, 8.000000) translate(0.000000, 2.000000)">
                                <circle cx="20" cy="20" r="20" fill="#245295"/>
                                <g transform="translate(8.750000, 8.750000)">
                                    <g transform="translate(0.000343, 0.000330)">
                                        <mask id="0l54nj39kb" fill="#fff">
                                            <use xlink:href="#bfajus26ga"/>
                                        </mask>
                                        <path fill="#FEFEFE" d="M5.474.27c-.608.304-1.06.826-1.275 1.472L.132 13.968c-.216.641-.166 1.333.14 1.943.304.605.827 1.057 1.468 1.272l13.341 4.479c.648.215 1.336.166 1.944-.139.609-.306 1.062-.826 1.274-1.471l4.07-12.224c.446-1.331-.28-2.776-1.612-3.219L7.42.132c-.65-.214-1.335-.168-1.945.139" mask="url(#0l54nj39kb)"/>
                                    </g>
                                    <mask id="vlj9gosond" fill="#fff">
                                        <use xlink:href="#mgcaqfmyuc"/>
                                    </mask>
                                    <path fill="#2591CA" d="M5.724 14.461h.918V8.11h-.918v6.351zm6.271-2.447c-.725.807-1.629 1.46-2.676 1.865l-.6.232V8.447l.594.232c1.047.4 1.953 1.051 2.682 1.856.519-.834.84-1.801.906-2.854.165-2.716-1.535-5.207-3.873-6.075L7.1.965c-.87-.29-1.795.19-2.082 1.058L.939 14.255c-.289.871.199 1.815 1.07 2.103l9.257 3.09c.944-1.004 1.558-2.334 1.646-3.817.083-1.324-.263-2.572-.917-3.617z" mask="url(#vlj9gosond)"/>
                                    <path fill="#E8510F" d="M11.461 11.274c-.518-.605-1.142-1.115-1.863-1.487v2.985c.721-.375 1.35-.889 1.863-1.498" mask="url(#vlj9gosond)"/>
                                    <path fill="#245295" d="M18.21 14.44l-1.147.003-2.361-3.176 2.399-3.175 1.157-.005-2.403 3.185 2.356 3.169zm2.252-9.014l-8.496-2.84c1.141 1.25 1.84 2.909 1.844 4.726 0 1.437-.448 2.811-1.228 3.962.784 1.148 1.234 2.52 1.239 3.957 0 1.717-.618 3.298-1.645 4.522l3.191 1.067c.874.288 1.794-.19 2.084-1.06l4.082-12.233c.289-.87-.2-1.813-1.071-2.101z" mask="url(#vlj9gosond)"/>
                                </g>
                            </g>
                        </g>
                    </g>
                </g>
            </g>
        </g>
    </g>
</svg>
