<svg xmlns="http://www.w3.org/2000/svg" xmlns:xlink="http://www.w3.org/1999/xlink" width="56" height="56" viewBox="0 0 56 56">
    <defs>
        <path id="xkxkfusgka" d="M0 0L44 0 44 28.606 0 28.606z"/>
    </defs>
    <g fill="none" fill-rule="evenodd">
        <g>
            <g>
                <g>
                    <g>
                        <g>
                            <path d="M0 0H56V56H0z" transform="translate(-32.000000, -1206.000000) translate(0.000000, 598.000000) translate(0.000000, 520.000000) translate(16.000000, 72.000000) translate(16.000000, 16.000000)"/>
                            <g>
                                <g transform="translate(-32.000000, -1206.000000) translate(0.000000, 598.000000) translate(0.000000, 520.000000) translate(16.000000, 72.000000) translate(16.000000, 16.000000) translate(6.400000, 13.400000) translate(0.000000, 0.000000)">
                                    <mask id="1crnnn25ib" fill="#fff">
                                        <use xlink:href="#xkxkfusgka"/>
                                    </mask>
                                    <path fill="#86807F" d="M40.621 28.606H3.38c-1.866 0-3.38-1.512-3.38-3.379V3.378C0 1.512 1.514 0 3.38 0H40.62C42.488 0 44 1.512 44 3.378v21.85c0 1.866-1.512 3.378-3.379 3.378" mask="url(#1crnnn25ib)"/>
                                </g>
                                <path fill="#E73E32" d="M36.15 17.894c1.55 0 2.806 1.256 2.806 2.805 0 1.55-1.257 2.806-2.806 2.806-1.548 0-2.805-1.256-2.805-2.806 0-1.549 1.257-2.805 2.805-2.805" transform="translate(-32.000000, -1206.000000) translate(0.000000, 598.000000) translate(0.000000, 520.000000) translate(16.000000, 72.000000) translate(16.000000, 16.000000) translate(6.400000, 13.400000)"/>
                                <path fill="#FFA412" d="M29.309 17.97c1.508-.357 3.019.577 3.375 2.085.356 1.508-.578 3.019-2.086 3.375-1.508.356-3.02-.578-3.374-2.086-.357-1.508.577-3.019 2.085-3.375" transform="translate(-32.000000, -1206.000000) translate(0.000000, 598.000000) translate(0.000000, 520.000000) translate(16.000000, 72.000000) translate(16.000000, 16.000000) translate(6.400000, 13.400000)"/>
                                <path fill="#FFF" d="M12.707 16.928H7.202c-.62 0-1.122-.502-1.122-1.123V12.8c0-.62.502-1.122 1.122-1.122h5.505c.62 0 1.122.503 1.122 1.122v3.005c0 .62-.502 1.123-1.122 1.123" transform="translate(-32.000000, -1206.000000) translate(0.000000, 598.000000) translate(0.000000, 520.000000) translate(16.000000, 72.000000) translate(16.000000, 16.000000) translate(6.400000, 13.400000)"/>
                            </g>
                        </g>
                    </g>
                </g>
            </g>
        </g>
    </g>
</svg>
