<svg xmlns="http://www.w3.org/2000/svg" xmlns:xlink="http://www.w3.org/1999/xlink" width="40" height="40" viewBox="0 0 40 40">
    <defs>
        <path id="1z25737q4a" d="M0 0L16.816 0 16.816 12.873 0 12.873z"/>
    </defs>
    <g fill="none" fill-rule="evenodd">
        <g>
            <g>
                <g>
                    <g>
                        <g transform="translate(-16 -2791) translate(0 2457) translate(0 96) translate(0 228) translate(16 10)">
                            <circle cx="20" cy="20" r="20" fill="#F05A28"/>
                            <g>
                                <g transform="translate(7.5 8.75) translate(7.5 5.689)">
                                    <mask id="y7ucba1qwb" fill="#fff">
                                        <use xlink:href="#1z25737q4a"/>
                                    </mask>
                                    <path fill="#FFF" d="M16.79 6.505C16.428 2.95 12.38.038 7.75 0 3.121-.039-.337 2.812.026 6.368c.364 3.554 4.41 6.466 9.04 6.504 4.63.04 8.088-2.812 7.724-6.367m-15.312-.89C1.16 2.75 4.168.45 8.19.481c4.02.032 7.538 2.38 7.853 5.243.315 2.866-2.689 5.167-6.712 5.137-4.02-.032-7.538-2.378-7.853-5.246" mask="url(#y7ucba1qwb)"/>
                                </g>
                                <path fill="#FFF" d="M8.854 10.814c-2.65 2.77-2.693 7.028-.097 9.514 2.595 2.487 6.851 2.256 9.502-.512 2.65-2.769 2.692-7.028.096-9.516-2.594-2.486-6.85-2.255-9.501.514m8.447 7.822c-2.28 2.378-5.937 2.578-8.17.44-2.237-2.139-2.199-5.806.082-8.187 2.28-2.383 5.94-2.577 8.173-.44 2.235 2.137 2.198 5.802-.085 8.187" transform="translate(7.5 8.75)"/>
                                <path fill="#FFF" d="M4.693 3.425c-4.919 3.894-6.172 9.54-2.8 12.607 3.377 3.066 10.101 2.396 15.022-1.5 4.92-3.895 6.17-9.541 2.797-12.607-3.375-3.069-10.1-2.396-15.02 1.5m4.405-1.527c4.741-1.778 9.43.022 10.472 4.017 1.043 3.992-1.955 8.675-6.696 10.45-4.743 1.779-9.43-.021-10.475-4.015C1.355 8.355 4.354 3.676 9.097 1.898" transform="translate(7.5 8.75)"/>
                            </g>
                        </g>
                    </g>
                </g>
            </g>
        </g>
    </g>
</svg>
