<svg xmlns="http://www.w3.org/2000/svg" width="40" height="40" viewBox="0 0 40 40">
    <g fill="none" fill-rule="evenodd">
        <g>
            <g>
                <g>
                    <g>
                        <g>
                            <g transform="translate(-16 -1013) translate(0 504) translate(0 104) translate(0 350) translate(0 45) translate(16 10)">
                                <circle cx="20" cy="20" r="20" fill="#FC0"/>
                                <g fill="#222">
                                    <path d="M20.364 7.566l-.178-.114c-.611-.61-1.461-.873-2.598-.806-.946.057-1.697.433-2.27.781v-.026c0-.296.033-.617.066-.93.033-.317.067-.64.067-.945 0-.312-.035-.607-.142-.86-.027-.065-.087-.103-.163-.103-.305.007-.902.216-1.047.343l-.079.172c-.004.339-.08 1.284-.155 1.399.003-.005-.04.114-.04.114-.129 1.35-.131 2.537-.012 3.556.013.101.21.254.36.31.167.061.687-.078.987-.19l.112-.019c.095-.01.15-.09.147-.198-.002-.002.007-.293.007-.293.217-.88 1.092-1.93 2.128-2.087.586-.092 1.048.058 1.413.456.05.072.156.705-.23 1.432-.287.538-.861.992-1.618 1.275-.715.273-1.502.382-2.475.349l-.91-.616c-.771-.54-1.73-1.215-2.598-1.544-.153-.059-.426-.286-.59-.422l-.09-.073c-.501-.402-1.454-1.038-2.22-1.547l-.412-.277v-.086c.023-.025.504-.313.504-.313.674-.394.985-.587 1.05-.687-.013.016.09-.053.09-.053l1.67-.945c1.603-.88 3.418-1.88 4.371-2.867.002-.001.047-.151.047-.151l.021-.134c.064-.212.067-.373.014-.56-.014-.055-.063-.117-.13-.128-.744-.075-1.704.372-2.579 1.192-.197.185-.363.276-.538.37l-.133.075c-.964.548-3.135 1.896-4.273 2.623.075-1.222.301-2.961.58-4.41L8.486.454C8.483.45 8.369.236 8.369.236L8.28.08 8.255.073c-.227-.115-.413-.068-.548-.034L7.48.122l-.303.11c-.06.012-.103.05-.125.107-.543 1.312-.996 3.47-1.104 5.197C4.864 4.846 3.861 4.35 3.37 4.11l-.013-.008-.059-.013c-.177-.022-.393-.152-.6-.278-.022-.013-.413-.268-.413-.268l-.63-.403c.005.004-.166-.038-.166-.038-.271.047-.79.396-.945.634-.02.032-.029.066-.029.101 0 .05.016.101.029.15l.028.128.03.077c.302.31 1.064.826 1.812 1.228l.866.46 1.327.724c0 .006.226.18.226.18l.156.09.028.017-2.413 1.611-1.268.841c-.12.082-.621.306-.732.35-.274.112-.483.284-.568.471L0 10.237l.035.049.096.073c-.004 0 .13.085.13.085l.14.096.132.021c.223.01.554-.118 1.17-.389.568-.25 2.11-1.181 2.768-1.578l.281-.168c.117.01.244-.089.358-.175.133-.105.42-.282.595-.359.006-.002.105-.058.2-.11l-.002.075c.03 2.016.145 3.48.365 4.61l.004.02.021.045c.108.159.232.636.341 1.058l.251.84c.005.011.07.08.07.08.144.097.581.264.872.23l.073-.009.046-.102c.025-.126.033-.25.033-.386 0-.153-.01-.322-.024-.53l-.02-.303c-.093-1.407-.185-3.438-.185-4.789v-.107l1.285.809c1.78 1.154 4.467 2.898 6.092 3.358.084.027.173.006.235-.053l.25-.16.047-.02c.093-.044.155-.201.166-.371 1.37-.07 3.279-.596 4.3-1.881.396-.498.574-1.108.574-1.63 0-.428-.119-.797-.335-1M16.551 21.822L16.551 20.13 17.144 20.13 17.144 21.31 20.492 21.31 20.492 21.822zM19.829 17.065L19.829 19.606 18.875 19.606 18.875 20.098 19.829 20.098 19.829 20.554 20.419 20.554 20.419 17.065z" transform="translate(10 8.333)"/>
                                    <path d="M17.498 20.411L17.498 19.319 16.007 19.319 16.007 18.806 18.455 18.806 18.455 17.665 16.304 17.665 16.304 17.156 19.05 17.156 19.05 18.803 19.522 18.803 19.522 19.319 18.09 19.319 18.09 20.411zM10.774 19.661L15.613 19.661 15.613 19.149 10.774 19.149zM13.24 19.879c-1.086 0-1.967.36-1.967 1.09 0 .725.881 1.09 1.966 1.09 1.086 0 1.967-.365 1.967-1.09 0-.73-.88-1.09-1.967-1.09m-.002 1.672c-.744 0-1.346-.18-1.346-.58 0-.4.602-.58 1.346-.58.743 0 1.346.18 1.346.58 0 .4-.603.58-1.346.58M15.267 18.415c-.114-.009-1.344-.09-1.648-.76h1.526v-.509h-3.86v.509h1.527c-.305.67-1.535.751-1.649.76v.49c.611-.036 1.536-.214 2.052-.69.517.476 1.441.654 2.052.69v-.49zM6.062 21.286h1.483c.921 0 1.165-.359 1.165-.817 0-.542-.375-.842-1.204-.842H6.062v1.66zm0-2.195h1.53c.569 0 .988-.215.988-.719 0-.438-.206-.731-1.074-.731H6.062v1.45zm-.751-1.987H7.63c1.103 0 1.68.366 1.68 1.167 0 .57-.398.963-.928 1.068v.02c.76.09 1.118.588 1.118 1.15 0 .705-.516 1.313-1.797 1.313H5.311v-4.718zM.208 17.104L.961 17.104.961 19.216 3.497 17.104 4.563 17.104 1.883 19.235 4.786 21.822 3.72 21.822.961 19.294.961 21.822.208 21.822z" transform="translate(10 8.333)"/>
                                </g>
                            </g>
                        </g>
                    </g>
                </g>
            </g>
        </g>
    </g>
</svg>
