<svg xmlns="http://www.w3.org/2000/svg" width="24" height="24" viewBox="0 0 24 24">
    <g fill="none" fill-rule="evenodd">
        <g>
            <g>
                <g transform="translate(-16.000000, -731.000000) translate(0.000000, 715.000000) translate(16.000000, 16.000000)">
                    <circle cx="12" cy="12" r="12" fill="#0C5881"/>
                    <g fill="#FEFEFE">
                        <path d="M2.597 12.751c-.346.206-.658.326-.994.326-.85 0-1.558-.698-1.603-1.542l1.664-.987 2.58 1.156-1.647 1.047zM3.587 8.496l-1.233-.543c-.552-.243-1.07-.452-1.07-1.055 0-.316.088-.482.241-.643L4.13 7.4l-.64.38c-.182.106-.304.203-.304.34 0 .15.169.275.401.376M4.795 2.803l-1.266.773c-.11.066-.264.173-.264.343 0 .194.298.337.553.461l-1.58-.696c-.464-.207-.932-.437-.932-1.001 0-.24.066-.426.177-.592L4.905 0c.411.233.804.703.804 1.334 0 .677-.339 1.122-.914 1.47M7.485 5.276l-.314.181-2.617-1.154 3.04-1.832c.41.24.812.702.812 1.336 0 .676-.336 1.14-.92 1.469M5.274 7.496l1.55.677c.578.261.758.566.758.95 0 .218-.123.442-.3.587L4.684 8.555l.436-.24c.374-.21.5-.332.5-.469 0-.141-.09-.234-.345-.35" transform="translate(7.500000, 5.250040)"/>
                        <path d="M8.038 13.199c-.66-.504-1.362-.847-2.218-1.231l-3.935-1.75C.892 9.776.235 9.192.235 8.2c0-.956.466-1.427 1.071-1.81l.22-.134c-.154.16-.243.326-.243.642 0 .603.52.812 1.07 1.055l4.578 2.019c.803.345 1.53.933 1.53 1.933 0 .558-.207 1.052-.423 1.294M7.567 9.53l-.285.18c.177-.145.3-.369.3-.587 0-.384-.18-.689-.758-.95L1.926 6.022C.934 5.578.318 5.015.318 4.029c0-.902.454-1.502 1.165-1.939-.111.167-.177.354-.177.592 0 .565.468.795.932 1.002l4.76 2.1c.87.387 1.572.97 1.572 2.022 0 .821-.384 1.344-1.003 1.724" transform="translate(7.500000, 5.250040)"/>
                    </g>
                </g>
            </g>
        </g>
    </g>
</svg>
