<svg xmlns="http://www.w3.org/2000/svg" xmlns:xlink="http://www.w3.org/1999/xlink" width="40" height="40" viewBox="0 0 40 40">
    <defs>
        <path id="t11xih1oaa" d="M0 0L4.154 0 4.154 4.676 0 4.676z"/>
        <path id="92h0ooet7c" d="M0 21.483L30.082 21.483 30.082 0 0 0z"/>
    </defs>
    <g fill="none" fill-rule="evenodd">
        <g>
            <g>
                <g>
                    <g transform="translate(-16 -2207) translate(0 2029) translate(0 168) translate(16 10)">
                        <circle cx="20" cy="20" r="20" fill="#FC0"/>
                        <g>
                            <path fill="#222" d="M15.892 19.223h2.786V16.87h-2.786v2.352zm.585-.513h1.616V17.38h-1.616v1.329zM10.926 16.79L10.926 17.295 14.29 17.295 14.29 18.311 10.501 18.311 10.501 18.818 12.597 18.818 12.597 19.553 10.862 19.553 10.862 20.06 14.319 20.06 14.319 21.474 14.907 21.474 14.907 19.553 13.184 19.553 13.184 18.818 15.302 18.818 15.302 18.308 14.88 18.308 14.88 16.79zM16.423 19.728L16.423 21.456 20.119 21.456 20.119 20.946 17.012 20.946 17.012 19.728zM19.488 19.846L20.073 19.846 20.073 16.758 19.488 16.758zM3.26 16.797L.747 18.89.747 16.797 0 16.797 0 21.473.747 21.473.747 18.967 3.482 21.473 4.537 21.473 1.662 18.91 4.317 16.797z" transform="translate(5 8.434)"/>
                            <g transform="translate(5 8.434)">
                                <g transform="translate(5.058 16.807)">
                                    <mask id="ty46xrfbeb" fill="#fff">
                                        <use xlink:href="#t11xih1oaa"/>
                                    </mask>
                                    <path fill="#222" d="M.746 4.146h1.47c.913 0 1.155-.356 1.155-.81 0-.538-.372-.835-1.195-.835H.746v1.645zm0-2.177h1.516c.563 0 .98-.213.98-.712 0-.434-.205-.724-1.066-.724H.746v1.436zM0 0h2.3c1.093 0 1.665.362 1.665 1.157 0 .565-.396.954-.92 1.059v.02c.753.088 1.109.582 1.109 1.14 0 .697-.512 1.3-1.781 1.3H0V0z" mask="url(#ty46xrfbeb)"/>
                                </g>
                                <path fill="#222" d="M20.677 16.879L20.677 17.39 22.772 17.39 22.772 18.094 20.677 18.094 20.677 18.598 22.772 18.598 22.772 19.948 23.365 19.948 23.365 16.879z"/>
                                <mask id="voof1xv6od" fill="#fff">
                                    <use xlink:href="#92h0ooet7c"/>
                                </mask>
                                <path fill="#222" d="M25.592 21.156L30.082 21.156 30.082 20.652 25.592 20.652zM26.653 17.384L29.599 17.384 29.599 16.88 26.073 16.88 26.073 19.587 29.599 19.587 29.599 19.083 26.653 19.083zM24.08 21.473L24.67 21.473 24.67 18.462 25.267 18.462 25.267 17.951 24.67 17.951 24.67 16.777 24.08 16.777zM24.924 7.466l-.177-.112c-.602-.602-1.442-.862-2.563-.796-.934.056-1.674.427-2.239.771l-.002-.026c0-.293.033-.61.067-.917.033-.313.066-.632.066-.933 0-.307-.035-.6-.141-.849-.027-.064-.085-.101-.16-.101-.3.005-.891.213-1.033.338l-.078.17c-.005.334-.079 1.267-.153 1.38.003-.004-.04.112-.04.112-.126 1.333-.129 2.504-.011 3.509.013.1.206.252.356.307.164.06.676-.078.972-.188l.111-.018c.094-.01.148-.089.145-.195-.001-.003.007-.29.007-.29.213-.868 1.077-1.904 2.1-2.06.578-.09 1.033.058 1.394.45.05.071.154.696-.226 1.413-.284.532-.85.98-1.597 1.259-.706.269-1.483.377-2.442.345l-.899-.608c-.762-.535-1.707-1.2-2.563-1.524-.15-.057-.42-.282-.583-.416l-.088-.073c-.495-.396-1.435-1.024-2.191-1.526l-.407-.274V6.53c.024-.024.497-.309.497-.309.666-.39.972-.579 1.037-.677-.012.015.088-.053.088-.053l1.647-.932c1.582-.868 3.374-1.854 4.315-2.829l.046-.15.02-.131c.064-.21.066-.369.014-.554-.014-.053-.062-.114-.128-.126-.734-.073-1.682.367-2.545 1.176-.194.184-.358.273-.53.367l-.132.073c-.951.541-3.093 1.87-4.216 2.588.073-1.206.297-2.922.572-4.352l-.03-.17c-.005-.007-.118-.216-.118-.216L13 .078l-.026-.006c-.223-.113-.406-.067-.54-.034l-.225.083-.297.108c-.06.012-.103.049-.125.106-.535 1.295-.982 3.424-1.088 5.127-1.07-.681-2.06-1.17-2.546-1.406l-.012-.008-.058-.012c-.175-.023-.389-.152-.593-.275l-.407-.264-.622-.399c.005.004-.164-.037-.164-.037-.267.046-.78.39-.932.626-.02.03-.028.064-.028.1 0 .049.016.099.028.147l.027.126.03.077c.298.305 1.051.815 1.787 1.211l.857.453 1.307.716c0 .005.224.177.224.177l.154.088s.018.01.028.018L7.4 8.39l-1.253.829c-.118.081-.613.302-.721.346-.27.111-.476.28-.563.465l-.033.072.033.048.096.072c-.003 0 .129.084.129.084l.137.094c.004.002.13.022.13.022.22.008.547-.118 1.157-.385.56-.247 2.08-1.165 2.73-1.556l.278-.166c.114.01.24-.088.353-.173.13-.104.414-.279.586-.354.006-.002.105-.057.198-.109l-.001.075c.028 1.988.142 3.434.36 4.548l.003.019.02.045c.108.157.23.628.338 1.044l.247.83c.006.01.07.077.07.077.14.097.572.263.86.228l.072-.009.045-.1c.024-.124.033-.247.033-.381 0-.152-.011-.318-.024-.523l-.02-.3c-.09-1.388-.182-3.392-.182-4.725v-.106l1.268.797c1.755 1.14 4.408 2.86 6.01 3.315.083.027.171.007.233-.052.002-.003.246-.158.246-.158l.047-.02c.09-.043.153-.198.164-.366 1.35-.067 3.236-.588 4.244-1.855.389-.493.564-1.094.564-1.61 0-.421-.117-.785-.329-.986" mask="url(#voof1xv6od)"/>
                            </g>
                        </g>
                    </g>
                </g>
            </g>
        </g>
    </g>
</svg>
