<svg xmlns="http://www.w3.org/2000/svg" width="140" height="51" viewBox="0 0 140 51">
    <g fill="none" fill-rule="evenodd">
        <g>
            <g>
                <g>
                    <g>
                        <g>
                            <path d="M0 0H140V50.909H0z" transform="translate(-203.000000, -2033.000000) translate(0.000000, 112.000000) translate(16.000000, 1904.000000) translate(187.000000, 16.000000) translate(0.000000, 1.000000)"/>
                            <g>
                                <path fill="#FFE02E" d="M19.41 25.632s-2.716-1.16-3.346-3.36l-2.382 1.313s1.205 3.427 3.734 3.779l1.993-1.732z" transform="translate(-203.000000, -2033.000000) translate(0.000000, 112.000000) translate(16.000000, 1904.000000) translate(187.000000, 16.000000) translate(0.000000, 1.000000) translate(8.272727, 1.909091)"/>
                                <path fill="#9AEF75" d="M43.261 0s.01 2.476-1.58 3.688l1.932 1.403S46.012 3.03 45.4.965L43.261 0z" transform="translate(-203.000000, -2033.000000) translate(0.000000, 112.000000) translate(16.000000, 1904.000000) translate(187.000000, 16.000000) translate(0.000000, 1.000000) translate(8.272727, 1.909091)"/>
                                <path fill="#FFE02E" d="M72.472 4.521s.011 2.511-1.6 3.74l1.957 1.423s2.429-2.089 1.81-4.184l-2.167-.979z" transform="translate(-203.000000, -2033.000000) translate(0.000000, 112.000000) translate(16.000000, 1904.000000) translate(187.000000, 16.000000) translate(0.000000, 1.000000) translate(8.272727, 1.909091) translate(72.806023, 7.102823) rotate(42.000000) translate(-72.806023, -7.102823)"/>
                                <path fill="#FFAE00" d="M61.715 12.727s.011 2.476-1.579 3.688l1.932 1.403s2.398-2.06 1.787-4.126l-2.14-.965z" transform="translate(-203.000000, -2033.000000) translate(0.000000, 112.000000) translate(16.000000, 1904.000000) translate(187.000000, 16.000000) translate(0.000000, 1.000000) translate(8.272727, 1.909091)"/>
                                <path fill="#FFAE00" d="M124.254 37.602s.013 2.51-1.598 3.737l1.96 1.423s2.429-2.086 1.807-4.18l-2.17-.98z" transform="translate(-203.000000, -2033.000000) translate(0.000000, 112.000000) translate(16.000000, 1904.000000) translate(187.000000, 16.000000) translate(0.000000, 1.000000) translate(8.272727, 1.909091) translate(124.590483, 40.182290) rotate(47.000000) translate(-124.590483, -40.182290)"/>
                                <path fill="#67E82F" d="M128.286 20.364s-.337 2.455-1.968 3.447l1.578 1.644s2.492-1.728 2.22-3.855l-1.83-1.236z" transform="translate(-203.000000, -2033.000000) translate(0.000000, 112.000000) translate(16.000000, 1904.000000) translate(187.000000, 16.000000) translate(0.000000, 1.000000) translate(8.272727, 1.909091)"/>
                                <path fill="#FF7070" d="M34.045 21.543s-2.087-1.518-2.328-3.725l-2.126.905s.558 3.471 2.595 4.186l1.86-1.366z" transform="translate(-203.000000, -2033.000000) translate(0.000000, 112.000000) translate(16.000000, 1904.000000) translate(187.000000, 16.000000) translate(0.000000, 1.000000) translate(8.272727, 1.909091)"/>
                                <path fill="#FF7070" d="M4.773 19.634s-2.088-1.518-2.329-3.725l-2.126.905S.876 20.285 2.913 21l1.86-1.366z" transform="translate(-203.000000, -2033.000000) translate(0.000000, 112.000000) translate(16.000000, 1904.000000) translate(187.000000, 16.000000) translate(0.000000, 1.000000) translate(8.272727, 1.909091) translate(2.545455, 18.454545) rotate(-90.000000) translate(-2.545455, -18.454545)"/>
                            </g>
                        </g>
                    </g>
                </g>
            </g>
        </g>
    </g>
</svg>
