<svg xmlns="http://www.w3.org/2000/svg" width="40" height="40" viewBox="0 0 40 40">
    <g fill="none" fill-rule="evenodd">
        <g>
            <g>
                <g>
                    <g>
                        <g>
                            <g>
                                <path d="M0 0H40V40H0z" transform="translate(-212.000000, -516.000000) translate(0.000000, 88.000000) translate(16.000000, 268.000000) translate(0.000000, 120.000000) translate(0.000000, 40.000000) translate(196.000000, 0.000000)"/>
                                <g>
                                    <path stroke="#222" d="M13.772 24.834H1.274C.57 24.834 0 24.264 0 23.56V6.918c0-.704.57-1.274 1.274-1.274h12.498c.704 0 1.274.57 1.274 1.274V23.56c0 .704-.57 1.274-1.274 1.274z" transform="translate(-212.000000, -516.000000) translate(0.000000, 88.000000) translate(16.000000, 268.000000) translate(0.000000, 120.000000) translate(0.000000, 40.000000) translate(196.000000, 0.000000) translate(12.000000, 6.000000)"/>
                                    <path stroke="#222" stroke-linecap="round" d="M10.772 20.963H4.274c-.52 0-.944-.425-.944-.944V15.64c0-.519.424-.944.944-.944h6.498c.52 0 .944.425.944.944v4.38c0 .518-.424.943-.944.943z" transform="translate(-212.000000, -516.000000) translate(0.000000, 88.000000) translate(16.000000, 268.000000) translate(0.000000, 120.000000) translate(0.000000, 40.000000) translate(196.000000, 0.000000) translate(12.000000, 6.000000)"/>
                                    <path fill="#1D1D1B" d="M8.335 17.83c0 .448-.364.811-.812.811-.449 0-.811-.363-.811-.812 0-.448.362-.812.812-.812.447 0 .811.364.811.812" transform="translate(-212.000000, -516.000000) translate(0.000000, 88.000000) translate(16.000000, 268.000000) translate(0.000000, 120.000000) translate(0.000000, 40.000000) translate(196.000000, 0.000000) translate(12.000000, 6.000000)"/>
                                    <path stroke="#222" d="M5.236 12.779L5.236 11.803M5.236 11.803c0-1.263 1.023-2.288 2.287-2.288S9.81 10.54 9.81 11.803v2.893H5.236" transform="translate(-212.000000, -516.000000) translate(0.000000, 88.000000) translate(16.000000, 268.000000) translate(0.000000, 120.000000) translate(0.000000, 40.000000) translate(196.000000, 0.000000) translate(12.000000, 6.000000)"/>
                                    <path stroke="#222" stroke-linecap="round" stroke-linejoin="round" d="M14.749 3.004c1.637 0 2.964 1.327 2.964 2.964M20.716 5.968C20.716 2.672 18.044 0 14.748 0M17.712 5.968c0-1.637-1.327-2.964-2.964-2.964" transform="translate(-212.000000, -516.000000) translate(0.000000, 88.000000) translate(16.000000, 268.000000) translate(0.000000, 120.000000) translate(0.000000, 40.000000) translate(196.000000, 0.000000) translate(12.000000, 6.000000)"/>
                                </g>
                            </g>
                        </g>
                    </g>
                </g>
            </g>
        </g>
    </g>
</svg>
