<svg xmlns="http://www.w3.org/2000/svg" width="32" height="32" viewBox="0 0 32 32">
    <g fill="none" fill-rule="evenodd">
        <g>
            <g>
                <g>
                    <path d="M0 0H32V32H0z" transform="translate(-44.000000, -182.000000) translate(16.000000, 112.000000) translate(28.000000, 70.000000) translate(16.000000, 16.000000) scale(-1, 1) translate(-16.000000, -16.000000)"/>
                    <g stroke="#666" stroke-linecap="round" stroke-linejoin="round">
                        <path d="M15.802 13.363L10.628 8.19 16.663 2.155 21.837 7.328z" transform="translate(-44.000000, -182.000000) translate(16.000000, 112.000000) translate(28.000000, 70.000000) translate(16.000000, 15.995848) scale(-1, 1) translate(-16.000000, -15.995848) translate(4.000000, 4.000000)"/>
                        <path d="M20.543 6.035L17.957 3.45l1.728-1.73c.712-.711 1.867-.711 2.578 0l.01.01c.71.711.71 1.865 0 2.577l-1.73 1.73zM16.663 14.225l-3.448-3.448-3.017 3.017 3.448 3.448c.476.476 1.248.476 1.724 0l1.293-1.293c.477-.476.477-1.247 0-1.724z" transform="translate(-44.000000, -182.000000) translate(16.000000, 112.000000) translate(28.000000, 70.000000) translate(16.000000, 15.995848) scale(-1, 1) translate(-16.000000, -15.995848) translate(4.000000, 4.000000)"/>
                        <path d="M9.335 6.897c-.476-.476-1.248-.476-1.724 0L6.318 8.19c-.476.477-.476 1.248 0 1.724l3.88 3.88 3.017-3.017-3.88-3.88zM2.87 15.087l6.034 6.035-6.034-6.035zM.714 17.242L6.749 23.277 11.059 18.967 5.025 12.932z" transform="translate(-44.000000, -182.000000) translate(16.000000, 112.000000) translate(28.000000, 70.000000) translate(16.000000, 15.995848) scale(-1, 1) translate(-16.000000, -15.995848) translate(4.000000, 4.000000)"/>
                        <path d="M7.18 10.777L5.025 12.932 11.059 18.967 13.215 16.812zM.714 19.829c-.952.952-.952 2.496 0 3.448.953.953 2.497.953 3.449 0 .517-.517.744-1.21.698-1.887L2.6 19.13c-.677-.045-1.369.18-1.887.699zM22.276 1.732L22.268 1.724 23.992 0 24 .008z" transform="translate(-44.000000, -182.000000) translate(16.000000, 112.000000) translate(28.000000, 70.000000) translate(16.000000, 15.995848) scale(-1, 1) translate(-16.000000, -15.995848) translate(4.000000, 4.000000)"/>
                    </g>
                </g>
            </g>
        </g>
    </g>
</svg>
