<svg xmlns="http://www.w3.org/2000/svg" width="56" height="56" viewBox="0 0 56 56">
    <g fill="none" fill-rule="evenodd">
        <g>
            <g>
                <g>
                    <g>
                        <g transform="translate(-279.000000, -2713.000000) translate(0.000000, 112.000000) translate(16.000000, 2531.000000) translate(0.000000, 46.000000) translate(263.000000, 24.000000)">
                            <rect width="56" height="56" fill="#F8F8F8" rx="18"/>
                            <g>
                                <g>
                                    <path stroke="#070100" stroke-width="1.5" d="M22.137 6.323L25.453 5.256" transform="translate(13.000000, 17.000000)"/>
                                    <path stroke="#070100" d="M3.317 6.323L0 5.256" transform="translate(13.000000, 17.000000)"/>
                                    <path d="M25.355 16.727H.962V8.672c0-1.326 1.062-2.4 2.373-2.4h19.647c1.31 0 2.373 1.074 2.373 2.4v8.055z" transform="translate(13.000000, 17.000000)"/>
                                    <path fill="#FEFEFE" d="M18.386 16.727H7.932l.697-2.091c.244-.736 1.087-1.394 2.09-1.394h4.879c1.004 0 1.846.658 2.09 1.394l.698 2.09z" transform="translate(13.000000, 17.000000)"/>
                                    <path stroke="#070100" stroke-width="1.5" d="M26 16.727H.265V8.363c0-1.017 1.092-2.09 2.091-2.09h20.211c1.68 0 2.773 1.073 2.788 2.09v7.997M22.219 6.272H3.4l2.091-4.878C5.703.59 6.576 0 7.583 0h10.454c1.008 0 1.881.59 2.091 1.394l2.09 4.878z" transform="translate(13.000000, 17.000000)"/>
                                    <path fill="#070100" d="M7.235 11.151c0-.77-.624-1.394-1.394-1.394-.769 0-1.394.624-1.394 1.394 0 .77.625 1.394 1.394 1.394.77 0 1.394-.625 1.394-1.394M21.87 11.151c0-.77-.623-1.394-1.393-1.394s-1.394.624-1.394 1.394c0 .77.625 1.394 1.394 1.394.77 0 1.393-.625 1.393-1.394" transform="translate(13.000000, 17.000000)"/>
                                    <path stroke="#070100" stroke-width="1.5" d="M3.75 16.727v3.484c0 .421-.268.697-.697.697H.963c-.43 0-.698-.276-.698-.697v-3.484" transform="translate(13.000000, 17.000000)"/>
                                    <path stroke="#070100" d="M21.87 16.727v3.484c0 .421.27.697.697.697h2.091c.428 0 .697-.276.697-.697v-3.484" transform="translate(13.000000, 17.000000)"/>
                                </g>
                                <g>
                                    <g fill="#FC0">
                                        <path d="M9.662 3.713H5.263C2.711 4.801 0 7.824 0 10.995c0 3.97 3.358 4.051 7.5 4.051 4.142 0 7.5-.082 7.5-4.05 0-3.172-2.786-6.195-5.338-7.283" transform="translate(13.000000, 17.000000) translate(15.000000, 9.000000)"/>
                                        <path d="M5.263 3.713L3.43 1.02c-.088-.13-.043-.295.103-.38l.373-.218c1.062-.62 2.497-.55 3.465.167l.332.245c.37.275.889.365 1.361.238l1.012-.273c.588-.159 1.116.349.841.809L9.662 3.713" transform="translate(13.000000, 17.000000) translate(15.000000, 9.000000)"/>
                                    </g>
                                    <g stroke="#222">
                                        <path d="M4.353 7.83l1.334 3.496c.107.28.51.263.592-.026l.966-3.39c.086-.3.509-.304.6-.006l1.03 3.374c.088.29.496.297.594.01l1.178-3.459M3.75 9.442L11.25 9.442" transform="translate(13.000000, 17.000000) translate(15.000000, 9.000000)"/>
                                        <path stroke-width="1.5" d="M9.662 3.713H5.263C2.711 4.801 0 7.824 0 10.995c0 3.97 3.358 4.051 7.5 4.051 4.142 0 7.5-.082 7.5-4.05 0-3.172-2.786-6.195-5.338-7.283z" transform="translate(13.000000, 17.000000) translate(15.000000, 9.000000)"/>
                                        <path stroke-width="1.5" d="M5.263 3.713L3.43 1.02c-.088-.13-.043-.295.103-.38l.373-.218c1.062-.62 2.497-.55 3.465.167l.332.245c.37.275.889.365 1.361.238l1.012-.273c.588-.159 1.116.349.841.809L9.662 3.713" transform="translate(13.000000, 17.000000) translate(15.000000, 9.000000)"/>
                                    </g>
                                </g>
                            </g>
                        </g>
                    </g>
                </g>
            </g>
        </g>
    </g>
</svg>
