<svg xmlns="http://www.w3.org/2000/svg" width="56" height="56" viewBox="0 0 56 56">
    <g fill="none" fill-rule="evenodd">
        <g>
            <g>
                <g transform="translate(-279.000000, -1175.000000) translate(16.000000, 1151.000000) translate(263.000000, 24.000000)">
                    <rect width="56" height="56" fill="#F8F8F8" rx="18"/>
                    <g>
                        <path fill="#FC0" d="M29.867 18.084c0 5.146-4.171 9.317-9.317 9.317-5.145 0-9.316-4.171-9.316-9.317 0-5.145 4.171-9.316 9.316-9.316 5.146 0 9.317 4.171 9.317 9.316" transform="translate(13.066667, 14.666667)"/>
                        <path stroke="#222" stroke-width="1.5" d="M.274 4.044L.274 21.784M20.002 4.044c0 2.233-4.416 4.044-9.864 4.044S.274 6.278.274 4.044C.274 1.811 4.69 0 10.138 0s9.864 1.81 9.864 4.044zM13.118 12.433c-.26.009-2.715.013-2.98.013-5.448 0-9.864-1.81-9.864-4.044M14.985 25.57c-.36.033-3.802.05-4.847.028-5.448 0-9.864-1.81-9.864-4.043M11.303 16.782C6.321 17.118.274 14.852.274 12.76M11.662 21.148c-4.966.636-11.388-1.91-11.388-4.03M20.002 4.044L20.002 8.632" transform="translate(13.066667, 14.666667)"/>
                        <path stroke="#222" d="M16.083 15.423l1.893 4.964c.152.398.724.374.841-.037l1.372-4.812c.121-.425.722-.431.85-.009l1.463 4.79c.125.412.705.42.844.014l1.672-4.91M15.227 17.713L25.874 17.713" transform="translate(13.066667, 14.666667)"/>
                        <path stroke="#222" stroke-width="1.5" d="M29.867 18.084c0 5.146-4.171 9.317-9.317 9.317-5.145 0-9.316-4.171-9.316-9.317 0-5.145 4.171-9.316 9.316-9.316 5.146 0 9.317 4.171 9.317 9.316z" transform="translate(13.066667, 14.666667)"/>
                    </g>
                </g>
            </g>
        </g>
    </g>
</svg>
