<svg xmlns="http://www.w3.org/2000/svg" width="41" height="40" viewBox="0 0 41 40">
    <g fill="none" fill-rule="evenodd">
        <g>
            <g>
                <g>
                    <g>
                        <g>
                            <g>
                                <path d="M0 0H40V40H0z" transform="translate(-36.000000, -716.000000) translate(0.000000, 88.000000) translate(16.000000, 268.000000) translate(0.000000, 120.000000) translate(0.000000, 240.000000) translate(20.500000, 0.000000)"/>
                                <g stroke="#151516">
                                    <path stroke-linecap="round" d="M4.61 4.158c0-1.273-1.032-2.304-2.305-2.304C1.032 1.854 0 2.885 0 4.158s1.032 2.305 2.305 2.305c1.273 0 2.304-1.032 2.304-2.305z" transform="translate(-36.000000, -716.000000) translate(0.000000, 88.000000) translate(16.000000, 268.000000) translate(0.000000, 120.000000) translate(0.000000, 240.000000) translate(20.500000, 0.000000) translate(11.000000, 9.000000)"/>
                                    <path stroke-linecap="round" stroke-linejoin="round" d="M1.454 9.746l1.253 5.316c.214.91 1.026 1.552 1.96 1.552h2.425c1.111 0 2.09.729 2.41 1.793l.886 2.941c.294.98 1.196 1.652 2.22 1.652h0c1.205 0 2.089-1.133 1.794-2.301l-1.394-5.528c-.27-1.07-1.232-1.82-2.335-1.82h-3.23c-.713 0-1.322-.513-1.444-1.215l-.465-2.673c-.128-.736-.726-1.271-1.424-1.271H2.58c-.757 0-1.312.766-1.126 1.554z" transform="translate(-36.000000, -716.000000) translate(0.000000, 88.000000) translate(16.000000, 268.000000) translate(0.000000, 120.000000) translate(0.000000, 240.000000) translate(20.500000, 0.000000) translate(11.000000, 9.000000)"/>
                                    <path stroke-linecap="round" d="M6.85 12.162L0.255 18.78" transform="translate(-36.000000, -716.000000) translate(0.000000, 88.000000) translate(16.000000, 268.000000) translate(0.000000, 120.000000) translate(0.000000, 240.000000) translate(20.500000, 0.000000) translate(11.000000, 9.000000)"/>
                                    <path d="M17.349 10.152l-4.425 1.02c-.932.215-1.86-.366-2.076-1.298L9.296 3.14c-.215-.933.366-1.861 1.298-2.076L15.02.045c.932-.215 1.861.366 2.076 1.298l1.553 6.733c.214.932-.367 1.861-1.299 2.076z" transform="translate(-36.000000, -716.000000) translate(0.000000, 88.000000) translate(16.000000, 268.000000) translate(0.000000, 120.000000) translate(0.000000, 240.000000) translate(20.500000, 0.000000) translate(11.000000, 9.000000)"/>
                                </g>
                            </g>
                        </g>
                    </g>
                </g>
            </g>
        </g>
    </g>
</svg>
