<svg xmlns="http://www.w3.org/2000/svg" width="41" height="40" viewBox="0 0 41 40">
    <g fill="none" fill-rule="evenodd">
        <g>
            <g>
                <g>
                    <g>
                        <g>
                            <g>
                                <g>
                                    <path d="M0 0H40V40H0z" transform="translate(-124.000000, -716.000000) translate(0.000000, 88.000000) translate(16.000000, 268.000000) translate(0.000000, 120.000000) translate(0.000000, 240.000000) translate(108.500000, 0.000000)"/>
                                </g>
                                <g stroke="#222">
                                    <path d="M3.805 2.462H17.97c.739 0 1.337.525 1.337 1.174v8.361c0 .648-.598 1.174-1.337 1.174h-6.928c-1.745 0-3.35-.837-4.186-2.18L2.631 4.198c-.487-.782.158-1.736 1.174-1.736z" transform="translate(-124.000000, -716.000000) translate(0.000000, 88.000000) translate(16.000000, 268.000000) translate(0.000000, 120.000000) translate(0.000000, 240.000000) translate(108.500000, 0.000000) translate(8.000000, 11.500000)"/>
                                    <path d="M11.043 15.633c-2.59 0-4.995-1.28-6.277-3.342L.54 5.5C-.147 4.396-.18 3.06.45 1.927 1.11.738 2.396 0 3.805 0H17.97c2.096 0 3.8 1.63 3.8 3.636v8.36c0 2.006-1.704 3.637-3.8 3.637h-6.927z" transform="translate(-124.000000, -716.000000) translate(0.000000, 88.000000) translate(16.000000, 268.000000) translate(0.000000, 120.000000) translate(0.000000, 240.000000) translate(108.500000, 0.000000) translate(8.000000, 11.500000)"/>
                                    <path stroke-linecap="round" stroke-width=".75" d="M10.682 18.326c-1.767.494-3.721.306-5.426-.704-1.703-1.01-2.806-2.635-3.22-4.422" transform="translate(-124.000000, -716.000000) translate(0.000000, 88.000000) translate(16.000000, 268.000000) translate(0.000000, 120.000000) translate(0.000000, 240.000000) translate(108.500000, 0.000000) translate(8.000000, 11.500000)"/>
                                    <path stroke-linecap="round" stroke-linejoin="round" stroke-width=".75" d="M9.141 19.424L10.697 18.335 8.977 17.531M1.811 15.078L2.019 13.189 3.551 14.314" transform="translate(-124.000000, -716.000000) translate(0.000000, 88.000000) translate(16.000000, 268.000000) translate(0.000000, 120.000000) translate(0.000000, 240.000000) translate(108.500000, 0.000000) translate(8.000000, 11.500000)"/>
                                    <path stroke-linecap="round" d="M23.37 12.428h-1.6V5.587h1.6c.348 0 .63.281.63.63v5.582c0 .348-.282.63-.63.63z" transform="translate(-124.000000, -716.000000) translate(0.000000, 88.000000) translate(16.000000, 268.000000) translate(0.000000, 120.000000) translate(0.000000, 240.000000) translate(108.500000, 0.000000) translate(8.000000, 11.500000)"/>
                                </g>
                            </g>
                        </g>
                    </g>
                </g>
            </g>
        </g>
    </g>
</svg>
