<svg xmlns="http://www.w3.org/2000/svg" width="40" height="40" viewBox="0 0 40 40">
    <g fill="none" fill-rule="evenodd">
        <g>
            <g>
                <g>
                    <g>
                        <g>
                            <g>
                                <path d="M0 0H40V40H0z" transform="translate(-36.000000, -616.000000) translate(0.000000, 88.000000) translate(16.000000, 268.000000) translate(0.000000, 120.000000) translate(0.000000, 140.000000) translate(20.000000, 0.000000)"/>
                                <g stroke="#050101">
                                    <path d="M18.824 19.028C20.784 17.102 22 14.422 22 11.457 22 5.597 17.25.847 11.39.847 5.53.847.78 5.597.78 11.457c0 2.837 1.112 5.412 2.924 7.315" transform="translate(-36.000000, -616.000000) translate(0.000000, 88.000000) translate(16.000000, 268.000000) translate(0.000000, 120.000000) translate(0.000000, 140.000000) translate(20.000000, 0.000000) translate(9.000000, 10.000000)"/>
                                    <path stroke-linecap="round" d="M11.254 3.288L11.254.847M1.356 11.356L3.796 11.356M3.301 18.302L5.148 16.707M17.318 16.736L19.083 18.421M4.225 4.135L5.867 5.94M18.643 4.165L16.937 5.91M19.322 11.356L21.763 11.356M12.865 11.356c0 .814-.661 1.474-1.474 1.474-.815 0-1.476-.66-1.476-1.474 0-.815.66-1.474 1.476-1.474.813 0 1.474.659 1.474 1.474zM7.085 6.983L10.054 9.952" transform="translate(-36.000000, -616.000000) translate(0.000000, 88.000000) translate(16.000000, 268.000000) translate(0.000000, 120.000000) translate(0.000000, 140.000000) translate(20.000000, 0.000000) translate(9.000000, 10.000000)"/>
                                    <path stroke-linecap="round" stroke-linejoin="round" d="M0 1.728L1.966 1.728 1.966 0" transform="translate(-36.000000, -616.000000) translate(0.000000, 88.000000) translate(16.000000, 268.000000) translate(0.000000, 120.000000) translate(0.000000, 140.000000) translate(20.000000, 0.000000) translate(9.000000, 10.000000)"/>
                                </g>
                            </g>
                        </g>
                    </g>
                </g>
            </g>
        </g>
    </g>
</svg>
