<svg xmlns="http://www.w3.org/2000/svg" width="32" height="32" viewBox="0 0 32 32">
    <g fill="none" fill-rule="evenodd">
        <g>
            <g>
                <g>
                    <g>
                        <g>
                            <g>
                                <path d="M0 0H32V32H0z" transform="translate(-55.000000, -450.000000) translate(0.000000, 112.000000) translate(16.000000, 162.000000) translate(0.000000, 148.000000) translate(27.000000, 16.000000) translate(12.000000, 12.000000)"/>
                                <g stroke="#666" stroke-linejoin="round">
                                    <path d="M15.844 5.246c0 .434-.28.785-.627.785H9.836c-.346 0-.627-.351-.627-.785v-1.03c0-.433.281-.784.627-.784h5.38c.348 0 .628.351.628.784v1.03zM9.099 19.986c-2.49 0-4.51-2.019-4.51-4.508 0-2.49 2.02-4.509 4.51-4.509 2.49 0 4.51 2.019 4.51 4.509s-2.02 4.508-4.51 4.508z" transform="translate(-55.000000, -450.000000) translate(0.000000, 112.000000) translate(16.000000, 162.000000) translate(0.000000, 148.000000) translate(27.000000, 16.000000) translate(12.000000, 12.000000) translate(7.000000, 4.000000)"/>
                                    <path d="M16.804.923l-7.05.001c-.552 0-1.275.36-1.609.8L6.736 3.583.696 3.58C.03 3.826 0 5.45 0 5.45v17.156C0 23.376.624 24 1.393 24h15.411c.77 0 1.393-.624 1.393-1.394V2.316c0-.77-.623-1.393-1.393-1.393zM5.919.514C5.919.23 5.688 0 5.405 0H1.61c-.284 0-.514.23-.514.514V1.9h4.823V.514z" transform="translate(-55.000000, -450.000000) translate(0.000000, 112.000000) translate(16.000000, 162.000000) translate(0.000000, 148.000000) translate(27.000000, 16.000000) translate(12.000000, 12.000000) translate(7.000000, 4.000000)"/>
                                    <path d="M9.258 12.935c.076.211.205.6 1.198 1.703.682.76.869 1.71.484 2.482-.329.66-1.033 1.055-1.859 1.055-.825-.003-1.51-.4-1.831-1.06-.378-.778-.181-1.733.517-2.49 1.006-1.095 1.14-1.48 1.218-1.69.02-.054.076-.09.138-.09.06 0 .116.037.135.09z" transform="translate(-55.000000, -450.000000) translate(0.000000, 112.000000) translate(16.000000, 162.000000) translate(0.000000, 148.000000) translate(27.000000, 16.000000) translate(12.000000, 12.000000) translate(7.000000, 4.000000)"/>
                                </g>
                            </g>
                        </g>
                    </g>
                </g>
            </g>
        </g>
    </g>
</svg>
