<svg xmlns="http://www.w3.org/2000/svg" xmlns:xlink="http://www.w3.org/1999/xlink" width="24" height="24" viewBox="0 0 24 24">
    <defs>
        <path id="rh0j47alna" d="M0 0L16 0 16 8.533 0 8.533z"/>
    </defs>
    <g fill="none" fill-rule="evenodd">
        <g>
            <g>
                <g>
                    <g>
                        <g transform="translate(-40.000000, -1209.000000) translate(0.000000, 112.000000) translate(16.000000, 1031.000000) translate(0.000000, 42.000000) translate(24.000000, 24.000000)">
                            <circle cx="12" cy="12" r="12" fill="#053266"/>
                            <g transform="translate(12.000000, 12.266667) scale(1, -1) translate(-12.000000, -12.266667) translate(4.000000, 8.000000)">
                                <mask id="muteydgipb" fill="#fff">
                                    <use xlink:href="#rh0j47alna"/>
                                </mask>
                                <path fill="#FEFEFE" d="M5.073.978c.168-.036.296-.036.335.01.024.027.033.074 0 .132-.02.03-.037.057-.07.1-1.415 1.737-2.49 4.3-2.796 5.038-.024.052-.047.104-.064.136-.032.053-.068.093-.137.098-.035 0-.087-.008-.166-.057C1.24 5.833.658 5.08.658 4.267c0-1.47 1.819-2.738 4.415-3.29m1.446 1.108c.132-.32.363-1.01.89-1.285.159-.082.358-.12.534-.126h.081c1.451 0 2.801.206 3.94.562.084.027.266.06.266.183 0 .055-.03.098-.068.136-.016.019-.039.04-.073.067-.264.232-1.065.835-2.57 1.433-.53.215-1.193.475-1.882.628-.409.089-1.913.327-1.118-1.598m7.029.057c.028-.054.066-.097.135-.1.037-.006.086.005.163.054.941.604 1.498 1.353 1.498 2.17 0 1.472-1.814 2.736-4.412 3.29-.168.034-.277.034-.316-.012-.024-.03-.032-.075 0-.132.017-.033.035-.058.07-.099 1.414-1.738 2.493-4.299 2.797-5.041.02-.048.047-.098.065-.13m-4.043 4.3c-.13.32-.364 1.01-.889 1.284-.158.08-.357.12-.535.125-.039.003-.067 0-.079 0-1.447 0-2.8-.204-3.937-.555-.083-.025-.268-.073-.268-.191 0-.053.027-.094.066-.134.016-.018.04-.038.071-.066.264-.233 1.069-.837 2.574-1.436.528-.21 1.188-.473 1.88-.625.409-.09 1.914-.327 1.117 1.598M7.999 8.533c4.42 0 8.001-1.91 8.001-4.266S12.42 0 8 0C3.582 0 0 1.91 0 4.267s3.583 4.266 8 4.266" mask="url(#muteydgipb)"/>
                            </g>
                        </g>
                    </g>
                </g>
            </g>
        </g>
    </g>
</svg>
