<svg xmlns="http://www.w3.org/2000/svg" width="32" height="32" viewBox="0 0 32 32">
    <g fill="none" fill-rule="evenodd">
        <g>
            <g>
                <g>
                    <g>
                        <g>
                            <g>
                                <path d="M0 0H32V32H0z" transform="translate(-55.000000, -894.000000) translate(0.000000, 112.000000) translate(16.000000, 162.000000) translate(0.000000, 592.000000) translate(27.000000, 16.000000) translate(12.000000, 12.000000)"/>
                                <g stroke="#666">
                                    <path stroke-linejoin="round" d="M1.033 2.412l-.747-.748c-.381-.38-.381-.997 0-1.38.381-.379.998-.379 1.38 0l.745.748-1.378 1.38zM19.129 12.896L12.752 19.274 8.96 15.481 10.771 10.913 15.338 9.103z" transform="translate(-55.000000, -894.000000) translate(0.000000, 112.000000) translate(16.000000, 162.000000) translate(0.000000, 592.000000) translate(27.000000, 16.000000) translate(12.000000, 12.000000) translate(5.000000, 4.000000)"/>
                                    <path stroke-linejoin="round" d="M17.752 11.516l-6.379 6.378 6.38-6.378zM19.23 15.553l-3.82 3.82c-.381.382-.998.382-1.38 0-.38-.38-.38-.998 0-1.379l3.821-3.82c.382-.381.999-.381 1.38 0 .38.38.38.998 0 1.379z" transform="translate(-55.000000, -894.000000) translate(0.000000, 112.000000) translate(16.000000, 162.000000) translate(0.000000, 592.000000) translate(27.000000, 16.000000) translate(12.000000, 12.000000) translate(5.000000, 4.000000)"/>
                                    <path stroke-linejoin="round" d="M20.609 16.932l-3.82 3.821c-.38.381-.999.381-1.38 0-.38-.382-.38-.998 0-1.38l3.822-3.82c.38-.38.998-.38 1.378 0 .382.38.382.998 0 1.38z" transform="translate(-55.000000, -894.000000) translate(0.000000, 112.000000) translate(16.000000, 162.000000) translate(0.000000, 592.000000) translate(27.000000, 16.000000) translate(12.000000, 12.000000) translate(5.000000, 4.000000)"/>
                                    <path stroke-linejoin="round" d="M21.988 18.31l-3.82 3.823c-.38.38-1 .38-1.379 0-.38-.382-.38-.999 0-1.38l3.82-3.82c.382-.382.998-.382 1.38 0 .381.38.381.998 0 1.377z" transform="translate(-55.000000, -894.000000) translate(0.000000, 112.000000) translate(16.000000, 162.000000) translate(0.000000, 592.000000) translate(27.000000, 16.000000) translate(12.000000, 12.000000) translate(5.000000, 4.000000)"/>
                                    <path stroke-linejoin="round" d="M22.476 20.58L20.438 22.621 19.058 21.241 21.098 19.202zM21.458 21.6l-2.4 2.4 2.4-2.4z" transform="translate(-55.000000, -894.000000) translate(0.000000, 112.000000) translate(16.000000, 162.000000) translate(0.000000, 592.000000) translate(27.000000, 16.000000) translate(12.000000, 12.000000) translate(5.000000, 4.000000)"/>
                                    <path stroke-linecap="round" stroke-linejoin="round" d="M3.276 6.824L5.151 4.949M13.112 9.98L8.357 5.224" transform="translate(-55.000000, -894.000000) translate(0.000000, 112.000000) translate(16.000000, 162.000000) translate(0.000000, 592.000000) translate(27.000000, 16.000000) translate(12.000000, 12.000000) translate(5.000000, 4.000000)"/>
                                    <path stroke-linecap="round" d="M6.359 7.221L8.292 5.29c.487-.488.487-1.28 0-1.767-.442-.442-1.123-.462-1.611-.103L4.27 1.01c-.076-.075-.198-.075-.274 0L.866 4.14c-.075.076-.075.199 0 .274l2.41 2.411c-.376.455-.338 1.17.103 1.612.488.487 1.214.551 1.702.064l4.756 4.755" transform="translate(-55.000000, -894.000000) translate(0.000000, 112.000000) translate(16.000000, 162.000000) translate(0.000000, 592.000000) translate(27.000000, 16.000000) translate(12.000000, 12.000000) translate(5.000000, 4.000000)"/>
                                </g>
                            </g>
                        </g>
                    </g>
                </g>
            </g>
        </g>
    </g>
</svg>
