<svg xmlns="http://www.w3.org/2000/svg" width="32" height="32" viewBox="0 0 32 32">
    <g fill="none" fill-rule="evenodd">
        <g>
            <g>
                <g>
                    <g>
                        <g>
                            <g>
                                <path d="M0 0H32V32H0z" transform="translate(-208.000000, -712.000000) translate(0.000000, 132.000000) translate(0.000000, 84.000000) translate(16.000000, 42.000000) translate(176.000000, 438.000000) translate(16.000000, 16.000000)"/>
                                <g>
                                    <g>
                                        <path stroke="#070100" stroke-width="1.5" d="M20.434 5.836L23.495 4.852M3.062 5.836L0 4.852" transform="translate(-208.000000, -712.000000) translate(0.000000, 132.000000) translate(0.000000, 84.000000) translate(16.000000, 42.000000) translate(176.000000, 438.000000) translate(16.000000, 16.000000) translate(2.000000, 3.000000) translate(0.000000, 6.000000)"/>
                                        <path fill="#FC0" d="M23.405 15.44H.888V8.005c0-1.224.98-2.215 2.19-2.215h18.136c1.21 0 2.19.991 2.19 2.215v7.435z" transform="translate(-208.000000, -712.000000) translate(0.000000, 132.000000) translate(0.000000, 84.000000) translate(16.000000, 42.000000) translate(176.000000, 438.000000) translate(16.000000, 16.000000) translate(2.000000, 3.000000) translate(0.000000, 6.000000)"/>
                                        <path fill="#FEFEFE" d="M16.971 15.44h-9.65l.644-1.93c.226-.68 1.004-1.287 1.93-1.287h4.503c.927 0 1.704.608 1.93 1.287l.643 1.93z" transform="translate(-208.000000, -712.000000) translate(0.000000, 132.000000) translate(0.000000, 84.000000) translate(16.000000, 42.000000) translate(176.000000, 438.000000) translate(16.000000, 16.000000) translate(2.000000, 3.000000) translate(0.000000, 6.000000)"/>
                                        <path stroke="#070100" stroke-width="1.5" d="M24 15.44H.245V7.72c0-.939 1.008-1.93 1.93-1.93H20.83c1.551 0 2.56.991 2.574 1.93v7.382M20.51 5.79H3.14l1.93-4.503C5.265.545 6.07 0 7 0h9.65c.93 0 1.736.545 1.93 1.287l1.93 4.503z" transform="translate(-208.000000, -712.000000) translate(0.000000, 132.000000) translate(0.000000, 84.000000) translate(16.000000, 42.000000) translate(176.000000, 438.000000) translate(16.000000, 16.000000) translate(2.000000, 3.000000) translate(0.000000, 6.000000)"/>
                                        <path fill="#070100" d="M6.678 10.293c0-.71-.576-1.286-1.287-1.286-.71 0-1.286.575-1.286 1.286 0 .71.577 1.287 1.286 1.287.711 0 1.287-.576 1.287-1.287M20.188 10.293c0-.71-.576-1.286-1.287-1.286-.71 0-1.286.575-1.286 1.286 0 .71.577 1.287 1.286 1.287.711 0 1.287-.576 1.287-1.287" transform="translate(-208.000000, -712.000000) translate(0.000000, 132.000000) translate(0.000000, 84.000000) translate(16.000000, 42.000000) translate(176.000000, 438.000000) translate(16.000000, 16.000000) translate(2.000000, 3.000000) translate(0.000000, 6.000000)"/>
                                        <path stroke="#070100" stroke-width="1.5" d="M3.462 15.44v3.217c0 .388-.248.643-.644.643H.888c-.395 0-.643-.255-.643-.643V15.44M20.188 15.44v3.217c0 .388.248.643.643.643h1.93c.395 0 .644-.255.644-.643V15.44" transform="translate(-208.000000, -712.000000) translate(0.000000, 132.000000) translate(0.000000, 84.000000) translate(16.000000, 42.000000) translate(176.000000, 438.000000) translate(16.000000, 16.000000) translate(2.000000, 3.000000) translate(0.000000, 6.000000)"/>
                                    </g>
                                    <g stroke="#222" transform="translate(-208.000000, -712.000000) translate(0.000000, 132.000000) translate(0.000000, 84.000000) translate(16.000000, 42.000000) translate(176.000000, 438.000000) translate(16.000000, 16.000000) translate(2.000000, 3.000000) translate(15.000000, 0.000000)">
                                        <circle cx="7" cy="7" r="6.25" fill="#FFF" stroke-width="1.5"/>
                                        <g stroke-linejoin="round" stroke-width="1.2">
                                            <path d="M0 2L6 2 3.654 0" transform="translate(4.000000, 4.000000)"/>
                                            <path d="M0 6L6 6 3.654 4" transform="translate(4.000000, 4.000000) translate(3.000000, 5.000000) scale(-1, -1) translate(-3.000000, -5.000000)"/>
                                        </g>
                                    </g>
                                </g>
                            </g>
                        </g>
                    </g>
                </g>
            </g>
        </g>
    </g>
</svg>
