<svg xmlns="http://www.w3.org/2000/svg" width="41" height="40" viewBox="0 0 41 40">
    <g fill="none" fill-rule="evenodd">
        <g>
            <g>
                <g>
                    <g>
                        <g>
                            <g>
                                <path d="M0 0H40V40H0z" transform="translate(-212.000000, -816.000000) translate(0.000000, 88.000000) translate(16.000000, 268.000000) translate(0.000000, 120.000000) translate(0.000000, 340.000000) translate(196.500000, 0.000000)"/>
                                <g stroke="#222">
                                    <path d="M24.864 9.375h2.238c.661 0 1.197-.517 1.197-1.154V5.555c0-.69-.503-1.278-1.206-1.41-.799-.152-1.844-.465-2.636-1.11C22.974 1.83 21.584 0 18.852 0s-4.069.223-7.172 2.857c-3.1 2.634-5.329 1.69-5.372 4.33-.038 2.319.37 2.188.37 2.188h3.414M14.301 9.375L20.655 9.375" transform="translate(-212.000000, -816.000000) translate(0.000000, 88.000000) translate(16.000000, 268.000000) translate(0.000000, 120.000000) translate(0.000000, 340.000000) translate(196.500000, 0.000000) translate(3.000000, 14.000000)"/>
                                    <path d="M10.092 9.404c0-1.162.942-2.104 2.104-2.104 1.163 0 2.105.942 2.105 2.104 0 1.162-.942 2.104-2.105 2.104-1.162 0-2.104-.942-2.104-2.104M24.864 9.404c0 1.162-.942 2.104-2.104 2.104-1.163 0-2.105-.942-2.105-2.104 0-1.162.942-2.104 2.105-2.104 1.162 0 2.104.942 2.104 2.104z" transform="translate(-212.000000, -816.000000) translate(0.000000, 88.000000) translate(16.000000, 268.000000) translate(0.000000, 120.000000) translate(0.000000, 340.000000) translate(196.500000, 0.000000) translate(3.000000, 14.000000)"/>
                                    <path stroke-linecap="round" d="M1.5 3.811C.579 4.691 0 5.925 0 7.299c0 1.375.579 2.608 1.5 3.489M3.3 5.693c-.424.405-.691.974-.691 1.606 0 .634.267 1.202.69 1.607M33.078 3.811c.92.88 1.5 2.114 1.5 3.488 0 1.375-.58 2.608-1.5 3.489M31.278 5.693c.424.405.69.974.69 1.606 0 .634-.266 1.202-.69 1.607" transform="translate(-212.000000, -816.000000) translate(0.000000, 88.000000) translate(16.000000, 268.000000) translate(0.000000, 120.000000) translate(0.000000, 340.000000) translate(196.500000, 0.000000) translate(3.000000, 14.000000)"/>
                                </g>
                            </g>
                        </g>
                    </g>
                </g>
            </g>
        </g>
    </g>
</svg>
