<svg xmlns="http://www.w3.org/2000/svg" width="24" height="24" viewBox="0 0 24 24">
    <g fill="none" fill-rule="evenodd">
        <g>
            <g>
                <g>
                    <g>
                        <g>
                            <g>
                                <path d="M0 0H24V24H0z" transform="translate(-289.000000, -860.000000) translate(0.000000, 96.000000) translate(16.000000, 466.000000) translate(29.000000, 276.000000) translate(202.000000, 0.000000) translate(41.999797, 22.000000)"/>
                                <g>
                                    <path fill="red" stroke="#1D1D1B" stroke-linecap="round" stroke-linejoin="round" d="M9.93 5.268c-.499-.463-1.031-.856-1.496-1.208C6.602 2.673 7.494 0 7.494 0 4.506.215 3.648 1.816 3.508 3.595c-.01.651.049 1.307.212 1.925.742 2.822.102 3.25-.54 3.379-1.171.232-1.524-1.605-1.482-3.275C.648 6.704 0 8.177 0 9.803c0 3.313 2.686 6 6 6 3.313 0 6-2.687 6-6 0-1.812-.803-3.435-2.07-4.535z" transform="translate(-289.000000, -860.000000) translate(0.000000, 96.000000) translate(16.000000, 466.000000) translate(29.000000, 276.000000) translate(202.000000, 0.000000) translate(41.999797, 22.000000) translate(6.000000, 4.000000)"/>
                                    <path fill="#FFF" d="M6.11 9.784s2.047 1.64 2.067 3.774c.025 2.47-3.664 3.018-4.294.603-.277-1.059.371-2.11 2.228-4.377" transform="translate(-289.000000, -860.000000) translate(0.000000, 96.000000) translate(16.000000, 466.000000) translate(29.000000, 276.000000) translate(202.000000, 0.000000) translate(41.999797, 22.000000) translate(6.000000, 4.000000)"/>
                                    <path stroke="#1D1D1B" stroke-linecap="round" stroke-linejoin="round" d="M6.11 9.784s2.047 1.64 2.067 3.774c.025 2.47-3.664 3.018-4.294.603-.277-1.059.371-2.11 2.228-4.377z" transform="translate(-289.000000, -860.000000) translate(0.000000, 96.000000) translate(16.000000, 466.000000) translate(29.000000, 276.000000) translate(202.000000, 0.000000) translate(41.999797, 22.000000) translate(6.000000, 4.000000)"/>
                                </g>
                            </g>
                        </g>
                    </g>
                </g>
            </g>
        </g>
    </g>
</svg>
