<svg xmlns="http://www.w3.org/2000/svg" width="32" height="32" viewBox="0 0 32 32">
    <g fill="none" fill-rule="evenodd">
        <g>
            <g>
                <g>
                    <g>
                        <g>
                            <g>
                                <path d="M0 0H32V32H0z" transform="translate(-289.000000, -302.000000) translate(0.000000, 112.000000) translate(16.000000, 162.000000) translate(234.000000, 0.000000) translate(27.000000, 16.000000) translate(12.000000, 12.000000)"/>
                                <g stroke="#666">
                                    <path d="M2.86 7.074l-.83 2.05c-.112.275-.056.592.144.812l4.738 5.244c.558.618 1.651.872 2.39.486 1.096-.572 2.35-.905 3.698-.905 1.347 0 2.602.333 3.698.905.74.386 1.832.132 2.39-.486l4.738-5.244c.2-.22.255-.537.144-.813l-1.713-4.228c-.082-.2-.237-.363-.435-.45C19.144 3.273 16.157 2.61 13 2.61c-3.158 0-6.144.664-8.823 1.834-.198.088-.353.25-.434.451l-.883 2.18M13 2.61L13 14.76" transform="translate(-289.000000, -302.000000) translate(0.000000, 112.000000) translate(16.000000, 162.000000) translate(234.000000, 0.000000) translate(27.000000, 16.000000) translate(12.000000, 12.000000) translate(3.000000, 8.000000)"/>
                                    <path stroke-linecap="round" stroke-linejoin="round" d="M7.897 2.975l.373-1.943C8.385.432 8.91 0 9.52 0h6.861c.59 0 1.1.402 1.238.974l.484 2.001M2.377 8.161L0 8.161 0 5.931 3.323 5.931M23.623 8.161L26 8.161 26 5.931 22.677 5.931" transform="translate(-289.000000, -302.000000) translate(0.000000, 112.000000) translate(16.000000, 162.000000) translate(234.000000, 0.000000) translate(27.000000, 16.000000) translate(12.000000, 12.000000) translate(3.000000, 8.000000)"/>
                                </g>
                            </g>
                        </g>
                    </g>
                </g>
            </g>
        </g>
    </g>
</svg>
