<svg xmlns="http://www.w3.org/2000/svg" width="32" height="32" viewBox="0 0 32 32">
    <g fill="none" fill-rule="evenodd">
        <g>
            <g>
                <g>
                    <g>
                        <g>
                            <g>
                                <path d="M0 0H32V32H0z" transform="translate(-171.000000, -302.000000) translate(0.000000, 112.000000) translate(16.000000, 162.000000) translate(117.000000, 0.000000) translate(26.000000, 16.000000) translate(12.000000, 12.000000)"/>
                                <g>
                                    <path stroke="#666" d="M24 12c0 6.628-5.372 12-12 12-6.627 0-12-5.372-12-12S5.373 0 12 0c6.628 0 12 5.372 12 12z" transform="translate(-171.000000, -302.000000) translate(0.000000, 112.000000) translate(16.000000, 162.000000) translate(117.000000, 0.000000) translate(26.000000, 16.000000) translate(12.000000, 12.000000) translate(4.000000, 4.000000)"/>
                                    <path stroke="#222" d="M1.945 12.305L3.165 12.305" transform="translate(-171.000000, -302.000000) translate(0.000000, 112.000000) translate(16.000000, 162.000000) translate(117.000000, 0.000000) translate(26.000000, 16.000000) translate(12.000000, 12.000000) translate(4.000000, 4.000000)"/>
                                    <path stroke="#666" d="M2.443 9.151L3.645 9.531M3.872 6.301L4.892 7.058M6.103 4.105L6.832 5.112M8.91 2.663L9.281 3.857M11.999 2.174L11.999 3.398" transform="translate(-171.000000, -302.000000) translate(0.000000, 112.000000) translate(16.000000, 162.000000) translate(117.000000, 0.000000) translate(26.000000, 16.000000) translate(12.000000, 12.000000) translate(4.000000, 4.000000)"/>
                                    <path stroke="#222" d="M22.056 12.305L20.836 12.305" transform="translate(-171.000000, -302.000000) translate(0.000000, 112.000000) translate(16.000000, 162.000000) translate(117.000000, 0.000000) translate(26.000000, 16.000000) translate(12.000000, 12.000000) translate(4.000000, 4.000000)"/>
                                    <path stroke="#666" d="M21.559 9.151L20.356 9.531M20.129 6.301L19.108 7.058M17.898 4.105L17.169 5.112M15.091 2.663L14.719 3.857M1.945 12.269L3.165 12.269M2.443 15.423L3.645 15.045M3.872 18.275L4.892 17.517M6.103 20.469L6.832 19.463M8.91 21.913L9.281 20.718M11.999 22.401L11.999 21.177M22.056 12.269L20.836 12.269M21.559 15.423L20.356 15.045M20.129 18.275L19.108 17.517M17.898 20.469L17.169 19.463M15.091 21.913L14.719 20.718" transform="translate(-171.000000, -302.000000) translate(0.000000, 112.000000) translate(16.000000, 162.000000) translate(117.000000, 0.000000) translate(26.000000, 16.000000) translate(12.000000, 12.000000) translate(4.000000, 4.000000)"/>
                                    <path stroke="#222" stroke-linejoin="round" d="M6.673 12c0 2.943 2.386 5.327 5.327 5.327 2.943 0 5.328-2.384 5.328-5.327 0-2.941-2.385-5.327-5.328-5.327-2.941 0-5.327 2.386-5.327 5.327z" transform="translate(-171.000000, -302.000000) translate(0.000000, 112.000000) translate(16.000000, 162.000000) translate(117.000000, 0.000000) translate(26.000000, 16.000000) translate(12.000000, 12.000000) translate(4.000000, 4.000000)"/>
                                    <path stroke="#666" d="M12 13.671L12 17.297M12 6.673L12 10.311M13.639 11.984L17.313 11.984M6.689 11.984L10.301 11.984" transform="translate(-171.000000, -302.000000) translate(0.000000, 112.000000) translate(16.000000, 162.000000) translate(117.000000, 0.000000) translate(26.000000, 16.000000) translate(12.000000, 12.000000) translate(4.000000, 4.000000)"/>
                                    <path stroke="#666" stroke-linejoin="round" d="M8.233 15.767c2.081 2.081 5.455 2.081 7.533 0 2.082-2.081 2.082-5.453 0-7.533-2.078-2.082-5.452-2.082-7.533 0-2.08 2.08-2.08 5.452 0 7.533z" transform="translate(-171.000000, -302.000000) translate(0.000000, 112.000000) translate(16.000000, 162.000000) translate(117.000000, 0.000000) translate(26.000000, 16.000000) translate(12.000000, 12.000000) translate(4.000000, 4.000000)"/>
                                    <path stroke="#666" d="M13.165 13.164L15.747 15.747M8.233 8.233L10.825 10.825M13.165 10.815L15.747 8.232M8.233 15.746L10.784 13.195M10.388 12c0 .879.712 1.59 1.59 1.59.88 0 1.593-.711 1.593-1.59 0-.879-.712-1.59-1.592-1.59-.879 0-1.591.711-1.591 1.59z" transform="translate(-171.000000, -302.000000) translate(0.000000, 112.000000) translate(16.000000, 162.000000) translate(117.000000, 0.000000) translate(26.000000, 16.000000) translate(12.000000, 12.000000) translate(4.000000, 4.000000)"/>
                                </g>
                            </g>
                        </g>
                    </g>
                </g>
            </g>
        </g>
    </g>
</svg>
