<svg xmlns="http://www.w3.org/2000/svg" width="41" height="40" viewBox="0 0 41 40">
    <g fill="none" fill-rule="evenodd">
        <g>
            <g>
                <g>
                    <g>
                        <g>
                            <g>
                                <path d="M0 0H40V40H0z" transform="translate(-124.000000, -916.000000) translate(0.000000, 88.000000) translate(16.000000, 268.000000) translate(0.000000, 120.000000) translate(0.000000, 440.000000) translate(108.500000, 0.000000)"/>
                                <g>
                                    <g fill="#222">
                                        <path d="M5.145 3.226L4.892 3.922 5.796 3.922 6.049 3.226zM4.224 2.33L3.207 5.136 4.076 5.136 5.093 2.33zM2.748 2.259c-.383 0-.713.163-1.01.447L2.426.78h-.87L0 5.137h.868l.48-1.342c.38-.865.745-.97.9-.97.233 0 .483.107.204.965l-.493 1.347h.87l.494-1.356c.404-1.023-.048-1.522-.575-1.522M8.003 3.882c-.47.854-.896.882-1.264.882 0 0 .06-.274.321-.896.393-.932.719-1.043.878-1.043.16 0 .582.118.065 1.057m.435-1.623c-.368 0-.66.153-.932.416l.13-.346h-.87L5.233 6.47h.869l.49-1.327c.089.008.182.013.282.013.638 0 1.603-.303 2.085-1.374.452-1.002.005-1.522-.52-1.522M16.192 3.588c-.281-.289-.486-.462-.472-.607.013-.145.173-.319.491-.319.32 0 .636.148.636.148L17 2.416s-.256-.2-.78-.202c-.81-.004-1.336.378-1.403.866-.043.307.147.493.376.732.088.09.18.175.263.268.154.171.23.346.09.513-.11.132-.347.168-.508.153-.391-.038-.62-.232-.62-.232l-.297.45s.345.277.964.26c.967-.029 1.376-.583 1.4-.984.015-.247-.063-.415-.293-.652M11.114 3.54c-.49.932-.827 1.043-.987 1.043-.159 0-.537-.288.024-1.08.514-.727 1.095-.86 1.379-.86 0 0-.088.275-.416.897m.306-1.254c-.693.008-1.708.362-2.23 1.374-.521 1.013-.139 1.548.388 1.548.525 0 .899-.28 1.329-.829l-.275.757h.87l.942-2.628s-.385-.23-1.024-.222M13.429 2.98c.013-.144.173-.318.492-.318.32 0 .547.117.547.117l.24-.363s-.256-.2-.78-.202c-.809-.004-1.336.378-1.402.866-.044.307.148.493.377.732.087.09.177.175.263.268.153.171.23.346.088.513-.11.132-.346.168-.508.153-.39-.038-.62-.232-.62-.232l-.297.45s.345.277.964.26c.969-.029 1.378-.583 1.403-.984.012-.247-.065-.415-.294-.652-.283-.289-.486-.462-.473-.607zM9.486.278C10.59.25 11.69.367 12.793.381c.89.011 1.79-.012 2.677-.116.409-.047.839-.117 1.223-.265 0 0-1.665.89-4.826.899-2.076.006-4.063-.1-6.088.515-.476.144-.834.285-1.408.64.035-.022.32-.402.89-.784.82-.549 1.93-.79 2.895-.9.438-.05.882-.08 1.33-.092" transform="translate(-124.000000, -916.000000) translate(0.000000, 88.000000) translate(16.000000, 268.000000) translate(0.000000, 120.000000) translate(0.000000, 440.000000) translate(108.500000, 0.000000) translate(7.000000, 10.000000) translate(4.700000, 9.000000)"/>
                                        <path d="M8.427 1.04C9.566.984 9.58.984 10.765.997c-.016 0 3.727.17 5.844-.87-.102.05-.199.116-.3.169-.255.136-.517.26-.785.372-.496.204-1.007.365-1.527.487-.785.183-1.577.277-2.36.331-1.003.069-1.989.073-2.957.071-1.069 0-2.127.05-3.195.27-.181.038-.361.07-.543.115-.16.04-.378.076-.53.162-.011.006 1.263-.874 4.015-1.062z" transform="translate(-124.000000, -916.000000) translate(0.000000, 88.000000) translate(16.000000, 268.000000) translate(0.000000, 120.000000) translate(0.000000, 440.000000) translate(108.500000, 0.000000) translate(7.000000, 10.000000) translate(4.700000, 9.000000)"/>
                                    </g>
                                    <path stroke="#222" stroke-linecap="round" stroke-linejoin="round" d="M0 19L26 19 26 5 0 5zM14.361 4.104h-3.318V1.659c0-.916.744-1.659 1.66-1.659.915 0 1.659.743 1.659 1.659v2.445z" transform="translate(-124.000000, -916.000000) translate(0.000000, 88.000000) translate(16.000000, 268.000000) translate(0.000000, 120.000000) translate(0.000000, 440.000000) translate(108.500000, 0.000000) translate(7.000000, 10.000000)"/>
                                </g>
                            </g>
                        </g>
                    </g>
                </g>
            </g>
        </g>
    </g>
</svg>
