<svg xmlns="http://www.w3.org/2000/svg" width="24" height="24" viewBox="0 0 24 24">
    <g fill="none" fill-rule="evenodd">
        <g>
            <g>
                <g>
                    <g>
                        <g>
                            <path d="M0 0H24V24H0z" transform="translate(-32.000000, -222.000000) translate(0.000000, 112.000000) translate(16.000000, 0.000000) translate(0.000000, 98.000000) translate(16.000000, 12.000000)"/>
                            <g stroke="#222">
                                <path fill="#FFF" stroke-width="1.5" d="M10 .75c2.554 0 4.867 1.035 6.54 2.71 1.675 1.673 2.71 3.986 2.71 6.54s-1.035 4.867-2.71 6.54c-1.673 1.675-3.986 2.71-6.54 2.71s-4.867-1.035-6.54-2.71C1.784 14.868.75 12.555.75 10s1.035-4.867 2.71-6.54C5.132 1.784 7.445.75 10 .75z" transform="translate(-32.000000, -222.000000) translate(0.000000, 112.000000) translate(16.000000, 0.000000) translate(0.000000, 98.000000) translate(16.000000, 12.000000) translate(2.000000, 2.000000)"/>
                                <path stroke-linecap="round" stroke-linejoin="round" stroke-width="1.3" d="M10 3.842L10 4.789M16.158 10L15.211 10M4.789 10L3.842 10M6.316 6.316L5.645 5.646M13.684 6.316L14.354 5.646M10 7.105L10 11.842" transform="translate(-32.000000, -222.000000) translate(0.000000, 112.000000) translate(16.000000, 0.000000) translate(0.000000, 98.000000) translate(16.000000, 12.000000) translate(2.000000, 2.000000)"/>
                                <path fill="#FC0" stroke-linecap="round" stroke-linejoin="round" stroke-width="1.3" d="M12 13.316c0 1.104-.896 2-2 2s-2-.896-2-2 .896-2 2-2 2 .896 2 2z" transform="translate(-32.000000, -222.000000) translate(0.000000, 112.000000) translate(16.000000, 0.000000) translate(0.000000, 98.000000) translate(16.000000, 12.000000) translate(2.000000, 2.000000)"/>
                            </g>
                        </g>
                    </g>
                </g>
            </g>
        </g>
    </g>
</svg>
