<svg xmlns="http://www.w3.org/2000/svg" width="41" height="40" viewBox="0 0 41 40">
    <g fill="none" fill-rule="evenodd">
        <g>
            <g>
                <g>
                    <g>
                        <g>
                            <g>
                                <path d="M0 0H40V40H0z" transform="translate(-212.000000, -716.000000) translate(0.000000, 88.000000) translate(16.000000, 268.000000) translate(0.000000, 120.000000) translate(0.000000, 240.000000) translate(196.500000, 0.000000)"/>
                                <g stroke="#151516" stroke-linecap="round">
                                    <path stroke-linejoin="round" d="M3.14 0v2.958c0 .386-.13.76-.368 1.063L.757 6.585C.267 7.21 0 7.981 0 8.775v4.299c0 1.508.554 2.965 1.56 4.09h0c1.005 1.13 2.444 1.774 3.955 1.774h3.953" transform="translate(-212.000000, -716.000000) translate(0.000000, 88.000000) translate(16.000000, 268.000000) translate(0.000000, 120.000000) translate(0.000000, 240.000000) translate(196.500000, 0.000000) translate(11.000000, 10.000000)"/>
                                    <path d="M9.468 19.318L9.468 21M6.328 19.318L6.328 21M3.425 19.318L3.425 21M15.44 19.318L15.44 21M12.537 19.318L12.537 21" transform="translate(-212.000000, -716.000000) translate(0.000000, 88.000000) translate(16.000000, 268.000000) translate(0.000000, 120.000000) translate(0.000000, 240.000000) translate(196.500000, 0.000000) translate(11.000000, 10.000000)"/>
                                    <path stroke-linejoin="round" d="M15.797 0v2.958c0 .386.13.76.367 1.063l2.016 2.564c.49.625.757 1.396.757 2.19v4.299c0 1.508-.554 2.965-1.56 4.09h0c-1.006 1.13-2.444 1.774-3.955 1.774H9.468" transform="translate(-212.000000, -716.000000) translate(0.000000, 88.000000) translate(16.000000, 268.000000) translate(0.000000, 120.000000) translate(0.000000, 240.000000) translate(196.500000, 0.000000) translate(11.000000, 10.000000)"/>
                                    <path d="M9.468 4.758L9.468 11.324" transform="translate(-212.000000, -716.000000) translate(0.000000, 88.000000) translate(16.000000, 268.000000) translate(0.000000, 120.000000) translate(0.000000, 240.000000) translate(196.500000, 0.000000) translate(11.000000, 10.000000)"/>
                                    <path fill="#222" d="M9.801 14.132c0-.184-.148-.333-.333-.333-.184 0-.333.149-.333.333 0 .184.149.333.333.333.185 0 .333-.149.333-.333z" transform="translate(-212.000000, -716.000000) translate(0.000000, 88.000000) translate(16.000000, 268.000000) translate(0.000000, 120.000000) translate(0.000000, 240.000000) translate(196.500000, 0.000000) translate(11.000000, 10.000000)"/>
                                </g>
                            </g>
                        </g>
                    </g>
                </g>
            </g>
        </g>
    </g>
</svg>
