<svg xmlns="http://www.w3.org/2000/svg" xmlns:xlink="http://www.w3.org/1999/xlink" width="32" height="32" viewBox="0 0 32 32">
    <defs>
        <path id="noy8bfhmqa" d="M0 0L32 0 32 32 0 32z"/>
    </defs>
    <g fill="none" fill-rule="evenodd">
        <g>
            <g>
                <g>
                    <g>
                        <g>
                            <g>
                                <g>
                                    <g transform="translate(-98.000000, -5992.000000) translate(0.000000, 112.000000) translate(16.000000, 4299.000000) translate(0.000000, 1337.000000) translate(24.000000, 132.000000) translate(8.000000, 100.000000) translate(50.000000, 12.000000)">
                                        <mask id="ms7arydcvb" fill="#fff">
                                            <use xlink:href="#noy8bfhmqa"/>
                                        </mask>
                                        <path fill="#9280FF" d="M32 16c0 8.837-7.163 16-16 16S0 24.837 0 16 7.163 0 16 0s16 7.163 16 16" mask="url(#ms7arydcvb)"/>
                                        <circle cx="16" cy="15.999" r="9.1" stroke="#FFF" mask="url(#ms7arydcvb)"/>
                                    </g>
                                    <g>
                                        <path fill="#FFF" d="M5.152 6.57c.312.468.947.594 1.415.282.468-.313.596-.947.282-1.416-.313-.469-.947-.595-1.415-.282-.47.312-.595.946-.282 1.415" transform="translate(-98.000000, -5992.000000) translate(0.000000, 112.000000) translate(16.000000, 4299.000000) translate(0.000000, 1337.000000) translate(24.000000, 132.000000) translate(8.000000, 100.000000) translate(50.000000, 12.000000) translate(10.000000, 10.000000)"/>
                                        <path stroke="#FFF" stroke-width=".75" d="M3.684 5.87l-.629-.318c-.524-.265-.635-.072-.62.533.015.626.26 1.316.587 1.79.334.48.55.585.816.061l.318-.63c.265-.524.053-1.17-.472-1.435zM5.36 3.693l.088-.7c.073-.583-.146-.623-.711-.404-.585.224-1.153.686-1.487 1.155-.342.477-.367.714.216.788.174.022.524.067.7.088.583.073 1.12-.344 1.193-.927zM6.712 8.134c-.416-.415-1.096-.415-1.511 0l-.5.499c-.415.415-.266.58.314.756.599.18 1.33.164 1.882 0 .563-.168.729-.34.313-.756l-.498-.499zM8.536 4.54c.583-.072.558-.31.217-.788-.334-.467-.901-.931-1.485-1.157-.565-.218-.783-.18-.712.404l.088.7c.072.583.609 1 1.192.928l.7-.087zM8.956 5.512l-.63.317c-.524.265-.738.91-.473 1.435.079.158.238.472.316.63.265.525.481.421.816-.06.33-.473.574-1.162.59-1.788.017-.605-.094-.799-.619-.534z" transform="translate(-98.000000, -5992.000000) translate(0.000000, 112.000000) translate(16.000000, 4299.000000) translate(0.000000, 1337.000000) translate(24.000000, 132.000000) translate(8.000000, 100.000000) translate(50.000000, 12.000000) translate(10.000000, 10.000000)"/>
                                        <path stroke="#FFF" stroke-width=".75" d="M10.576 6c0 2.527-2.049 4.576-4.576 4.576-2.527 0-4.576-2.049-4.576-4.576 0-2.527 2.049-4.576 4.576-4.576 2.527 0 4.576 2.049 4.576 4.576z" transform="translate(-98.000000, -5992.000000) translate(0.000000, 112.000000) translate(16.000000, 4299.000000) translate(0.000000, 1337.000000) translate(24.000000, 132.000000) translate(8.000000, 100.000000) translate(50.000000, 12.000000) translate(10.000000, 10.000000)"/>
                                        <path stroke="#FFF" d="M12 6c0 3.314-2.686 6-6 6S0 9.314 0 6s2.686-6 6-6 6 2.686 6 6z" transform="translate(-98.000000, -5992.000000) translate(0.000000, 112.000000) translate(16.000000, 4299.000000) translate(0.000000, 1337.000000) translate(24.000000, 132.000000) translate(8.000000, 100.000000) translate(50.000000, 12.000000) translate(10.000000, 10.000000)"/>
                                    </g>
                                    <g transform="translate(-98.000000, -5992.000000) translate(0.000000, 112.000000) translate(16.000000, 4299.000000) translate(0.000000, 1337.000000) translate(24.000000, 132.000000) translate(8.000000, 100.000000) translate(50.000000, 12.000000) translate(15.200000, 5.600000)">
                                        <circle cx="5.6" cy="5.6" r="4" fill="#9280FF"/>
                                        <path fill="#FFF" d="M7.175 5.6c-.197 0-.386-.036-.56-.104-.074-.027-.157-.012-.212.043L4.606 7.336c-.058.058-.077.144-.066.226.007.045.01.09.01.138 0 .58-.47 1.05-1.05 1.05-.58 0-1.05-.47-1.05-1.05 0-.58.47-1.05 1.05-1.05.046 0 .093.003.138.01.082.01.168-.008.226-.067L5.66 4.797c.054-.055.07-.14.042-.211-.067-.175-.103-.364-.103-.561 0-.87.706-1.575 1.575-1.575.141 0 .278.019.408.054l-1.01 1.008.197.918.917.196 1.01-1.009c.034.13.054.267.054.408 0 .87-.706 1.575-1.576 1.575zm.82 2.919c-.308.308-.806.308-1.114 0L5.523 7.16l1.114-1.113 1.358 1.358c.308.307.308.806 0 1.113zM2.689 3.213l.16-.159.078-.08 1.193.716-.097.487.758.757-.371.371-.758-.757-.486.098-.716-1.194.239-.239zM5.599 0C2.508 0 0 2.507 0 5.6c0 3.092 2.507 5.6 5.6 5.6 3.094 0 5.6-2.508 5.6-5.6C11.2 2.507 8.694 0 5.6 0z"/>
                                    </g>
                                </g>
                            </g>
                        </g>
                    </g>
                </g>
            </g>
        </g>
    </g>
</svg>
