<svg xmlns="http://www.w3.org/2000/svg" width="20" height="20" viewBox="0 0 20 20">
    <g fill="none" fill-rule="evenodd">
        <g>
            <g>
                <g>
                    <g transform="translate(-32.000000, -114.000000) translate(0.000000, 104.000000) translate(16.000000, 0.000000) translate(16.000000, 10.000000)">
                        <circle cx="10" cy="10" r="10" fill="#2589FF"/>
                        <g stroke="#FFF">
                            <path d="M6 8H0v-.99l1.063-1.49V3c0-1.657 1.427-3 3.187-3 1.76 0 3.188 1.343 3.188 3v2.541L8.5 7.026V8H6z" transform="translate(5.750000, 5.250000)"/>
                            <path d="M2.83 7.75h2.84c.195.605.018 1.183-.36 1.56-.27.272-.646.44-1.06.44-.414 0-.79-.168-1.06-.44-.378-.377-.555-.955-.36-1.56h0z" transform="translate(5.750000, 5.250000)"/>
                        </g>
                    </g>
                </g>
            </g>
        </g>
    </g>
</svg>
