<svg xmlns="http://www.w3.org/2000/svg" width="32" height="32" viewBox="0 0 32 32">
    <g fill="none" fill-rule="evenodd">
        <g>
            <g>
                <g>
                    <g>
                        <g>
                            <g>
                                <path d="M0 0H32V32H0z" transform="translate(-172.000000, -894.000000) translate(0.000000, 112.000000) translate(16.000000, 162.000000) translate(117.000000, 592.000000) translate(27.000000, 16.000000) translate(12.000000, 12.000000)"/>
                                <g stroke="#666" stroke-linejoin="round">
                                    <g>
                                        <path d="M5.375 4.32H0v18.436C0 23.443.557 24 1.244 24h12.028c.687 0 1.244-.557 1.244-1.244V9.439c0-.687-.613-.973-1.244-1.244L5.375 4.32zM.535 0h3.868c.29 0 .524.235.524.525v1.842H.01V.525C.01.235.245 0 .535 0z" transform="translate(-172.000000, -894.000000) translate(0.000000, 112.000000) translate(16.000000, 162.000000) translate(117.000000, 592.000000) translate(27.000000, 16.000000) translate(12.000000, 12.000000) translate(9.000000, 4.000000)"/>
                                        <path d="M12.35 21.089c0 .486-.395.88-.882.88h-8.42c-.486 0-.88-.394-.88-.88V10.963c0-.486.394-.88.88-.88h8.42c.487 0 .881.394.881.88V21.09z" transform="translate(-172.000000, -894.000000) translate(0.000000, 112.000000) translate(16.000000, 162.000000) translate(117.000000, 592.000000) translate(27.000000, 16.000000) translate(12.000000, 12.000000) translate(9.000000, 4.000000)"/>
                                    </g>
                                    <path d="M7.333 13.494c.083.229.223.65 1.3 1.848.741.824.944 1.857.527 2.694-.358.718-1.122 1.146-2.018 1.146-.897-.004-1.64-.434-1.988-1.151-.411-.844-.197-1.881.56-2.703 1.093-1.189 1.24-1.608 1.323-1.836.023-.057.083-.096.15-.096.065 0 .126.04.146.098z" transform="translate(-172.000000, -894.000000) translate(0.000000, 112.000000) translate(16.000000, 162.000000) translate(117.000000, 592.000000) translate(27.000000, 16.000000) translate(12.000000, 12.000000) translate(9.000000, 4.000000)"/>
                                </g>
                            </g>
                        </g>
                    </g>
                </g>
            </g>
        </g>
    </g>
</svg>
