<svg xmlns="http://www.w3.org/2000/svg" width="32" height="32" viewBox="0 0 32 32">
    <g fill="none" fill-rule="evenodd">
        <g>
            <g>
                <g>
                    <g>
                        <g>
                            <g>
                                <path d="M0 0H32V32H0z" transform="translate(-208.000000, -3161.000000) translate(0.000000, 96.000000) translate(16.000000, 2937.000000) translate(0.000000, 46.000000) translate(176.000000, 66.000000) translate(16.000000, 16.000000)"/>
                                <g>
                                    <path stroke="#222" stroke-linecap="round" stroke-linejoin="round" stroke-width="1.3" d="M18.5 7.071L18.512 7.06 20.794 5 18.5 2.929 18.516 2.93 21.586 3.086 21.429 0 21.44 0.012 23.5 2.294 25.571 0 25.57 0.017 25.413 3.086 28.5 2.929 28.488 2.94 27.016 4.269 27.008 4.26 28.468 2.942 25.401 3.098 25.402 3.092 25.558 0.032 23.5 2.311 23.495 2.306 21.442 0.032 21.598 3.098 21.592 3.098 18.531 2.942 20.81 5 20.806 5.005 18.531 7.058 20.496 6.957 20.497 6.969z" transform="translate(-208.000000, -3161.000000) translate(0.000000, 96.000000) translate(16.000000, 2937.000000) translate(0.000000, 46.000000) translate(176.000000, 66.000000) translate(16.000000, 16.000000) translate(1.500000, 2.000000) translate(23.500000, 3.535371) scale(-1, 1) translate(-23.500000, -3.535371)"/>
                                    <g>
                                        <path stroke="#222" stroke-width="1.5" d="M20.434 5.836L23.495 4.852" transform="translate(-208.000000, -3161.000000) translate(0.000000, 96.000000) translate(16.000000, 2937.000000) translate(0.000000, 46.000000) translate(176.000000, 66.000000) translate(16.000000, 16.000000) translate(1.500000, 2.000000) translate(5.500000, 7.333333)"/>
                                        <path stroke="#070100" stroke-width="1.5" d="M3.062 5.836L0 4.852" transform="translate(-208.000000, -3161.000000) translate(0.000000, 96.000000) translate(16.000000, 2937.000000) translate(0.000000, 46.000000) translate(176.000000, 66.000000) translate(16.000000, 16.000000) translate(1.500000, 2.000000) translate(5.500000, 7.333333)"/>
                                        <path fill="#FC0" d="M23.405 15.44H.888V8.005c0-1.224.98-2.215 2.19-2.215h18.136c1.21 0 2.19.991 2.19 2.215v7.435z" transform="translate(-208.000000, -3161.000000) translate(0.000000, 96.000000) translate(16.000000, 2937.000000) translate(0.000000, 46.000000) translate(176.000000, 66.000000) translate(16.000000, 16.000000) translate(1.500000, 2.000000) translate(5.500000, 7.333333)"/>
                                        <path stroke="#222" stroke-width="1.5" d="M24.123 15.44H.245V7.72c0-.939 1.008-1.93 1.93-1.93H20.83c1.551 0 2.56.991 2.574 1.93v7.72M20.51 5.79H3.14l1.93-4.503C5.265.545 6.07 0 7 0h9.65c.93 0 1.736.545 1.93 1.287l1.93 4.503z" transform="translate(-208.000000, -3161.000000) translate(0.000000, 96.000000) translate(16.000000, 2937.000000) translate(0.000000, 46.000000) translate(176.000000, 66.000000) translate(16.000000, 16.000000) translate(1.500000, 2.000000) translate(5.500000, 7.333333)"/>
                                        <path fill="#070100" d="M6.678 10.293c0-.71-.576-1.286-1.287-1.286-.71 0-1.286.575-1.286 1.286 0 .71.577 1.287 1.286 1.287.711 0 1.287-.576 1.287-1.287" transform="translate(-208.000000, -3161.000000) translate(0.000000, 96.000000) translate(16.000000, 2937.000000) translate(0.000000, 46.000000) translate(176.000000, 66.000000) translate(16.000000, 16.000000) translate(1.500000, 2.000000) translate(5.500000, 7.333333)"/>
                                        <path fill="#222" d="M20.188 10.293c0-.71-.576-1.286-1.287-1.286-.71 0-1.286.575-1.286 1.286 0 .71.577 1.287 1.286 1.287.711 0 1.287-.576 1.287-1.287" transform="translate(-208.000000, -3161.000000) translate(0.000000, 96.000000) translate(16.000000, 2937.000000) translate(0.000000, 46.000000) translate(176.000000, 66.000000) translate(16.000000, 16.000000) translate(1.500000, 2.000000) translate(5.500000, 7.333333)"/>
                                        <path stroke="#222" stroke-width="1.5" d="M3.462 15.44v3.217c0 .388-.248.643-.644.643H.888c-.395 0-.643-.255-.643-.643V15.44M20.188 15.44v3.217c0 .388.248.643.643.643h1.93c.395 0 .644-.255.644-.643V15.44" transform="translate(-208.000000, -3161.000000) translate(0.000000, 96.000000) translate(16.000000, 2937.000000) translate(0.000000, 46.000000) translate(176.000000, 66.000000) translate(16.000000, 16.000000) translate(1.500000, 2.000000) translate(5.500000, 7.333333)"/>
                                    </g>
                                    <g>
                                        <g>
                                            <path stroke="#888" stroke-width="1.5" d="M18.739 5.86L21.547 4.871M2.808 5.86L0 4.871" transform="translate(-208.000000, -3161.000000) translate(0.000000, 96.000000) translate(16.000000, 2937.000000) translate(0.000000, 46.000000) translate(176.000000, 66.000000) translate(16.000000, 16.000000) translate(1.500000, 2.000000) translate(0.000000, 7.333333)"/>
                                            <path d="M21.464 15.502H.814V8.037c0-1.229.9-2.224 2.01-2.224h16.631c1.11 0 2.009.995 2.009 2.224v7.465z" transform="translate(-208.000000, -3161.000000) translate(0.000000, 96.000000) translate(16.000000, 2937.000000) translate(0.000000, 46.000000) translate(176.000000, 66.000000) translate(16.000000, 16.000000) translate(1.500000, 2.000000) translate(0.000000, 7.333333)"/>
                                            <path fill="#FFF" stroke="#888" stroke-width="1.5" d="M3.174 15.502v3.229c0 .39-.227.646-.59.646H.814c-.362 0-.59-.256-.59-.646v-3.23M18.514 15.502v3.229c0 .39.228.646.59.646h1.77c.362 0 .59-.256.59-.646v-3.23" transform="translate(-208.000000, -3161.000000) translate(0.000000, 96.000000) translate(16.000000, 2937.000000) translate(0.000000, 46.000000) translate(176.000000, 66.000000) translate(16.000000, 16.000000) translate(1.500000, 2.000000) translate(0.000000, 7.333333)"/>
                                            <path fill="#FFF" stroke="#888" stroke-width="1.5" d="M22.19 15.502H.224V7.75c0-.943.925-1.938 1.77-1.938h17.11c1.422 0 2.347.995 2.36 1.938v7.689" transform="translate(-208.000000, -3161.000000) translate(0.000000, 96.000000) translate(16.000000, 2937.000000) translate(0.000000, 46.000000) translate(176.000000, 66.000000) translate(16.000000, 16.000000) translate(1.500000, 2.000000) translate(0.000000, 7.333333)"/>
                                            <path fill="#FFF" stroke="#888" stroke-width="1.5" d="M18.809 5.813H2.879l1.77-4.521C4.83.547 5.567 0 6.42 0h8.85c.853 0 1.592.547 1.77 1.292l1.77 4.521z" transform="translate(-208.000000, -3161.000000) translate(0.000000, 96.000000) translate(16.000000, 2937.000000) translate(0.000000, 46.000000) translate(176.000000, 66.000000) translate(16.000000, 16.000000) translate(1.500000, 2.000000) translate(0.000000, 7.333333)"/>
                                        </g>
                                        <g fill="#888">
                                            <path d="M2.584 1.292C2.584.578 2.006 0 1.292 0 .579 0 0 .578 0 1.292c0 .713.58 1.292 1.292 1.292.714 0 1.292-.58 1.292-1.292M14.147 1.292C14.147.578 13.57 0 12.856 0s-1.292.578-1.292 1.292c0 .713.58 1.292 1.292 1.292.713 0 1.291-.58 1.291-1.292" transform="translate(-208.000000, -3161.000000) translate(0.000000, 96.000000) translate(16.000000, 2937.000000) translate(0.000000, 46.000000) translate(176.000000, 66.000000) translate(16.000000, 16.000000) translate(1.500000, 2.000000) translate(0.000000, 7.333333) translate(4.000000, 9.000000)"/>
                                        </g>
                                    </g>
                                </g>
                            </g>
                        </g>
                    </g>
                </g>
            </g>
        </g>
    </g>
</svg>
