<svg xmlns="http://www.w3.org/2000/svg" xmlns:xlink="http://www.w3.org/1999/xlink" width="40" height="40" viewBox="0 0 40 40">
    <defs>
        <path id="2d5yee7t7a" d="M0 0L23.256 0 23.256 22.433 0 22.433z"/>
    </defs>
    <g fill="none" fill-rule="evenodd">
        <g>
            <g>
                <g>
                    <g>
                        <g>
                            <g transform="translate(-56.000000, -5077.000000) translate(0.000000, 112.000000) translate(16.000000, 4292.000000) translate(0.000000, 416.000000) translate(24.000000, 239.000000) translate(16.000000, 18.000000)">
                                <circle cx="20" cy="20" r="20" fill="#F8F8F8"/>
                                <g>
                                    <g transform="translate(8.000000, 9.151480)">
                                        <mask id="fikb5vmr5b" fill="#fff">
                                            <use xlink:href="#2d5yee7t7a"/>
                                        </mask>
                                        <path fill="#003668" d="M17.873 10.841c-2.011-1.34-4.586-.793-5.938 1.223-1.13 1.684-2.833 1.895-3.493 1.895-2.15 0-3.623-1.485-4.059-3.02h-.002l-.01-.044-.014-.053c-.172-.64-.214-.946-.214-1.627 0-3.674 3.84-7.764 9.374-7.764 5.665 0 8.906 4.231 9.74 6.584l-.042-.126C21.61 3.31 17.162 0 11.93 0 5.34 0-.001 5.241-.001 11.708c0 5.778 4.248 10.725 10.14 10.725 4.699 0 7.857-2.586 9.305-6.15.796-1.948.232-4.237-1.571-5.442" mask="url(#fikb5vmr5b)"/>
                                    </g>
                                    <path fill="#E5002D" d="M23.332 8.262c-.697-2.294-3.962-6.81-9.815-6.81-5.533 0-9.374 4.089-9.374 7.763 0 .68.042.987.213 1.627-.072-.279-.11-.56-.11-.834 0-3.826 3.905-6.478 7.918-6.478C17.596 3.53 22 7.852 22 13.18c0 4.18-2.45 7.796-6.01 9.534v.003c4.59-1.632 7.868-5.945 7.868-11.01 0-1.2-.165-2.257-.525-3.446" transform="translate(8.000000, 9.151480)"/>
                                </g>
                            </g>
                        </g>
                    </g>
                </g>
            </g>
        </g>
    </g>
</svg>
