<svg xmlns="http://www.w3.org/2000/svg" width="32" height="32" viewBox="0 0 32 32">
    <g fill="none" fill-rule="evenodd">
        <g>
            <g>
                <g>
                    <g>
                        <g>
                            <g>
                                <path d="M0 0H32V32H0z" transform="translate(-55.000000, -746.000000) translate(0.000000, 112.000000) translate(16.000000, 162.000000) translate(0.000000, 444.000000) translate(27.000000, 16.000000) translate(12.000000, 12.000000)"/>
                                <g stroke="#666" stroke-linecap="round" stroke-linejoin="round">
                                    <path d="M24 12c0 6.628-5.373 12-12 12-6.628 0-12-5.372-12-12C0 5.373 5.372 0 12 0c6.627 0 12 5.373 12 12z" transform="translate(-55.000000, -746.000000) translate(0.000000, 112.000000) translate(16.000000, 162.000000) translate(0.000000, 444.000000) translate(27.000000, 16.000000) translate(12.000000, 12.000000) translate(4.000000, 4.000000)"/>
                                    <path d="M12 18.122c-3.38 0-6.122-2.741-6.122-6.122 0-3.38 2.741-6.122 6.122-6.122 3.38 0 6.121 2.742 6.121 6.122s-2.74 6.122-6.121 6.122z" transform="translate(-55.000000, -746.000000) translate(0.000000, 112.000000) translate(16.000000, 162.000000) translate(0.000000, 444.000000) translate(27.000000, 16.000000) translate(12.000000, 12.000000) translate(4.000000, 4.000000)"/>
                                    <path d="M12 3.652C7.39 3.652 3.652 7.39 3.652 12c0 4.61 3.737 8.348 8.348 8.348 4.61 0 8.348-3.737 8.348-8.348 0-4.61-3.738-8.348-8.348-8.348z" transform="translate(-55.000000, -746.000000) translate(0.000000, 112.000000) translate(16.000000, 162.000000) translate(0.000000, 444.000000) translate(27.000000, 16.000000) translate(12.000000, 12.000000) translate(4.000000, 4.000000)"/>
                                    <path d="M12.522 15.13c0 .289-.234.522-.522.522-.289 0-.522-.233-.522-.522 0-.288.233-.521.522-.521.288 0 .522.233.522.521zM15.138 12.472c.274.088.424.383.335.657-.089.273-.383.424-.657.334-.274-.088-.424-.382-.335-.656.09-.274.383-.425.657-.335zM13.418 9.161c.17-.233.495-.285.728-.116.234.17.285.497.116.73-.17.232-.495.284-.73.115-.232-.17-.283-.496-.114-.729zM9.738 9.774c-.17-.232-.118-.559.115-.729.233-.169.56-.117.729.116.169.233.118.56-.115.73-.234.168-.56.116-.73-.117zM9.184 13.463c-.274.09-.569-.06-.657-.334-.09-.274.06-.569.334-.657.275-.09.568.06.658.335.089.274-.061.568-.335.656zM12.161 12.497c-.274.088-.568-.061-.657-.335-.09-.275.06-.569.334-.658.275-.089.569.06.658.335.089.274-.06.568-.335.658z" transform="translate(-55.000000, -746.000000) translate(0.000000, 112.000000) translate(16.000000, 162.000000) translate(0.000000, 444.000000) translate(27.000000, 16.000000) translate(12.000000, 12.000000) translate(4.000000, 4.000000)"/>
                                </g>
                            </g>
                        </g>
                    </g>
                </g>
            </g>
        </g>
    </g>
</svg>
