<svg xmlns="http://www.w3.org/2000/svg" width="40" height="40" viewBox="0 0 40 40">
    <g fill="none" fill-rule="evenodd">
        <g>
            <g>
                <g>
                    <g>
                        <g>
                            <g>
                                <path d="M0 0H40V40H0z" transform="translate(-300.000000, -816.000000) translate(0.000000, 88.000000) translate(16.000000, 268.000000) translate(0.000000, 120.000000) translate(0.000000, 340.000000) translate(284.000000, 0.000000)"/>
                                <g stroke="#222">
                                    <path stroke-linecap="round" d="M5.4 7.992h5.642c.727 0 1.323.686 1.323 1.523 0 .838-.596 1.524-1.323 1.524h-4.53M12.365 14.085H6.512c-.728 0-1.324-.685-1.324-1.523 0-.837.596-1.523 1.324-1.523h4.53" transform="translate(-300.000000, -816.000000) translate(0.000000, 88.000000) translate(16.000000, 268.000000) translate(0.000000, 120.000000) translate(0.000000, 340.000000) translate(284.000000, 0.000000) translate(11.000000, 8.000000)"/>
                                    <path d="M14.906 14.774l1.687.493c.569.166.96.7.96 1.31v5.127c0 .752-.59 1.362-1.319 1.362H1.32c-.729 0-1.32-.61-1.32-1.362v-5.127c0-.61.392-1.144.96-1.31l1.687-.493" transform="translate(-300.000000, -816.000000) translate(0.000000, 88.000000) translate(16.000000, 268.000000) translate(0.000000, 120.000000) translate(0.000000, 340.000000) translate(284.000000, 0.000000) translate(11.000000, 8.000000)"/>
                                    <path d="M12.959 18.645H4.578c-.635 0-1.183-.44-1.32-1.06l-.588-2.668c-.022-.095-.032-.193-.032-.29v-9.17c0-1.004.814-1.818 1.818-1.818h8.643c1.004 0 1.817.814 1.817 1.818v9.165c0 .101-.011.201-.033.3l-.606 2.67c-.14.616-.687 1.053-1.318 1.053zM11.556 3.639h-5.56V1.227C5.996.553 6.548 0 7.223 0h3.106c.675 0 1.227.553 1.227 1.227v2.412z" transform="translate(-300.000000, -816.000000) translate(0.000000, 88.000000) translate(16.000000, 268.000000) translate(0.000000, 120.000000) translate(0.000000, 340.000000) translate(284.000000, 0.000000) translate(11.000000, 8.000000)"/>
                                </g>
                            </g>
                        </g>
                    </g>
                </g>
            </g>
        </g>
    </g>
</svg>
