<svg xmlns="http://www.w3.org/2000/svg" width="32" height="32" viewBox="0 0 32 32">
    <g fill="none" fill-rule="evenodd">
        <g>
            <g>
                <g>
                    <g>
                        <g>
                            <g>
                                <path d="M0 0H32V32H0z" transform="translate(-56.000000, -3161.000000) translate(0.000000, 96.000000) translate(16.000000, 2937.000000) translate(0.000000, 46.000000) translate(24.000000, 66.000000) translate(16.000000, 16.000000)"/>
                                <g>
                                    <path stroke="#222" stroke-linecap="round" stroke-linejoin="round" stroke-width="1.3" d="M0.5 7.071L0.512 7.06 2.794 5 0.5 2.929 0.516 2.93 3.586 3.086 3.429 0 3.44 0.012 5.5 2.294 7.571 0 7.57 0.017 7.413 3.086 10.5 2.929 10.488 2.94 9.016 4.269 9.008 4.26 10.468 2.942 7.401 3.098 7.402 3.092 7.558 0.032 5.5 2.311 5.495 2.306 3.442 0.032 3.598 3.098 3.592 3.098 0.531 2.942 2.81 5 2.806 5.005 0.531 7.058 2.496 6.957 2.497 6.969z" transform="translate(-56.000000, -3161.000000) translate(0.000000, 96.000000) translate(16.000000, 2937.000000) translate(0.000000, 46.000000) translate(24.000000, 66.000000) translate(16.000000, 16.000000) translate(1.500000, 2.000000)"/>
                                    <g>
                                        <path stroke="#888" stroke-width="1.5" d="M20.434 5.836L23.495 4.852M3.062 5.836L0 4.852" transform="translate(-56.000000, -3161.000000) translate(0.000000, 96.000000) translate(16.000000, 2937.000000) translate(0.000000, 46.000000) translate(24.000000, 66.000000) translate(16.000000, 16.000000) translate(1.500000, 2.000000) translate(5.500000, 7.333333)"/>
                                        <path d="M23.405 15.44H.888V8.005c0-1.224.98-2.215 2.19-2.215h18.136c1.21 0 2.19.991 2.19 2.215v7.435z" transform="translate(-56.000000, -3161.000000) translate(0.000000, 96.000000) translate(16.000000, 2937.000000) translate(0.000000, 46.000000) translate(24.000000, 66.000000) translate(16.000000, 16.000000) translate(1.500000, 2.000000) translate(5.500000, 7.333333)"/>
                                        <path fill="#FFF" stroke="#888" stroke-width="1.5" d="M3.462 15.44v3.217c0 .388-.248.643-.644.643H.888c-.395 0-.643-.255-.643-.643V15.44M20.188 15.44v3.217c0 .388.248.643.643.643h1.93c.395 0 .644-.255.644-.643V15.44M24.146 15.44H.245V7.72c0-.939 1.008-1.93 1.93-1.93H20.83c1.551 0 2.56.991 2.574 1.93v7.72M20.51 5.79H3.14l1.93-4.503C5.265.545 6.07 0 7 0h9.65c.93 0 1.736.545 1.93 1.287l1.93 4.503z" transform="translate(-56.000000, -3161.000000) translate(0.000000, 96.000000) translate(16.000000, 2937.000000) translate(0.000000, 46.000000) translate(24.000000, 66.000000) translate(16.000000, 16.000000) translate(1.500000, 2.000000) translate(5.500000, 7.333333)"/>
                                        <path fill="#888" d="M6.678 10.293c0-.71-.576-1.286-1.287-1.286-.71 0-1.286.575-1.286 1.286 0 .71.577 1.287 1.286 1.287.711 0 1.287-.576 1.287-1.287M20.188 10.293c0-.71-.576-1.286-1.287-1.286-.71 0-1.286.575-1.286 1.286 0 .71.577 1.287 1.286 1.287.711 0 1.287-.576 1.287-1.287" transform="translate(-56.000000, -3161.000000) translate(0.000000, 96.000000) translate(16.000000, 2937.000000) translate(0.000000, 46.000000) translate(24.000000, 66.000000) translate(16.000000, 16.000000) translate(1.500000, 2.000000) translate(5.500000, 7.333333)"/>
                                    </g>
                                    <g>
                                        <g>
                                            <path stroke="#222" stroke-width="1.5" d="M18.741 5.836L21.549 4.852M2.809 5.836L0 4.852" transform="translate(-56.000000, -3161.000000) translate(0.000000, 96.000000) translate(16.000000, 2937.000000) translate(0.000000, 46.000000) translate(24.000000, 66.000000) translate(16.000000, 16.000000) translate(1.500000, 2.000000) translate(0.000000, 7.333333)"/>
                                            <path fill="#FC0" d="M21.466 15.44H.815V8.005c0-1.224.899-2.215 2.009-2.215h16.633c1.11 0 2.01.991 2.01 2.215v7.435z" transform="translate(-56.000000, -3161.000000) translate(0.000000, 96.000000) translate(16.000000, 2937.000000) translate(0.000000, 46.000000) translate(24.000000, 66.000000) translate(16.000000, 16.000000) translate(1.500000, 2.000000) translate(0.000000, 7.333333)"/>
                                            <path fill="#FEFEFE" d="M15.566 15.44H6.715l.59-1.93c.207-.68.921-1.287 1.77-1.287h4.13c.85 0 1.564.608 1.77 1.287l.59 1.93z" transform="translate(-56.000000, -3161.000000) translate(0.000000, 96.000000) translate(16.000000, 2937.000000) translate(0.000000, 46.000000) translate(24.000000, 66.000000) translate(16.000000, 16.000000) translate(1.500000, 2.000000) translate(0.000000, 7.333333)"/>
                                            <path stroke="#222" stroke-width="1.5" d="M22.146 15.44H.225V7.72c0-.939.924-1.93 1.77-1.93h17.11c1.424 0 2.349.991 2.361 1.93v7.72" transform="translate(-56.000000, -3161.000000) translate(0.000000, 96.000000) translate(16.000000, 2937.000000) translate(0.000000, 46.000000) translate(24.000000, 66.000000) translate(16.000000, 16.000000) translate(1.500000, 2.000000) translate(0.000000, 7.333333)"/>
                                            <path fill="#FFF" stroke="#222" stroke-width="1.5" d="M18.81 5.79H2.88l1.77-4.503C4.829.545 5.567 0 6.42 0h8.85c.854 0 1.593.545 1.77 1.287l1.77 4.503z" transform="translate(-56.000000, -3161.000000) translate(0.000000, 96.000000) translate(16.000000, 2937.000000) translate(0.000000, 46.000000) translate(24.000000, 66.000000) translate(16.000000, 16.000000) translate(1.500000, 2.000000) translate(0.000000, 7.333333)"/>
                                            <path stroke="#222" stroke-width="1.5" d="M3.175 15.44v3.217c0 .388-.227.643-.59.643H.815c-.363 0-.59-.255-.59-.643V15.44M18.516 15.44v3.217c0 .388.228.643.59.643h1.77c.362 0 .59-.255.59-.643V15.44" transform="translate(-56.000000, -3161.000000) translate(0.000000, 96.000000) translate(16.000000, 2937.000000) translate(0.000000, 46.000000) translate(24.000000, 66.000000) translate(16.000000, 16.000000) translate(1.500000, 2.000000) translate(0.000000, 7.333333)"/>
                                        </g>
                                        <g fill="#222">
                                            <path d="M2.573 1.287C2.573.576 1.998 0 1.287 0 .577 0 0 .576 0 1.287c0 .71.577 1.286 1.287 1.286s1.286-.576 1.286-1.286M14.083 1.287C14.083.576 13.507 0 12.797 0c-.71 0-1.287.576-1.287 1.287 0 .71.577 1.286 1.287 1.286s1.286-.576 1.286-1.286" transform="translate(-56.000000, -3161.000000) translate(0.000000, 96.000000) translate(16.000000, 2937.000000) translate(0.000000, 46.000000) translate(24.000000, 66.000000) translate(16.000000, 16.000000) translate(1.500000, 2.000000) translate(0.000000, 7.333333) translate(4.000000, 9.000000)"/>
                                        </g>
                                    </g>
                                </g>
                            </g>
                        </g>
                    </g>
                </g>
            </g>
        </g>
    </g>
</svg>
