<svg xmlns="http://www.w3.org/2000/svg" width="41" height="40" viewBox="0 0 41 40">
    <g fill="none" fill-rule="evenodd">
        <g>
            <g>
                <g>
                    <g>
                        <g>
                            <g>
                                <path d="M0 0H40V40H0z" transform="translate(-212.000000, -916.000000) translate(0.000000, 88.000000) translate(16.000000, 268.000000) translate(0.000000, 120.000000) translate(0.000000, 440.000000) translate(196.500000, 0.000000)"/>
                                <g stroke="#222">
                                    <path d="M14.864 14.732l1.682.492c.567.165.957.699.957 1.306v5.113c0 .75-.589 1.357-1.316 1.357H1.315C.59 23 0 22.393 0 21.643V16.53c0-.607.39-1.14.957-1.306l1.683-.492" transform="translate(-212.000000, -916.000000) translate(0.000000, 88.000000) translate(16.000000, 268.000000) translate(0.000000, 120.000000) translate(0.000000, 440.000000) translate(196.500000, 0.000000) translate(11.000000, 9.000000)"/>
                                    <path d="M12.921 18.592H4.564c-.632 0-1.18-.44-1.316-1.058l-.587-2.66c-.022-.094-.03-.192-.03-.29V5.442c0-1 .81-1.812 1.811-1.812h8.619c1.001 0 1.812.811 1.812 1.812v9.14c0 .1-.011.2-.033.298l-.604 2.663c-.139.615-.684 1.05-1.315 1.05zM11.524 3.629H5.979V1.224C5.979.55 6.53 0 7.202 0H10.3c.672 0 1.224.55 1.224 1.224v2.405z" transform="translate(-212.000000, -916.000000) translate(0.000000, 88.000000) translate(16.000000, 268.000000) translate(0.000000, 120.000000) translate(0.000000, 440.000000) translate(196.500000, 0.000000) translate(11.000000, 9.000000)"/>
                                    <path stroke-linecap="round" d="M4.74 7.564h1.705c.464 0 .84.374.84.834v7.039M12.764 7.564h-1.706c-.464 0-.84.374-.84.834v7.039" transform="translate(-212.000000, -916.000000) translate(0.000000, 88.000000) translate(16.000000, 268.000000) translate(0.000000, 120.000000) translate(0.000000, 440.000000) translate(196.500000, 0.000000) translate(11.000000, 9.000000)"/>
                                </g>
                            </g>
                        </g>
                    </g>
                </g>
            </g>
        </g>
    </g>
</svg>
