<?xml version="1.0" encoding="utf-8"?>
<!-- Generator: Adobe Illustrator 25.2.0, SVG Export Plug-In . SVG Version: 6.00 Build 0)  -->
<svg version="1.1" id="Layer_1" xmlns="http://www.w3.org/2000/svg" xmlns:xlink="http://www.w3.org/1999/xlink" x="0px" y="0px"
	 viewBox="0 0 38.4 21.1" style="enable-background:new 0 0 38.4 21.1;" xml:space="preserve">
<style type="text/css">
	.st0{fill:none;}
	.st1{fill-rule:evenodd;clip-rule:evenodd;fill:#FFCC00;}
	.st2{fill-rule:evenodd;clip-rule:evenodd;fill:#FEFEFE;}
	.st3{fill-rule:evenodd;clip-rule:evenodd;fill:#FFFFFF;stroke:#4C4C4C;stroke-width:1.96;}
</style>
<g>
	<g>
		<g>
			<g>
				<g>
					<g>
						<path class="st0" d="M39-2.9H-1v24h40V-2.9z"/>
						<path class="st1" d="M0.6,12.6l0.5-3c0.2-1.6,1.5-2.7,3-2.7h0.6l1.8-4.8c0.5-1.2,1.6-2,2.9-2h14.4c1.1,0,2.1,0.6,2.7,1.6
							L29.4,7l6.2,1.2c1.5,0.3,2.5,1.6,2.5,3.2v1.2l0.1,4.7h-38C0,17.3,0.6,12.6,0.6,12.6z"/>
						<path class="st2" d="M23.7,3.6l1.7,4.1h-7.5V2.9h4.9C23.2,2.9,23.5,3.2,23.7,3.6 M16,2.9v4.8H8.5l1.3-4c0.2-0.5,0.5-0.8,1-0.8
							C10.8,2.9,16,2.9,16,2.9z"/>
						<path class="st3" d="M8.5,14.4c-0.8,0-1.5,0.3-2,0.8s-0.8,1.2-0.8,2s0.3,1.5,0.8,2s1.2,0.8,2,0.8s1.5-0.3,2-0.8s0.8-1.2,0.8-2
							s-0.3-1.5-0.8-2C9.9,14.7,9.3,14.4,8.5,14.4z M30.1,14.4c-0.8,0-1.5,0.3-2,0.8s-0.8,1.2-0.8,2s0.3,1.5,0.8,2s1.2,0.8,2,0.8
							s1.5-0.3,2-0.8c0.5-0.5,0.8-1.2,0.8-2s-0.3-1.5-0.8-2C31.5,14.7,30.8,14.4,30.1,14.4z"/>
					</g>
				</g>
			</g>
		</g>
	</g>
</g>
</svg>
