<svg xmlns="http://www.w3.org/2000/svg" width="40" height="40" viewBox="0 0 40 40">
    <g fill="none" fill-rule="evenodd">
        <g>
            <g>
                <g>
                    <g>
                        <g>
                            <g>
                                <path d="M0 0H40V40H0z" transform="translate(-124.000000, -616.000000) translate(0.000000, 88.000000) translate(16.000000, 268.000000) translate(0.000000, 120.000000) translate(0.000000, 140.000000) translate(108.000000, 0.000000)"/>
                                <g stroke="#050101">
                                    <path stroke-linecap="round" d="M9.305 3.336c-2.416.007-4.828.947-6.65 2.812-3.6 3.687-3.53 9.596.157 13.197 3.687 3.6 9.596 3.53 13.197-.157 1.742-1.785 2.625-4.09 2.654-6.4" transform="translate(-124.000000, -616.000000) translate(0.000000, 88.000000) translate(16.000000, 268.000000) translate(0.000000, 120.000000) translate(0.000000, 140.000000) translate(108.000000, 0.000000) translate(10.000000, 9.000000)"/>
                                    <path d="M11.566 12.668c0-1.234-1-2.235-2.235-2.235-1.233 0-2.233 1-2.233 2.235 0 1.234 1 2.235 2.233 2.235 1.234 0 2.235-1.001 2.235-2.235zM.655 14.902L7.098 12.667M9.332 14.902L9.332 21.852M11.836 12.668L18.394 14.903" transform="translate(-124.000000, -616.000000) translate(0.000000, 88.000000) translate(16.000000, 268.000000) translate(0.000000, 120.000000) translate(0.000000, 140.000000) translate(108.000000, 0.000000) translate(10.000000, 9.000000)"/>
                                    <path stroke-linecap="round" d="M11.12 9.077c.758-.458 1.474-1.608 1.431-2.49-.046-.973-1.003-1.183-.985-2.042.016-.734.555-.932.837-2.132.096-.409.085-.767.06-1.013" transform="translate(-124.000000, -616.000000) translate(0.000000, 88.000000) translate(16.000000, 268.000000) translate(0.000000, 120.000000) translate(0.000000, 140.000000) translate(108.000000, 0.000000) translate(10.000000, 9.000000)"/>
                                    <path stroke-linecap="round" stroke-linejoin="round" d="M11.405 1.213L12.441 0 13.432 1.213" transform="translate(-124.000000, -616.000000) translate(0.000000, 88.000000) translate(16.000000, 268.000000) translate(0.000000, 120.000000) translate(0.000000, 140.000000) translate(108.000000, 0.000000) translate(10.000000, 9.000000)"/>
                                    <path stroke-linecap="round" d="M14.579 9.077c.757-.458 1.474-1.608 1.43-2.49-.046-.973-1.003-1.183-.985-2.042.016-.734.555-.932.837-2.132.096-.409.085-.767.06-1.013" transform="translate(-124.000000, -616.000000) translate(0.000000, 88.000000) translate(16.000000, 268.000000) translate(0.000000, 120.000000) translate(0.000000, 140.000000) translate(108.000000, 0.000000) translate(10.000000, 9.000000)"/>
                                    <path stroke-linecap="round" stroke-linejoin="round" d="M14.863 1.213L15.899 0 16.89 1.213" transform="translate(-124.000000, -616.000000) translate(0.000000, 88.000000) translate(16.000000, 268.000000) translate(0.000000, 120.000000) translate(0.000000, 140.000000) translate(108.000000, 0.000000) translate(10.000000, 9.000000)"/>
                                    <path stroke-linecap="round" d="M18.014 9.077c.757-.458 1.474-1.608 1.43-2.49-.046-.973-1.003-1.183-.985-2.042.016-.734.555-.932.837-2.132.096-.409.085-.767.06-1.013" transform="translate(-124.000000, -616.000000) translate(0.000000, 88.000000) translate(16.000000, 268.000000) translate(0.000000, 120.000000) translate(0.000000, 140.000000) translate(108.000000, 0.000000) translate(10.000000, 9.000000)"/>
                                    <path stroke-linecap="round" stroke-linejoin="round" d="M18.298 1.213L19.334 0 20.325 1.213" transform="translate(-124.000000, -616.000000) translate(0.000000, 88.000000) translate(16.000000, 268.000000) translate(0.000000, 120.000000) translate(0.000000, 140.000000) translate(108.000000, 0.000000) translate(10.000000, 9.000000)"/>
                                </g>
                            </g>
                        </g>
                    </g>
                </g>
            </g>
        </g>
    </g>
</svg>
