<svg xmlns="http://www.w3.org/2000/svg" xmlns:xlink="http://www.w3.org/1999/xlink" width="32" height="32" viewBox="0 0 32 32">
    <defs>
        <path id="rrb3m8m5ga" d="M0 32L32 32 32 0 0 0z"/>
    </defs>
    <g fill="none" fill-rule="evenodd">
        <g>
            <g>
                <g>
                    <g>
                        <g>
                            <g transform="translate(-289.000000, -746.000000) translate(0.000000, 112.000000) translate(16.000000, 162.000000) translate(234.000000, 444.000000) translate(27.000000, 16.000000) translate(12.000000, 12.000000)">
                                <mask id="hke2yu4syb" fill="#fff">
                                    <use xlink:href="#rrb3m8m5ga"/>
                                </mask>
                                <g stroke="#666" stroke-linecap="round" stroke-linejoin="round" mask="url(#hke2yu4syb)">
                                    <g>
                                        <path d="M2.856 14.193L10.323 14.193 10.323 6.446 2.856 6.446zM5.901.26S4.601 0 3.407 0c-1.194 0-2.6.26-2.6.26S.785 1.276.787 2.05H5.9V.26z" transform="translate(7.000000, 4.000000)"/>
                                        <path d="M15.007 11.343V6.125c0-1.372-1.111-2.482-2.482-2.482H.742c-.41 0-.742.331-.742.741v18.593C0 23.541.459 24 1.024 24h15.933c.564 0 1.023-.459 1.023-1.023v-6.792c0-1.028-.426-2.01-1.176-2.714l-1.473-1.381c-.207-.193-.324-.464-.324-.747zM2.918 18.053L15.062 18.053M2.918 20.591L15.062 20.591" transform="translate(7.000000, 4.000000)"/>
                                        <path d="M7.992 10.971c0 .775-.628 1.4-1.402 1.4-.774 0-1.402-.625-1.402-1.4 0-.774 1.402-2.706 1.402-2.706s1.402 1.932 1.402 2.706z" transform="translate(7.000000, 4.000000)"/>
                                    </g>
                                </g>
                            </g>
                        </g>
                    </g>
                </g>
            </g>
        </g>
    </g>
</svg>
