<svg xmlns="http://www.w3.org/2000/svg" width="32" height="32" viewBox="0 0 32 32">
    <g fill="none" fill-rule="evenodd">
        <g>
            <g>
                <g>
                    <g>
                        <g>
                            <g>
                                <path d="M0 0H32V32H0z" transform="translate(-172.000000, -598.000000) translate(0.000000, 112.000000) translate(16.000000, 162.000000) translate(117.000000, 296.000000) translate(27.000000, 16.000000) translate(12.000000, 12.000000)"/>
                                <g stroke="#666" stroke-linecap="round" stroke-linejoin="round">
                                    <path d="M4.255 11.998L6.39 11.998M5.323 10.93L5.323 13.065M17.083 11.998L19.219 11.998" transform="translate(-172.000000, -598.000000) translate(0.000000, 112.000000) translate(16.000000, 162.000000) translate(117.000000, 296.000000) translate(27.000000, 16.000000) translate(12.000000, 12.000000) translate(4.263169, 5.587919)"/>
                                    <g>
                                        <path d="M22.782 20.748H.69c-.38 0-.69-.309-.69-.69V5.204h23.473v14.854c0 .381-.31.69-.69.69zM22.782 1.653H.69c-.38 0-.69.31-.69.69V5.2h23.473V2.343c0-.38-.31-.69-.69-.69zM3.022 1.65L6.457 1.65 6.457 0 3.022 0zM17.017 1.65L20.452 1.65 20.452 0 17.017 0z" transform="translate(-172.000000, -598.000000) translate(0.000000, 112.000000) translate(16.000000, 162.000000) translate(117.000000, 296.000000) translate(27.000000, 16.000000) translate(12.000000, 12.000000) translate(4.263169, 5.587919)"/>
                                        <path d="M12.93 7.867L8.727 13.568 11.43 13.568 9.772 18.085 14.132 12.462 11.43 12.462z" transform="translate(-172.000000, -598.000000) translate(0.000000, 112.000000) translate(16.000000, 162.000000) translate(117.000000, 296.000000) translate(27.000000, 16.000000) translate(12.000000, 12.000000) translate(4.263169, 5.587919)"/>
                                    </g>
                                </g>
                            </g>
                        </g>
                    </g>
                </g>
            </g>
        </g>
    </g>
</svg>
