<svg xmlns="http://www.w3.org/2000/svg" width="32" height="32" viewBox="0 0 32 32">
    <g fill="none" fill-rule="evenodd">
        <g>
            <g>
                <g>
                    <g>
                        <g>
                            <g>
                                <path d="M0 0H32V32H0z" transform="translate(-289.000000, -598.000000) translate(0.000000, 112.000000) translate(16.000000, 162.000000) translate(234.000000, 296.000000) translate(27.000000, 16.000000) translate(12.000000, 12.000000)"/>
                                <g stroke="#666" stroke-linecap="round" stroke-linejoin="round">
                                    <path d="M9.52 23.782L.218 14.48c-.29-.29-.29-.761 0-1.051L13.428.218c.291-.29.762-.29 1.052 0l9.302 9.302c.29.29.29.761 0 1.051l-13.21 13.211c-.29.291-.762.291-1.052 0zM12.017 1.63L22.371 11.983M1.629 12.017L11.983 22.372M13.611 3.909L3.943 13.577M15.771 6.069L6.103 15.737M17.931 8.229L8.263 17.898M20.057 10.423L10.388 20.092" transform="translate(-289.000000, -598.000000) translate(0.000000, 112.000000) translate(16.000000, 162.000000) translate(234.000000, 296.000000) translate(27.000000, 16.000000) translate(12.000000, 12.000000) translate(4.000000, 4.000000)"/>
                                    <path d="M21.532 7.287l-4.819-4.819c-.193-.193-.193-.507 0-.701L17.761.72c.193-.194.507-.194.701 0l4.819 4.818c.193.194.193.508 0 .702l-1.047 1.047c-.195.194-.509.194-.702 0zM5.871 23.649L.351 18.129 2.1 16.38 7.62 21.9z" transform="translate(-289.000000, -598.000000) translate(0.000000, 112.000000) translate(16.000000, 162.000000) translate(234.000000, 296.000000) translate(27.000000, 16.000000) translate(12.000000, 12.000000) translate(4.000000, 4.000000)"/>
                                </g>
                            </g>
                        </g>
                    </g>
                </g>
            </g>
        </g>
    </g>
</svg>
