<svg xmlns="http://www.w3.org/2000/svg" width="32" height="32" viewBox="0 0 32 32">
    <g fill="none" fill-rule="evenodd">
        <g>
            <g>
                <g>
                    <g>
                        <g>
                            <g>
                                <path d="M0 0H32V32H0z" transform="translate(-289.000000, -450.000000) translate(0.000000, 112.000000) translate(16.000000, 162.000000) translate(234.000000, 148.000000) translate(27.000000, 16.000000) translate(12.000000, 12.000000)"/>
                                <g stroke="#666" stroke-linecap="round" stroke-linejoin="round">
                                    <path d="M6.563.237S5.381 0 4.293 0C3.208 0 1.929.237 1.929.237s-.02.924-.02 1.628h4.655V.237zM9.773 14.706v5.47c0 1.291-.998 1.239-.998 1.239H3.695c-1.264 0-1.21-.997-1.21-.997v-8.104c0-1.803 1.694-1.209 1.694-1.209s2.93 1.101 4.3 1.882c1.372.779 1.294 1.72 1.294 1.72zM9.78 4.76C8.124 3.175 6.204 3.175 6.204 3.175H2.858c-1.097 0-1.501.47-1.501 1.17 0 .78-.015 1.72-.015 1.72s.086 1.665-.561 2.3C.366 8.77 0 9.184 0 11.521v10.43S-.011 24 1.73 24h9.173s1.513 0 1.513-1.79V10.088S12.332 7.21 9.78 4.76z" transform="translate(-289.000000, -450.000000) translate(0.000000, 112.000000) translate(16.000000, 162.000000) translate(234.000000, 148.000000) translate(27.000000, 16.000000) translate(12.000000, 12.000000) translate(10.000000, 4.000000)"/>
                                    <path d="M7.405 17.883c0 .705-.572 1.276-1.276 1.276-.704 0-1.275-.571-1.275-1.276 0-.704 1.275-2.461 1.275-2.461s1.276 1.757 1.276 2.461z" transform="translate(-289.000000, -450.000000) translate(0.000000, 112.000000) translate(16.000000, 162.000000) translate(234.000000, 148.000000) translate(27.000000, 16.000000) translate(12.000000, 12.000000) translate(10.000000, 4.000000)"/>
                                </g>
                            </g>
                        </g>
                    </g>
                </g>
            </g>
        </g>
    </g>
</svg>
