<svg xmlns="http://www.w3.org/2000/svg" width="24" height="24" viewBox="0 0 24 24">
    <g fill="none" fill-rule="evenodd">
        <g>
            <g>
                <g>
                    <g>
                        <g>
                            <g>
                                <path d="M0 0H24V24H0z" transform="translate(-200.000000, -860.000000) translate(0.000000, 96.000000) translate(16.000000, 466.000000) translate(29.000000, 276.000000) translate(101.000000, 0.000000) translate(54.000000, 22.000000)"/>
                                <g>
                                    <path fill="#FFF" d="M3.058 9.741S6.05 8.388 6.05 5.47V3.694c0-.259.203-.469.453-.469 1.131 0 2.048.949 2.048 2.116V8.04h4.012c.901 0 1.576.856 1.391 1.766l-.908 4.012c-.182.897-.948 1.54-1.835 1.54H2.786l.272-5.616z" transform="translate(-200.000000, -860.000000) translate(0.000000, 96.000000) translate(16.000000, 466.000000) translate(29.000000, 276.000000) translate(101.000000, 0.000000) translate(54.000000, 22.000000) translate(6.000000, 2.000000)"/>
                                    <path stroke="#1D1D1B" d="M3.058 9.741S6.05 8.388 6.05 5.47V3.694c0-.259.203-.469.453-.469 1.131 0 2.048.949 2.048 2.116V8.04h4.012c.901 0 1.576.856 1.391 1.766l-.908 4.012c-.182.897-.948 1.54-1.835 1.54H2.786l.272-5.616z" transform="translate(-200.000000, -860.000000) translate(0.000000, 96.000000) translate(16.000000, 466.000000) translate(29.000000, 276.000000) translate(101.000000, 0.000000) translate(54.000000, 22.000000) translate(6.000000, 2.000000)"/>
                                    <path fill="#FFF" d="M3.302 16.094H.432c-.238 0-.432-.193-.432-.43V8.937c0-.238.194-.43.432-.43h2.87c.238 0 .43.192.43.43v6.725c0 .238-.192.431-.43.431" transform="translate(-200.000000, -860.000000) translate(0.000000, 96.000000) translate(16.000000, 466.000000) translate(29.000000, 276.000000) translate(101.000000, 0.000000) translate(54.000000, 22.000000) translate(6.000000, 2.000000)"/>
                                    <path fill="#00C8C3" stroke="#1D1D1B" d="M3.302 16.094H.432c-.238 0-.432-.193-.432-.43V8.937c0-.238.194-.43.432-.43h2.87c.238 0 .43.192.43.43v6.725c0 .238-.192.431-.43.431z" transform="translate(-200.000000, -860.000000) translate(0.000000, 96.000000) translate(16.000000, 466.000000) translate(29.000000, 276.000000) translate(101.000000, 0.000000) translate(54.000000, 22.000000) translate(6.000000, 2.000000)"/>
                                    <g stroke="#1D1D1B" stroke-linecap="round">
                                        <path d="M4.147 0L4.147 1.4M0 2.598L.961 3.531M8.294 2.598L7.334 3.531" transform="translate(-200.000000, -860.000000) translate(0.000000, 96.000000) translate(16.000000, 466.000000) translate(29.000000, 276.000000) translate(101.000000, 0.000000) translate(54.000000, 22.000000) translate(6.000000, 2.000000) translate(2.799797, 0.000000)"/>
                                    </g>
                                </g>
                            </g>
                        </g>
                    </g>
                </g>
            </g>
        </g>
    </g>
</svg>
