<svg xmlns="http://www.w3.org/2000/svg" width="40" height="40" viewBox="0 0 40 40">
    <g fill="none" fill-rule="evenodd">
        <g>
            <g>
                <g>
                    <g>
                        <g>
                            <g transform="translate(-56.000000, -4993.000000) translate(0.000000, 112.000000) translate(16.000000, 4292.000000) translate(0.000000, 416.000000) translate(24.000000, 155.000000) translate(16.000000, 18.000000)">
                                <circle cx="20" cy="20" r="20" fill="#2589FF"/>
                                <path stroke="#FFF" stroke-linecap="round" stroke-linejoin="round" stroke-width="1.5" d="M14.49 30.266l5.886-5.886c2.866 1.061 6.213.449 8.516-1.854 1.974-1.975 2.707-4.715 2.206-7.263-.113-.572-.81-.793-1.222-.382l-2.485 2.484c-1.311 1.311-3.436 1.311-4.747 0l-.009-.01c-1.311-1.311-1.311-3.436 0-4.747l2.484-2.484c.411-.411.189-1.111-.381-1.221-2.55-.502-5.29.23-7.264 2.205-2.303 2.303-2.915 5.65-1.855 8.516l-5.886 5.885c-1.31 1.311-1.31 3.437 0 4.749l.01.008c1.31 1.312 3.436 1.312 4.747 0z"/>
                            </g>
                        </g>
                    </g>
                </g>
            </g>
        </g>
    </g>
</svg>
