<svg xmlns="http://www.w3.org/2000/svg" width="40" height="40" viewBox="0 0 40 40">
    <g fill="none" fill-rule="evenodd">
        <g>
            <g>
                <g>
                    <g>
                        <g>
                            <g>
                                <path d="M0 0H40V40H0z" transform="translate(-124.000000, -516.000000) translate(0.000000, 88.000000) translate(16.000000, 268.000000) translate(0.000000, 120.000000) translate(0.000000, 40.000000) translate(108.000000, 0.000000)"/>
                                <g>
                                    <path stroke="#080204" stroke-linecap="round" stroke-linejoin="round" d="M17.453 0L20.187 2.434 15.107 2.434 15.107 6.667" transform="translate(-124.000000, -516.000000) translate(0.000000, 88.000000) translate(16.000000, 268.000000) translate(0.000000, 120.000000) translate(0.000000, 40.000000) translate(108.000000, 0.000000) translate(6.000000, 11.000000)"/>
                                    <path stroke="#151516" stroke-linecap="round" d="M10.176 4.92C6.876 8.642.058 9.543.003 12.903c-.048 2.952.471 2.785.471 2.785H4.82M23.621 15.688h2.849c.84 0 1.523-.658 1.523-1.468v-3.394c0-.878-.64-1.626-1.534-1.796-1.018-.192-1.435.459-6.594-3.83" transform="translate(-124.000000, -516.000000) translate(0.000000, 88.000000) translate(16.000000, 268.000000) translate(0.000000, 120.000000) translate(0.000000, 40.000000) translate(108.000000, 0.000000) translate(6.000000, 11.000000)"/>
                                    <path stroke="#151516" d="M10.176 15.688L18.264 15.688M4.82 15.725c0-1.48 1.198-2.678 2.677-2.678 1.48 0 2.678 1.199 2.678 2.678 0 1.479-1.199 2.678-2.678 2.678-1.479 0-2.678-1.2-2.678-2.678M23.621 15.725c0 1.479-1.199 2.678-2.678 2.678-1.479 0-2.678-1.2-2.678-2.678 0-1.48 1.199-2.678 2.678-2.678 1.479 0 2.678 1.199 2.678 2.678z" transform="translate(-124.000000, -516.000000) translate(0.000000, 88.000000) translate(16.000000, 268.000000) translate(0.000000, 120.000000) translate(0.000000, 40.000000) translate(108.000000, 0.000000) translate(6.000000, 11.000000)"/>
                                </g>
                            </g>
                        </g>
                    </g>
                </g>
            </g>
        </g>
    </g>
</svg>
