<svg xmlns="http://www.w3.org/2000/svg" width="32" height="33" viewBox="0 0 32 33">
    <g fill="none" fill-rule="evenodd">
        <g>
            <g>
                <g>
                    <g>
                        <g>
                            <path d="M0 0H32V32H0z" transform="translate(-55.000000, -302.000000) translate(0.000000, 112.000000) translate(16.000000, 162.000000) translate(27.000000, 16.000000) translate(12.000000, 12.267226)"/>
                            <g stroke="#666" stroke-linecap="round" stroke-linejoin="round">
                                <path d="M20.089 23.302H.882c-.487 0-.882-.395-.882-.882V.882C0 .395.395 0 .882 0H20.09c.487 0 .882.395.882.882V22.42c0 .487-.395.882-.882.882z" transform="translate(-55.000000, -302.000000) translate(0.000000, 112.000000) translate(16.000000, 162.000000) translate(27.000000, 16.000000) translate(12.000000, 12.267226) translate(5.350069, 4.348121)"/>
                                <path d="M2.656 18.092L18.314 18.092 18.314 2.348 2.656 2.348z" transform="translate(-55.000000, -302.000000) translate(0.000000, 112.000000) translate(16.000000, 162.000000) translate(27.000000, 16.000000) translate(12.000000, 12.267226) translate(5.350069, 4.348121)"/>
                                <path d="M2.656 3.693L4.517 5.555 16.452 5.555 18.314 3.693M2.656 6.899L4.517 8.761 16.452 8.761 18.314 6.899M2.656 10.106L4.517 11.966 16.452 11.966 18.314 10.106M2.656 13.312L4.517 15.173 16.452 15.173 18.314 13.312M2.645 21.141L2.645 19.922M18.314 19.921L18.314 21.141" transform="translate(-55.000000, -302.000000) translate(0.000000, 112.000000) translate(16.000000, 162.000000) translate(27.000000, 16.000000) translate(12.000000, 12.267226) translate(5.350069, 4.348121)"/>
                            </g>
                        </g>
                    </g>
                </g>
            </g>
        </g>
    </g>
</svg>
