<svg xmlns="http://www.w3.org/2000/svg" xmlns:xlink="http://www.w3.org/1999/xlink" width="28" height="28" viewBox="0 0 28 28">
    <defs>
        <path id="dvubp9lzka" d="M0 0L28 0 28 28 0 28z"/>
    </defs>
    <g fill="none" fill-rule="evenodd">
        <g>
            <g>
                <g>
                    <g>
                        <g>
                            <g>
                                <g>
                                    <g transform="translate(-102.000000, -5948.000000) translate(0.000000, 112.000000) translate(16.000000, 4299.000000) translate(0.000000, 1337.000000) translate(24.000000, 132.000000) translate(20.000000, 54.000000) translate(42.000000, 14.000000) translate(0.000000, -0.000000)">
                                        <mask id="jpbt332a4b" fill="#fff">
                                            <use xlink:href="#dvubp9lzka"/>
                                        </mask>
                                        <path fill="#6AC1A3" d="M28 14c0 7.732-6.268 14-14 14S0 21.732 0 14 6.268 0 14 0s14 6.268 14 14" mask="url(#jpbt332a4b)"/>
                                    </g>
                                    <g>
                                        <path fill="#FFF" d="M4.508 5.748c.273.41.828.52 1.238.247.41-.274.521-.828.247-1.238-.274-.41-.829-.521-1.239-.248-.41.274-.52.829-.246 1.239" transform="translate(-102.000000, -5948.000000) translate(0.000000, 112.000000) translate(16.000000, 4299.000000) translate(0.000000, 1337.000000) translate(24.000000, 132.000000) translate(20.000000, 54.000000) translate(42.000000, 14.000000) translate(0.000000, -0.000000) translate(8.750016, 8.750016)"/>
                                        <path stroke="#FFF" stroke-width=".75" d="M3.224 5.137l-.55-.28c-.46-.231-.557-.062-.544.467.014.548.228 1.152.514 1.566.293.421.482.513.714.054l.279-.551c.232-.459.046-1.024-.413-1.256zM4.69 3.231l.077-.612c.064-.51-.128-.545-.622-.354-.512.197-1.009.6-1.302 1.01-.298.418-.32.626.19.69l.612.078c.51.064.98-.301 1.044-.812zM5.873 7.117c-.364-.363-.959-.363-1.323 0l-.436.437c-.364.363-.233.508.274.661.524.158 1.165.144 1.647 0 .493-.146.637-.298.274-.661l-.436-.437zM7.47 3.973c.51-.064.487-.272.189-.69-.293-.409-.788-.815-1.3-1.012-.493-.192-.685-.158-.622.353l.076.612c.064.51.533.876 1.043.812l.613-.075zM7.837 4.823l-.551.278c-.46.231-.646.796-.415 1.255l.277.551c.232.46.421.369.714-.052.288-.414.502-1.017.516-1.564.015-.53-.082-.7-.541-.468z" transform="translate(-102.000000, -5948.000000) translate(0.000000, 112.000000) translate(16.000000, 4299.000000) translate(0.000000, 1337.000000) translate(24.000000, 132.000000) translate(20.000000, 54.000000) translate(42.000000, 14.000000) translate(0.000000, -0.000000) translate(8.750016, 8.750016)"/>
                                        <path stroke="#FFF" stroke-width=".75" d="M9.254 5.25c0 2.211-1.792 4.004-4.004 4.004-2.211 0-4.004-1.793-4.004-4.004 0-2.211 1.793-4.004 4.004-4.004 2.212 0 4.004 1.793 4.004 4.004z" transform="translate(-102.000000, -5948.000000) translate(0.000000, 112.000000) translate(16.000000, 4299.000000) translate(0.000000, 1337.000000) translate(24.000000, 132.000000) translate(20.000000, 54.000000) translate(42.000000, 14.000000) translate(0.000000, -0.000000) translate(8.750016, 8.750016)"/>
                                        <path stroke="#FFF" d="M10.5 5.25c0 2.9-2.35 5.25-5.25 5.25S0 8.15 0 5.25 2.35 0 5.25 0s5.25 2.35 5.25 5.25z" transform="translate(-102.000000, -5948.000000) translate(0.000000, 112.000000) translate(16.000000, 4299.000000) translate(0.000000, 1337.000000) translate(24.000000, 132.000000) translate(20.000000, 54.000000) translate(42.000000, 14.000000) translate(0.000000, -0.000000) translate(8.750016, 8.750016)"/>
                                    </g>
                                    <g stroke="#FFF" stroke-linecap="square" stroke-linejoin="round">
                                        <path d="M1.584 5.219L1.299 3.797 0 4.381" transform="translate(-102.000000, -5948.000000) translate(0.000000, 112.000000) translate(16.000000, 4299.000000) translate(0.000000, 1337.000000) translate(24.000000, 132.000000) translate(20.000000, 54.000000) translate(42.000000, 14.000000) translate(0.000000, -0.000000) translate(5.833344, 5.833344)"/>
                                        <path d="M13.258 14.368c-1.396 1.225-3.21 1.965-5.193 1.965-4.408 0-7.982-3.656-7.982-8.166 0-1.454.371-2.82 1.022-4.002M14.749 10.595L15.035 12.016 16.333 11.433" transform="translate(-102.000000, -5948.000000) translate(0.000000, 112.000000) translate(16.000000, 4299.000000) translate(0.000000, 1337.000000) translate(24.000000, 132.000000) translate(20.000000, 54.000000) translate(42.000000, 14.000000) translate(0.000000, -0.000000) translate(5.833344, 5.833344)"/>
                                        <path d="M3.674 1.346C4.934.495 6.443 0 8.064 0c4.408 0 7.982 3.656 7.982 8.166 0 1.219-.26 2.374-.728 3.413" transform="translate(-102.000000, -5948.000000) translate(0.000000, 112.000000) translate(16.000000, 4299.000000) translate(0.000000, 1337.000000) translate(24.000000, 132.000000) translate(20.000000, 54.000000) translate(42.000000, 14.000000) translate(0.000000, -0.000000) translate(5.833344, 5.833344)"/>
                                    </g>
                                </g>
                            </g>
                        </g>
                    </g>
                </g>
            </g>
        </g>
    </g>
</svg>
