<svg xmlns="http://www.w3.org/2000/svg" width="24" height="24" viewBox="0 0 24 24">
    <g fill="none" fill-rule="evenodd">
        <g>
            <g>
                <g>
                    <g>
                        <g>
                            <g>
                                <path fill="#4B9EFF" d="M17.173 9.838H.155c-.086 0-.155-.07-.155-.155V4.589c0-.086.069-.155.155-.155h12.934c2.332 0 4.239 1.907 4.239 4.238v1.01c0 .086-.07.156-.155.156" transform="translate(-99.000000, -860.000000) translate(0.000000, 96.000000) translate(16.000000, 466.000000) translate(29.000000, 276.000000) translate(54.000000, 22.000000) translate(4.000000, 6.000000)"/>
                                <path stroke="#1D1D1B" d="M17.173 9.838H.155c-.086 0-.155-.07-.155-.155V4.589c0-.086.069-.155.155-.155h12.934c2.332 0 4.239 1.907 4.239 4.238v1.01c0 .086-.07.156-.155.156z" transform="translate(-99.000000, -860.000000) translate(0.000000, 96.000000) translate(16.000000, 466.000000) translate(29.000000, 276.000000) translate(54.000000, 22.000000) translate(4.000000, 6.000000)"/>
                                <path fill="#FFF" d="M12.951 4.375H1.521L2.6 1.572C2.964.624 3.865 0 4.87 0h3.814c.8 0 1.548.397 2.003 1.062l2.264 3.313z" transform="translate(-99.000000, -860.000000) translate(0.000000, 96.000000) translate(16.000000, 466.000000) translate(29.000000, 276.000000) translate(54.000000, 22.000000) translate(4.000000, 6.000000)"/>
                                <path stroke="#1D1D1B" d="M12.951 4.375H1.521L2.6 1.572C2.964.624 3.865 0 4.87 0h3.814c.8 0 1.548.397 2.003 1.062l2.264 3.313z" transform="translate(-99.000000, -860.000000) translate(0.000000, 96.000000) translate(16.000000, 466.000000) translate(29.000000, 276.000000) translate(54.000000, 22.000000) translate(4.000000, 6.000000)"/>
                                <g>
                                    <path fill="#FFF" d="M0.5 0L0.5 4.375" transform="translate(-99.000000, -860.000000) translate(0.000000, 96.000000) translate(16.000000, 466.000000) translate(29.000000, 276.000000) translate(54.000000, 22.000000) translate(4.000000, 6.000000) translate(6.611500, 0.000000)"/>
                                    <path stroke="#1D1D1B" d="M0.5 0L0.5 4.375" transform="translate(-99.000000, -860.000000) translate(0.000000, 96.000000) translate(16.000000, 466.000000) translate(29.000000, 276.000000) translate(54.000000, 22.000000) translate(4.000000, 6.000000) translate(6.611500, 0.000000)"/>
                                </g>
                                <path fill="#FFF" d="M5.544 9.838c0 1.045-.848 1.893-1.893 1.893s-1.893-.848-1.893-1.893c0-1.046.848-1.894 1.893-1.894s1.893.848 1.893 1.894" transform="translate(-99.000000, -860.000000) translate(0.000000, 96.000000) translate(16.000000, 466.000000) translate(29.000000, 276.000000) translate(54.000000, 22.000000) translate(4.000000, 6.000000)"/>
                                <path stroke="#1D1D1B" d="M5.544 9.838c0 1.045-.848 1.893-1.893 1.893s-1.893-.848-1.893-1.893c0-1.046.848-1.894 1.893-1.894s1.893.848 1.893 1.894z" transform="translate(-99.000000, -860.000000) translate(0.000000, 96.000000) translate(16.000000, 466.000000) translate(29.000000, 276.000000) translate(54.000000, 22.000000) translate(4.000000, 6.000000)"/>
                                <path fill="#FFF" d="M14.44 9.838c0 1.045-.848 1.893-1.893 1.893s-1.893-.848-1.893-1.893c0-1.046.848-1.894 1.893-1.894s1.893.848 1.893 1.894" transform="translate(-99.000000, -860.000000) translate(0.000000, 96.000000) translate(16.000000, 466.000000) translate(29.000000, 276.000000) translate(54.000000, 22.000000) translate(4.000000, 6.000000)"/>
                                <path stroke="#1D1D1B" d="M14.44 9.838c0 1.045-.848 1.893-1.893 1.893s-1.893-.848-1.893-1.893c0-1.046.848-1.894 1.893-1.894s1.893.848 1.893 1.894z" transform="translate(-99.000000, -860.000000) translate(0.000000, 96.000000) translate(16.000000, 466.000000) translate(29.000000, 276.000000) translate(54.000000, 22.000000) translate(4.000000, 6.000000)"/>
                            </g>
                        </g>
                    </g>
                </g>
            </g>
        </g>
    </g>
</svg>
