<svg xmlns="http://www.w3.org/2000/svg" width="24" height="24" viewBox="0 0 24 24">
    <g fill="none" fill-rule="evenodd">
        <g>
            <g>
                <g>
                    <g>
                        <g>
                            <g>
                                <path d="M0 0H24V24H0z" transform="translate(-56.000000, -1408.000000) translate(0.000000, 112.000000) translate(16.000000, 658.000000) translate(24.000000, 626.000000) translate(16.000000, 12.000000) translate(0.000000, -0.000000)"/>
                                <g>
                                    <path d="M0 0H24V24H0z" transform="translate(-56.000000, -1408.000000) translate(0.000000, 112.000000) translate(16.000000, 658.000000) translate(24.000000, 626.000000) translate(16.000000, 12.000000) translate(0.000000, -0.000000) translate(0.000000, -0.000000)"/>
                                    <g>
                                        <path stroke="#070100" stroke-width="1.5" d="M16.144 4.611L18.563 3.833M2.419 4.611L0 3.833" transform="translate(-56.000000, -1408.000000) translate(0.000000, 112.000000) translate(16.000000, 658.000000) translate(24.000000, 626.000000) translate(16.000000, 12.000000) translate(0.000000, -0.000000) translate(0.000000, -0.000000) translate(2.700000, 5.000000)"/>
                                        <path fill="#FC0" d="M18.492 12.199H.702V6.325c0-.967.774-1.75 1.73-1.75h14.329c.956 0 1.73.783 1.73 1.75v5.874z" transform="translate(-56.000000, -1408.000000) translate(0.000000, 112.000000) translate(16.000000, 658.000000) translate(24.000000, 626.000000) translate(16.000000, 12.000000) translate(0.000000, -0.000000) translate(0.000000, -0.000000) translate(2.700000, 5.000000)"/>
                                        <path stroke="#070100" stroke-width="1.5" d="M19 12.199H.193v-6.1c0-.741.797-1.524 1.525-1.524h14.74c1.226 0 2.023.783 2.034 1.524v6.099" transform="translate(-56.000000, -1408.000000) translate(0.000000, 112.000000) translate(16.000000, 658.000000) translate(24.000000, 626.000000) translate(16.000000, 12.000000) translate(0.000000, -0.000000) translate(0.000000, -0.000000) translate(2.700000, 5.000000)"/>
                                        <path fill="#FFF" stroke="#070100" stroke-width="1.5" d="M16.204 4.575H2.481l1.525-3.558C4.16.43 4.796 0 5.53 0h7.625c.735 0 1.372.43 1.525 1.017l1.524 3.558z" transform="translate(-56.000000, -1408.000000) translate(0.000000, 112.000000) translate(16.000000, 658.000000) translate(24.000000, 626.000000) translate(16.000000, 12.000000) translate(0.000000, -0.000000) translate(0.000000, -0.000000) translate(2.700000, 5.000000)"/>
                                        <path fill="#070100" d="M5.243 8.116c0-.553-.447-1-1-1-.551 0-1 .447-1 1 0 .552.449 1 1 1 .553 0 1-.448 1-1M15.917 8.116c0-.553-.447-1-1-1-.551 0-1 .447-1 1 0 .552.449 1 1 1 .553 0 1-.448 1-1" transform="translate(-56.000000, -1408.000000) translate(0.000000, 112.000000) translate(16.000000, 658.000000) translate(24.000000, 626.000000) translate(16.000000, 12.000000) translate(0.000000, -0.000000) translate(0.000000, -0.000000) translate(2.700000, 5.000000)"/>
                                        <path stroke="#070100" stroke-width="1.5" d="M2.735 12.199v2.541c0 .307-.196.509-.508.509H.702c-.313 0-.509-.202-.509-.509V12.2M15.95 12.199v2.541c0 .307.196.509.509.509h1.524c.313 0 .509-.202.509-.509V12.2" transform="translate(-56.000000, -1408.000000) translate(0.000000, 112.000000) translate(16.000000, 658.000000) translate(24.000000, 626.000000) translate(16.000000, 12.000000) translate(0.000000, -0.000000) translate(0.000000, -0.000000) translate(2.700000, 5.000000)"/>
                                    </g>
                                    <path fill="#FC0" stroke="#070100" stroke-width="1.5" d="M20.46 1.833c.465.645 1.065 1.222 1.764 1.67-.688.449-1.275 1.037-1.724 1.725-.45-.69-1.039-1.279-1.728-1.728.67-.437 1.243-1.004 1.688-1.667zM2.372 4.658c.233.273.501.526.8.747-.29.224-.549.484-.772.773-.225-.292-.487-.553-.778-.778.28-.216.531-.465.75-.742z" transform="translate(-56.000000, -1408.000000) translate(0.000000, 112.000000) translate(16.000000, 658.000000) translate(24.000000, 626.000000) translate(16.000000, 12.000000) translate(0.000000, -0.000000) translate(0.000000, -0.000000)"/>
                                </g>
                            </g>
                        </g>
                    </g>
                </g>
            </g>
        </g>
    </g>
</svg>
