<svg xmlns="http://www.w3.org/2000/svg" width="32" height="32" viewBox="0 0 32 32">
    <g fill="none" fill-rule="evenodd">
        <g>
            <g>
                <g>
                    <g>
                        <g>
                            <g>
                                <path d="M0 0H32V32H0z" transform="translate(-172.000000, -450.000000) translate(0.000000, 112.000000) translate(16.000000, 162.000000) translate(117.000000, 148.000000) translate(27.000000, 16.000000) translate(12.000000, 12.000000)"/>
                                <g>
                                    <path stroke="#666" d="M22.093 12.91c0 6.076-4.926 11.003-11.003 11.003-2.19 0-4.232-.642-5.947-1.746M1.337 18.007C.54 16.483.088 14.75.088 12.91c0-6.076 4.926-11.002 11.002-11.002" transform="translate(-172.000000, -450.000000) translate(0.000000, 112.000000) translate(16.000000, 162.000000) translate(117.000000, 148.000000) translate(27.000000, 16.000000) translate(12.000000, 12.000000) translate(4.000000, 4.000000)"/>
                                    <path stroke="#666" d="M16.834 12.91c0 3.172-2.572 5.744-5.744 5.744-3.171 0-5.743-2.572-5.743-5.744 0-3.172 2.572-5.744 5.743-5.744" transform="translate(-172.000000, -450.000000) translate(0.000000, 112.000000) translate(16.000000, 162.000000) translate(117.000000, 148.000000) translate(27.000000, 16.000000) translate(12.000000, 12.000000) translate(4.000000, 4.000000)"/>
                                    <path stroke="#666" d="M14.696 12.994h9.3c0-.028.004-.055.004-.085C24 5.78 18.22 0 11.09 0v9.304" transform="translate(-172.000000, -450.000000) translate(0.000000, 112.000000) translate(16.000000, 162.000000) translate(117.000000, 148.000000) translate(27.000000, 16.000000) translate(12.000000, 12.000000) translate(4.000000, 4.000000)"/>
                                    <path stroke="#666" d="M11.09 9.304c1.992 0 3.605 1.615 3.605 3.606 0 1.991-1.613 3.604-3.605 3.604-1.99 0-3.605-1.613-3.605-3.604S9.1 9.304 11.09 9.304" transform="translate(-172.000000, -450.000000) translate(0.000000, 112.000000) translate(16.000000, 162.000000) translate(117.000000, 148.000000) translate(27.000000, 16.000000) translate(12.000000, 12.000000) translate(4.000000, 4.000000)"/>
                                    <path fill="#666" d="M11.935 12.91c0 .466-.378.844-.844.844-.467 0-.846-.378-.846-.844 0-.467.379-.845.846-.845.466 0 .844.378.844.845" transform="translate(-172.000000, -450.000000) translate(0.000000, 112.000000) translate(16.000000, 162.000000) translate(117.000000, 148.000000) translate(27.000000, 16.000000) translate(12.000000, 12.000000) translate(4.000000, 4.000000)"/>
                                    <path stroke="#666" stroke-linecap="round" stroke-linejoin="round" d="M5.347 21.142c0 1.477-1.196 2.674-2.674 2.674C1.197 23.816 0 22.619 0 21.142c0-1.476 2.673-5.159 2.673-5.159s2.674 3.683 2.674 5.16z" transform="translate(-172.000000, -450.000000) translate(0.000000, 112.000000) translate(16.000000, 162.000000) translate(117.000000, 148.000000) translate(27.000000, 16.000000) translate(12.000000, 12.000000) translate(4.000000, 4.000000)"/>
                                </g>
                            </g>
                        </g>
                    </g>
                </g>
            </g>
        </g>
    </g>
</svg>
