<svg xmlns="http://www.w3.org/2000/svg" width="40" height="40" viewBox="0 0 40 40">
    <g fill="none" fill-rule="evenodd">
        <g>
            <g>
                <g>
                    <g>
                        <g>
                            <g>
                                <path d="M0 0H40V40H0z" transform="translate(-244.000000, -570.000000) translate(0.000000, 112.000000) translate(16.000000, 250.000000) translate(24.000000, 24.000000) translate(152.000000, 168.000000) translate(52.000000, 16.000000)"/>
                                <g>
                                    <path fill="#FC0" d="M21.054 18.541L26 28.686 20.001 26.619 17.935 32.618 12.979 22.474M4.922 18.561L0 28.721 5.993 26.639 8.075 32.633 12.979 22.474" transform="translate(-244.000000, -570.000000) translate(0.000000, 112.000000) translate(16.000000, 250.000000) translate(24.000000, 24.000000) translate(152.000000, 168.000000) translate(52.000000, 16.000000) translate(7.000000, 4.000000)"/>
                                    <g>
                                        <path fill="#FFF" d="M24.085 11.108c0 6.134-4.973 11.107-11.107 11.107-6.135 0-11.108-4.973-11.108-11.107C1.87 4.973 6.843 0 12.978 0c6.134 0 11.107 4.973 11.107 11.108" transform="translate(-244.000000, -570.000000) translate(0.000000, 112.000000) translate(16.000000, 250.000000) translate(24.000000, 24.000000) translate(152.000000, 168.000000) translate(52.000000, 16.000000) translate(7.000000, 4.000000)"/>
                                        <path stroke="#222" stroke-linejoin="round" stroke-width="1.5" d="M24.085 11.108c0 6.134-4.973 11.107-11.107 11.107-6.135 0-11.108-4.973-11.108-11.107C1.87 4.973 6.843 0 12.978 0c6.134 0 11.107 4.973 11.107 11.108z" transform="translate(-244.000000, -570.000000) translate(0.000000, 112.000000) translate(16.000000, 250.000000) translate(24.000000, 24.000000) translate(152.000000, 168.000000) translate(52.000000, 16.000000) translate(7.000000, 4.000000)"/>
                                        <path stroke="#222" stroke-linejoin="round" stroke-width="1.5" d="M4.922 18.561L0 28.721 5.993 26.639 8.075 32.633 12.979 22.474M21.054 18.541L26 28.686 20.001 26.619 17.935 32.618 12.979 22.474" transform="translate(-244.000000, -570.000000) translate(0.000000, 112.000000) translate(16.000000, 250.000000) translate(24.000000, 24.000000) translate(152.000000, 168.000000) translate(52.000000, 16.000000) translate(7.000000, 4.000000)"/>
                                        <path fill="#FC0" d="M12.978 14.168L9.128 16.847 10.486 12.358 6.749 9.525 11.438 9.429 12.978 5 14.517 9.429 19.206 9.525 15.469 12.358 16.827 16.847z" transform="translate(-244.000000, -570.000000) translate(0.000000, 112.000000) translate(16.000000, 250.000000) translate(24.000000, 24.000000) translate(152.000000, 168.000000) translate(52.000000, 16.000000) translate(7.000000, 4.000000)"/>
                                    </g>
                                </g>
                            </g>
                        </g>
                    </g>
                </g>
            </g>
        </g>
    </g>
</svg>
