<svg xmlns="http://www.w3.org/2000/svg" width="41" height="40" viewBox="0 0 41 40">
    <g fill="none" fill-rule="evenodd">
        <g>
            <g>
                <g>
                    <g>
                        <g>
                            <g>
                                <path d="M0 0H40V40H0z" transform="translate(-124.000000, -816.000000) translate(0.000000, 88.000000) translate(16.000000, 268.000000) translate(0.000000, 120.000000) translate(0.000000, 340.000000) translate(108.500000, 0.000000)"/>
                                <g>
                                    <path stroke="#222" stroke-linecap="round" d="M14 10.767c2.152 0 4.047 1.074 5.201 2.707L28 7.27C24.895 2.876 19.788 0 14 0S3.104 2.876 0 7.27l8.799 6.204c1.154-1.633 3.048-2.707 5.2-2.707z" transform="translate(-124.000000, -816.000000) translate(0.000000, 88.000000) translate(16.000000, 268.000000) translate(0.000000, 120.000000) translate(0.000000, 340.000000) translate(108.500000, 0.000000) translate(6.000000, 13.000000)"/>
                                    <path stroke="#222" stroke-linecap="round" d="M19.202 13.475c-1.154-1.633-3.05-2.707-5.202-2.707-2.154 0-4.046 1.074-5.202 2.707" transform="translate(-124.000000, -816.000000) translate(0.000000, 88.000000) translate(16.000000, 268.000000) translate(0.000000, 120.000000) translate(0.000000, 340.000000) translate(108.500000, 0.000000) translate(6.000000, 13.000000)"/>
                                    <path fill="#1D1D1B" d="M15.143 14.114c0 .632-.511 1.144-1.144 1.144-.63 0-1.142-.512-1.142-1.144 0-.631.512-1.143 1.142-1.143.633 0 1.144.512 1.144 1.143" transform="translate(-124.000000, -816.000000) translate(0.000000, 88.000000) translate(16.000000, 268.000000) translate(0.000000, 120.000000) translate(0.000000, 340.000000) translate(108.500000, 0.000000) translate(6.000000, 13.000000)"/>
                                    <path stroke="#222" d="M15.143 14.114c0 .632-.511 1.144-1.144 1.144-.63 0-1.142-.512-1.142-1.144 0-.631.512-1.143 1.142-1.143.633 0 1.144.512 1.144 1.143z" transform="translate(-124.000000, -816.000000) translate(0.000000, 88.000000) translate(16.000000, 268.000000) translate(0.000000, 120.000000) translate(0.000000, 340.000000) translate(108.500000, 0.000000) translate(6.000000, 13.000000)"/>
                                    <path stroke="#222" stroke-linecap="round" d="M13.999 14.114L21.311 7.741M16.96 9.173L21.881 4.882" transform="translate(-124.000000, -816.000000) translate(0.000000, 88.000000) translate(16.000000, 268.000000) translate(0.000000, 120.000000) translate(0.000000, 340.000000) translate(108.500000, 0.000000) translate(6.000000, 13.000000)"/>
                                </g>
                            </g>
                        </g>
                    </g>
                </g>
            </g>
        </g>
    </g>
</svg>
