<svg xmlns="http://www.w3.org/2000/svg" width="56" height="56" viewBox="0 0 56 56">
    <g fill="none" fill-rule="evenodd">
        <g>
            <g>
                <g>
                    <g transform="translate(-40.000000, -2425.000000) translate(16.000000, 1849.000000) translate(24.000000, 536.000000) translate(0.000000, 40.000000)">
                        <rect width="56" height="56" fill="#F8F8F8" rx="18"/>
                        <g>
                            <path d="M0 0H32V32H0z" transform="translate(12.000000, 12.000000)"/>
                            <g>
                                <path stroke="#222" stroke-width="1.5" d="M22.137 5.823L25.453 4.756M3.317 5.823L0 4.756" transform="translate(12.000000, 12.000000) translate(2.000000, 4.500000)"/>
                                <path fill="#FFF" d="M25.355 16.227H.962V8.172c0-1.326 1.062-2.4 2.373-2.4h19.647c1.31 0 2.373 1.074 2.373 2.4v8.055z" transform="translate(12.000000, 12.000000) translate(2.000000, 4.500000)"/>
                                <path fill="#FEFEFE" d="M18.386 16.227H7.932l.697-2.091c.244-.736 1.087-1.394 2.09-1.394h4.879c1.004 0 1.846.658 2.09 1.394l.698 2.09z" transform="translate(12.000000, 12.000000) translate(2.000000, 4.500000)"/>
                                <path stroke="#222" stroke-width="1.5" d="M26 16.227H.265V7.863c0-1.017 1.092-2.09 2.091-2.09h20.211c1.68 0 2.773 1.073 2.788 2.09v7.997" transform="translate(12.000000, 12.000000) translate(2.000000, 4.500000)"/>
                                <path fill="#FFF" stroke="#222" stroke-width="1.5" d="M22 5.79H3l2.111-4.503C5.324.545 6.205 0 7.222 0h10.556c1.017 0 1.9.545 2.11 1.287L22 5.79z" transform="translate(12.000000, 12.000000) translate(2.000000, 4.500000)"/>
                                <path fill="#070100" d="M7.235 10.651c0-.77-.624-1.394-1.394-1.394-.769 0-1.394.624-1.394 1.394 0 .77.625 1.394 1.394 1.394.77 0 1.394-.625 1.394-1.394M21.87 10.651c0-.77-.623-1.394-1.393-1.394s-1.394.624-1.394 1.394c0 .77.625 1.394 1.394 1.394.77 0 1.393-.625 1.393-1.394" transform="translate(12.000000, 12.000000) translate(2.000000, 4.500000)"/>
                                <path stroke="#222" stroke-width="1.5" d="M3.75 16.227v3.484c0 .421-.268.697-.697.697H.963c-.43 0-.698-.276-.698-.697v-3.484" transform="translate(12.000000, 12.000000) translate(2.000000, 4.500000)"/>
                                <path stroke="#222" d="M21.87 16.227v3.484c0 .421.27.697.697.697h2.091c.428 0 .697-.276.697-.697v-3.484" transform="translate(12.000000, 12.000000) translate(2.000000, 4.500000)"/>
                            </g>
                            <g>
                                <path fill="#FC0" stroke="#222" stroke-width="1.5" d="M14.567 9.048l-4.302-7.452C9.688.596 8.655 0 7.5 0 6.346 0 5.312.597 4.735 1.596L.433 9.048c-.577 1-.577 2.193 0 3.192.577 1 1.61 1.597 2.765 1.597h8.604c1.154 0 2.188-.597 2.765-1.597s.577-2.193 0-3.192" transform="translate(12.000000, 12.000000) translate(16.000000, 14.400000)"/>
                                <path fill="#222" d="M8.163 8.46H6.858l-.274-4.075h1.853l-.274 4.074zm-1.6 1.426c0-.262.09-.445.273-.551.183-.105.406-.158.67-.158.255 0 .474.053.657.158.183.106.274.289.274.55 0 .252-.091.432-.274.543-.183.111-.402.167-.658.167-.263 0-.486-.056-.669-.167-.183-.111-.274-.291-.274-.542z" transform="translate(12.000000, 12.000000) translate(16.000000, 14.400000)"/>
                            </g>
                        </g>
                    </g>
                </g>
            </g>
        </g>
    </g>
</svg>
