<svg xmlns="http://www.w3.org/2000/svg" width="40" height="40" viewBox="0 0 40 40">
    <g fill="none" fill-rule="evenodd">
        <g>
            <g>
                <g>
                    <g>
                        <g>
                            <g>
                                <path d="M0 0H40V40H0z" transform="translate(-299.000000, -516.000000) translate(0.000000, 88.000000) translate(16.000000, 268.000000) translate(0.000000, 120.000000) translate(0.000000, 40.000000) translate(283.000000, 0.000000)"/>
                                <g>
                                    <path stroke="#19191D" d="M14.863 14.732l1.683.492c.566.166.958.699.958 1.306v5.112c0 .75-.59 1.358-1.317 1.358H1.315C.589 23 0 22.392 0 21.642V16.53c0-.607.39-1.14.957-1.306l1.682-.492" transform="translate(-299.000000, -516.000000) translate(0.000000, 88.000000) translate(16.000000, 268.000000) translate(0.000000, 120.000000) translate(0.000000, 40.000000) translate(283.000000, 0.000000) translate(11.000000, 9.000000)"/>
                                    <path stroke="#19191D" d="M12.921 18.592H4.564c-.633 0-1.18-.44-1.316-1.057l-.587-2.66c-.02-.095-.03-.192-.03-.29V5.44c0-1 .81-1.812 1.812-1.812h8.617c1.002 0 1.813.811 1.813 1.812v9.14c0 .1-.01.2-.033.298l-.604 2.663c-.139.614-.685 1.05-1.315 1.05z" transform="translate(-299.000000, -516.000000) translate(0.000000, 88.000000) translate(16.000000, 268.000000) translate(0.000000, 120.000000) translate(0.000000, 40.000000) translate(283.000000, 0.000000) translate(11.000000, 9.000000)"/>
                                    <path stroke="#19191D" d="M11.524 3.629H5.979V1.565C5.98.704 6.683 0 7.544 0H9.96c.86 0 1.565.704 1.565 1.565v2.064z" transform="translate(-299.000000, -516.000000) translate(0.000000, 88.000000) translate(16.000000, 268.000000) translate(0.000000, 120.000000) translate(0.000000, 40.000000) translate(283.000000, 0.000000) translate(11.000000, 9.000000)"/>
                                    <path stroke="#050101" d="M9.933 8.756c0 .82-.529 1.486-1.182 1.486-.652 0-1.181-.666-1.181-1.486S8.1 7.27 8.751 7.27c.653 0 1.182.666 1.182 1.486zM7.328 13.655c-.41.71-1.201 1.022-1.766.696-.565-.327-.691-1.167-.28-1.878.41-.71 1.2-1.021 1.766-.695.565.327.691 1.167.28 1.877z" transform="translate(-299.000000, -516.000000) translate(0.000000, 88.000000) translate(16.000000, 268.000000) translate(0.000000, 120.000000) translate(0.000000, 40.000000) translate(283.000000, 0.000000) translate(11.000000, 9.000000)"/>
                                    <path stroke="#050101" d="M12.266 13.655c-.41.71-1.201 1.022-1.766.696-.565-.327-.691-1.167-.28-1.878.41-.71 1.2-1.021 1.766-.695.565.327.69 1.167.28 1.877z" transform="translate(-299.000000, -516.000000) translate(0.000000, 88.000000) translate(16.000000, 268.000000) translate(0.000000, 120.000000) translate(0.000000, 40.000000) translate(283.000000, 0.000000) translate(11.000000, 9.000000) translate(11.242735, 13.064274) scale(-1, 1) translate(-11.242735, -13.064274)"/>
                                </g>
                            </g>
                        </g>
                    </g>
                </g>
            </g>
        </g>
    </g>
</svg>
