<svg xmlns="http://www.w3.org/2000/svg" width="10" height="4" viewBox="0 0 10 4">
    <g fill="none" fill-rule="evenodd">
        <g fill="#666" fill-rule="nonzero">
            <g>
                <g>
                    <g>
                        <g>
                            <path d="M130.135 52c1.332.02 2.628-.908 2.865-3.198-.547-.198-.985-.375-1.533-.592-.091 1.105-.712 1.875-1.35 1.875-.73 0-1.424-.612-2.08-1.106-.511-.454-1.04-.809-1.898-.947-1.26-.197-2.665.493-3.139 2.823.474.237.93.493 1.423.75.201-1.086.876-1.757 1.57-1.658h-.019c.548.059 1.46.77 2.044 1.263.566.434 1.278.75 2.117.79z" transform="translate(-182.000000, -4657.000000) translate(0.000000, 112.000000) translate(16.000000, 4292.000000) translate(0.000000, 46.000000) translate(43.000000, 159.000000)"/>
                        </g>
                    </g>
                </g>
            </g>
        </g>
    </g>
</svg>
