<svg xmlns="http://www.w3.org/2000/svg" width="56" height="56" viewBox="0 0 56 56">
    <g fill="none" fill-rule="evenodd">
        <g>
            <g>
                <g>
                    <g transform="translate(-40.000000, -2216.000000) translate(16.000000, 1849.000000) translate(24.000000, 327.000000) translate(0.000000, 40.000000)">
                        <rect width="56" height="56" fill="#F8F8F8" rx="18"/>
                        <g>
                            <path d="M0 0H32V32H0z" transform="translate(12.000000, 12.000000)"/>
                            <g stroke="#222">
                                <path fill="#FFF" stroke-width="1.5" d="M14.42 2.403h2.404c1.327 0 2.403 1.077 2.403 2.404v19.227H2.404C1.076 24.034 0 22.957 0 21.631V2.403h4.807" transform="translate(12.000000, 12.000000) translate(2.000000, 2.000000)"/>
                                <path fill="#FFF" stroke-width="1.5" d="M4.807 2.403L6.369.451C6.596.166 6.942 0 7.308 0h4.612c.365 0 .71.166.938.45l1.562 1.953v1.202c0 .663-.538 1.202-1.201 1.202h-7.21c-.664 0-1.202-.539-1.202-1.202V2.403z" transform="translate(12.000000, 12.000000) translate(2.000000, 2.000000)"/>
                                <path stroke-linecap="round" stroke-width="1.3" d="M6.809 8.813L4.806 10.816 3.605 9.614M6.809 13.62L4.806 15.623 3.605 14.421M9.684 9.614L15.547 9.614M9.684 14.42L13.547 14.42" transform="translate(12.000000, 12.000000) translate(2.000000, 2.000000)"/>
                            </g>
                            <g>
                                <path fill="#FC0" d="M9.662 3.713H5.263C2.711 4.801 0 7.824 0 10.995c0 3.97 3.358 4.051 7.5 4.051 4.142 0 7.5-.082 7.5-4.05 0-3.172-2.786-6.195-5.338-7.283" transform="translate(12.000000, 12.000000) translate(15.000000, 14.000000)"/>
                                <path fill="#FC0" d="M5.263 3.713L3.43 1.02c-.088-.13-.043-.295.103-.38l.373-.218c1.062-.62 2.497-.55 3.465.167l.332.245c.37.275.889.365 1.361.238l1.012-.273c.588-.159 1.116.349.841.809L9.662 3.713" transform="translate(12.000000, 12.000000) translate(15.000000, 14.000000)"/>
                                <path stroke="#222" stroke-width="1.5" d="M9.662 3.713H5.263C2.711 4.801 0 7.824 0 10.995c0 3.97 3.358 4.051 7.5 4.051 4.142 0 7.5-.082 7.5-4.05 0-3.172-2.786-6.195-5.338-7.283z" transform="translate(12.000000, 12.000000) translate(15.000000, 14.000000)"/>
                                <path stroke="#222" stroke-width="1.5" d="M5.263 3.713L3.43 1.02c-.088-.13-.043-.295.103-.38l.373-.218c1.062-.62 2.497-.55 3.465.167l.332.245c.37.275.889.365 1.361.238l1.012-.273c.588-.159 1.116.349.841.809L9.662 3.713" transform="translate(12.000000, 12.000000) translate(15.000000, 14.000000)"/>
                                <path stroke="#222" stroke-width="1.3" d="M5.092 12.158L5.092 8.2 7.623 10.401 10.092 8.2 10.092 12.158" transform="translate(12.000000, 12.000000) translate(15.000000, 14.000000)"/>
                            </g>
                        </g>
                    </g>
                </g>
            </g>
        </g>
    </g>
</svg>
