<svg xmlns="http://www.w3.org/2000/svg" xmlns:xlink="http://www.w3.org/1999/xlink" width="24" height="24" viewBox="0 0 24 24">
    <defs>
        <path id="78yf7yybea" d="M0 0L24 0 24 24 0 24z"/>
    </defs>
    <g fill="none" fill-rule="evenodd">
        <g>
            <g>
                <g>
                    <g>
                        <g>
                            <g>
                                <g transform="translate(-90.000000, -5908.000000) translate(0.000000, 112.000000) translate(16.000000, 4299.000000) translate(0.000000, 1337.000000) translate(24.000000, 132.000000) translate(36.000000, 12.000000) translate(14.000000, 16.000000)">
                                    <mask id="m2b6glziyb" fill="#fff">
                                        <use xlink:href="#78yf7yybea"/>
                                    </mask>
                                    <path fill="#FF9C49" d="M24 12c0 6.627-5.373 12-12 12S0 18.627 0 12 5.373 0 12 0s12 5.373 12 12" mask="url(#m2b6glziyb)"/>
                                    <g mask="url(#m2b6glziyb)">
                                        <g>
                                            <path fill="#FFF" d="M3.864 4.927c.234.351.71.446 1.061.212.351-.235.447-.71.212-1.062-.235-.351-.71-.447-1.062-.212-.351.235-.446.71-.211 1.062" transform="translate(7.500000, 7.500000)"/>
                                            <path stroke="#FFF" stroke-width=".75" d="M2.763 4.403l-.472-.24c-.393-.198-.476-.053-.465.4.011.47.195.988.44 1.343.251.36.413.44.612.046l.24-.472c.198-.394.038-.878-.355-1.077zM4.02 2.77l.066-.525c.055-.437-.11-.467-.533-.303-.439.168-.865.514-1.116.866-.256.357-.275.536.163.591l.524.066c.438.055.84-.258.895-.695zM5.034 6.1c-.312-.31-.822-.31-1.134 0l-.374.374c-.312.312-.2.436.235.567.45.136.998.124 1.412 0 .422-.125.546-.255.235-.567l-.374-.373zM6.402 3.405c.437-.054.418-.233.163-.591-.251-.35-.676-.698-1.114-.868-.423-.164-.588-.135-.534.303l.066.525c.054.437.456.75.894.696.131-.015.394-.048.525-.065zM6.717 4.134l-.472.238c-.394.198-.554.682-.356 1.076l.238.473c.198.393.36.315.612-.045.247-.355.43-.872.443-1.341.012-.455-.071-.6-.465-.401z" transform="translate(7.500000, 7.500000)"/>
                                            <path stroke="#FFF" stroke-width=".75" d="M7.932 4.5c0 1.896-1.536 3.432-3.432 3.432-1.895 0-3.432-1.536-3.432-3.432S2.605 1.068 4.5 1.068c1.896 0 3.432 1.536 3.432 3.432z" transform="translate(7.500000, 7.500000)"/>
                                            <path stroke="#FFF" d="M9 4.5C9 6.985 6.985 9 4.5 9S0 6.985 0 4.5 2.015 0 4.5 0 9 2.015 9 4.5z" transform="translate(7.500000, 7.500000)"/>
                                        </g>
                                    </g>
                                    <g mask="url(#m2b6glziyb)">
                                        <g transform="translate(4.800279, 4.200000)">
                                            <circle cx="7.2" cy="7.799" r="6.7" stroke="#FFF"/>
                                            <path fill="#FFF" d="M15 4.2c0 2.32-1.881 4.2-4.2 4.2-2.32 0-4.2-1.88-4.2-4.2C6.6 1.88 8.48 0 10.8 0 13.119 0 15 1.88 15 4.2"/>
                                            <g>
                                                <path fill="#FF9C49" d="M4.547 3c0 .855-.692 1.547-1.546 1.547-.855 0-1.548-.692-1.548-1.547 0-.854.693-1.547 1.548-1.547.854 0 1.546.693 1.546 1.547M3 1.204c-.104 0-.19-.085-.19-.189V.19C2.81.085 2.897 0 3 0c.103 0 .188.085.188.19v.825c0 .104-.085.189-.188.189M1.73 1.73c-.074.074-.194.074-.267 0l-.585-.584C.805 1.073.805.953.878.88c.074-.073.194-.073.268 0l.584.585c.073.073.073.193 0 .266M1.204 3c0 .104-.085.19-.189.19H.19C.086 3.19 0 3.103 0 3c0-.103.086-.188.189-.188h.826c.104 0 .189.085.189.189M1.73 4.27c.074.074.074.194 0 .268l-.584.584c-.073.073-.193.073-.267 0-.073-.073-.073-.194 0-.267l.585-.584c.073-.074.193-.074.266 0M3 4.796c.105 0 .19.085.19.189v.826c0 .104-.085.19-.19.19-.103 0-.188-.086-.188-.19v-.826c0-.104.085-.189.189-.189M4.27 4.27c.074-.074.194-.074.268 0l.584.584c.073.073.073.194 0 .267-.074.074-.194.074-.267 0l-.584-.584c-.074-.074-.074-.194 0-.267M4.796 3c0-.104.086-.19.19-.19h.825c.104 0 .189.086.189.19 0 .103-.085.188-.189.188h-.826c-.103 0-.189-.085-.189-.189M4.27 1.73c-.074-.074-.074-.194 0-.267l.584-.585c.073-.073.194-.073.267 0 .074.073.074.194 0 .267l-.585.584c-.072.074-.193.074-.266 0" transform="translate(7.799721, 1.200000)"/>
                                            </g>
                                        </g>
                                    </g>
                                </g>
                            </g>
                        </g>
                    </g>
                </g>
            </g>
        </g>
    </g>
</svg>
