<svg xmlns="http://www.w3.org/2000/svg" xmlns:xlink="http://www.w3.org/1999/xlink" width="296" height="168" viewBox="0 0 296 168">
    <defs>
        <rect id="2rssb8fnqa" width="1" height="118" x="158" y="25" rx=".5"/>
        <mask id="lp4y8niseb" width="1" height="118" x="0" y="0" fill="#fff" maskContentUnits="userSpaceOnUse" maskUnits="objectBoundingBox">
            <use xlink:href="#2rssb8fnqa"/>
        </mask>
    </defs>
    <g fill="none" fill-rule="evenodd">
        <g>
            <g>
                <g>
                    <g transform="translate(-40.000000, -460.000000) translate(0.000000, 112.000000) translate(16.000000, 157.000000) translate(24.000000, 191.000000)">
                        <g>
                            <path stroke="#EEE" stroke-linecap="square" d="M58 144L295 144M58 104L295 104M58 64L295 64M58 24L295 24"/>
                            <use stroke="#FC0" stroke-dasharray="2 3" stroke-width="2" mask="url(#lp4y8niseb)" xlink:href="#2rssb8fnqa"/>
                            <text fill="#222" font-family="AppleSDGothicNeo-Bold, Apple SD Gothic Neo" font-size="12" font-weight="bold" letter-spacing=".2">
                                <tspan x="148.42" y="11">평균</tspan>
                            </text>
                            <text fill="#666" font-family="AppleSDGothicNeo-Regular, Apple SD Gothic Neo" font-size="12" letter-spacing=".2">
                                <tspan x=".824" y="27">7년 이하</tspan>
                            </text>
                            <text fill="#666" font-family="AppleSDGothicNeo-Regular, Apple SD Gothic Neo" font-size="12" letter-spacing=".2">
                                <tspan x=".716" y="67">5년 이하</tspan>
                            </text>
                            <text fill="#666" font-family="AppleSDGothicNeo-Regular, Apple SD Gothic Neo" font-size="12" letter-spacing=".2">
                                <tspan x=".272" y="107">3년 이하</tspan>
                            </text>
                            <text fill="#666" font-family="AppleSDGothicNeo-Regular, Apple SD Gothic Neo" font-size="12" letter-spacing=".2">
                                <tspan x="2.42" y="147">1년 이하</tspan>
                            </text>
                        </g>
                        <text fill="#666" font-family="AppleSDGothicNeo-Regular, Apple SD Gothic Neo" font-size="12" letter-spacing=".2">
                            <tspan x="58.12" y="163">0</tspan>
                        </text>
                        <text fill="#666" font-family="AppleSDGothicNeo-Regular, Apple SD Gothic Neo" font-size="12" letter-spacing=".2">
                            <tspan x="78.26" y="163">500km</tspan>
                        </text>
                        <text fill="#666" font-family="AppleSDGothicNeo-Regular, Apple SD Gothic Neo" font-size="12" letter-spacing=".2">
                            <tspan x="127.776" y="163">1,000km</tspan>
                        </text>
                        <text fill="#666" font-family="AppleSDGothicNeo-Regular, Apple SD Gothic Neo" font-size="12" letter-spacing=".2">
                            <tspan x="186.22" y="163">2,000km</tspan>
                        </text>
                        <text fill="#666" font-family="AppleSDGothicNeo-Regular, Apple SD Gothic Neo" font-size="12" letter-spacing=".2">
                            <tspan x="246.702" y="163">3,000km</tspan>
                        </text>
                        <circle cx="100" cy="31" r="4" fill="#DDD"/>
                        <circle cx="70" cy="43" r="4" fill="#DDD"/>
                        <circle cx="79" cy="53" r="4" fill="#DDD"/>
                        <circle cx="219" cy="64" r="4" fill="#DDD"/>
                        <circle cx="120" cy="127" r="4" fill="#DDD"/>
                        <circle cx="137" cy="117" r="4" fill="#DDD"/>
                        <circle cx="122" cy="104" r="4" fill="#DDD"/>
                        <circle cx="150" cy="96" r="4" fill="#DDD"/>
                        <circle cx="260" cy="31" r="4" fill="#DDD"/>
                        <circle cx="207" cy="104" r="4" fill="#DDD"/>
                        <g transform="translate(147.000000, 65.000000)">
                            <rect width="110" height="24" y="5" fill="#434C53" rx="12"/>
                            <text fill="#FFF" font-family="AppleSDGothicNeo-Regular, Apple SD Gothic Neo" font-size="12" letter-spacing=".2">
                                <tspan x="8.158" y="20">주행거리 </tspan> <tspan x="53.834" y="20" font-family="AppleSDGothicNeo-Bold, Apple SD Gothic Neo" font-weight="bold">2,999km</tspan>
                            </text>
                            <g>
                                <g>
                                    <path fill="#434C53" d="M1.68 1.563L9.682 9H0V2.295c0-.552.448-1 1-1 .253 0 .496.096.68.268z" transform="translate(54.000000, 0.000000) translate(1.000000, 0.000000)"/>
                                    <path stroke="#434C53" d="M10 8.618L1.653 1.424c-.419-.36-1.05-.313-1.41.105-.157.182-.243.413-.243.653V9h0" transform="translate(54.000000, 0.000000) translate(1.000000, 0.000000)"/>
                                </g>
                            </g>
                        </g>
                        <g fill="#FC0" transform="translate(194.000000, 47.000000)">
                            <circle cx="8" cy="8" r="8" opacity=".3"/>
                            <circle cx="8" cy="8" r="4"/>
                        </g>
                    </g>
                </g>
            </g>
        </g>
    </g>
</svg>
