<svg xmlns="http://www.w3.org/2000/svg" xmlns:xlink="http://www.w3.org/1999/xlink" width="56" height="56" viewBox="0 0 56 56">
    <defs>
        <path id="r9qyenh4ua" d="M0 0L48 0 48 24 0 24z"/>
        <path id="s4083mewvc" d="M0 0L28 0 28 25.829 0 25.829z"/>
    </defs>
    <g fill="none" fill-rule="evenodd">
        <g>
            <g>
                <g>
                    <g>
                        <path d="M0 0H56V56H0z" transform="translate(-40.000000, -2333.000000) translate(16.000000, 686.000000) translate(24.000000, 1615.000000) translate(0.000000, 32.000000)"/>
                        <g>
                            <g transform="translate(-40.000000, -2333.000000) translate(16.000000, 686.000000) translate(24.000000, 1615.000000) translate(0.000000, 32.000000) translate(1.000000, 10.000000)">
                                <mask id="3qlb2ejt1b" fill="#fff">
                                    <use xlink:href="#r9qyenh4ua"/>
                                </mask>
                                <path fill="#05B197" d="M9.48 10.166c.863 0 1.69-.383 2.29-1.061l6.748-7.626C19.354.534 20.505 0 21.708 0h12.707c5.178 0 9.375 4.586 9.375 10.242 1.833.373 3.221 2.126 3.221 4.236v2.69c.573.207.989.789.989 1.484v4.276c0 .592-.44 1.072-.981 1.072H1.453C.651 24 0 23.29 0 22.413v-1.891c0-5.72 4.245-10.356 9.48-10.356" mask="url(#3qlb2ejt1b)"/>
                            </g>
                            <path fill="#FFF" d="M32.053 9.33h8.133c.217 0 .392-.176.392-.393 0-3.735-3.028-6.762-6.763-6.762h-1.762c-.41 0-.744.331-.744.742v5.669c0 .41.333.743.744.743M16.546 9.33h12c.35 0 .633-.284.633-.634v-5.89c0-.35-.284-.632-.633-.632h-6.068c-.707 0-1.379.306-1.843.84l-4.567 5.269c-.355.41-.064 1.046.478 1.046" transform="translate(-40.000000, -2333.000000) translate(16.000000, 686.000000) translate(24.000000, 1615.000000) translate(0.000000, 32.000000) translate(1.000000, 10.000000)"/>
                            <path fill="#5E6063" d="M32.008 22.946c0 3.064 2.485 5.549 5.55 5.549 3.064 0 5.55-2.485 5.55-5.55 0-3.064-2.486-5.55-5.55-5.55-3.065 0-5.55 2.486-5.55 5.55" transform="translate(-40.000000, -2333.000000) translate(16.000000, 686.000000) translate(24.000000, 1615.000000) translate(0.000000, 32.000000) translate(1.000000, 10.000000)"/>
                            <path fill="#E8E8E8" d="M34.984 22.946c0 1.42 1.153 2.573 2.574 2.573 1.421 0 2.573-1.152 2.573-2.573 0-1.422-1.152-2.575-2.573-2.575s-2.574 1.153-2.574 2.575" transform="translate(-40.000000, -2333.000000) translate(16.000000, 686.000000) translate(24.000000, 1615.000000) translate(0.000000, 32.000000) translate(1.000000, 10.000000)"/>
                            <path fill="#5E6063" d="M5.727 22.946c0 3.064 2.485 5.549 5.55 5.549 3.064 0 5.549-2.485 5.549-5.55 0-3.064-2.485-5.55-5.55-5.55-3.064 0-5.549 2.486-5.549 5.55" transform="translate(-40.000000, -2333.000000) translate(16.000000, 686.000000) translate(24.000000, 1615.000000) translate(0.000000, 32.000000) translate(1.000000, 10.000000)"/>
                            <path fill="#E8E8E8" d="M8.703 22.946c0 1.42 1.152 2.573 2.574 2.573 1.421 0 2.573-1.152 2.573-2.573 0-1.422-1.152-2.575-2.573-2.575-1.422 0-2.574 1.153-2.574 2.575" transform="translate(-40.000000, -2333.000000) translate(16.000000, 686.000000) translate(24.000000, 1615.000000) translate(0.000000, 32.000000) translate(1.000000, 10.000000)"/>
                            <path fill="#FFF" d="M26.667 14.242h2.06c.249 0 .452-.203.452-.451s-.203-.451-.452-.451h-2.06c-.248 0-.451.203-.451.45 0 .249.203.452.451.452" transform="translate(-40.000000, -2333.000000) translate(16.000000, 686.000000) translate(24.000000, 1615.000000) translate(0.000000, 32.000000) translate(1.000000, 10.000000)"/>
                            <path fill="#FC6559" d="M.942 16.73c.672-1.401 1.675-2.608 2.91-3.524.12.675.14 1.492-.214 2.2-.557 1.11-1.728 1.458-2.696 1.323" transform="translate(-40.000000, -2333.000000) translate(16.000000, 686.000000) translate(24.000000, 1615.000000) translate(0.000000, 32.000000) translate(1.000000, 10.000000)"/>
                            <path fill="#FFA300" d="M45.853 19.845h1.67c.48 0 .871-.392.871-.87V18.5c0-.48-.392-.871-.87-.871h-1.671c-.48 0-.87.392-.87.87v.475c0 .478.39.87.87.87" transform="translate(-40.000000, -2333.000000) translate(16.000000, 686.000000) translate(24.000000, 1615.000000) translate(0.000000, 32.000000) translate(1.000000, 10.000000)"/>
                            <g>
                                <g transform="translate(-40.000000, -2333.000000) translate(16.000000, 686.000000) translate(24.000000, 1615.000000) translate(0.000000, 32.000000) translate(1.000000, 10.000000) translate(26.019278, 9.184336) translate(-0.000000, 0.000000)">
                                    <mask id="ytkh0dkw0d" fill="#fff">
                                        <use xlink:href="#s4083mewvc"/>
                                    </mask>
                                    <path fill="#FFB800" d="M27.193 16.89L19.162 2.98C18.085 1.114 16.155 0 14 0c-2.154 0-4.084 1.114-5.161 2.98L.808 16.89c-1.077 1.865-1.077 4.093 0 5.96 1.077 1.865 3.007 2.98 5.162 2.98h16.06c2.156 0 4.085-1.115 5.163-2.98 1.077-1.867 1.077-4.095 0-5.96" mask="url(#ytkh0dkw0d)"/>
                                </g>
                                <path fill="#FFF" d="M14 1.147c-1.716 0-3.254.888-4.112 2.375L1.802 17.527c-.858 1.486-.858 3.262 0 4.749.859 1.486 2.396 2.374 4.112 2.374h16.172c1.717 0 3.254-.888 4.112-2.374.858-1.487.858-3.263 0-4.749L18.113 3.522C17.254 2.035 15.717 1.147 14 1.147m0 1.817c.988 0 1.975.49 2.54 1.466l8.086 14.005c1.128 1.955-.283 4.399-2.54 4.399H5.914c-2.257 0-3.667-2.444-2.54-4.4L11.462 4.43c.564-.977 1.551-1.466 2.539-1.466" transform="translate(-40.000000, -2333.000000) translate(16.000000, 686.000000) translate(24.000000, 1615.000000) translate(0.000000, 32.000000) translate(1.000000, 10.000000) translate(26.019278, 9.184336)"/>
                                <path fill="#FFF" d="M14.965 15.79h-1.898l-.398-7.605h2.694l-.398 7.606zm-2.328 2.664c0-.489.132-.831.398-1.028.265-.197.591-.295.973-.295.372 0 .69.098.957.295.265.197.398.54.398 1.028 0 .468-.133.804-.398 1.012-.266.208-.585.312-.957.312-.382 0-.708-.104-.973-.312-.266-.208-.398-.544-.398-1.012z" transform="translate(-40.000000, -2333.000000) translate(16.000000, 686.000000) translate(24.000000, 1615.000000) translate(0.000000, 32.000000) translate(1.000000, 10.000000) translate(26.019278, 9.184336)"/>
                            </g>
                        </g>
                    </g>
                </g>
            </g>
        </g>
    </g>
</svg>
