<svg xmlns="http://www.w3.org/2000/svg" xmlns:xlink="http://www.w3.org/1999/xlink" width="56" height="56" viewBox="0 0 56 56">
    <defs>
        <path id="pcutuxzvoa" d="M0 0L42.913 0 42.913 12.874 0 12.874z"/>
        <path id="ldvnjzlaxc" d="M0 0L22.758 0 22.758 22.197 0 22.197z"/>
    </defs>
    <g fill="none" fill-rule="evenodd">
        <g>
            <g>
                <path d="M0 0H56V56H0z" transform="translate(-40.000000, -2136.000000) translate(40.000000, 2136.000000)"/>
                <g>
                    <path fill="#2D4969" d="M32.184 26.82v4.291c0 1.185.96 2.146 2.146 2.146h3.218c1.185 0 2.145-.961 2.145-2.146V26.82h-7.51zM3.219 26.82v4.291c0 1.185.96 2.146 2.145 2.146h3.218c1.185 0 2.146-.961 2.146-2.146V26.82h-7.51z" transform="translate(-40.000000, -2136.000000) translate(40.000000, 2136.000000) translate(3.000000, 11.000000)"/>
                    <path fill="#E6F2FF" d="M32.052 1.073H10.859c-1.968 0-3.684 1.34-4.162 3.25l-2.405 9.623 17.164 3.218 17.165-3.218-2.406-9.623c-.477-1.91-2.194-3.25-4.163-3.25" transform="translate(-40.000000, -2136.000000) translate(40.000000, 2136.000000) translate(3.000000, 11.000000)"/>
                    <path fill="#2589FF" d="M37.84 15.247L35.175 4.583c-.36-1.435-1.644-2.437-3.123-2.437H10.86c-1.48 0-2.764 1.002-3.123 2.437L5.07 15.247l-2.081-.52L5.656 4.062C6.254 1.67 8.394 0 10.86 0h21.192c2.466 0 4.605 1.67 5.204 4.062l2.666 10.665-2.082.52z" transform="translate(-40.000000, -2136.000000) translate(40.000000, 2136.000000) translate(3.000000, 11.000000)"/>
                    <g transform="translate(-40.000000, -2136.000000) translate(40.000000, 2136.000000) translate(3.000000, 11.000000) translate(0.000000, 13.946337)">
                        <mask id="6dbupk9jqb" fill="#fff">
                            <use xlink:href="#pcutuxzvoa"/>
                        </mask>
                        <path fill="#2589FF" d="M21.456 10.728l6.437 2.146h11.8c1.778 0 3.22-1.441 3.22-3.219V3.218C42.913 1.441 41.47 0 39.693 0H3.22C1.44 0-.001 1.44-.001 3.218v6.437c0 1.778 1.442 3.219 3.22 3.219h11.8l6.437-2.146z" mask="url(#6dbupk9jqb)"/>
                    </g>
                    <path fill="#2589FF" d="M5.364 16.092c-1.777 0-3.219 1.44-3.219 3.218v6.437c0 .323.062.628.151.922.295.09.599.15.922.15H15.02l6.436-2.145 6.437 2.146h11.8c1.778 0 3.22-1.441 3.22-3.218v-6.438c0-.322-.063-.628-.152-.922-.294-.088-.599-.15-.922-.15H5.364z" transform="translate(-40.000000, -2136.000000) translate(40.000000, 2136.000000) translate(3.000000, 11.000000)"/>
                    <path fill="#FFDC46" d="M38.62 20.383c0 1.185-.96 2.146-2.145 2.146-1.184 0-2.145-.96-2.145-2.146 0-1.185.96-2.146 2.145-2.146s2.146.96 2.146 2.146M4.291 20.383c0 1.185.961 2.146 2.146 2.146 1.184 0 2.145-.96 2.145-2.146 0-1.185-.96-2.146-2.145-2.146s-2.146.96-2.146 2.146" transform="translate(-40.000000, -2136.000000) translate(40.000000, 2136.000000) translate(3.000000, 11.000000)"/>
                    <path fill="#F3F3F3" d="M25.747 22.529h-8.582c-1.185 0-2.146.64-2.146 1.43v2.86h12.874v-2.86c0-.79-.96-1.43-2.146-1.43" transform="translate(-40.000000, -2136.000000) translate(40.000000, 2136.000000) translate(3.000000, 11.000000)"/>
                    <g>
                        <g transform="translate(-40.000000, -2136.000000) translate(40.000000, 2136.000000) translate(3.000000, 11.000000) translate(28.241561, 8.439806) translate(0.000000, 5.689472)">
                            <mask id="0wk4bylzsd" fill="#fff">
                                <use xlink:href="#ldvnjzlaxc"/>
                            </mask>
                            <path fill="#FFC031" d="M14.712 0H8.047C4.612 2.8 0 9.14 0 13.162c0 3.727 1.125 6.073 3.57 8.1.725.601 1.636.935 2.577.935H16.61c.941 0 1.852-.334 2.577-.935 2.445-2.027 3.57-4.373 3.57-8.1C22.759 9.14 18.147 2.8 14.713 0" mask="url(#0wk4bylzsd)"/>
                        </g>
                        <path fill="#FFC031" d="M14.49 5.69l2.454-3.842c.199-.19.158-.444-.09-.564l-.838-.402c-.249-.12-.667-.149-.93-.065l-1.135.364c-.264.084-.661.021-.886-.14L11.788.12c-.224-.161-.591-.161-.815 0l-1.276.92c-.224.16-.623.224-.886.14L7.675.817c-.263-.084-.682-.056-.931.065l-.839.402c-.25.12-.29.374-.09.565l2.454 3.84h6.22z" transform="translate(-40.000000, -2136.000000) translate(40.000000, 2136.000000) translate(3.000000, 11.000000) translate(28.241561, 8.439806)"/>
                        <path fill="#FFF" d="M14.49 6.435H8.269c-.413 0-.746-.334-.746-.745 0-.412.333-.746.746-.746h6.22c.412 0 .746.334.746.746 0 .411-.334.745-.745.745M11.18 14.148H9.866v2.948h1.316c.46 0 .845-.048 1.156-.144.307-.098.543-.256.706-.475.162-.219.243-.507.243-.862 0-.426-.124-.771-.375-1.039-.28-.285-.857-.428-1.73-.428m.474 4.421h-1.79V21.3c0 .39-.092.687-.276.889-.185.202-.417.303-.698.303-.294 0-.531-.1-.71-.3-.18-.2-.27-.492-.27-.879v-7.435c0-.43.099-.736.296-.921.198-.184.511-.276.94-.276h2.508c.741 0 1.311.057 1.71.171.395.11.737.291 1.024.546.286.254.505.566.654.934.15.368.224.783.224 1.243 0 .983-.302 1.728-.908 2.234-.605.508-1.507.76-2.704.76" transform="translate(-40.000000, -2136.000000) translate(40.000000, 2136.000000) translate(3.000000, 11.000000) translate(28.241561, 8.439806)"/>
                    </g>
                </g>
            </g>
        </g>
    </g>
</svg>
