<svg xmlns="http://www.w3.org/2000/svg" width="140" height="96" viewBox="0 0 140 96">
    <g fill="none" fill-rule="evenodd">
        <g>
            <g>
                <g>
                    <g>
                        <path d="M0 0H140V96H0z" transform="translate(-118.000000, -902.000000) translate(0.000000, 112.000000) translate(16.000000, 658.000000) translate(102.000000, 132.000000)"/>
                        <g>
                            <g fill="#DDD" opacity=".4" transform="translate(-118.000000, -902.000000) translate(0.000000, 112.000000) translate(16.000000, 658.000000) translate(102.000000, 132.000000) translate(9.000000, 11.000000) translate(0.000000, 50.508271)">
                                <ellipse cx="41.464" cy="13.898" rx="41.464" ry="9.45"/>
                                <ellipse cx="104.606" cy="10.006" rx="16.406" ry="10.006"/>
                            </g>
                            <g>
                                <path fill="#2D4969" d="M54.733 44.472v7.412c0 2.046 1.615 3.706 3.609 3.706h5.413c1.99 0 3.609-1.66 3.609-3.706v-7.412H54.733zM5.614 51.884c0 2.046 1.614 3.706 3.608 3.706h5.414c1.992 0 3.608-1.66 3.608-3.706v-7.412H5.614v7.412z" transform="translate(-118.000000, -902.000000) translate(0.000000, 112.000000) translate(16.000000, 658.000000) translate(102.000000, 132.000000) translate(9.000000, 11.000000) translate(4.422857, 12.061796)"/>
                                <path fill="#FFF" d="M60.525 8.113c-.802-3.136-3.678-5.333-6.979-5.333H18.028c-3.3 0-6.177 2.197-6.977 5.333l-4.034 15.79 28.77 5.282 28.77-5.281-4.032-15.791z" transform="translate(-118.000000, -902.000000) translate(0.000000, 112.000000) translate(16.000000, 658.000000) translate(102.000000, 132.000000) translate(9.000000, 11.000000) translate(4.422857, 12.061796)"/>
                                <path fill="#2589FF" d="M62.905 6.666c-1-3.924-4.577-6.666-8.7-6.666H18.772c-4.124 0-7.702 2.742-8.7 6.666L5.612 24.16l3.482.855L13.551 7.52c.601-2.354 2.749-4 5.222-4h35.431c2.475 0 4.623 1.646 5.224 4l4.456 17.496 3.48-.855-4.46-17.495z" transform="translate(-118.000000, -902.000000) translate(0.000000, 112.000000) translate(16.000000, 658.000000) translate(102.000000, 132.000000) translate(9.000000, 11.000000) translate(4.422857, 12.061796)"/>
                                <path fill="#2589FF" d="M72.977 39.26c0 2.338-1.616 4.316-3.843 4.977-.502.153-1.034.235-1.586.235H5.473C2.451 44.472 0 42.14 0 39.26V28.837c0-2.878 2.45-5.211 5.473-5.211h62.03c2.174 0 4.05 1.205 4.935 2.952l.284.08c.151.495.255 1.01.255 1.554z" transform="translate(-118.000000, -902.000000) translate(0.000000, 112.000000) translate(16.000000, 658.000000) translate(102.000000, 132.000000) translate(9.000000, 11.000000) translate(4.422857, 12.061796)"/>
                                <path fill="#FFF" d="M64.557 34.048c0 1.918-1.57 3.475-3.509 3.475-1.937 0-3.508-1.557-3.508-3.475 0-1.918 1.571-3.473 3.508-3.473 1.939 0 3.509 1.555 3.509 3.473M7.017 34.048c0 1.918 1.571 3.475 3.51 3.475 1.937 0 3.507-1.557 3.507-3.475 0-1.918-1.57-3.473-3.507-3.473-1.939 0-3.51 1.555-3.51 3.473" transform="translate(-118.000000, -902.000000) translate(0.000000, 112.000000) translate(16.000000, 658.000000) translate(102.000000, 132.000000) translate(9.000000, 11.000000) translate(4.422857, 12.061796)"/>
                            </g>
                            <g>
                                <g transform="translate(-118.000000, -902.000000) translate(0.000000, 112.000000) translate(16.000000, 658.000000) translate(102.000000, 132.000000) translate(9.000000, 11.000000) translate(89.537143, 0.000000) translate(2.110345, 54.476050)">
                                    <ellipse cx="13.19" cy="6.962" fill="#FFD743" rx="13.19" ry="6.962"/>
                                    <path fill="#FFE78E" fill-rule="nonzero" d="M11.888 11.782l1.139-3.72c0-.026.017-.086.052-.182l.069-.195h1.104c.023.16.058.284.104.376l.983 3.72h2.382l1.346-4.096h2.036V6.408h-1.622l1.087-3.195h-2.122l-.915 3.195h-1.743l-.845-3.195H12.75l-.95 3.195H9.973l-.828-3.195H6.935l.984 3.195H6.33v1.277h1.967l1.243 4.097h2.347zm2.602-4.284H14c.113-.334.203-.691.27-1.072l.22 1.072zM11.037 9.64c-.134-.722-.295-1.436-.485-2.142h1.055c-.034.106-.223.82-.57 2.142zm5.293 0c-.034-.145-.082-.365-.144-.659-.062-.294-.12-.563-.177-.808-.056-.244-.112-.47-.169-.675h1.03c-.191.603-.371 1.317-.54 2.142z"/>
                                </g>
                                <g transform="translate(-118.000000, -902.000000) translate(0.000000, 112.000000) translate(16.000000, 658.000000) translate(102.000000, 132.000000) translate(9.000000, 11.000000) translate(89.537143, 0.000000) translate(0.000000, 48.049611)">
                                    <path fill="#FC0" d="M15.3 3.213c6.967 0 12.846 2.608 14.695 6.176h.605v2.448c-.053 4.707-6.883 8.513-15.3 8.513-8.45 0-15.3-3.836-15.3-8.568l.001.054-.001.001V9.39h.605C2.454 5.82 8.333 3.213 15.3 3.213z"/>
                                    <ellipse cx="15.3" cy="8.569" fill="#FFE78E" rx="15.3" ry="8.569"/>
                                    <ellipse cx="15.3" cy="8.033" fill="#FC0" rx="13.19" ry="6.962"/>
                                    <path fill="#FFE78E" fill-rule="nonzero" d="M13.998 12.853l1.14-3.72c0-.026.017-.086.051-.182l.07-.195h1.104c.023.16.057.284.103.376l.984 3.72h2.381l1.346-4.096h2.037V7.48h-1.622l1.087-3.195h-2.123l-.915 3.195h-1.743l-.845-3.195H14.86l-.949 3.195h-1.83l-.828-3.195H9.045l.984 3.195H8.441v1.277h1.968l1.242 4.097h2.347zM16.6 8.569h-.49c.113-.334.203-.691.27-1.071l.22 1.07zm-3.452 2.142c-.134-.722-.296-1.436-.486-2.142h1.055c-.033.106-.223.82-.57 2.142zm5.292 0c-.034-.145-.081-.365-.143-.659-.062-.294-.121-.563-.178-.808-.056-.244-.112-.47-.168-.675h1.03c-.192.603-.372 1.317-.54 2.142z"/>
                                </g>
                                <g transform="translate(-118.000000, -902.000000) translate(0.000000, 112.000000) translate(16.000000, 658.000000) translate(102.000000, 132.000000) translate(9.000000, 11.000000) translate(89.537143, 0.000000) translate(0.000000, 41.623173)">
                                    <path fill="#FC0" d="M15.3 3.213c6.967 0 12.846 2.608 14.695 6.176h.605v2.448c-.053 4.707-6.883 8.513-15.3 8.513-8.45 0-15.3-3.836-15.3-8.568l.001.054-.001.001V9.39h.605C2.454 5.82 8.333 3.213 15.3 3.213z"/>
                                    <ellipse cx="15.3" cy="8.569" fill="#FFE78E" rx="15.3" ry="8.569"/>
                                    <ellipse cx="15.3" cy="8.033" fill="#FC0" rx="13.19" ry="6.962"/>
                                    <path fill="#FFE78E" fill-rule="nonzero" d="M13.998 12.853l1.14-3.72c0-.026.017-.086.051-.182l.07-.195h1.104c.023.16.057.284.103.376l.984 3.72h2.381l1.346-4.096h2.037V7.48h-1.622l1.087-3.195h-2.123l-.915 3.195h-1.743l-.845-3.195H14.86l-.949 3.195h-1.83l-.828-3.195H9.045l.984 3.195H8.441v1.277h1.968l1.242 4.097h2.347zM16.6 8.569h-.49c.113-.334.203-.691.27-1.071l.22 1.07zm-3.452 2.142c-.134-.722-.296-1.436-.486-2.142h1.055c-.033.106-.223.82-.57 2.142zm5.292 0c-.034-.145-.081-.365-.143-.659-.062-.294-.121-.563-.178-.808-.056-.244-.112-.47-.168-.675h1.03c-.192.603-.372 1.317-.54 2.142z"/>
                                </g>
                                <g transform="translate(-118.000000, -902.000000) translate(0.000000, 112.000000) translate(16.000000, 658.000000) translate(102.000000, 132.000000) translate(9.000000, 11.000000) translate(89.537143, 0.000000) translate(0.000000, 26.650389)">
                                    <path fill="#FC0" d="M15.3 3.213c6.967 0 12.846 2.608 14.695 6.176h.605v2.448c-.053 4.707-6.883 8.513-15.3 8.513-8.45 0-15.3-3.836-15.3-8.568l.001.054-.001.001V9.39h.605C2.454 5.82 8.333 3.213 15.3 3.213z"/>
                                    <ellipse cx="15.3" cy="8.569" fill="#FFE78E" rx="15.3" ry="8.569"/>
                                    <ellipse cx="15.3" cy="8.033" fill="#FC0" rx="13.19" ry="6.962"/>
                                    <path fill="#FFE78E" fill-rule="nonzero" d="M13.998 12.853l1.14-3.72c0-.026.017-.086.051-.182l.07-.195h1.104c.023.16.057.284.103.376l.984 3.72h2.381l1.346-4.096h2.037V7.48h-1.622l1.087-3.195h-2.123l-.915 3.195h-1.743l-.845-3.195H14.86l-.949 3.195h-1.83l-.828-3.195H9.045l.984 3.195H8.441v1.277h1.968l1.242 4.097h2.347zM16.6 8.569h-.49c.113-.334.203-.691.27-1.071l.22 1.07zm-3.452 2.142c-.134-.722-.296-1.436-.486-2.142h1.055c-.033.106-.223.82-.57 2.142zm5.292 0c-.034-.145-.081-.365-.143-.659-.062-.294-.121-.563-.178-.808-.056-.244-.112-.47-.168-.675h1.03c-.192.603-.372 1.317-.54 2.142z"/>
                                </g>
                                <g opacity=".5" transform="translate(-118.000000, -902.000000) translate(0.000000, 112.000000) translate(16.000000, 658.000000) translate(102.000000, 132.000000) translate(9.000000, 11.000000) translate(89.537143, 0.000000)">
                                    <path fill="#FC0" d="M15.3 3.213c6.967 0 12.846 2.608 14.695 6.176h.605v2.448c-.053 4.707-6.883 8.513-15.3 8.513-8.45 0-15.3-3.836-15.3-8.568l.001.054-.001.001V9.39h.605C2.454 5.82 8.333 3.213 15.3 3.213z"/>
                                    <ellipse cx="15.3" cy="8.569" fill="#FFE78E" rx="15.3" ry="8.569"/>
                                    <ellipse cx="15.3" cy="8.033" fill="#FC0" rx="13.19" ry="6.962"/>
                                    <path fill="#FFE78E" fill-rule="nonzero" d="M13.998 12.853l1.14-3.72c0-.026.017-.086.051-.182l.07-.195h1.104c.023.16.057.284.103.376l.984 3.72h2.381l1.346-4.096h2.037V7.48h-1.622l1.087-3.195h-2.123l-.915 3.195h-1.743l-.845-3.195H14.86l-.949 3.195h-1.83l-.828-3.195H9.045l.984 3.195H8.441v1.277h1.968l1.242 4.097h2.347zM16.6 8.569h-.49c.113-.334.203-.691.27-1.071l.22 1.07zm-3.452 2.142c-.134-.722-.296-1.436-.486-2.142h1.055c-.033.106-.223.82-.57 2.142zm5.292 0c-.034-.145-.081-.365-.143-.659-.062-.294-.121-.563-.178-.808-.056-.244-.112-.47-.168-.675h1.03c-.192.603-.372 1.317-.54 2.142z"/>
                                </g>
                            </g>
                        </g>
                    </g>
                </g>
            </g>
        </g>
    </g>
</svg>
