<svg xmlns="http://www.w3.org/2000/svg" width="296" height="160" viewBox="0 0 296 160">
    <g fill="none" fill-rule="evenodd">
        <g>
            <g>
                <g>
                    <g transform="translate(-38 -1815) translate(0 112) translate(16 1566) translate(22 137)">
                        <g>
                            <path stroke="#EEE" stroke-linecap="square" d="M70 136.5L295 136.5M70 104L295 104M70 72L295 72M70 40L295 40M70 8L295 8"/>
                            <text fill="#888" font-family="AppleSDGothicNeo-Regular, Apple SD Gothic Neo" font-size="12" letter-spacing=".2">
                                <tspan x=".964" y="11">2,600만원</tspan>
                            </text>
                            <text fill="#888" font-family="AppleSDGothicNeo-Regular, Apple SD Gothic Neo" font-size="12" letter-spacing=".2">
                                <tspan x=".952" y="43">2,400만원</tspan>
                            </text>
                            <text fill="#888" font-family="AppleSDGothicNeo-Regular, Apple SD Gothic Neo" font-size="12" letter-spacing=".2">
                                <tspan x="1.216" y="75">2,200만원</tspan>
                            </text>
                            <text fill="#888" font-family="AppleSDGothicNeo-Regular, Apple SD Gothic Neo" font-size="12" letter-spacing=".2">
                                <tspan x=".052" y="107">2,000만원</tspan>
                            </text>
                            <text fill="#888" font-family="AppleSDGothicNeo-Regular, Apple SD Gothic Neo" font-size="12" letter-spacing=".2">
                                <tspan x="2.824" y="139">1,800만원</tspan>
                            </text>
                        </g>
                        <text fill="#666" font-family="AppleSDGothicNeo-Regular, Apple SD Gothic Neo" font-size="12" letter-spacing=".2">
                            <tspan x="77.706" y="155">6개월전</tspan>
                        </text>
                        <text fill="#222" font-family="AppleSDGothicNeo-Bold, Apple SD Gothic Neo" font-size="12" font-weight="bold" letter-spacing=".2">
                            <tspan x="132.42" y="155">현재</tspan>
                        </text>
                        <text fill="#666" font-family="AppleSDGothicNeo-Regular, Apple SD Gothic Neo" font-size="12" letter-spacing=".2">
                            <tspan x="169.706" y="155">6개월후</tspan>
                        </text>
                        <text fill="#666" font-family="AppleSDGothicNeo-Regular, Apple SD Gothic Neo" font-size="12" letter-spacing=".2">
                            <tspan x="226.678" y="155">1년뒤</tspan>
                        </text>
                        <text fill="#666" font-family="AppleSDGothicNeo-Regular, Apple SD Gothic Neo" font-size="12" letter-spacing=".2">
                            <tspan x="266.122" y="155">2년뒤</tspan>
                        </text>
                        <g transform="translate(87 21)">
                            <path stroke="#DDD" stroke-width="2" d="M4 4L56 11 102 28 153 46 193 51"/>
                            <circle cx="4" cy="4" r="4" fill="#DDD"/>
                            <circle cx="102" cy="28" r="4" fill="#DDD"/>
                            <circle cx="153" cy="46" r="4" fill="#DDD"/>
                            <circle cx="193" cy="51" r="4" fill="#DDD"/>
                        </g>
                        <path stroke="#2589FF" stroke-width="2" d="M91 40L142 53 185.5 72 230 105 280 113"/>
                        <circle cx="91" cy="40" r="4" fill="#2589FF"/>
                        <circle cx="185" cy="72" r="4" fill="#2589FF"/>
                        <g fill="#2589FF" transform="translate(132 43)">
                            <circle cx="10" cy="10" r="5.714"/>
                            <circle cx="10" cy="10" r="9.5" stroke="#2589FF" opacity=".2"/>
                            <circle cx="10" cy="10" r="3.786" stroke="#FFF"/>
                        </g>
                        <circle cx="230" cy="105" r="4" fill="#2589FF"/>
                        <circle cx="280" cy="113" r="4" fill="#2589FF"/>
                        <g fill="#FC0" transform="translate(136 25)">
                            <circle cx="7" cy="7" r="4"/>
                            <circle cx="7" cy="7" r="6.5" stroke="#FC0" opacity=".2"/>
                            <circle cx="7" cy="7" r="2.5" stroke="#FFF"/>
                        </g>
                    </g>
                </g>
            </g>
        </g>
    </g>
</svg>
