<svg xmlns="http://www.w3.org/2000/svg" xmlns:xlink="http://www.w3.org/1999/xlink" width="140" height="96" viewBox="0 0 140 96">
    <defs>
        <path id="5dpdg898ca" d="M0 0L54.411 0 54.411 43.064 0 43.064z"/>
        <path id="13ob6ttyyc" d="M0 0L45.763 0 45.763 36.959 0 36.959z"/>
        <path id="n3u9x9byze" d="M0 0L61.531 0 61.531 48.698 0 48.698z"/>
        <path id="bryhn4ic4g" d="M0 68.727L64 68.727 64 0 0 0z"/>
    </defs>
    <g fill="none" fill-rule="evenodd">
        <g>
            <g>
                <g>
                    <g>
                        <path d="M0 0H140V96H0z" transform="translate(-118.000000, -2322.000000) translate(0.000000, 112.000000) translate(16.000000, 2072.000000) translate(102.000000, 138.000000)"/>
                        <g transform="translate(-118.000000, -2322.000000) translate(0.000000, 112.000000) translate(16.000000, 2072.000000) translate(102.000000, 138.000000) translate(19.000000, 17.000000)">
                            <g transform="translate(0.000000, 14.393312)">
                                <mask id="uev45p0vcb" fill="#fff">
                                    <use xlink:href="#5dpdg898ca"/>
                                </mask>
                                <path fill="#775137" d="M53.155 43.064h-51.9C.563 43.064 0 42.502 0 41.809V6.484C0 2.903 2.903 0 6.484 0h41.443c3.581 0 6.484 2.903 6.484 6.484v35.325c0 .693-.562 1.255-1.256 1.255" mask="url(#uev45p0vcb)"/>
                            </g>
                            <g transform="translate(6.709707, 0.000000)">
                                <mask id="d9g501jxsd" fill="#fff">
                                    <use xlink:href="#13ob6ttyyc"/>
                                </mask>
                                <path fill="#EEE" d="M44.545 26.77L8.78 36.896c-.886.25-1.816-.27-2.067-1.155L.063 12.255c-.25-.886.269-1.816 1.155-2.067L36.985.063c.886-.25 1.816.269 2.066 1.155l6.65 23.485c.25.886-.27 1.816-1.156 2.067" mask="url(#d9g501jxsd)"/>
                            </g>
                            <path fill="#DFDFDF" d="M48.593 11.22L9.604 22.257 8.16 17.155 47.148 6.118z"/>
                            <g transform="translate(0.000042, 20.028421)">
                                <mask id="bbz42ytd9f" fill="#fff">
                                    <use xlink:href="#n3u9x9byze"/>
                                </mask>
                                <path fill="#8E6040" d="M55.897 48.698H5.634C2.522 48.698 0 46.176 0 43.064V0c0 3.112 2.522 5.634 5.634 5.634h50.263c3.112 0 5.634 2.523 5.634 5.634v31.796c0 3.112-2.522 5.634-5.634 5.634" mask="url(#bbz42ytd9f)"/>
                            </g>
                            <mask id="lfqb6k7ivh" fill="#fff">
                                <use xlink:href="#bryhn4ic4g"/>
                            </mask>
                            <path fill="#775137" d="M5.634 30.617L6.136 30.617 6.136 30.199 5.634 30.199zM7.142 31.199h1.005v-1H7.142v1zm2.01 0h1.005v-1H9.152v1zm2.01 0h1.006v-1h-1.005v1zm2.011 0h1.006v-1h-1.006v1zm2.01 0h1.006v-1h-1.005v1zm2.011 0H18.2v-1h-1.006v1zm2.01 0h1.006v-1h-1.005v1zm2.012 0h1.005v-1h-1.005v1zm2.01 0h1.005v-1h-1.005v1zm2.01 0h1.006v-1h-1.005v1zm2.011 0h1.006v-1h-1.006v1zm2.01 0h1.006v-1h-1.005v1zm2.011 0h1.006v-1h-1.006v1zm2.011 0h1.005v-1H33.28v1zm2.01 0h1.006v-1h-1.006v1zm2.011 0h1.005v-1H37.3v1zm2.01 0h1.006v-1H39.31v1zm2.011 0h1.006v-1H41.32v1zm2.01 0h1.006v-1h-1.005v1zm2.011 0h1.006v-1h-1.006v1zm2.01 0h1.006v-1h-1.005v1zm2.012 0h1.005v-1h-1.005v1zm2.01 0h1.005v-1h-1.005v1zm2.01 0h1.006v-1h-1.005v1zM55.395 30.617L55.897 30.617 55.897 30.199 55.395 30.199zM5.634 64.989L6.136 64.989 6.136 64.571 5.634 64.571zM7.142 65.57h1.005v-1H7.142v1zm2.01 0h1.005v-1H9.152v1zm2.01 0h1.006v-1h-1.005v1zm2.011 0h1.006v-1h-1.006v1zm2.01 0h1.006v-1h-1.005v1zm2.011 0H18.2v-1h-1.006v1zm2.01 0h1.006v-1h-1.005v1zm2.012 0h1.005v-1h-1.005v1zm2.01 0h1.005v-1h-1.005v1zm2.01 0h1.006v-1h-1.005v1zm2.011 0h1.006v-1h-1.006v1zm2.01 0h1.006v-1h-1.005v1zm2.011 0h1.006v-1h-1.006v1zm2.011 0h1.005v-1H33.28v1zm2.01 0h1.006v-1h-1.006v1zm2.011 0h1.005v-1H37.3v1zm2.01 0h1.006v-1H39.31v1zm2.011 0h1.006v-1H41.32v1zm2.01 0h1.006v-1h-1.005v1zm2.011 0h1.006v-1h-1.006v1zm2.01 0h1.006v-1h-1.005v1zm2.012 0h1.005v-1h-1.005v1zm2.01 0h1.005v-1h-1.005v1zm2.01 0h1.006v-1h-1.005v1zM55.395 64.989L55.897 64.989 55.897 64.571 55.395 64.571zM62.122 53.293h-9.974c-3.017 0-5.486-2.469-5.486-5.486 0-3.018 2.469-5.486 5.486-5.486h9.974c1.037 0 1.878.84 1.878 1.878v7.216c0 1.037-.84 1.878-1.878 1.878" mask="url(#lfqb6k7ivh)"/>
                            <path fill="#FFD112" d="M50.053 47.807c0-.93.753-1.683 1.682-1.683.93 0 1.683.753 1.683 1.683 0 .929-.754 1.682-1.683 1.682s-1.682-.753-1.682-1.682" mask="url(#lfqb6k7ivh)"/>
                        </g>
                        <g>
                            <g transform="translate(-118.000000, -2322.000000) translate(0.000000, 112.000000) translate(16.000000, 2072.000000) translate(102.000000, 138.000000) translate(55.298969, 4.270475) translate(33.215317, 55.977495)">
                                <ellipse cx="16" cy="18.424" fill="#DDD" opacity=".4" rx="16" ry="9.759"/>
                                <g transform="translate(3.362231, 12.535025)">
                                    <ellipse cx="12.863" cy="6.79" fill="#FFD743" rx="12.863" ry="6.79"/>
                                    <path fill="#FFE78E" fill-rule="nonzero" d="M11.594 11.49l1.11-3.628c0-.025.018-.084.051-.177l.068-.19H13.9c.022.155.056.277.1.367l.96 3.628h2.323l1.313-3.995h1.986V6.25h-1.583l1.06-3.115h-2.07l-.891 3.115h-1.7l-.825-3.115h-2.138l-.925 3.115H9.726l-.808-3.115H6.764l.959 3.115H6.174v1.246h1.92l1.211 3.995h2.289zm2.537-4.178h-.477c.11-.325.197-.674.263-1.044l.214 1.044zm-3.367 2.09c-.13-.705-.288-1.4-.473-2.09h1.029c-.033.104-.218.8-.556 2.09zm5.162 0c-.033-.142-.08-.356-.14-.643-.06-.287-.118-.55-.173-.788-.055-.238-.11-.458-.164-.659h1.004c-.187.588-.362 1.285-.527 2.09z"/>
                                </g>
                                <g transform="translate(1.304075, 6.267512)">
                                    <path fill="#FC0" d="M14.922 3.134c6.794 0 12.528 2.543 14.332 6.023h.59v2.387c-.053 4.59-6.714 8.303-14.922 8.303C6.68 19.847 0 16.106 0 11.49l.001.054H0V9.157h.59c1.803-3.48 7.537-6.023 14.332-6.023z"/>
                                    <ellipse cx="14.922" cy="8.357" fill="#FFE78E" rx="14.922" ry="8.357"/>
                                    <ellipse cx="14.922" cy="7.834" fill="#FC0" rx="12.863" ry="6.79"/>
                                    <path fill="#FFE78E" fill-rule="nonzero" d="M13.652 12.535l1.11-3.629c0-.024.018-.083.051-.177.034-.093.057-.156.068-.19h1.077c.022.156.056.278.1.367l.96 3.629h2.323l1.313-3.995h1.986V7.294h-1.582l1.06-3.116h-2.07l-.892 3.116h-1.7l-.825-3.116h-2.137l-.926 3.116h-1.784l-.808-3.116H8.822l.959 3.116H8.233V8.54h1.918l1.212 3.995h2.29zm2.537-4.178h-.477c.11-.326.198-.674.263-1.045l.214 1.045zm-3.366 2.089c-.131-.704-.289-1.4-.474-2.09h1.029c-.033.104-.218.8-.555 2.09zm5.161 0c-.033-.142-.08-.356-.14-.643-.06-.286-.118-.549-.173-.787-.055-.239-.11-.458-.164-.66h1.004c-.187.59-.362 1.285-.527 2.09z"/>
                                </g>
                                <g transform="translate(1.304075, 0.000000)">
                                    <path fill="#FC0" d="M14.922 3.134c6.794 0 12.528 2.543 14.332 6.023h.59v2.387c-.053 4.59-6.714 8.303-14.922 8.303C6.68 19.847 0 16.106 0 11.49l.001.054H0V9.157h.59c1.803-3.48 7.537-6.023 14.332-6.023z"/>
                                    <ellipse cx="14.922" cy="8.357" fill="#FFE78E" rx="14.922" ry="8.357"/>
                                    <ellipse cx="14.922" cy="7.834" fill="#FC0" rx="12.863" ry="6.79"/>
                                    <path fill="#FFE78E" fill-rule="nonzero" d="M13.652 12.535l1.11-3.629c0-.024.018-.083.051-.177.034-.093.057-.156.068-.19h1.077c.022.156.056.278.1.367l.96 3.629h2.323l1.313-3.995h1.986V7.294h-1.582l1.06-3.116h-2.07l-.892 3.116h-1.7l-.825-3.116h-2.137l-.926 3.116h-1.784l-.808-3.116H8.822l.959 3.116H8.233V8.54h1.918l1.212 3.995h2.29zm2.537-4.178h-.477c.11-.326.198-.674.263-1.045l.214 1.045zm-3.366 2.089c-.131-.704-.289-1.4-.474-2.09h1.029c-.033.104-.218.8-.555 2.09zm5.161 0c-.033-.142-.08-.356-.14-.643-.06-.286-.118-.549-.173-.787-.055-.239-.11-.458-.164-.66h1.004c-.187.59-.362 1.285-.527 2.09z"/>
                                </g>
                            </g>
                            <g transform="translate(-118.000000, -2322.000000) translate(0.000000, 112.000000) translate(16.000000, 2072.000000) translate(102.000000, 138.000000) translate(55.298969, 4.270475) translate(16.701031, 14.651704) rotate(-27.000000) translate(-16.701031, -14.651704) translate(2.701031, 5.341068)">
                                <path fill="#FC0" d="M14 2.94c6.375 0 11.755 2.387 13.447 5.651H28v2.24c-.05 4.308-6.299 7.79-14 7.79-7.732 0-14-3.51-14-7.84l.001.05H0v-2.24h.553C2.245 5.327 7.625 2.941 14 2.941z"/>
                                <ellipse cx="14" cy="7.841" fill="#FFE78E" rx="14" ry="7.841"/>
                                <ellipse cx="14" cy="7.351" fill="#FC0" rx="12.069" ry="6.37"/>
                                <path fill="#FFE78E" fill-rule="nonzero" d="M12.809 11.76l1.042-3.404c0-.023.016-.078.047-.166l.064-.178h1.01c.021.146.053.26.095.344l.9 3.405h2.18l1.231-3.749h1.863V6.843h-1.484l.995-2.923H18.81l-.837 2.923h-1.595l-.774-2.923h-2.006l-.868 2.923h-1.674l-.758-2.923H8.277l.9 2.923H7.724v1.17h1.8l1.137 3.748h2.148zm2.38-3.92h-.447c.103-.305.185-.632.247-.98l.2.98zM12.032 9.8c-.123-.66-.271-1.313-.445-1.96h.966c-.03.098-.205.751-.521 1.96zm4.842 0c-.03-.132-.074-.333-.13-.602-.058-.27-.112-.515-.163-.739-.052-.224-.103-.43-.155-.618h.943c-.175.552-.34 1.205-.495 1.96z"/>
                            </g>
                            <g transform="translate(-118.000000, -2322.000000) translate(0.000000, 112.000000) translate(16.000000, 2072.000000) translate(102.000000, 138.000000) translate(55.298969, 4.270475) translate(47.701031, 35.316749) rotate(30.000000) translate(-47.701031, -35.316749) translate(32.701031, 25.341068)">
                                <path fill="#FC0" d="M15 3.15c6.83 0 12.594 2.557 14.407 6.054H30v2.401c-.052 4.615-6.748 8.346-15 8.346-8.284 0-15-3.76-15-8.4l.001.053-.001.001v-2.4h.593C2.406 5.706 8.17 3.15 15 3.15z"/>
                                <ellipse cx="15" cy="8.401" fill="#FFE78E" rx="15" ry="8.401"/>
                                <ellipse cx="15" cy="7.876" fill="#FC0" rx="12.931" ry="6.825"/>
                                <path fill="#FFE78E" fill-rule="nonzero" d="M13.724 12.6l1.116-3.647c0-.024.017-.084.051-.178l.068-.19h1.083c.022.155.056.278.101.368l.965 3.648h2.334l1.32-4.016h1.997V7.332h-1.59L22.233 4.2h-2.08l-.898 3.132h-1.708l-.83-3.132H14.57l-.93 3.132h-1.794L11.034 4.2H8.868l.964 3.132H8.276v1.253h1.929l1.218 4.016h2.3zm2.55-4.2h-.48c.11-.327.2-.677.265-1.05l.215 1.05zm-3.384 2.1c-.131-.707-.29-1.407-.476-2.1h1.034c-.033.105-.219.805-.558 2.1zm5.189 0c-.033-.142-.08-.357-.141-.645-.06-.288-.119-.552-.174-.792-.055-.24-.11-.46-.165-.662h1.01c-.188.591-.365 1.291-.53 2.1z"/>
                            </g>
                        </g>
                    </g>
                </g>
            </g>
        </g>
    </g>
</svg>
