<svg xmlns="http://www.w3.org/2000/svg" xmlns:xlink="http://www.w3.org/1999/xlink" width="296" height="208" viewBox="0 0 296 208">
    <defs>
        <rect id="ep1f2fs76a" width="1" height="159" x="185" y="24" rx=".5"/>
        <mask id="qoambg9vhb" width="1" height="159" x="0" y="0" fill="#fff" maskContentUnits="userSpaceOnUse" maskUnits="objectBoundingBox">
            <use xlink:href="#ep1f2fs76a"/>
        </mask>
    </defs>
    <g fill="none" fill-rule="evenodd">
        <g>
            <g>
                <g>
                    <g transform="translate(-40.000000, -1664.000000) translate(0.000000, 112.000000) translate(16.000000, 1404.000000) translate(24.000000, 148.000000)">
                        <g>
                            <path stroke="#EEE" stroke-linecap="square" d="M70 184L295 184M70 144L295 144M70 104L295 104M70 64L295 64M70 24L295 24"/>
                            <text fill="#222" font-family="AppleSDGothicNeo-Bold, Apple SD Gothic Neo" font-size="12" font-weight="bold" letter-spacing=".2">
                                <tspan x="174.42" y="11">평균</tspan>
                            </text>
                            <use stroke="#FC0" stroke-dasharray="2 3" stroke-width="2" mask="url(#qoambg9vhb)" xlink:href="#ep1f2fs76a"/>
                            <text fill="#666" font-family="AppleSDGothicNeo-Regular, Apple SD Gothic Neo" font-size="12" letter-spacing=".2">
                                <tspan x=".964" y="27">2,600만원</tspan>
                            </text>
                            <text fill="#666" font-family="AppleSDGothicNeo-Regular, Apple SD Gothic Neo" font-size="12" letter-spacing=".2">
                                <tspan x=".952" y="67">2,400만원</tspan>
                            </text>
                            <text fill="#666" font-family="AppleSDGothicNeo-Regular, Apple SD Gothic Neo" font-size="12" letter-spacing=".2">
                                <tspan x="1.216" y="107">2,200만원</tspan>
                            </text>
                            <text fill="#666" font-family="AppleSDGothicNeo-Regular, Apple SD Gothic Neo" font-size="12" letter-spacing=".2">
                                <tspan x=".052" y="147">2,000만원</tspan>
                            </text>
                            <text fill="#666" font-family="AppleSDGothicNeo-Regular, Apple SD Gothic Neo" font-size="12" letter-spacing=".2">
                                <tspan x="2.824" y="187">1,800만원</tspan>
                            </text>
                        </g>
                        <text fill="#666" font-family="AppleSDGothicNeo-Regular, Apple SD Gothic Neo" font-size="12" letter-spacing=".2">
                            <tspan x="70.62" y="203">0</tspan>
                        </text>
                        <text fill="#666" font-family="AppleSDGothicNeo-Regular, Apple SD Gothic Neo" font-size="12" letter-spacing=".2">
                            <tspan x="90.81" y="203">5,000</tspan>
                        </text>
                        <text fill="#666" font-family="AppleSDGothicNeo-Regular, Apple SD Gothic Neo" font-size="12" letter-spacing=".2">
                            <tspan x="135.782" y="203">10,000</tspan>
                        </text>
                        <text fill="#666" font-family="AppleSDGothicNeo-Regular, Apple SD Gothic Neo" font-size="12" letter-spacing=".2">
                            <tspan x="186.568" y="203">15,000</tspan>
                        </text>
                        <text fill="#666" font-family="AppleSDGothicNeo-Regular, Apple SD Gothic Neo" font-size="12" letter-spacing=".2">
                            <tspan x="235.84" y="203">20,000km</tspan>
                        </text>
                        <circle cx="91" cy="71" r="4" fill="#DDD"/>
                        <circle cx="109" cy="58" r="4" fill="#DDD"/>
                        <circle cx="95" cy="45" r="4" fill="#DDD"/>
                        <circle cx="97" cy="98" r="4" fill="#DDD"/>
                        <circle cx="167" cy="83" r="4" fill="#DDD"/>
                        <circle cx="158" cy="71" r="4" fill="#DDD"/>
                        <circle cx="180" cy="66" r="4" fill="#DDD"/>
                        <circle cx="191" cy="75" r="4" fill="#DDD"/>
                        <circle cx="181" cy="95" r="4" fill="#DDD"/>
                        <circle cx="191" cy="88" r="4" fill="#DDD"/>
                        <circle cx="181" cy="117" r="4" fill="#DDD"/>
                        <circle cx="208" cy="79" r="4" fill="#DDD"/>
                        <circle cx="198" cy="106" r="4" fill="#DDD"/>
                        <circle cx="195" cy="126" r="4" fill="#DDD"/>
                        <circle cx="225" cy="152" r="4" fill="#DDD"/>
                        <circle cx="235" cy="104" r="4" fill="#DDD"/>
                        <circle cx="265" cy="134" r="4" fill="#DDD"/>
                        <circle cx="277" cy="175" r="4" fill="#DDD"/>
                        <g transform="translate(77.000000, 85.000000)">
                            <rect width="131" height="40" y="5" fill="#434C53" rx="12"/>
                            <text fill="#FFF" font-family="AppleSDGothicNeo-Regular, Apple SD Gothic Neo" font-size="12" letter-spacing=".2">
                                <tspan x="11.282" y="20">주행거리 </tspan> <tspan x="56.958" y="20" font-family="AppleSDGothicNeo-Bold, Apple SD Gothic Neo" font-weight="bold">999,999km</tspan>
                            </text>
                            <text fill="#FFF" font-family="AppleSDGothicNeo-Regular, Apple SD Gothic Neo" font-size="12" letter-spacing=".2">
                                <tspan x="12.122" y="36">예상판매가 </tspan> <tspan x="68.378" y="36" font-family="AppleSDGothicNeo-Bold, Apple SD Gothic Neo" font-weight="bold">2,343만원</tspan>
                            </text>
                            <g>
                                <g>
                                    <path fill="#434C53" d="M1.68 1.563L9.682 9H0V2.295c0-.552.448-1 1-1 .253 0 .496.096.68.268z" transform="translate(64.000000, 0.000000) translate(1.000000, 0.000000)"/>
                                    <path stroke="#434C53" d="M10 8.618L1.653 1.424c-.419-.36-1.05-.313-1.41.105-.157.182-.243.413-.243.653V9h0" transform="translate(64.000000, 0.000000) translate(1.000000, 0.000000)"/>
                                </g>
                            </g>
                        </g>
                        <g fill="#FC0" transform="translate(135.000000, 67.000000)">
                            <circle cx="8" cy="8" r="8" opacity=".3"/>
                            <circle cx="8" cy="8" r="4"/>
                        </g>
                    </g>
                </g>
            </g>
        </g>
    </g>
</svg>
