<svg xmlns="http://www.w3.org/2000/svg" width="77" height="33" viewBox="0 0 77 33">
    <g fill="none" fill-rule="evenodd" opacity=".304">
        <g fill="#000" fill-rule="nonzero">
            <g>
                <g>
                    <g>
                        <g>
                            <path d="M9.082 21.156c-1.42-.814-2.725-1.82-3.636-3.24-.912 1.476-2.313 2.755-3.972 3.718L0 19.966c2.336-1.264 4.197-3.163 4.188-5.637l-.006-1.265-3.47.012-.01-1.922 3.473-.014L4.17 9l2.48-.009.01 2.144 3.11-.01.002 1.926-3.11.003.004 1.327c.006 2.353 1.512 4.053 3.516 4.991l-1.1 1.784zm4.134-12.185l.02 5.602 2.694-.012.009 1.977-2.7.005.021 7.79-2.479.01-.041-15.36 2.476-.012z" transform="translate(-142.000000, -1127.000000) translate(0.000000, 112.000000) translate(16.000000, 588.000000) translate(126.000000, 427.000000) translate(26.545603, 8.670905)"/>
                            <path d="M24.855 18.153c-1.414-.82-2.715-1.822-3.633-3.24-.914 1.464-2.316 2.754-3.974 3.716l-1.472-1.666c2.338-1.269 4.195-3.164 4.188-5.64l-.003-1.264-3.478.01-.003-1.925 3.474-.01-.008-2.146 2.476-.005.002 2.143 3.121-.007.002 1.924-3.11.008.003 1.33c.004 2.346 1.51 4.041 3.52 4.983l-1.105 1.79zm4.142-12.185l.011 5.597 2.702-.008.005 1.975-2.702.005.022 7.789-2.481.01-.042-15.363 2.485-.005zM40.647 19.268c-1.422-.823-2.721-1.824-3.645-3.239-.908 1.47-2.305 2.75-3.963 3.71l-1.475-1.66c2.334-1.267 4.196-3.166 4.188-5.643l-.002-1.26-3.476.008-.005-1.924 3.476-.007-.005-2.147 2.478-.005.002 2.144 3.11-.01.008 1.92-3.11.009.005 1.325c.005 2.356 1.503 4.046 3.513 4.991l-1.099 1.788zm4.137-12.185l.015 5.596 2.698-.005.005 1.972-2.703.005.025 7.789-2.48.005-.04-15.357 2.48-.005zM7.474 4.496c.002.703-.57 1.275-1.271 1.275-.702.002-1.276-.564-1.278-1.264 0-.703.57-1.275 1.268-1.278.702 0 1.276.569 1.281 1.267zM23.48 1.257c.006.706-.565 1.279-1.265 1.279-.7.005-1.273-.564-1.282-1.27C20.935.573 21.501 0 22.208 0c.699-.003 1.273.564 1.273 1.257zM38.996 2.297c.008.7-.562 1.27-1.264 1.272-.706-.002-1.276-.564-1.275-1.262-.003-.705.564-1.277 1.266-1.279.702.002 1.273.566 1.273 1.269z" transform="translate(-142.000000, -1127.000000) translate(0.000000, 112.000000) translate(16.000000, 588.000000) translate(126.000000, 427.000000) translate(26.545603, 8.670905)"/>
                        </g>
                        <g>
                            <g>
                                <path d="M2.741 14.62L.041 14.628 0 .051 2.706.045 2.721 6.182 8.216.028 11.501.018 5.547 6.681 11.787 14.598 8.644 14.605 3.868 8.57 2.731 9.845zM23.034 3.675c.002 1.14-.456 2.258-1.485 2.998 1.278.859 2.215 2.315 2.167 3.65-.081 2.403-1.588 4.242-5.242 4.248l-5.549.02L12.89.015 18.29 0c2.483-.003 4.734 1.078 4.744 3.675zm-7.44-1.546l.014 3.725 2.878-.009c1.233-.006 1.805-.73 1.802-1.988 0-1.14-.797-1.734-1.883-1.733l-2.812.005zm2.928 10.312c1.58-.004 2.44-.815 2.433-2.29-.003-1.28-.99-2.193-2.41-2.188l-2.933.008.016 4.476 2.894-.006z" transform="translate(-142.000000, -1127.000000) translate(0.000000, 112.000000) translate(16.000000, 588.000000) translate(126.000000, 427.000000) translate(-0.000000, -0.000000) translate(0.000000, 18.192813)"/>
                            </g>
                            <path d="M76.084 8.17c-.007-.45-1.09-2.39-4.356-2.734-4.895-.491-5.41-2.56-9.933-3.945-5.758-1.763-14.74-2.296-21.284.262-4.611 1.804-4.573 2.656-9.244 3.485-7.81 1.392-10.146 1.766-12.54 5.327-.802 1.202-.888 1.804-1.084 3.291.18-1.207.873-2.762 2.632-4.419 1.906-1.804 4.938-2.665 11.196-3.663 3.491-.559 4.422-1.236 8.406-3.146 6.049-2.499 14.006-2.77 21.475-.63 4.04 1.154 4.545 3.078 10.345 4.046.786.135 2.874.363 3.791 2.16.375.734.898 3.03.954 3.424h.137c.034-1.019-.37-3.075-.495-3.458z" transform="translate(-142.000000, -1127.000000) translate(0.000000, 112.000000) translate(16.000000, 588.000000) translate(126.000000, 427.000000) translate(-0.000000, -0.000000)"/>
                        </g>
                    </g>
                </g>
            </g>
        </g>
    </g>
</svg>
