<svg xmlns="http://www.w3.org/2000/svg" width="24" height="24" viewBox="0 0 24 24">
    <g fill="none" fill-rule="evenodd">
        <g>
            <g>
                <g>
                    <g transform="translate(-16 -305) translate(0 260) translate(0 28) translate(16 17)">
                        <circle cx="12" cy="12" r="12" fill="#FC0"/>
                        <g fill="#222">
                            <path d="M14.904 4.495l-.106-.068c-.363-.362-.868-.518-1.543-.479-.562.034-1.008.257-1.349.464v-.015c0-.176.02-.367.04-.552.019-.189.04-.38.04-.562 0-.185-.022-.36-.086-.51-.016-.04-.051-.062-.096-.062-.182.004-.536.128-.622.203l-.047.103c-.003.2-.047.763-.092.83.002-.002-.024.068-.024.068-.077.802-.078 1.508-.007 2.113.007.06.124.151.214.184.099.037.408-.046.586-.113l.067-.01c.056-.007.089-.054.087-.118-.001-.002.004-.174.004-.174.129-.523.649-1.147 1.264-1.24.348-.055.623.034.84.27.03.043.093.42-.137.851-.17.32-.512.59-.96.758-.426.162-.894.227-1.471.207l-.541-.366c-.458-.321-1.028-.721-1.543-.917-.091-.035-.254-.17-.351-.25l-.054-.044c-.297-.239-.864-.617-1.318-.92l-.245-.164v-.051c.013-.014.3-.186.3-.186.4-.234.584-.349.623-.408-.008.01.053-.032.053-.032.004-.001.992-.56.992-.56.953-.524 2.031-1.118 2.598-1.704l.028-.09.012-.08c.038-.125.04-.221.008-.333C12.06.506 12.03.47 11.99.463c-.442-.045-1.013.22-1.532.708-.117.11-.216.164-.32.22l-.08.045c-.572.325-1.862 1.126-2.537 1.558.044-.726.178-1.76.344-2.62L7.847.27l-.07-.13-.052-.094L7.71.043c-.135-.068-.245-.04-.326-.02l-.135.05-.18.065c-.035.007-.06.03-.074.063-.323.78-.592 2.062-.655 3.088-.645-.41-1.24-.705-1.533-.847L4.8 2.437l-.034-.007c-.106-.014-.234-.091-.357-.166l-.245-.159-.375-.24c.003.003-.099-.022-.099-.022-.16.027-.47.235-.56.377-.013.018-.018.039-.018.06 0 .03.01.06.017.089l.017.076.017.045c.18.185.633.491 1.077.73l.515.273.788.43c0 .004.134.107.134.107l.093.053.017.01-1.434.958-.753.5c-.072.048-.37.181-.435.208-.163.066-.287.169-.338.28l-.02.043.02.029.058.043c-.003 0 .077.05.077.05l.083.058.078.012c.133.006.33-.07.696-.23.337-.15 1.253-.703 1.644-.938l.167-.1c.069.005.145-.053.213-.104.078-.063.249-.168.353-.214.003 0 .062-.034.119-.065l-.001.045c.017 1.197.086 2.068.217 2.739l.001.011.013.027c.065.095.138.378.203.629l.15.5c.002.005.041.046.041.046.085.058.345.157.518.137l.043-.005.027-.061c.015-.075.02-.148.02-.23 0-.09-.006-.19-.015-.314l-.011-.18c-.055-.836-.11-2.043-.11-2.845v-.064l.763.48c1.057.686 2.654 1.722 3.62 1.996.05.015.102.003.14-.032 0-.002.148-.095.148-.095l.027-.012c.056-.026.093-.12.1-.22.813-.041 1.947-.354 2.554-1.118.235-.296.34-.658.34-.968 0-.254-.07-.473-.198-.594M7.885 11.372L7.885 11.812 8.918 11.812 8.918 12.957 8.565 12.957 8.565 12.117 6.493 12.117 6.493 11.812 7.533 11.812 7.533 11.372 6.278 11.372 6.278 11.068 8.549 11.068 8.549 10.459 6.532 10.459 6.532 10.157 8.902 10.157 8.902 11.066 9.154 11.066 9.154 11.372zM9.509 11.607h1.67v-1.409h-1.67v1.41zm.35-.307h.969v-.796H9.86v.796zM12.042 12.946L9.827 12.946 9.827 11.91 10.179 11.91 10.179 12.641 12.042 12.641zM11.664 11.981L12.015 11.981 12.015 10.13 11.664 10.13zM15.203 11.91L15.203 11.606 12.328 11.606 12.328 11.91 12.639 11.91 12.639 12.946 14.939 12.946 14.939 12.641 12.99 12.641 12.99 11.91zM13.765 9.993c-.567 0-1.028.24-1.028.728 0 .484.46.728 1.028.728.568 0 1.029-.244 1.029-.728 0-.488-.46-.728-1.029-.728m0 1.135c-.363 0-.658-.126-.658-.408 0-.278.295-.406.658-.406.363 0 .658.128.658.406 0 .282-.295.408-.658.408M17.019 11.518L17.361 11.518 17.361 10.961 17.556 10.961 17.556 11.608 17.899 11.608 17.899 10.13 17.556 10.13 17.556 10.668 17.361 10.668 17.361 10.13 17.019 10.13zM16.063 11.225c-.215 0-.388-.092-.388-.301 0-.207.173-.302.388-.302.213 0 .388.095.388.302 0 .209-.175.301-.388.301zm.8-.97h-.623v-.248h-.35v.248h-.627v.298h.25c-.124.095-.2.234-.2.417 0 .383.335.577.75.577.414 0 .75-.194.75-.577 0-.183-.076-.322-.201-.417h.25v-.298zM16.895 11.62c-.561 0-1.014.238-1.014.724 0 .48.453.723 1.014.723.56 0 1.013-.242 1.013-.723 0-.486-.454-.724-1.013-.724m-.002 1.132c-.36 0-.65-.126-.65-.409 0-.28.29-.408.65-.408.36 0 .65.127.65.408 0 .283-.29.409-.65.409M3.478 12.646h.881c.547 0 .692-.213.692-.485 0-.322-.222-.5-.715-.5h-.858v.985zm0-1.304h.91c.337 0 .586-.128.586-.427 0-.26-.123-.435-.638-.435h-.858v.862zm-.446-1.18H4.41c.655 0 .997.217.997.693 0 .338-.236.572-.55.634v.012c.45.054.664.35.664.683 0 .419-.307.78-1.068.78H3.032v-2.803zM0 10.161L.447 10.161.447 11.416 1.954 10.161 2.588 10.161.996 11.427 2.72 12.964 2.087 12.964.447 11.462.447 12.964 0 12.964z" transform="translate(3 5)"/>
                        </g>
                    </g>
                </g>
            </g>
        </g>
    </g>
</svg>
