<svg xmlns="http://www.w3.org/2000/svg" width="24" height="24" viewBox="0 0 24 24">
    <g fill="none" fill-rule="evenodd">
        <g>
            <g>
                <g>
                    <g>
                        <g>
                            <g>
                                <g>
                                    <path stroke="#222" stroke-linecap="square" stroke-linejoin="round" stroke-width="1.5" d="M1.472 16.936L4.859 16.936 4.859 13.549 1.472 13.549zM17.278 16.936L20.665 16.936 20.665 13.549 17.278 13.549z" transform="translate(-335.000000, -54.000000) translate(0.000000, -0.000000) translate(0.000000, -0.000000) translate(0.000000, 44.000000) translate(335.000000, 10.000000) translate(1.000000, 4.000000) translate(0.000000, 0.000000)"/>
                                    <path stroke="#222" stroke-linejoin="round" stroke-width="1.5" d="M1.472 13.549L20.665 13.549 20.665 5.646 1.472 5.646zM7.552 0h7.031c1.178 0 2.23.73 2.643 1.831l1.43 3.814H3.48l1.43-3.814C5.322.73 6.375 0 7.552 0z" transform="translate(-335.000000, -54.000000) translate(0.000000, -0.000000) translate(0.000000, -0.000000) translate(0.000000, 44.000000) translate(335.000000, 10.000000) translate(1.000000, 4.000000) translate(0.000000, 0.000000)"/>
                                    <path fill="#222" d="M6.552 8.468c-.623 0-1.13.505-1.13 1.129s.507 1.129 1.13 1.129c.623 0 1.129-.505 1.129-1.13 0-.623-.506-1.128-1.13-1.128M15.584 8.468c-.623 0-1.13.505-1.13 1.129s.507 1.129 1.13 1.129c.623 0 1.129-.505 1.129-1.13 0-.623-.506-1.128-1.13-1.128" transform="translate(-335.000000, -54.000000) translate(0.000000, -0.000000) translate(0.000000, -0.000000) translate(0.000000, 44.000000) translate(335.000000, 10.000000) translate(1.000000, 4.000000) translate(0.000000, 0.000000)"/>
                                    <path stroke="#222" stroke-width="1.5" d="M18.971 5.645L22 4.131M3.029 5.645L0 4.129" transform="translate(-335.000000, -54.000000) translate(0.000000, -0.000000) translate(0.000000, -0.000000) translate(0.000000, 44.000000) translate(335.000000, 10.000000) translate(1.000000, 4.000000) translate(0.000000, 0.000000)"/>
                                </g>
                            </g>
                        </g>
                    </g>
                </g>
            </g>
        </g>
    </g>
</svg>
