<svg xmlns="http://www.w3.org/2000/svg" xmlns:xlink="http://www.w3.org/1999/xlink" width="120" height="64" viewBox="0 0 120 64">
    <defs>
        <path id="nygyvur1ua" d="M0 0L20.238 0 20.238 20.364 0 20.364z"/>
        <path id="7ekjlraqzc" d="M0 0L76.19 0 76.19 17.969 0 17.969z"/>
    </defs>
    <g fill="none" fill-rule="evenodd">
        <g>
            <g>
                <g>
                    <g>
                        <path d="M0 0H120V64H0z" transform="translate(-127.000000, -112.000000) translate(16.000000, 112.000000) translate(63.000000, 0.000000) translate(48.000000, 0.000000)"/>
                        <g>
                            <g transform="translate(-127.000000, -112.000000) translate(16.000000, 112.000000) translate(63.000000, 0.000000) translate(48.000000, 0.000000) translate(10.000000, 10.000000) translate(34.523810, 22.760264)">
                                <mask id="da1qffidpb" fill="#fff">
                                    <use xlink:href="#nygyvur1ua"/>
                                </mask>
                                <path fill="#685C4C" d="M16.815 0v7.415h3.423v2.62h-3.423v10.33h-3.149V0h3.149zm-5.293 16.147c-1.815-1.094-3.451-2.429-4.615-4.308-1.156 1.95-2.943 3.63-5.054 4.91L0 14.526c2.956-1.668 5.33-4.179 5.33-7.454V5.393H.917V2.848H5.33V0h3.144v2.848h3.946v2.545H8.474v1.76c0 3.112 1.907 5.375 4.445 6.637l-1.397 2.357z" mask="url(#da1qffidpb)"/>
                            </g>
                            <path fill="#685C4C" d="M72.764 19.167v7.424h3.426v2.607h-3.426v10.333h-3.143V19.167h3.143zm-5.282 16.137c-1.805-1.086-3.454-2.434-4.609-4.309-1.159 1.942-2.95 3.65-5.052 4.925l-1.869-2.217c2.968-1.684 5.34-4.19 5.34-7.483V24.55h-4.406v-2.548h4.407v-2.836h3.138v2.836h3.958v2.548H64.43v1.755c0 3.137 1.906 5.382 4.448 6.631l-1.397 2.367zM93.008 20.364v7.418h3.42v2.617h-3.42v10.33H89.85V20.364h3.157zm-5.295 16.137c-1.797-1.09-3.446-2.43-4.61-4.295-1.163 1.936-2.936 3.629-5.043 4.89l-1.87-2.202c2.969-1.68 5.342-4.185 5.342-7.461v-1.689h-4.416V23.2h4.416v-2.836h3.137V23.2h3.945v2.544H84.67v1.766c0 3.108 1.906 5.38 4.449 6.632l-1.405 2.359zM44.048 17.357c0 .99-.803 1.81-1.788 1.81-.997 0-1.784-.82-1.784-1.81 0-.987.787-1.784 1.784-1.784.985 0 1.788.797 1.788 1.784M65.476 13.763c0 1-.789 1.81-1.785 1.81-.983 0-1.786-.81-1.786-1.81 0-.995.803-1.784 1.786-1.784.996 0 1.785.789 1.785 1.784M85.714 14.98c0 .989-.792 1.79-1.787 1.79-.986 0-1.784-.801-1.784-1.79 0-.987.798-1.803 1.784-1.803.995 0 1.787.816 1.787 1.802" transform="translate(-127.000000, -112.000000) translate(16.000000, 112.000000) translate(63.000000, 0.000000) translate(48.000000, 0.000000) translate(10.000000, 10.000000)"/>
                            <path fill="#FABA0F" d="M3.553 43.125L0 43.125 0 23.958 3.553 23.958 3.553 32.024 10.835 23.958 15.157 23.958 7.29 32.688 15.476 43.125 11.343 43.125 5.074 35.167 3.553 36.844zM24.072 40.31c2.107 0 3.243-1.057 3.243-2.99 0-1.694-1.303-2.897-3.19-2.897h-3.886v5.887h3.833zM20.24 26.75v4.891h3.815c1.628 0 2.403-.952 2.403-2.615 0-1.493-1.052-2.276-2.498-2.276h-3.72zm9.84 2.048c0 1.488-.62 2.962-1.975 3.951 1.69 1.12 2.922 3.044 2.845 4.789-.11 3.165-2.1 5.587-6.937 5.587h-7.345V23.958h7.157c3.286 0 6.256 1.441 6.256 4.84z" transform="translate(-127.000000, -112.000000) translate(16.000000, 112.000000) translate(63.000000, 0.000000) translate(48.000000, 0.000000) translate(10.000000, 10.000000)"/>
                            <g transform="translate(-127.000000, -112.000000) translate(16.000000, 112.000000) translate(63.000000, 0.000000) translate(48.000000, 0.000000) translate(10.000000, 10.000000) translate(23.809524, 0.000000)">
                                <mask id="lzw1ir2did" fill="#fff">
                                    <use xlink:href="#7ekjlraqzc"/>
                                </mask>
                                <path fill="#FABA0F" d="M75.562 10.745c-.018-.584-1.404-3.107-5.622-3.582-6.318-.644-6.98-3.347-12.827-5.173-7.442-2.329-19.05-3.058-27.518.269-5.963 2.339-5.916 3.445-11.954 4.523C7.544 8.566 4.526 9.032 1.403 13.686.373 15.243.247 16.04 0 17.97c.233-1.577 1.132-3.592 3.4-5.756 2.482-2.354 6.398-3.46 14.498-4.74 4.512-.72 5.706-1.609 10.875-4.085C36.611.151 46.887-.185 56.54 2.636c5.217 1.543 5.865 4.046 13.367 5.337 1.013.182 3.71.474 4.89 2.822.476.966 1.143 3.95 1.222 4.473h.168c.057-1.319-.47-4.016-.624-4.523" mask="url(#lzw1ir2did)"/>
                            </g>
                        </g>
                    </g>
                </g>
            </g>
        </g>
    </g>
</svg>
