<svg xmlns="http://www.w3.org/2000/svg" width="343" height="120" viewBox="0 0 343 120">
    <g fill="none" fill-rule="evenodd">
        <g>
            <g>
                <g transform="translate(-16.000000, -3307.000000) translate(16.000000, 112.000000) translate(0.000000, 3195.000000)">
                    <rect width="343" height="120" fill="#BAEDF4" rx="12"/>
                    <g>
                        <g>
                            <g transform="translate(231.000000, 16.000000) translate(10.000000, 7.000000) translate(0.503726, 37.397209)">
                                <path fill="#FFF" d="M60.999 0c.652 0 1.257.354 1.597.934l6.934 11.829c.478.815.73 1.742.73 2.686l.007 9.823H0v-6.928c0-2.155 1.711-3.92 3.865-3.987l11.217-.35L28.256 0h32.743z"/>
                                <ellipse cx="37.748" cy="33.826" fill="#3365A1" fill-opacity=".3" rx="37.748" ry="3.432"/>
                                <path fill="#D9EAFF" d="M30.287 2.924H42.5c.294 0 .532.238.532.532v10.032c0 .293-.238.532-.532.532l-22.062-.011c-.293 0-.531-.238-.531-.532 0-.14.054-.273.152-.373l9.847-10.02c.1-.103.237-.16.38-.16zM46.45 2.924H60.27c.183 0 .353.094.45.249l6.301 10.031c.157.249.082.577-.167.734-.085.053-.183.081-.283.081l-20.12-.01c-.293 0-.531-.239-.531-.533V3.456c0-.294.238-.532.532-.532z"/>
                                <path fill="#C3CCD8" d="M0 24.608h70.267c0 2.398-1.866 4.342-4.168 4.342H3.09C1.383 28.95 0 27.567 0 25.86v-1.253z"/>
                                <rect width="6.177" height="1.136" x="36.82" y="16.279" fill="#C0D0E3" rx=".31"/>
                                <rect width="6.177" height="1.136" x="46.158" y="16.279" fill="#C0D0E3" rx=".31"/>
                                <path fill="#C0D0E3" d="M65.44 17.793h4.827V21.2H65.44c-.294 0-.532-.238-.532-.531v-2.344c0-.294.238-.532.532-.532z"/>
                                <path fill="#454545" d="M19.172 35.208c3.813 0 6.904-3.22 6.904-7.193 0-3.973-3.091-7.193-6.904-7.193-3.813 0-6.904 3.22-6.904 7.193 0 3.972 3.09 7.193 6.904 7.193zM55.871 35.208c3.813 0 6.904-3.22 6.904-7.193 0-3.973-3.09-7.193-6.904-7.193-3.813 0-6.904 3.22-6.904 7.193 0 3.972 3.091 7.193 6.904 7.193z"/>
                                <path fill="#FCFCFF" d="M19.172 32.18c2.207 0 3.997-1.865 3.997-4.165s-1.79-4.165-3.997-4.165c-2.208 0-3.997 1.865-3.997 4.165s1.79 4.164 3.997 4.164zM55.871 32.18c2.208 0 3.997-1.865 3.997-4.165s-1.79-4.165-3.997-4.165-3.997 1.865-3.997 4.165 1.79 4.164 3.997 4.164z"/>
                            </g>
                            <g>
                                <path fill="#4D95FF" d="M14.68 0c8.107 0 14.68 6.55 14.68 14.63 0 4.816-2.335 9.089-5.939 11.755l.62 4.408-4.702-2.286c-1.464.488-3.03.753-4.66.753C6.573 29.26 0 22.71 0 14.63 0 6.55 6.572 0 14.68 0z" transform="translate(231.000000, 16.000000) translate(10.000000, 7.000000) translate(-0.000000, 0.000000)"/>
                                <path stroke="#FFF" stroke-linecap="round" stroke-linejoin="round" stroke-width="1.35" d="M7.748 15.732h2.97m7.923 0h2.971m-1.733-4.196l-2.55 7.662-2.551-7.662h-.196l-2.55 7.662-2.551-7.662" transform="translate(231.000000, 16.000000) translate(10.000000, 7.000000) translate(-0.000000, 0.000000)"/>
                            </g>
                        </g>
                    </g>
                    <g fill="#222" font-family="AppleSDGothicNeo-Bold, Apple SD Gothic Neo" font-weight="bold">
                        <text font-size="16" letter-spacing="-.4" transform="translate(24.000000, 24.000000)">
                            <tspan x="0" y="38">KB차차차 X </tspan> <tspan x="0" y="62">합리적인 렌트 비교</tspan>
                        </text>
                        <text font-size="14" letter-spacing="-.2" opacity=".7" transform="translate(24.000000, 24.000000)">
                            <tspan x="0" y="13">실시간으로 간편하게 비교하기!</tspan>
                        </text>
                    </g>
                </g>
            </g>
        </g>
    </g>
</svg>
