<svg xmlns="http://www.w3.org/2000/svg" xmlns:xlink="http://www.w3.org/1999/xlink" width="343" height="96" viewBox="0 0 343 96">
    <defs>
        <linearGradient id="mti1pjwxgd" x1="50%" x2="50%" y1="0%" y2="100%">
            <stop offset="0%" stop-color="#00D275"/>
            <stop offset="100%" stop-color="#00C4B5"/>
        </linearGradient>
        <filter id="h7rbe0hi3a">
            <feColorMatrix in="SourceGraphic" values="0 0 0 0 1.000000 0 0 0 0 0.800000 0 0 0 0 0.000000 0 0 0 1.000000 0"/>
        </filter>
        <path id="k8pr8jhx2b" d="M0 0H96V88H0z"/>
    </defs>
    <g fill="none" fill-rule="evenodd">
        <g>
            <g>
                <g>
                    <path d="M0 0H343V96H0z" transform="translate(-16.000000, -2735.000000) translate(0.000000, 2719.000000) translate(16.000000, 16.000000)"/>
                    <g>
                        <text fill="#FFF" font-family="AppleSDGothicNeo-Bold, Apple SD Gothic Neo" font-size="14" font-weight="bold" letter-spacing="-.2" transform="translate(-16.000000, -2735.000000) translate(0.000000, 2719.000000) translate(16.000000, 16.000000) translate(112.000000, 8.000000)">
                            <tspan x="0" y="49">맞춤 차량 추천부터 돈이 부족해도</tspan> <tspan x="0" y="69">갓성비있게 구매하는 시뮬레이션까지!</tspan>
                        </text>
                        <text font-family="AppleSDGothicNeo-Bold, Apple SD Gothic Neo" font-size="14" font-weight="bold" letter-spacing="-.2" transform="translate(-16.000000, -2735.000000) translate(0.000000, 2719.000000) translate(16.000000, 16.000000) translate(112.000000, 8.000000)">
                            <tspan x="0" y="21" fill="#FC0">차차차 내한도 알기 </tspan> <tspan x="105.726" y="21" fill="#FFF">조회하면</tspan>
                        </text>
                        <g filter="url(#h7rbe0hi3a)" transform="translate(-16.000000, -2735.000000) translate(0.000000, 2719.000000) translate(16.000000, 16.000000) translate(112.000000, 8.000000)">
                            <g fill="#05B197" transform="translate(43.000000, 0.000000)">
                                <circle cx="2" cy="2" r="2"/>
                                <circle cx="14" cy="2" r="2"/>
                                <circle cx="26" cy="2" r="2"/>
                                <circle cx="41" cy="2" r="2"/>
                                <circle cx="53" cy="2" r="2"/>
                            </g>
                        </g>
                    </g>
                    <g transform="translate(-16.000000, -2735.000000) translate(0.000000, 2719.000000) translate(16.000000, 16.000000) translate(0.000000, 8.000000)">
                        <mask id="bcxmh9metc" fill="#fff">
                            <use xlink:href="#k8pr8jhx2b"/>
                        </mask>
                        <g mask="url(#bcxmh9metc)">
                            <g>
                                <g>
                                    <path fill="#EEE" d="M.004 26.707C.247 11.917 12.509 0 27.6 0c15.243 0 27.6 12.158 27.6 27.156v1.361c0 3.783-3.066 6.85-6.85 6.85H6.85C3.065 35.366 0 32.3 0 28.516v-1.36z" transform="translate(5.000000, 5.000000) translate(16.800000, 37.198441)"/>
                                    <path stroke="#FFF" stroke-linecap="round" stroke-linejoin="bevel" stroke-width="4" d="M46.214 30.008v-2.852c0-10.115-8.334-18.314-18.614-18.314-10.28 0-18.614 8.2-18.614 18.314v2.852" transform="translate(5.000000, 5.000000) translate(16.800000, 37.198441)"/>
                                    <path stroke="url(#mti1pjwxgd)" stroke-linecap="round" stroke-width="4" d="M41.083 14.53c-3.39-3.505-8.178-5.688-13.483-5.688-10.28 0-18.614 8.2-18.614 18.314v2.852" transform="translate(5.000000, 5.000000) translate(16.800000, 37.198441)"/>
                                    <g fill="#555" transform="translate(5.000000, 5.000000) translate(16.800000, 37.198441) translate(30.234620, 30.368752) rotate(-330.000000) translate(-30.234620, -30.368752) translate(25.741597, 20.881269)">
                                        <ellipse cx="4.493" cy="14.382" rx="4.493" ry="4.593"/>
                                        <rect width="3.931" height="15.501" x="2.722" rx="1.966"/>
                                    </g>
                                </g>
                                <g>
                                    <g>
                                        <g>
                                            <path fill="#9BDCC1" d="M15.725 9.034C12.351 11 7.263 10.514 3.357 6.932 2.182 5.01 1.062 3.105 0 1.218 6.192 5.425 14.337 4.805 19.804 0c-1.415 3.083-2.775 6.093-4.079 9.034" transform="translate(5.000000, 5.000000) translate(-0.000000, 0.000000) translate(21.449691, 13.634113)"/>
                                            <path fill="#C4E8DA" d="M6.928 9.26C5.684 8.727 4.47 7.956 3.357 6.932 2.182 5.01 1.062 3.105 0 1.218 1.769 2.423 3.704 3.232 5.69 3.66c.346 1.874.76 3.74 1.238 5.6" transform="translate(5.000000, 5.000000) translate(-0.000000, 0.000000) translate(21.449691, 13.634113)"/>
                                            <path fill="#60B187" d="M16 8.4c.056-.185-.462-.358-.757-.408-.196-.041-.521-.392-.528-.39-1.585 1.637-2.536 1.005-2.617 1.03-.003.006-.668.398-.816.485-.12.082-.927.703-1.313.986 2.082.22 4.143-.154 5.79-1.088M13.797 4.188c-.003.002.448-.688.719-.77.266-.08.272.247.271.248-.33.187-.66.36-.99.522M14.893 3.589c-.002 0 .353-.543.64-.638.289-.095.363.444.275.523-.074.083-.907.12-.915.115" transform="translate(5.000000, 5.000000) translate(-0.000000, 0.000000) translate(21.449691, 13.634113)"/>
                                            <path fill="#FFF" d="M12.499 8.145l-.4.486c0-.005.135.565.733.514.742-.07 1.41-.668 1.883-1.544-.06-.084-.124-.167-.191-.25-.005-.006-.457.828-1.332 1.07-.549.142-.691-.28-.693-.276" transform="translate(5.000000, 5.000000) translate(-0.000000, 0.000000) translate(21.449691, 13.634113)"/>
                                            <path fill="#C4E8DA" d="M12.643 6.204c-.102.435-.202.869-.3 1.302-.004-.009-.127 1.126.744 1.031.01.005.846-.128 1.417-1.106.065-.11.098-.29.155-.417.198-.555.397-1.111.6-1.67.002-.01-.417-.142-1.492.25-.473.17-1.003.322-1.124.61" transform="translate(5.000000, 5.000000) translate(-0.000000, 0.000000) translate(21.449691, 13.634113)"/>
                                        </g>
                                        <path fill="#50B579" d="M14.535 5.414c.237-.014.453.05.499.123.047.072-.144.555-.143.555-.002 0 .29-.36.493-.421 0 0 .168-.35.183-.463.025-.102-1.024.218-1.032.206" transform="translate(5.000000, 5.000000) translate(-0.000000, 0.000000) translate(21.449691, 13.634113)"/>
                                        <path fill="#C4E8DA" d="M14.964 6.01c-.002 0 .297-.42.453-.407.152.015-.104.413-.175.551-.073.139-.157.413-.252.56-.095.147-.274.419-.373.362-.103-.054.343-1.064.347-1.067" transform="translate(5.000000, 5.000000) translate(-0.000000, 0.000000) translate(21.449691, 13.634113)"/>
                                        <path fill="#60B086" d="M12.728 9.21c-.128-.224-.28-.342-.255-.727.007-.132.09-.333.09-.333s.028.13.196.125c.072-.002.22-.089.22-.089.001 0 .132.055.272.009.205-.068.326-.216.326-.216.001 0 .044.1-.171.497-.125.23-.682.74-.678.734" transform="translate(5.000000, 5.000000) translate(-0.000000, 0.000000) translate(21.449691, 13.634113)"/>
                                        <path fill="#60B187" d="M12.643 6.204c-.001-.006.158-.22.983-.479 1.172-.394 1.608-.344 1.878-.313-.002.002.447-1.103.507-1.591.063-.482-.393-.568-1.343-.171-1.112.442-1.307 1.182-1.342 1.282 0 .001-.332.239-.504.628-.17.39-.178.643-.18.644" transform="translate(5.000000, 5.000000) translate(-0.000000, 0.000000) translate(21.449691, 13.634113)"/>
                                    </g>
                                    <g>
                                        <path fill="#9BDCC1" d="M17.48 4.068c-5.074 7.145-10.067 9.784-12.888 10.225C3.272 12.029 1.712 9.678 0 7.11c2.915.737 8.55-.862 14.87-7.11 1.226 1.274 2.095 2.587 2.61 4.068" transform="translate(5.000000, 5.000000) translate(-0.000000, 0.000000) translate(52.997251, 13.367100)"/>
                                        <path fill="#C4E8DA" d="M7.498 13.322c-1.109.54-2.087.845-2.906.97C3.272 12.03 1.712 9.68 0 7.11c.848.211 1.9.23 3.128.004 1.704 2.17 3.182 4.195 4.37 6.208" transform="translate(5.000000, 5.000000) translate(-0.000000, 0.000000) translate(52.997251, 13.367100)"/>
                                        <path fill="#60B187" d="M17.112 4.194l.003-.04c-.1-.005-1.098.719-1.642 1.121-.388.317-1.226.664-1.229.658-.947 2.193-2.51 2.811-2.57 2.82-.002.004-.452.768-.544.948-.078.15-.6 1.325-.793 1.884 2.107-1.524 5.523-5.021 7.142-7.522M9.839 5.206s-.141-.579.11-.728c.252-.15.597.012.596.012-.24.247-.475.485-.706.716M10.603 4.402c.001 0-.098-.426.198-.602.298-.173.997-.01.951.067-.042.092-1.149.548-1.149.535" transform="translate(5.000000, 5.000000) translate(-0.000000, 0.000000) translate(52.997251, 13.367100)"/>
                                        <path fill="#FFF" d="M11.766 8.169l-.091.585c.004-.005.55.228 1.262-.387.887-.772 1.403-1.761 1.307-2.434-.17.054-.343.105-.517.153.004-.011.048.7-.9 1.634-.585.568-1.059.446-1.061.449" transform="translate(5.000000, 5.000000) translate(-0.000000, 0.000000) translate(52.997251, 13.367100)"/>
                                        <path fill="#C4E8DA" d="M10.355 6.953c.256.321.501.642.734.964.01-.012.692.793 1.698-.052-.003.016 1.014-.894.983-1.739-.004-.094-.121-.17-.156-.26-.228-.332-.473-.662-.734-.99.005-.005-.798.302-1.761 1.112-.427.362-.878.723-.764.965" transform="translate(5.000000, 5.000000) translate(-0.000000, 0.000000) translate(52.997251, 13.367100)"/>
                                        <path fill="#50B579" d="M11.933 5.429c.303-.162.672-.301.812-.316.14-.015.333.289.332.289 0 0 .07-.35.32-.546 0 0-.096-.233-.19-.274-.095-.023-1.276.863-1.274.847" transform="translate(5.000000, 5.000000) translate(-0.000000, 0.000000) translate(52.997251, 13.367100)"/>
                                        <path fill="#C4E8DA" d="M13.103 5.315s.024-.371.275-.505c.25-.135.257.188.282.29.026.1.166.24.163.367-.002.127-.016.372-.214.458-.193.083-.502-.611-.506-.61" transform="translate(5.000000, 5.000000) translate(-0.000000, 0.000000) translate(52.997251, 13.367100)"/>
                                        <path fill="#60B086" d="M12.855 8.497c-.33.026-.597.098-.86-.126-.091-.077-.15-.25-.15-.25s.13.05.33-.092c.084-.06.198-.226.198-.226s.205-.086.346-.23c.207-.212.245-.38.245-.38s.144-.006.186.347c.021.2-.297.96-.295.957" transform="translate(5.000000, 5.000000) translate(-0.000000, 0.000000) translate(52.997251, 13.367100)"/>
                                        <path fill="#60B187" d="M10.355 6.953c.002-.006-.036-.213.712-.816 1.074-.877 1.819-1.22 2.25-1.45.004-.001-.447-.648-.888-.835-.42-.183-1.241.064-2.054.684-.938.707-.414 1.234-.38 1.313-.002 0-.155.292 0 .616.156.325.36.488.36.488" transform="translate(5.000000, 5.000000) translate(-0.000000, 0.000000) translate(52.997251, 13.367100)"/>
                                    </g>
                                    <g>
                                        <g fill="#9CDCC2">
                                            <path d="M18.237 7.766c-4.321 1.627-9.074 4.678-13.617 9.151-1.574-1.771-3.123-3.372-4.62-4.801C4.324 6.652 9.08 2.613 13.626 0c1.57 2.419 3.116 5.007 4.61 7.766" transform="translate(5.000000, 5.000000) translate(-0.000000, 0.000000) translate(0.000000, 26.236517) translate(0.000051, 0.000000)"/>
                                        </g>
                                        <g fill="#C4E8DA">
                                            <path d="M4.62 9.145C3.046 7.373 1.497 5.773 0 4.343 1.238 2.779 2.512 1.331 3.806 0c1.561 1.715 3.153 3.601 4.747 5.657C7.235 6.703 5.919 7.866 4.62 9.145z" transform="translate(5.000000, 5.000000) translate(-0.000000, 0.000000) translate(0.000000, 26.236517) translate(0.000000, 7.772528)"/>
                                        </g>
                                        <path fill="#60B187" d="M17.997 7.298c-.004-.016-.172-.17-.177-.186-.161-.18-1.33-.313-1.86-.33-.385-.026-1.271-.294-1.272-.29-.434 1.783-2.086 1.774-2.135 1.805 0 0-.322.716-.388.9-.051.142-.657 1.553-.771 2.174 2.123-1.405 4.83-2.808 6.843-3.605" transform="translate(5.000000, 5.000000) translate(-0.000000, 0.000000) translate(0.000000, 26.236517)"/>
                                        <path fill="#50B579" d="M9.993 3.707s-.22-.7-.016-.826c.204-.126.55.149.55.15-.178.223-.356.449-.534.676M10.565 2.944s-.164-.521.073-.641c.239-.123.925.325.902.402-.023.068-.974.233-.975.24" transform="translate(5.000000, 5.000000) translate(-0.000000, 0.000000) translate(0.000000, 26.236517)"/>
                                        <path fill="#FFF" d="M12.514 7.66l.04.637s.673.456 1.338.155c.825-.372 1.127-1.083.796-1.96-.183-.066-.366-.13-.55-.19 0 .002.267.814-.555 1.342-.513.333-1.07.016-1.07.017" transform="translate(5.000000, 5.000000) translate(-0.000000, 0.000000) translate(0.000000, 26.236517)"/>
                                        <path fill="#C4E8DA" d="M10.788 5.834c.314.428.628.862.942 1.302 0 0 .915 1.083 1.847.653 0-.005.914-.425.623-1.412-.033-.112-.189-.281-.254-.406-.35-.536-.702-1.063-1.055-1.582 0 0-.743-.098-1.53.536-.348.279-.729.604-.573.91" transform="translate(5.000000, 5.000000) translate(-0.000000, 0.000000) translate(0.000000, 26.236517)"/>
                                        <path fill="#50B579" d="M12.056 4.577c.268-.063.613-.042.754.014.141.056.423.514.423.514s-.018-.367.195-.444c0 0-.164-.33-.272-.43-.107-.11-1.1.34-1.1.346" transform="translate(5.000000, 5.000000) translate(-0.000000, 0.000000) translate(0.000000, 26.236517)"/>
                                        <path fill="#C4E8DA" d="M13.238 5.02s-.072-.419.159-.423c.23-.004.326.378.383.511.056.134.25.39.285.537.034.147.091.421-.107.39-.198-.033-.72-1.017-.72-1.015" transform="translate(5.000000, 5.000000) translate(-0.000000, 0.000000) translate(0.000000, 26.236517)"/>
                                        <path fill="#60B187" d="M13.833 8.556c-.38-.155-.667-.199-1.017-.57-.12-.126-.227-.348-.227-.348s.156.108.341.036c.08-.03.163-.168.163-.168s.207 0 .327-.09c.176-.134.172-.304.172-.304s.16.076.31.51c.083.243-.069.934-.069.934M10.788 5.834c0 .002-.071-.275.552-.754.887-.675 1.561-.649 1.96-.663 0-.001-.64-1.016-1.11-1.436-.456-.414-1.171-.468-1.812.06-.747.62-.184 1.352-.134 1.441 0 0-.1.312.106.716.205.404.438.636.438.636" transform="translate(5.000000, 5.000000) translate(-0.000000, 0.000000) translate(0.000000, 26.236517)"/>
                                    </g>
                                    <g>
                                        <path fill="#9BDCC1" d="M14.053 12.057C9.766 8.161 4.045 7.447 0 9.913c.235-2.634.476-5.258.722-7.87 4.313-3.002 10.181-2.696 14.306.92-.315 3.012-.64 6.044-.975 9.094" transform="translate(5.000000, 5.000000) translate(-0.000000, 0.000000) translate(71.371810, 32.341305)"/>
                                        <path fill="#C4E8DA" d="M3.01 8.718c-1.067.23-2.082.63-3.01 1.195.235-2.634.476-5.258.722-7.87.99-.689 2.06-1.203 3.173-1.544-.298 2.727-.594 5.467-.886 8.219" transform="translate(5.000000, 5.000000) translate(-0.000000, 0.000000) translate(71.371810, 32.341305)"/>
                                        <path fill="#60B187" d="M13.8 11.244l.02-.037c-.047-.29-.89-1.773-1.388-2.346-.354-.432-.979-1.461-.98-1.457-1.614.622-2.96-.541-3-.573 0-.006-.707.304-.872.41-.129.069-1.291.802-1.746 1.254 2.612.184 5.84 1.588 8.144 3.562M9.65 1.445s.318-.7.545-.616c.229.084.29.577.29.576-.276.003-.555.016-.836.04M10.572 1.379s.238-.51.493-.375c.258.135.472 1.066.402 1.091-.067.016-.893-.726-.895-.716" transform="translate(5.000000, 5.000000) translate(-0.000000, 0.000000) translate(71.371810, 32.341305)"/>
                                        <path fill="#FFF" d="M8.843 6.332c-.13.164-.26.33-.39.5-.001.005.21.824.958 1.134.96.403 1.731.268 2.041-.562-.117-.214-.234-.425-.352-.634-.002.01-.333.717-1.396.391-.644-.184-.862-.825-.861-.829" transform="translate(5.000000, 5.000000) translate(-0.000000, 0.000000) translate(71.371810, 32.341305)"/>
                                        <path fill="#C4E8DA" d="M8.788 3.663l-.184 1.692c-.001.01-.046 1.474.996 1.9.002-.012 1.072.473 1.5-.381.05-.1.032-.349.064-.486l.212-1.965c-.001.008-.535-.772-1.565-.976-.445-.088-.931-.135-1.023.216" transform="translate(5.000000, 5.000000) translate(-0.000000, 0.000000) translate(71.371810, 32.341305)"/>
                                        <g>
                                            <path fill="#50B579" d="M1.789 2.53c.253.193.516.519.592.684.077.166-.007.714-.007.714s.24-.248.473-.09c0 0 .09-.357.07-.522-.014-.183-1.124-.803-1.128-.786" transform="translate(5.000000, 5.000000) translate(-0.000000, 0.000000) translate(71.371810, 32.341305) translate(8.787353, 1.261690)"/>
                                            <path fill="#C4E8DA" d="M2.437 3.879s.232-.33.428-.11c.198.22.014.542-.03.676-.045.134-.056.475-.129.595-.072.12-.214.34-.364.137-.15-.202.095-1.299.095-1.298" transform="translate(5.000000, 5.000000) translate(-0.000000, 0.000000) translate(71.371810, 32.341305) translate(8.787353, 1.261690)"/>
                                            <path fill="#60B086" d="M.504 6.729C.297 6.323.098 6.073.072 5.537c-.01-.184.056-.426.057-.426 0 0 .048.197.242.29.082.038.242.008.241.008 0 0 .166.165.326.2.236.054.35-.062.35-.062s.081.185-.09.6c-.096.228-.693.577-.694.582" transform="translate(5.000000, 5.000000) translate(-0.000000, 0.000000) translate(71.371810, 32.341305) translate(8.787353, 1.261690)"/>
                                            <path fill="#60B187" d="M0 2.402c0 .006.13-.276.903-.123 1.134.251 1.662.923 2.005 1.288 0 0 .172-1.23.091-1.944C2.921.935 2.414.206 1.583.023.643-.165.54.863.518.961c0 0-.276.155-.403.622C-.01 2.05 0 2.402 0 2.402" transform="translate(5.000000, 5.000000) translate(-0.000000, 0.000000) translate(71.371810, 32.341305) translate(8.787353, 1.261690)"/>
                                        </g>
                                    </g>
                                    <g>
                                        <path fill="#9BDCC1" d="M14.053 12.057C9.766 8.161 4.045 7.447 0 9.913c.235-2.634.476-5.258.722-7.87 4.313-3.002 10.181-2.696 14.306.92-.315 3.012-.64 6.044-.975 9.094" transform="translate(5.000000, 5.000000) translate(-0.000000, 0.000000) translate(49.917259, 8.977941) rotate(-150.000000) translate(-49.917259, -8.977941) translate(42.403164, 2.949373)"/>
                                        <path fill="#C4E8DA" d="M3.01 8.718c-1.067.23-2.082.63-3.01 1.195.235-2.634.476-5.258.722-7.87.99-.689 2.06-1.203 3.173-1.544-.298 2.727-.594 5.467-.886 8.219" transform="translate(5.000000, 5.000000) translate(-0.000000, 0.000000) translate(49.917259, 8.977941) rotate(-150.000000) translate(-49.917259, -8.977941) translate(42.403164, 2.949373)"/>
                                        <path fill="#60B187" d="M13.8 11.244l.02-.037c-.047-.29-.89-1.773-1.388-2.346-.354-.432-.979-1.461-.98-1.457-1.614.622-2.96-.541-3-.573 0-.006-.707.304-.872.41-.129.069-1.291.802-1.746 1.254 2.612.184 5.84 1.588 8.144 3.562M9.65 1.445s.318-.7.545-.616c.229.084.29.577.29.576-.276.003-.555.016-.836.04M10.572 1.379s.238-.51.493-.375c.258.135.472 1.066.402 1.091-.067.016-.893-.726-.895-.716" transform="translate(5.000000, 5.000000) translate(-0.000000, 0.000000) translate(49.917259, 8.977941) rotate(-150.000000) translate(-49.917259, -8.977941) translate(42.403164, 2.949373)"/>
                                        <path fill="#FFF" d="M8.843 6.332c-.13.164-.26.33-.39.5-.001.005.21.824.958 1.134.96.403 1.731.268 2.041-.562-.117-.214-.234-.425-.352-.634-.002.01-.333.717-1.396.391-.644-.184-.862-.825-.861-.829" transform="translate(5.000000, 5.000000) translate(-0.000000, 0.000000) translate(49.917259, 8.977941) rotate(-150.000000) translate(-49.917259, -8.977941) translate(42.403164, 2.949373)"/>
                                        <path fill="#C4E8DA" d="M8.788 3.663l-.184 1.692c-.001.01-.046 1.474.996 1.9.002-.012 1.072.473 1.5-.381.05-.1.032-.349.064-.486l.212-1.965c-.001.008-.535-.772-1.565-.976-.445-.088-.931-.135-1.023.216" transform="translate(5.000000, 5.000000) translate(-0.000000, 0.000000) translate(49.917259, 8.977941) rotate(-150.000000) translate(-49.917259, -8.977941) translate(42.403164, 2.949373)"/>
                                        <g>
                                            <path fill="#50B579" d="M1.789 2.53c.253.193.516.519.592.684.077.166-.007.714-.007.714s.24-.248.473-.09c0 0 .09-.357.07-.522-.014-.183-1.124-.803-1.128-.786" transform="translate(5.000000, 5.000000) translate(-0.000000, 0.000000) translate(49.917259, 8.977941) rotate(-150.000000) translate(-49.917259, -8.977941) translate(42.403164, 2.949373) translate(8.787353, 1.261690)"/>
                                            <path fill="#C4E8DA" d="M2.437 3.879s.232-.33.428-.11c.198.22.014.542-.03.676-.045.134-.056.475-.129.595-.072.12-.214.34-.364.137-.15-.202.095-1.299.095-1.298" transform="translate(5.000000, 5.000000) translate(-0.000000, 0.000000) translate(49.917259, 8.977941) rotate(-150.000000) translate(-49.917259, -8.977941) translate(42.403164, 2.949373) translate(8.787353, 1.261690)"/>
                                            <path fill="#60B086" d="M.504 6.729C.297 6.323.098 6.073.072 5.537c-.01-.184.056-.426.057-.426 0 0 .048.197.242.29.082.038.242.008.241.008 0 0 .166.165.326.2.236.054.35-.062.35-.062s.081.185-.09.6c-.096.228-.693.577-.694.582" transform="translate(5.000000, 5.000000) translate(-0.000000, 0.000000) translate(49.917259, 8.977941) rotate(-150.000000) translate(-49.917259, -8.977941) translate(42.403164, 2.949373) translate(8.787353, 1.261690)"/>
                                            <path fill="#60B187" d="M0 2.402c0 .006.13-.276.903-.123 1.134.251 1.662.923 2.005 1.288 0 0 .172-1.23.091-1.944C2.921.935 2.414.206 1.583.023.643-.165.54.863.518.961c0 0-.276.155-.403.622C-.01 2.05 0 2.402 0 2.402" transform="translate(5.000000, 5.000000) translate(-0.000000, 0.000000) translate(49.917259, 8.977941) rotate(-150.000000) translate(-49.917259, -8.977941) translate(42.403164, 2.949373) translate(8.787353, 1.261690)"/>
                                        </g>
                                    </g>
                                </g>
                            </g>
                        </g>
                    </g>
                </g>
            </g>
        </g>
    </g>
</svg>
