<svg xmlns="http://www.w3.org/2000/svg" xmlns:xlink="http://www.w3.org/1999/xlink" width="40" height="40" viewBox="0 0 40 40">
    <defs>
        <circle id="95wu2mtc5a" cx="20" cy="20" r="20"/>
    </defs>
    <g fill="none" fill-rule="evenodd">
        <g>
            <g transform="translate(-16.000000, -128.000000) translate(16.000000, 128.000000)">
                <mask id="vg83u3f1bb" fill="#fff">
                    <use xlink:href="#95wu2mtc5a"/>
                </mask>
                <use fill="#EEE" xlink:href="#95wu2mtc5a"/>
                <g mask="url(#vg83u3f1bb)">
                    <g>
                        <path d="M0 0H45V56H0z" transform="translate(24.500000, 31.000000) scale(-1, 1) translate(-24.500000, -31.000000) translate(2.000000, 3.000000)"/>
                        <g>
                            <g>
                                <g fill="#621717">
                                    <path d="M10.415 1.33c-.5.016-.998-.086-1.456-.29C1.53-2.282-.41 2.877.07 9.12c.133 1.739 2.614 2.776 6.907 3.765 3.095.713 2.953 4.434 4.21 3.787.621-.32 2.493-1.813 2.718-2.468 1.876-2.03 2.8-13.053-3.49-12.873z" transform="translate(24.500000, 31.000000) scale(-1, 1) translate(-24.500000, -31.000000) translate(2.000000, 3.000000) translate(1.000000, 3.000000) translate(18.071902, 0.000000)"/>
                                </g>
                                <path fill="#FFD4C0" d="M17.715 23.208c2.702 1.435 6.543 2.463 9.703 2.496.624.007 4.866-.98 4.558-2.799-.47-.12-1.104-.567-1.815-.695-.607-.11-.765-.46-.87-.747-.59-1.616.158-5.872.158-6.379l-.04-.033.33-3.272c-.367.404-.733.344-.76-.392-.062-1.674-.156-2.264-1.877-2.697-2.716-.68-1.966-4.01-4.672-3.29-1.39.494-2.645 1.707-2.905 3.65 0 0-.28 1.445-.224 3.252.022.687.092 1.425.243 2.158.386 1.85 1.299 3.656 3.286 4.454.022 1.203-.029 2.457-.35 2.805-.283.303-.56.35-1.153.49-1.086.257-2.544.637-3.612.999" transform="translate(24.500000, 31.000000) scale(-1, 1) translate(-24.500000, -31.000000) translate(2.000000, 3.000000) translate(1.000000, 3.000000)"/>
                                <path fill="#030241" d="M20.935 9.651c.79-.002 1.393.43 1.403.436.054.04.067.118.027.173-.04.056-.116.068-.172.029-.047-.035-1.18-.838-2.32-.048-.057.038-.134.024-.171-.033-.04-.056-.025-.134.03-.173.414-.285.83-.383 1.203-.384M26.426 9.68c.586.167.968.493.975.5.052.044.058.123.013.175-.044.052-.122.057-.172.013-.046-.04-1.12-.947-2.41-.317-.06.03-.134.004-.163-.058-.03-.062-.005-.136.057-.166.637-.311 1.233-.28 1.7-.146M21.44 11.737c0 .377-.246.683-.55.684-.305 0-.552-.305-.553-.682 0-.376.246-.682.55-.683.304 0 .551.304.552.681M26.323 11.886c.002.377-.243.684-.548.686-.303.002-.552-.302-.554-.68-.003-.376.242-.683.547-.685.304-.002.552.302.555.68M24.61 19.096c.797 0 1.684-.212 2.524-.868.059-.046.07-.131.024-.19-.046-.06-.13-.071-.189-.025-2.212 1.727-4.791.161-4.817.146-.064-.04-.146-.02-.186.044-.038.064-.019.147.045.187.017.01 1.159.706 2.6.706M23.252 14.535c-.294-.023-.562-.145-.753-.354-.211-.233-.287-.53-.207-.816.151-.536.281-1.038.386-1.463.06-.21.315-.12.254.089-.105.426-.234.927-.385 1.46-.05.18.001.37.14.523.182.2.565.373 1.046.21.07-.025.145.019.167.095.022.078-.017.16-.088.184-.187.064-.378.087-.56.072" transform="translate(24.500000, 31.000000) scale(-1, 1) translate(-24.500000, -31.000000) translate(2.000000, 3.000000) translate(1.000000, 3.000000)"/>
                                <path fill="#FFF" d="M22.007 15.36c-.273-.058.39 1.542 1.74 1.452 1.408-.094 2.063-1.887 1.684-1.665-1.314.464-2.3.531-3.424.212" transform="translate(24.500000, 31.000000) scale(-1, 1) translate(-24.500000, -31.000000) translate(2.000000, 3.000000) translate(1.000000, 3.000000)"/>
                                <path fill="#FFD4C0" d="M30.099 10.569c-.51.48-.707.797-1.075.911l.237 2.632c.03.11.08.207.148.287.475.567 1.795.334 2.49-2.226.44-1.617-1.116-2.25-1.8-1.604" transform="translate(24.500000, 31.000000) scale(-1, 1) translate(-24.500000, -31.000000) translate(2.000000, 3.000000) translate(1.000000, 3.000000)"/>
                                <path fill="#030241" d="M31.231 12.596c.013-.026.31-.644.204-1.104-.07-.3-.423-.687-.963-.561-.06.014-.097.074-.084.134.015.06.074.099.134.084.407-.094.654.21.696.393.088.382-.183.95-.186.955-.027.055-.004.122.05.15.014.006.028.01.04.01.044.004.088-.02.11-.061z" transform="translate(24.500000, 31.000000) scale(-1, 1) translate(-24.500000, -31.000000) translate(2.000000, 3.000000) translate(1.000000, 3.000000)"/>
                                <path fill="#173D6D" d="M43.118 47.777h.608c.527-6.182-.183-15.89-4.373-21.174-2.532-3.194-5.927-4.202-9.191-4.712-2.394 1.412-6.684 1.537-8.835 0-3.887.76-10.737 2.765-14.67 16.992-2.354 8.516.743 10.842 2.752 11.09 1.89.231 3.976-.96 4.393-3.404.032.537.069.823.145 1.209h29.171z" transform="translate(24.500000, 31.000000) scale(-1, 1) translate(-24.500000, -31.000000) translate(2.000000, 3.000000) translate(1.000000, 3.000000)"/>
                                <path fill="#FFD4C0" d="M6.76 29.969c-.015-.06.296-2.968.207-3.774-.094-.855-.695-2.607-.695-2.607-.194-.611-.39-.763-.612-.7-.302.084-.35.407-.314.831.04.498.19 1.498.185 1.99-.002.14-.018.32-.044.526l-2.19-5.25c-.266-.533-.504-.62-.733-.522-.218.094-.31.388-.21.678.322.95.734 2.8.786 3.05.005.021-.052.059-.071.022-.323-.624-1.162-.095-1.08.421.008.048-.033.066-.07.038-.469-.352-1.065.294-.868.683.01.018-.053.037-.087.01-.266-.218-1.144.058-.931.82.077.277.145.542.2.802.513 2.434 1.568 3.743 2.423 5.008.25.37 2.401 10.444 4.246 14.701.584 1.344 2.242 2.539 3.42 2.306 1.604-.318 2.998-2.217 1.602-6.453-1.366-4.146-4.863-11.375-5.164-12.58z" transform="translate(24.500000, 31.000000) scale(-1, 1) translate(-24.500000, -31.000000) translate(2.000000, 3.000000) translate(1.000000, 3.000000)"/>
                            </g>
                        </g>
                    </g>
                </g>
            </g>
        </g>
    </g>
</svg>
