<svg xmlns="http://www.w3.org/2000/svg" xmlns:xlink="http://www.w3.org/1999/xlink" width="92" height="110" viewBox="0 0 92 110">
    <defs>
        <path id="fi02o16lba" d="M1.036.006C.43.006-.047.478.004 1.025L2.66 30.418c.025.325.306.576.65.576l25.401-.001c.338 0 .628-.244.668-.564l3.63-29.387C33.092.489 32.624 0 32.012 0L1.036.006z"/>
        <path id="hj3anomm6c" d="M13.218.362C11.75.364 10.28.367 8.81.372c-2.338.004-4.678.01-7.018.016C1.262.389.729.39.197.393c-.263 0-.263.391 0 .391l4.408-.01C6.943.768 9.283.764 11.622.757l1.596-.003c.264 0 .264-.392.001-.392h-.001z"/>
        <path id="vdav7dq0fe" d="M8.479.355C6.064.366 3.649.38 1.234.393.888.396.542.397.197.398c-.263.003-.263.396 0 .393C2.613.778 5.027.766 7.44.752L8.479.747C8.74.746 8.74.355 8.48.355H8.48z"/>
        <path id="6pxnae9d2g" d="M0 6.323s4.532 3.682 10.701 8.16c6.133 4.452 10.675 9.17 17.441 11.387 6.155 2.015 11.868.82 14.466-4.32.592-1.169 1.446-3.278 1.146-6.789-.624-7.31-9.653-5.21-12.89-6.26C19.66 4.868 5.568 0 5.568 0L0 6.323z"/>
        <path id="s666lx1hai" d="M7.272.073C7.16.107 7.05.157 6.98.244c-.088.108-.1.257-.079.393.06.417.35.768.647 1.078.638.662 1.376 1.138 2.096 1.701.584.458 1.104 1.051 1.857 1.276-1.084-.324-2.292-.446-3.407-.72-1.702-.422-3.385-.905-5.103-1.265-.302-.064-.615-.12-.916-.05-.082.018-.164.05-.24.091-.196.11-.348.29-.363.503-.027.375.366.75.49 1.095-.538-.111-1.248-.216-1.681.2-.268.255-.341.663-.233 1.009.108.347.378.635.697.827.352.212.253.59.403.917.193.428.539.77.902 1.07 2.036 1.693 4.615 2.654 7.183 3.336 2.787.738 5.336 1.854 8.276 1.188.712-.16 1.42-.401 1.99-.842 1.13-.87 1.959-2.115 2.296-3.467.391-1.562-.025-3.157.265-4.731.149-.801.46-1.518.579-2.336.013-.087.025-.183-.018-.26-.062-.114-.21-.152-.341-.167-.839-.094-1.678.292-2.265.872-.606.598-.909 2.026-1.581 2.174-.803.177-2.379-.517-3.128-.798-1.982-.743-3.774-1.866-5.68-2.76C9.04.306 8.405 0 7.776 0c-.17 0-.338.023-.504.073z"/>
        <path id="qfhzkeizck" d="M.118.439c.58.323 1.203.581 1.82.833.618.255 1.246.51 1.895.689.3.085.429-.37.128-.452-.624-.173-1.23-.416-1.825-.66C1.536.602.93.35.364.034.32.01.28 0 .242 0 .03 0-.11.31.118.439z"/>
        <path id="uym4ji32rm" d="M.12.437c2.214 1.165 4.584 2.035 7.042 2.578.304.067.435-.386.128-.454C4.872 2.03 2.543 1.181.365.031.325.009.284 0 .247 0 .03 0-.113.312.12.437z"/>
        <path id="avavtpniio" d="M.125.429c2.147.962 4.32 1.928 6.664 2.336.306.054.437-.398.13-.452C4.615 1.913 2.48.97.37.024.334.008.297 0 .262 0 .033 0-.12.319.125.429z"/>
    </defs>
    <g fill="none" fill-rule="evenodd">
        <g>
            <g>
                <g>
                    <g>
                        <g>
                            <path d="M0 0H92V110H0z" transform="translate(-40.000000, -994.000000) translate(16.000000, 612.000000) translate(0.000000, 74.000000) translate(24.000000, 308.000000) translate(46.000000, 55.000000) scale(-1, 1) translate(-46.000000, -55.000000)"/>
                            <g>
                                <g>
                                    <g fill="#621717">
                                        <path d="M21.134 2.58c-1.015.029-2.025-.168-2.954-.565C3.102-4.423-.833 5.58.14 17.68c.27 3.373 5.305 5.384 14.017 7.302 6.28 1.382 5.992 8.596 8.541 7.343 1.262-.621 5.061-3.515 5.517-4.786 3.808-3.934 5.683-25.308-7.08-24.959z" transform="translate(-40.000000, -994.000000) translate(16.000000, 612.000000) translate(0.000000, 74.000000) translate(24.000000, 308.000000) translate(46.000000, 55.000000) scale(-1, 1) translate(-46.000000, -55.000000) translate(2.000000, 5.789474) translate(36.671879, 0.000000)"/>
                                    </g>
                                    <path fill="#FFD4C0" d="M35.947 44.996c5.483 2.782 13.277 4.776 19.69 4.84 1.267.012 9.875-1.9 9.249-5.427-.955-.233-2.24-1.1-3.682-1.349-1.232-.21-1.554-.89-1.766-1.447-1.198-3.134.32-11.384.32-12.367-.028-.023-.052-.043-.082-.065l.673-6.344c-.747.783-1.49.667-1.546-.76-.124-3.245-.314-4.39-3.807-5.228-5.512-1.32-3.989-7.775-9.481-6.378-2.822.957-5.366 3.308-5.893 7.074 0 0-.57 2.804-.457 6.306.046 1.332.187 2.764.495 4.184.782 3.588 2.635 7.088 6.666 8.636.045 2.332-.057 4.764-.71 5.439-.574.587-1.137.68-2.339.95-2.203.498-5.163 1.234-7.33 1.936" transform="translate(-40.000000, -994.000000) translate(16.000000, 612.000000) translate(0.000000, 74.000000) translate(24.000000, 308.000000) translate(46.000000, 55.000000) scale(-1, 1) translate(-46.000000, -55.000000) translate(2.000000, 5.789474)"/>
                                    <path fill="#030241" d="M42.483 18.712c1.602-.004 2.826.833 2.845.845.11.078.137.228.055.336-.08.108-.235.132-.348.055-.096-.068-2.394-1.625-4.71-.093-.113.074-.27.047-.346-.063-.08-.11-.05-.26.063-.336.838-.553 1.682-.743 2.44-.744M53.623 18.77c1.19.322 1.966.954 1.98.966.105.086.117.239.027.34-.09.1-.248.11-.35.025-.093-.076-2.273-1.836-4.89-.614-.122.058-.272.009-.332-.113-.06-.119-.008-.263.116-.32 1.294-.605 2.503-.543 3.45-.285M43.505 22.757c0 .73-.498 1.324-1.115 1.325-.618 0-1.12-.59-1.12-1.322-.003-.73.497-1.323 1.115-1.325.616 0 1.118.59 1.12 1.322M53.415 23.046c.004.73-.493 1.326-1.11 1.329-.617.003-1.122-.586-1.127-1.317-.005-.73.492-1.326 1.11-1.33.617-.003 1.122.586 1.127 1.318M49.94 37.024c1.616 0 3.416-.41 5.121-1.683.119-.089.141-.254.049-.37-.094-.116-.265-.136-.384-.047-4.488 3.349-9.723.313-9.775.282-.13-.077-.297-.038-.376.086-.079.124-.04.285.09.362.035.022 2.352 1.37 5.276 1.37M47.183 28.182c-.596-.046-1.14-.282-1.527-.687-.43-.451-.583-1.028-.42-1.583.306-1.038.57-2.012.783-2.836.123-.407.639-.234.515.172-.213.826-.475 1.797-.78 2.833-.104.346 0 .716.285 1.013.368.385 1.145.723 2.121.405.141-.046.293.037.339.186.045.15-.036.31-.179.356-.38.123-.767.168-1.137.14" transform="translate(-40.000000, -994.000000) translate(16.000000, 612.000000) translate(0.000000, 74.000000) translate(24.000000, 308.000000) translate(46.000000, 55.000000) scale(-1, 1) translate(-46.000000, -55.000000) translate(2.000000, 5.789474)"/>
                                    <path fill="#FFF" d="M44.658 29.78c-.555-.112.79 2.99 3.528 2.816 2.86-.183 4.188-3.66 3.42-3.23-2.667.9-4.668 1.03-6.948.413" transform="translate(-40.000000, -994.000000) translate(16.000000, 612.000000) translate(0.000000, 74.000000) translate(24.000000, 308.000000) translate(46.000000, 55.000000) scale(-1, 1) translate(-46.000000, -55.000000) translate(2.000000, 5.789474)"/>
                                    <path fill="#FFD4C0" d="M61.077 20.491c-1.033.93-1.434 1.545-2.18 1.767l.48 5.104c.06.21.163.4.3.555.965 1.1 3.644.647 5.053-4.316.891-3.134-2.265-4.361-3.653-3.11" transform="translate(-40.000000, -994.000000) translate(16.000000, 612.000000) translate(0.000000, 74.000000) translate(24.000000, 308.000000) translate(46.000000, 55.000000) scale(-1, 1) translate(-46.000000, -55.000000) translate(2.000000, 5.789474)"/>
                                    <path fill="#030241" d="M63.375 24.421c.025-.05.627-1.25.414-2.14-.14-.583-.858-1.331-1.954-1.088-.123.027-.197.144-.17.26.028.118.15.191.27.164.826-.184 1.329.405 1.414.76.177.742-.373 1.841-.379 1.853-.054.106-.008.237.104.29.026.012.054.02.08.021.09.007.178-.039.221-.12z" transform="translate(-40.000000, -994.000000) translate(16.000000, 612.000000) translate(0.000000, 74.000000) translate(24.000000, 308.000000) translate(46.000000, 55.000000) scale(-1, 1) translate(-46.000000, -55.000000) translate(2.000000, 5.789474)"/>
                                    <path fill="#173D6D" d="M87.496 92.632h1.234c1.07-11.987-.372-30.808-8.875-41.054-5.137-6.192-12.027-8.147-18.65-9.135-4.857 2.737-13.562 2.98-17.927 0-7.888 1.472-21.788 5.36-29.768 32.944-4.777 16.512 1.507 21.02 5.583 21.501 3.836.45 8.067-1.861 8.915-6.6.064 1.042.139 1.597.293 2.345l52.517-.001h6.678z" transform="translate(-40.000000, -994.000000) translate(16.000000, 612.000000) translate(0.000000, 74.000000) translate(24.000000, 308.000000) translate(46.000000, 55.000000) scale(-1, 1) translate(-46.000000, -55.000000) translate(2.000000, 5.789474)"/>
                                    <path fill="#FFD4C0" d="M13.718 58.104c-.031-.114.6-5.754.419-7.317-.19-1.656-1.41-5.055-1.41-5.055-.394-1.185-.79-1.478-1.241-1.358-.614.164-.71.791-.638 1.613.083.965.387 2.905.375 3.856-.003.273-.035.624-.089 1.022l-4.442-10.18c-.541-1.031-1.024-1.202-1.488-1.012-.443.182-.63.753-.429 1.316.655 1.843 1.49 5.43 1.598 5.914.01.04-.106.113-.145.04-.656-1.208-2.358-.183-2.193.818.017.094-.065.128-.141.073-.952-.683-2.162.571-1.76 1.324.019.036-.11.072-.177.02-.54-.422-2.322.112-1.89 1.59.157.538.294 1.051.405 1.554 1.042 4.72 3.182 7.258 4.917 9.71.509.717 4.873 20.25 8.617 28.503 1.184 2.606 4.55 4.923 6.938 4.471 3.256-.615 6.086-4.299 3.253-12.51-2.772-8.04-9.868-22.055-10.48-24.392z" transform="translate(-40.000000, -994.000000) translate(16.000000, 612.000000) translate(0.000000, 74.000000) translate(24.000000, 308.000000) translate(46.000000, 55.000000) scale(-1, 1) translate(-46.000000, -55.000000) translate(2.000000, 5.789474)"/>
                                    <path fill="#030241" d="M8.86 55.757c-.118.023-.234-.047-.266-.159-.008-.028-.748-2.868 2.01-4.57.106-.067.247-.036.315.067.068.102.038.239-.069.304-2.48 1.53-1.82 4.062-1.815 4.087.032.117-.04.238-.161.27l-.014.001M7.562 61.932c-1.015.197-1.794-.088-1.84-.106-.118-.043-.175-.172-.13-.285.046-.113.177-.169.296-.125.06.022 1.466.526 2.896-.485.102-.072.244-.05.32.047.073.099.052.236-.05.308-.515.364-1.027.555-1.492.646M8.181 50.57l-1.227-2.783c-.057-.13-.212-.192-.347-.135-.134.055-.197.205-.14.334l1.228 2.785c.25.562.212.949-.113 1.153-.433.273-.849-.14-.965-.275-.367-.418-.748-1.038-1.115-1.64-.17-.28-.26-.414-.638-1.019-.075-.121-.228-.21-.361-.15-.142.063-.192.164-.124.358.007.018.402 1.095.608 1.636.206.542.42 1.103.608 1.638.21.596-.213.824-.349.88-.128.053-.519.214-1.049-.606 0 0-1.402-2.303-1.58-2.57-.087-.133-.23-.174-.344-.14-.111.034-.191.14-.145.302.093.322.336.906.522 1.311.26.566.515 1.1.65 1.654.087.366-.093.683-.313.796-.058.029-.214.092-.425.024-.241-.075-.451-.29-.615-.62C1.643 52.888.77 51.11.77 51.11c-.085-.17-.277-.172-.398-.086-.09.065-.143.177-.081.305 0 0 .875 1.779 1.18 2.393.287.58.662.801.928.886.187.06.384.07.567.034.096-.018.19-.05.275-.093.47-.243.714-.816.583-1.363l-.024-.094c.514.75 1.027.875 1.425.799.082-.016.159-.04.229-.07.512-.211.909-.761.643-1.513-.107-.303-.221-.61-.338-.92.151.216.302.418.453.591.373.425.842.61 1.277.525.131-.024.26-.076.382-.152.322-.202.789-.703.31-1.781" transform="translate(-40.000000, -994.000000) translate(16.000000, 612.000000) translate(0.000000, 74.000000) translate(24.000000, 308.000000) translate(46.000000, 55.000000) scale(-1, 1) translate(-46.000000, -55.000000) translate(2.000000, 5.789474)"/>
                                    <path fill="#2A3344" d="M20.36 95.26c3.003-.203 5.515-2.756 6.085-4.153.056-.137-.013-.29-.155-.344-.141-.054-.3.014-.356.149-.525 1.285-2.838 3.633-5.609 3.82l-.098.006c-2.383.116-4.527-1.475-6.2-4.603-.07-.13-.234-.18-.37-.112-.134.066-.187.225-.117.355 2.247 4.2 4.892 4.977 6.714 4.889l.106-.007M73.219 98.47c.076 0 .153-.026.212-.078.115-.104.114-.273-.002-.376-1.954-1.718-2.343-11.643-2.687-20.398-.076-1.957-.157-3.98-.25-5.867-.007-.147-.148-.266-.312-.255-.163.007-.293.131-.285.278.094 1.885.174 3.907.25 5.862.381 9.716.741 18.893 2.862 20.757.06.052.136.077.212.077M28.708 92.632c-.738-3.528-1.073-10.103.37-22.358.018-.146-.09-.276-.24-.294-.152-.016-.287.089-.304.233-1.417 12.02-1.15 18.703-.392 22.42h.566z" transform="translate(-40.000000, -994.000000) translate(16.000000, 612.000000) translate(0.000000, 74.000000) translate(24.000000, 308.000000) translate(46.000000, 55.000000) scale(-1, 1) translate(-46.000000, -55.000000) translate(2.000000, 5.789474)"/>
                                    <path fill="#00AE7E" d="M53.749 88.016c.338 0 .627-.243.667-.563l3.63-29.387c.083-.554-.385-1.042-.998-1.042l-30.976.004c-.603 0-1.082.474-1.032 1.02l2.657 29.392c.025.326.308.577.65.577l25.402-.001z" transform="translate(-40.000000, -994.000000) translate(16.000000, 612.000000) translate(0.000000, 74.000000) translate(24.000000, 308.000000) translate(46.000000, 55.000000) scale(-1, 1) translate(-46.000000, -55.000000) translate(2.000000, 5.789474)"/>
                                </g>
                                <g transform="translate(-40.000000, -994.000000) translate(16.000000, 612.000000) translate(0.000000, 74.000000) translate(24.000000, 308.000000) translate(46.000000, 55.000000) scale(-1, 1) translate(-46.000000, -55.000000) translate(2.000000, 5.789474) translate(25.037054, 57.023423)">
                                    <mask id="srmqya1a9b" fill="#fff">
                                        <use xlink:href="#fi02o16lba"/>
                                    </mask>
                                    <path fill="#00C8C3" d="M-4.981 35.798L37.999 35.798 37.999 -4.804 -4.981 -4.804z" mask="url(#srmqya1a9b)"/>
                                </g>
                                <g transform="translate(-40.000000, -994.000000) translate(16.000000, 612.000000) translate(0.000000, 74.000000) translate(24.000000, 308.000000) translate(46.000000, 55.000000) scale(-1, 1) translate(-46.000000, -55.000000) translate(2.000000, 5.789474) translate(41.892640, 59.054810)">
                                    <mask id="zuy5a0aadd" fill="#fff">
                                        <use xlink:href="#hj3anomm6c"/>
                                    </mask>
                                    <path fill="#FFF" d="M-4.979 5.589L18.396 5.589 18.396 -4.445 -4.979 -4.445z" mask="url(#zuy5a0aadd)"/>
                                </g>
                                <g transform="translate(-40.000000, -994.000000) translate(16.000000, 612.000000) translate(0.000000, 74.000000) translate(24.000000, 308.000000) translate(46.000000, 55.000000) scale(-1, 1) translate(-46.000000, -55.000000) translate(2.000000, 5.789474) translate(27.783565, 59.164837)">
                                    <mask id="sfh383mzgf" fill="#fff">
                                        <use xlink:href="#vdav7dq0fe"/>
                                    </mask>
                                    <path fill="#FFF" d="M-4.979 5.598L13.655 5.598 13.655 -4.452 -4.979 -4.452z" mask="url(#sfh383mzgf)"/>
                                </g>
                                <g transform="translate(-40.000000, -994.000000) translate(16.000000, 612.000000) translate(0.000000, 74.000000) translate(24.000000, 308.000000) translate(46.000000, 55.000000) scale(-1, 1) translate(-46.000000, -55.000000) translate(2.000000, 5.789474) translate(45.469793, 74.021751)">
                                    <mask id="7g69ym0amh" fill="#fff">
                                        <use xlink:href="#6pxnae9d2g"/>
                                    </mask>
                                    <path fill="#FFD4C0" d="M-5.937 32.527L49.756 32.527 49.756 -5.731 -5.937 -5.731z" mask="url(#7g69ym0amh)"/>
                                </g>
                                <g transform="translate(-40.000000, -994.000000) translate(16.000000, 612.000000) translate(0.000000, 74.000000) translate(24.000000, 308.000000) translate(46.000000, 55.000000) scale(-1, 1) translate(-46.000000, -55.000000) translate(2.000000, 5.789474) translate(31.907867, 67.739062)">
                                    <mask id="upvgx1rj1j" fill="#fff">
                                        <use xlink:href="#s666lx1hai"/>
                                    </mask>
                                    <path fill="#FFD4C0" d="M-5.938 18.827L28.589 18.827 28.589 -5.729 -5.938 -5.729z" mask="url(#upvgx1rj1j)"/>
                                </g>
                                <path fill="#621717" d="M41.664 71.755c.578.323 1.203.58 1.818.833.62.254 1.247.51 1.896.689.3.083.429-.368.128-.45-.623-.174-1.23-.418-1.825-.663-.6-.247-1.206-.499-1.773-.815-.27-.15-.516.254-.244.406" transform="translate(-40.000000, -994.000000) translate(16.000000, 612.000000) translate(0.000000, 74.000000) translate(24.000000, 308.000000) translate(46.000000, 55.000000) scale(-1, 1) translate(-46.000000, -55.000000) translate(2.000000, 5.789474)"/>
                                <g transform="translate(-40.000000, -994.000000) translate(16.000000, 612.000000) translate(0.000000, 74.000000) translate(24.000000, 308.000000) translate(46.000000, 55.000000) scale(-1, 1) translate(-46.000000, -55.000000) translate(2.000000, 5.789474) translate(41.545351, 71.315908)">
                                    <mask id="0mfsog1vfl" fill="#fff">
                                        <use xlink:href="#qfhzkeizck"/>
                                    </mask>
                                    <path fill="#030241" d="M-5.938 7.703L10.071 7.703 10.071 -5.73 -5.938 -5.73z" mask="url(#0mfsog1vfl)"/>
                                </g>
                                <path fill="#621717" d="M34.166 72.598c2.213 1.167 4.584 2.036 7.042 2.578.304.068.435-.385.129-.453-2.419-.531-4.748-1.382-6.926-2.531-.273-.143-.52.261-.245.406" transform="translate(-40.000000, -994.000000) translate(16.000000, 612.000000) translate(0.000000, 74.000000) translate(24.000000, 308.000000) translate(46.000000, 55.000000) scale(-1, 1) translate(-46.000000, -55.000000) translate(2.000000, 5.789474)"/>
                                <g transform="translate(-40.000000, -994.000000) translate(16.000000, 612.000000) translate(0.000000, 74.000000) translate(24.000000, 308.000000) translate(46.000000, 55.000000) scale(-1, 1) translate(-46.000000, -55.000000) translate(2.000000, 5.789474) translate(34.046098, 72.161699)">
                                    <mask id="oepa46gfzn" fill="#fff">
                                        <use xlink:href="#uym4ji32rm"/>
                                    </mask>
                                    <path fill="#030241" d="M-5.94 8.751L13.404 8.751 13.404 -5.73 -5.94 -5.73z" mask="url(#oepa46gfzn)"/>
                                </g>
                                <path fill="#621717" d="M33.39 74.758c2.145.962 4.32 1.93 6.662 2.336.307.054.439-.398.131-.451-2.305-.401-4.44-1.343-6.548-2.29-.282-.126-.529.278-.246.405" transform="translate(-40.000000, -994.000000) translate(16.000000, 612.000000) translate(0.000000, 74.000000) translate(24.000000, 308.000000) translate(46.000000, 55.000000) scale(-1, 1) translate(-46.000000, -55.000000) translate(2.000000, 5.789474)"/>
                                <g transform="translate(-40.000000, -994.000000) translate(16.000000, 612.000000) translate(0.000000, 74.000000) translate(24.000000, 308.000000) translate(46.000000, 55.000000) scale(-1, 1) translate(-46.000000, -55.000000) translate(2.000000, 5.789474) translate(33.263614, 74.328894)">
                                    <mask id="f0mnczmz2p" fill="#fff">
                                        <use xlink:href="#avavtpniio"/>
                                    </mask>
                                    <path fill="#030241" d="M-5.939 8.5L13.033 8.5 13.033 -5.73 -5.939 -5.73z" mask="url(#f0mnczmz2p)"/>
                                </g>
                            </g>
                        </g>
                    </g>
                </g>
            </g>
        </g>
    </g>
</svg>
