<svg xmlns="http://www.w3.org/2000/svg" xmlns:xlink="http://www.w3.org/1999/xlink" width="92" height="110" viewBox="0 0 92 110">
    <defs>
        <path id="w8w84vqlha" d="M0 0L92 0 92 110 0 110z"/>
        <path id="actijyryhc" d="M0 0L3.673 0 3.673 3.699 0 3.699z"/>
        <path id="knq9hf7eke" d="M0 0L1.961 0 1.961 3.364 0 3.364z"/>
        <path id="guampcz5mg" d="M0 0L1.587 0 1.587 4.327 0 4.327z"/>
        <path id="1i2ax8jbyi" d="M30.074 2.393c-1.468.002-2.938.005-4.408.01-2.338.004-4.678.01-7.018.016l-1.595.004c-.262 0-.262.392 0 .392l4.408-.01c2.338-.006 4.678-.01 7.017-.017l1.596-.004c.264 0 .264-.391.001-.391z"/>
    </defs>
    <g fill="none" fill-rule="evenodd">
        <g>
            <g>
                <g>
                    <g transform="translate(-40.000000, -1050.000000) translate(16.000000, 612.000000) translate(0.000000, 74.000000) translate(24.000000, 364.000000)">
                        <mask id="cvyegwsfyb" fill="#fff">
                            <use xlink:href="#w8w84vqlha"/>
                        </mask>
                        <g mask="url(#cvyegwsfyb)">
                            <g>
                                <path fill="#FFD4C0" d="M72.573 19.056S74.135 7.977 73.926 6.32c-.208-1.658-2.808-2.072-2.808-2.072s-2.082-.62-4.266-.414c-2.184.207-3.642 1.14-3.642 1.14s-1.444-.165-2.392.725c-1.769 1.656-1.353 8.387-.418 12.115.735 2.922 3.579 8.263 4.774 10.433l9.725-5.975-2.326-3.216z" transform="translate(-4.945342, -1.015086)"/>
                                <g>
                                    <g transform="translate(-4.945342, -1.015086) translate(62.348935, 4.461398) translate(1.038545, 0.000000)">
                                        <mask id="4d0jbn0kzd" fill="#fff">
                                            <use xlink:href="#actijyryhc"/>
                                        </mask>
                                        <path fill="#17170F" d="M2.76 1.89c.487.707-.176 1.07-.789 1.042-.545-.027-1.09-.225-1.602-.394-.161-.052-.286 0-.369.093.307-.037.607.366.332.658-.014.014-.018.026-.031.04.98.318 2.604.744 3.175-.24-.486-.017-.482-.772.014-.772h.183C3.697 1.102 2.413.537 1.293 0 .904.182.682.322.682.322S.513.306.267.314c.884.466 1.94.772 2.493 1.576" mask="url(#4d0jbn0kzd)"/>
                                    </g>
                                    <path fill="#17170F" d="M1.038 2.632c-.075.01-.15.038-.218.108-.967 1.023-1.085 2.63.133 3.27.167-.11.35-.202.56-.261.354-.103.556.272.448.535.952.092 2.083-.087 2.985-.087H9.21c.502 0 .502-.773 0-.773H3.436c-.307-.006-.616 0-.925.017C1.218 5.489.438 4.336 1.34 3.33c-.048-.016-.097-.03-.142-.046-.314-.103-.326-.465-.16-.652" transform="translate(-4.945342, -1.015086) translate(62.348935, 4.461398)"/>
                                    <path fill="#17170F" d="M1.038 2.632c-.165.187-.153.549.161.652l.141.046c.012-.014.016-.028.03-.042.275-.291-.024-.695-.332-.656M4.515 3.088c.005 0 .009.003.015.003h4.68c.502 0 .502-.774 0-.774H4.711c-.002.092-.006.184-.022.282-.034.194-.096.353-.174.489" transform="translate(-4.945342, -1.015086) translate(62.348935, 4.461398)"/>
                                    <path fill="#17170F" d="M4.515 3.088c.078-.136.14-.295.174-.489.016-.098.02-.19.022-.282H4.53c-.497 0-.501.755-.015.771" transform="translate(-4.945342, -1.015086) translate(62.348935, 4.461398)"/>
                                    <g transform="translate(-4.945342, -1.015086) translate(62.348935, 4.461398) translate(0.000000, 6.009099)">
                                        <mask id="poaiwshb3f" fill="#fff">
                                            <use xlink:href="#knq9hf7eke"/>
                                        </mask>
                                        <path fill="#17170F" d="M.953 0c-1.255.818-1.314 2.823.082 3.364.054-.05.106-.102.166-.146-.114-.205-.02-.465.151-.568C.361 2.31.692.78 1.72.485c.126-.037.203-.116.242-.211-.172-.017-.34-.04-.498-.077C1.27.15 1.105.079.953 0" mask="url(#poaiwshb3f)"/>
                                    </g>
                                    <path fill="#17170F" d="M1.512 5.748c-.209.06-.393.153-.559.261.152.08.316.15.51.197.157.037.326.06.498.077.108-.262-.095-.637-.45-.535M1.978 8.85c.406-.065.58.497.256.7.588-.007 1.262-.134 1.62-.154 1.126-.063 2.253-.181 3.38-.196.501-.006.501-.781 0-.774-.963.013-1.926.108-2.887.167-.506.03-2.278.368-2.639.093-.13-.099-.254-.087-.355-.027.108.039.223.073.366.078.113.004.198.05.26.113" transform="translate(-4.945342, -1.015086) translate(62.348935, 4.461398)"/>
                                    <path fill="#17170F" d="M1.201 9.227c.206-.155.438-.289.727-.373.018-.005.033-.001.05-.004-.061-.063-.146-.109-.26-.113-.142-.005-.257-.04-.366-.078-.17.103-.265.363-.15.568M1.732 9.509l-.013.002c-.26-.01-.485-.06-.684-.138-.932.88-.816 2.468.201 3.442.658.63 1.666.91 2.46.346.499-.354.573-.868.392-1.328-.345-.069-.684-.159-1.005-.304-.108-.05-.165-.126-.188-.209-.042.118-.024.25.11.355.453.356.572.812-.076 1.001-.572.167-1.143-.326-1.446-.752-.604-.847-.41-2.016.651-2.323.04-.012.069-.032.1-.052-.182.002-.35-.013-.502-.04" transform="translate(-4.945342, -1.015086) translate(62.348935, 4.461398)"/>
                                    <path fill="#17170F" d="M1.732 9.509c-.164-.03-.312-.075-.417-.155-.05-.037-.087-.08-.114-.127-.06.044-.112.096-.166.146.2.077.425.128.684.138l.013-.002M1.978 8.85c.211.215.13.66-.246.659.152.027.32.042.502.04.325-.202.15-.764-.256-.699" transform="translate(-4.945342, -1.015086) translate(62.348935, 4.461398)"/>
                                    <path fill="#17170F" d="M1.732 9.509c.375.002.457-.444.246-.659-.018.003-.031 0-.05.004-.288.084-.521.219-.727.373.027.046.064.09.114.127.105.08.253.125.417.155M3.555 11.129c.242.19.43.438.533.704.495.099 1.004.141 1.51.155.15-.273.34-.523.607-.713.038-.026.074-.038.11-.048-.007-.001-.01-.005-.018-.005-.918 0-1.97.027-2.82-.36-.345-.158-.653.19-.582.458.083-.226.404-.393.66-.191" transform="translate(-4.945342, -1.015086) translate(62.348935, 4.461398)"/>
                                    <path fill="#17170F" d="M3.084 11.529c.32.145.66.235 1.004.304-.104-.266-.29-.514-.533-.704-.256-.201-.577-.034-.66.191.024.083.08.16.189.209" transform="translate(-4.945342, -1.015086) translate(62.348935, 4.461398)"/>
                                    <g transform="translate(-4.945342, -1.015086) translate(62.348935, 4.461398) translate(5.281246, 11.211660)">
                                        <mask id="0umobti2hh" fill="#fff">
                                            <use xlink:href="#guampcz5mg"/>
                                        </mask>
                                        <path fill="#17170F" d="M1.016.785C.786.785.55.782.316.777-.296 1.88.001 3.49 1.028 4.252c.402.3.79-.373.392-.668C.631 2.998.478 1.329 1.317.731c.365-.26.08-.831-.282-.716.48.021.475.77-.02.77" mask="url(#0umobti2hh)"/>
                                    </g>
                                    <path fill="#17170F" d="M5.597 11.989c.235.004.47.007.7.007.495 0 .499-.748.019-.77-.036.011-.074.023-.112.05-.265.19-.457.44-.607.713" transform="translate(-4.945342, -1.015086) translate(62.348935, 4.461398)"/>
                                </g>
                                <g>
                                    <g>
                                        <path fill="#030241" d="M14.108 38.414c1.717 0 3.63-.426 5.444-1.746.126-.092.15-.264.052-.384-.1-.12-.282-.141-.408-.048-4.772 3.474-10.338.324-10.393.292-.138-.08-.316-.04-.4.09-.084.128-.042.295.095.375.038.023 2.5 1.421 5.61 1.421" transform="translate(-4.945342, -1.015086) translate(16.024920, 0.000000) translate(22.975080, 30.515086) rotate(15.000000) translate(-22.975080, -30.515086) translate(6.469401, 3.346228)"/>
                                        <path fill="#621717" d="M22.47 2.677c-1.08.03-2.153-.175-3.14-.586C3.298-4.589-.885 5.79.148 18.344c.287 3.5 5.64 5.586 14.903 7.576 6.678 1.434 6.371 8.92 9.081 7.618 1.342-.644 5.381-3.647 5.866-4.965 4.048-4.082 6.043-26.258-7.528-25.896z" transform="translate(-4.945342, -1.015086) translate(16.024920, 0.000000) translate(22.975080, 30.515086) rotate(15.000000) translate(-22.975080, -30.515086) translate(6.469401, 3.346228)"/>
                                        <path fill="#FFD4C0" d="M27.345 53.267c1.348.014 3.318-3.532 2.653-7.19-1.016-.242-2.38-1.142-3.915-1.4-1.31-.218-.622-6.617-.88-7.161-2.106-4.453-1.088-8.825-1.12-8.847l1.09-4.975c-.794.813-1.583.693-1.642-.787-.133-3.368-.335-4.556-4.049-5.425-5.86-1.37-4.24-8.067-10.08-6.618-3 .993-5.705 3.432-6.266 7.34 0 0-.606 2.909-.485 6.543.048 1.381.198 2.867.526 4.34.832 3.723 2.802 7.355 7.088 8.96 2.19 3.859 5.76 15.452 5.065 16.152-.61.61 5.197-.998 12.015-.932z" transform="translate(-4.945342, -1.015086) translate(16.024920, 0.000000) translate(22.975080, 30.515086) rotate(15.000000) translate(-22.975080, -30.515086) translate(6.469401, 3.346228)"/>
                                        <path fill="#030241" d="M15.646 38.768c1.615 0 3.415-.41 5.12-1.683.119-.09.142-.254.049-.37-.094-.116-.265-.136-.384-.047-4.488 3.349-9.722.313-9.775.282-.13-.077-.297-.038-.376.086-.079.124-.04.285.09.362.036.022 2.352 1.37 5.276 1.37" transform="translate(-4.945342, -1.015086) translate(16.024920, 0.000000) translate(22.975080, 30.515086) rotate(15.000000) translate(-22.975080, -30.515086) translate(6.469401, 3.346228) translate(15.555783, 37.690003) rotate(-12.000000) translate(-15.555783, -37.690003)"/>
                                        <path fill="#030241" d="M16.6 17.72c1.602-.003 2.826.834 2.845.846.11.078.137.228.055.336-.08.108-.235.132-.348.055-.096-.068-2.394-1.625-4.71-.093-.113.074-.27.047-.346-.063-.08-.11-.05-.26.063-.336.838-.553 1.682-.743 2.44-.745M7.543 17.778c1.19.323 1.966.955 1.98.967.105.086.117.239.026.34-.089.1-.247.11-.35.025-.093-.076-2.272-1.836-4.889-.614-.122.058-.272.009-.332-.113-.06-.119-.009-.263.116-.32 1.294-.605 2.503-.543 3.45-.285" transform="translate(-4.945342, -1.015086) translate(16.024920, 0.000000) translate(22.975080, 30.515086) rotate(15.000000) translate(-22.975080, -30.515086) translate(6.469401, 3.346228)"/>
                                        <path fill="#FFD4C0" d="M25.948 21.26c-1.099.966-1.524 1.603-2.318 1.834l.51 5.295c.064.219.174.415.32.577 1.026 1.14 3.874.67 5.372-4.478.948-3.253-2.408-4.526-3.884-3.228" transform="translate(-4.945342, -1.015086) translate(16.024920, 0.000000) translate(22.975080, 30.515086) rotate(15.000000) translate(-22.975080, -30.515086) translate(6.469401, 3.346228)"/>
                                        <path fill="#030241" d="M28.392 25.338c.026-.052.666-1.296.44-2.221-.15-.604-.913-1.38-2.078-1.129-.13.029-.21.15-.18.271.03.122.158.198.287.17.878-.19 1.412.42 1.503.789.188.77-.397 1.91-.403 1.921-.058.111-.009.247.11.301.028.013.058.022.086.023.094.007.19-.04.235-.125z" transform="translate(-4.945342, -1.015086) translate(16.024920, 0.000000) translate(22.975080, 30.515086) rotate(15.000000) translate(-22.975080, -30.515086) translate(6.469401, 3.346228)"/>
                                    </g>
                                    <path fill="#030241" d="M17.988 29.42c-.631-.043-1.208-.285-1.615-.702-.453-.467-.612-1.065-.435-1.643.332-1.081.618-2.096.85-2.954.133-.423.68-.247.546.176-.232.86-.517 1.87-.848 2.95-.112.36-.004.744.296 1.051.388.398 1.21.744 2.248.406.15-.049.311.037.358.192.047.156-.04.322-.191.37-.404.132-.816.18-1.209.155" transform="translate(-4.945342, -1.015086) translate(16.024920, 0.000000) translate(17.634081, 26.652899) rotate(16.000000) translate(-17.634081, -26.652899)"/>
                                    <path fill="#17170F" d="M23.65 25.69c-.153.728.163 1.407.708 1.515.545.108 1.11-.393 1.264-1.123.152-.73-.166-1.409-.708-1.519-.544-.109-1.108.396-1.263 1.126M13.686 22.24c-.152.725.162 1.408.707 1.517.542.106 1.108-.396 1.26-1.125.155-.727-.163-1.408-.705-1.517-.543-.108-1.108.392-1.262 1.125" transform="translate(-4.945342, -1.015086) translate(16.024920, 0.000000)"/>
                                    <path fill="#FFF" d="M13.451 29.71s3.497 1.357 7.173 1.148c0 0-1.002 5.61-5.077 5.033-4.077-.58-2.096-6.182-2.096-6.182" transform="translate(-4.945342, -1.015086) translate(16.024920, 0.000000) translate(16.797043, 32.820733) rotate(2.000000) translate(-16.797043, -32.820733)"/>
                                </g>
                                <path fill="#17170F" d="M46.896 31.922l.043-.164c.006.003.013.004.018.005-.04.103-.06.16-.06.16" transform="translate(-4.945342, -1.015086)"/>
                                <path fill="#173D6D" d="M30.124 50.314l.788-2.82c6.148 1.523 10.784-.044 13.907-4.703 5.086 1.44 9.925 5.351 14.518 11.737l11.595 44.477H29.98l.081-12.948-.669-21.52.732-14.223z" transform="translate(-4.945342, -1.015086)"/>
                                <path fill="#173D6D" d="M30.912 47.493s3.43 8.959 4.31 29.368c.308 7.107-1.073 13.166-4.143 18.176-3.76-.022-6.847-.032-9.258-.032 0 0-2.001 6-14.126 1.175 3.835-5.41 8.528-15.215 14.078-29.413l-.44-8.34s4.14-8.4 9.58-10.934zM73.722 41.593s-8.214-4.583-14.385-3.446c-5.898 1.088-8.9 4.701-8.9 4.701l-5.637-.092s6.518 12.818 9.605 28.618c1.51 7.731 7.034 16.945 16.573 27.641 3.334.03 8.972.03 16.913 0-2.682-7.19-9.132-23.096-12.992-32 2.642 0 11.76-1.084 16.852-.877" transform="translate(-4.945342, -1.015086)"/>
                                <g transform="translate(-4.945342, -1.015086) translate(9.945342, 64.015086)">
                                    <path fill="#00C8C3" d="M28.712 30.992c.339 0 .627-.243.668-.563l3.63-29.387C33.092.488 32.624 0 32.011 0L1.036.005C.432.005-.046.478.004 1.025L2.66 30.416c.024.326.307.577.65.577l25.401-.001z"/>
                                    <use fill="#FFF" xlink:href="#1i2ax8jbyi"/>
                                    <path fill="#FFF" d="M11.226 2.496c-2.415.011-4.83.025-7.245.037-.346.004-.691.005-1.037.006-.263.002-.263.396 0 .393 2.416-.013 4.83-.025 7.244-.039l1.038-.005c.261-.002.261-.392.001-.392h-.001z"/>
                                </g>
                                <path fill="#FFD4C0" d="M16.583 65.334l-4.474-6.626s-6.243-7.146-5.099-8.906c1.146-1.76 4.89-3.935 4.89-3.935s2.915-1.76 3.956-1.035c1.039.726.727 1.968.727 1.968s1.352.31 1.665.723c0 0 1.352-1.139 2.704-1.139 1.354 0 3.33 4.764 4.473 9.01 1.146 4.246.625 10.976.625 10.976" transform="translate(-4.945342, -1.015086)"/>
                                <path fill="#17170F" d="M18.706 47.191c.211.658.292 1.31.058 1.969l-.08.197.14.002c1.156.045 2.158.929 1.936 2.07l-.034.143.09-.11c.439-.667.177-2.417.073-2.903-.103-.487.647-.694.75-.206.236 1.11.473 3.692-.882 4.082l-.146.032.148.061c.87.407 1.373 1.513 1.28 2.653-.05.603-.275 1.533-1.007 1.653-.817.136-1.45-.503-1.93-1.118-.402.295-.814.576-1.232.848 1.073.825 1.837 2.297 1.376 3.593-.166.468-.917.266-.749-.206.428-1.204-.532-2.556-1.59-3.084-.365-.182-.17-.649.155-.701l-.051.032.01-.006c.014-.008.027-.016.041-.027l.076-.005c-.026 0-.051.001-.076.005.625-.398 1.262-.798 1.848-1.25.21-.164.45-.142.609.076.173.236.935 1.337 1.374 1.08.326-.195.376-.726.376-1.06-.001-.992-.509-2.216-1.65-1.82l-.135.052-.02.004-.078.023.078-.022c-1.325 1.087-3.2 1.72-4.558 2.583-.423.27-.813-.4-.392-.669 1.116-.711 2.346-1.225 3.47-1.924.605-.378 1.269-.778 1.715-1.346.909-1.162-.427-2.182-1.568-1.653l-.052.017-.053.01c-.59.598-1.393 1.068-2.062 1.505-1.078.702-2.168 1.387-3.243 2.093-.418.277-.809-.395-.392-.668 1.374-.903 2.79-1.753 4.137-2.695.734-.514 1.843-1.251 1.706-2.305-.041-.318-.13-.618-.238-.914.133.075.248.155.314.241 0 0 .177-.145.458-.332zm-2.195-1.496c.2.572.072 1.105.072 1.105l.035.008c-.492.48-1.116.852-1.731 1.197-1.514.856-2.759 2.138-4.35 2.856-.453.204-.85-.463-.393-.668 1.322-.597 2.316-1.638 3.538-2.383.963-.585 2.268-1.092 2.83-2.115z" transform="translate(-4.945342, -1.015086)"/>
                                <path fill="#FFD4C0" d="M54.838 36.094s5.352 4.369 12.637 9.681c7.241 5.283 12.605 10.88 20.595 13.51 7.268 2.391 14.014.974 17.081-5.124.7-1.387 1.708-3.89 1.353-8.055-.736-8.673-11.398-6.182-15.22-7.427-8.82-2.874-17.979-6.122-27.475-9.744l-8.97 7.159z" transform="translate(-4.945342, -1.015086) translate(80.708210, 44.660034) scale(-1, 1) rotate(-270.000000) translate(-80.708210, -44.660034)"/>
                                <path fill="#FFD4C0" d="M-3.168 75.612s4.189 3.415 9.89 7.568c5.667 4.129 9.863 8.505 16.119 10.558 5.69 1.865 10.975.75 13.383-4.027.55-1.086 1.341-3.047 1.067-6.307-.569-6.788-9.16-7.499-11.972-8.2-7.344-1.831-14.423-3.743-21.238-5.735l-7.249 6.143z" transform="translate(-4.945342, -1.015086) translate(17.089809, 82.031010) rotate(-284.000000) translate(-17.089809, -82.031010)"/>
                            </g>
                        </g>
                    </g>
                </g>
            </g>
        </g>
    </g>
</svg>
