<svg xmlns="http://www.w3.org/2000/svg" xmlns:xlink="http://www.w3.org/1999/xlink" width="40" height="40" viewBox="0 0 40 40">
    <defs>
        <path id="upt1svbnga" d="M0 0L6.838 0 6.838 6.594 0 6.594z"/>
        <path id="ms23wnxx6c" d="M0 0L25.283 0 25.283 5.911 0 5.911z"/>
    </defs>
    <g fill="none" fill-rule="evenodd">
        <g>
            <g>
                <g>
                    <g transform="translate(-319.000000, -204.000000) translate(16.000000, 128.000000) translate(60.000000, 76.000000) translate(243.000000, 0.000000)">
                        <circle cx="20" cy="20" r="20" fill="#FC0"/>
                        <g>
                            <g transform="translate(4.285714, 12.142857) translate(11.377989, 7.565116)">
                                <mask id="hqmak2ngxb" fill="#fff">
                                    <use xlink:href="#upt1svbnga"/>
                                </mask>
                                <path fill="#212121" d="M5.68 0v2.4h1.158v.85H5.68v3.344H4.617V0h1.064zM3.894 5.228c-.614-.354-1.166-.786-1.56-1.395-.39.632-.994 1.175-1.707 1.59L0 4.703c.999-.54 1.8-1.353 1.8-2.413v-.544H.31V.922H1.8V0h1.063v.922h1.333v.824H2.863v.57c0 1.008.644 1.74 1.502 2.149l-.472.763z" mask="url(#hqmak2ngxb)"/>
                            </g>
                            <path fill="#212121" d="M23.827 6.295V8.7h1.158v.845h-1.158v3.346h-1.063V6.295h1.063zm-1.786 5.226c-.61-.352-1.167-.788-1.557-1.396-.392.63-.997 1.182-1.708 1.595l-.632-.718c1.003-.545 1.805-1.357 1.805-2.423v-.54H18.46v-.826h1.49v-.918h1.06v.918h1.338v.826H21.01v.568c0 1.016.644 1.743 1.504 2.147l-.473.767zM30.6 6.792v2.401h1.156v.848H30.6v3.344h-1.067V6.792H30.6zm-1.79 5.224c-.607-.353-1.164-.786-1.557-1.39-.393.627-.993 1.175-1.705 1.583l-.632-.713c1.003-.544 1.806-1.355 1.806-2.415v-.547h-1.493V7.71h1.493v-.918h1.06v.918h1.333v.824h-1.333v.571c0 1.007.644 1.742 1.503 2.148l-.474.763zM14.597 5.634c0 .302-.245.551-.545.551-.303 0-.543-.249-.543-.55 0-.301.24-.544.543-.544.3 0 .545.243.545.543M21.467 4.265c0 .305-.24.552-.543.552-.3 0-.544-.247-.544-.552 0-.303.244-.543.544-.543.303 0 .543.24.543.543M28.123 4.725c0 .3-.242.544-.545.544-.3 0-.544-.244-.544-.544 0-.299.244-.546.544-.546.303 0 .545.247.545.546M1.157 14.038L0 14.038 0 7.777 1.157 7.777 1.157 10.412 3.527 7.777 4.934 7.777 2.373 10.629 5.038 14.038 3.693 14.038 1.652 11.438 1.157 11.987zM7.928 13.119c.684 0 1.052-.346 1.052-.977 0-.553-.422-.946-1.035-.946h-1.26v1.923h1.243zm-1.243-4.43v1.598h1.238c.527 0 .779-.311.779-.855 0-.488-.341-.743-.81-.743H6.685zm3.191.669c0 .486-.2.967-.64 1.29.548.366.947.995.922 1.565-.036 1.034-.68 1.825-2.25 1.825H5.528V7.777h2.321c1.066 0 2.028.47 2.028 1.58z" transform="translate(4.285714, 12.142857)"/>
                            <g transform="translate(4.285714, 12.142857) translate(7.574275, 0.000000)">
                                <mask id="bfqmd201fd" fill="#fff">
                                    <use xlink:href="#ms23wnxx6c"/>
                                </mask>
                                <path fill="#212121" d="M25.074 3.535c-.006-.192-.466-1.022-1.865-1.178-2.097-.213-2.317-1.102-4.257-1.702-2.47-.766-6.321-1.006-9.131.088-1.979.77-1.963 1.134-3.967 1.488-3.35.587-4.352.74-5.388 2.271-.342.513-.384.774-.466 1.41.077-.52.376-1.182 1.128-1.894.824-.775 2.123-1.138 4.811-1.56 1.497-.236 1.894-.529 3.61-1.343 2.6-1.065 6.01-1.176 9.213-.248 1.73.508 1.946 1.331 4.436 1.756.336.06 1.23.156 1.622.928.158.318.38 1.3.406 1.472h.056c.018-.434-.157-1.321-.208-1.488" mask="url(#bfqmd201fd)"/>
                            </g>
                        </g>
                    </g>
                </g>
            </g>
        </g>
    </g>
</svg>
