<svg xmlns="http://www.w3.org/2000/svg" xmlns:xlink="http://www.w3.org/1999/xlink" width="140" height="96" viewBox="0 0 140 96">
    <defs>
        <linearGradient id="1shw604t0c" x1="50%" x2="50%" y1="0%" y2="100%">
            <stop offset="0%" stop-color="#00D275"/>
            <stop offset="100%" stop-color="#00C4B5"/>
        </linearGradient>
        <path id="cj33biszia" d="M0 0H140V96H0z"/>
    </defs>
    <g fill="none" fill-rule="evenodd">
        <g>
            <g>
                <g>
                    <g>
                        <g transform="translate(-118.000000, -2548.000000) translate(16.000000, 112.000000) translate(0.000000, 994.000000) translate(0.000000, 1418.000000) translate(102.000000, 24.000000)">
                            <mask id="5hulyk9ccb" fill="#fff">
                                <use xlink:href="#cj33biszia"/>
                            </mask>
                            <g mask="url(#5hulyk9ccb)">
                                <g>
                                    <path fill="#EEE" d="M.005 36.263C.32 16.18 16.159 0 35.652 0c19.69 0 35.652 16.509 35.652 36.873v4.298c0 3.783-3.066 6.85-6.849 6.85H6.85C3.066 48.02 0 44.954 0 41.17v-4.298z" transform="translate(34.000000, 42.000000)"/>
                                    <path stroke="#FFF" stroke-linecap="round" stroke-linejoin="bevel" stroke-width="6.5" d="M59.697 40.745v-3.872c0-13.734-10.765-24.868-24.045-24.868-13.28 0-24.044 11.134-24.044 24.868v3.872" transform="translate(34.000000, 42.000000)"/>
                                    <path stroke="url(#1shw604t0c)" stroke-linecap="round" stroke-width="6.5" d="M53.069 19.728c-4.38-4.758-10.564-7.723-17.417-7.723-13.28 0-24.044 11.134-24.044 24.868v3.872" transform="translate(34.000000, 42.000000)"/>
                                    <g fill="#555" transform="translate(34.000000, 42.000000) translate(39.055432, 41.234776) rotate(-330.000000) translate(-39.055432, -41.234776) translate(33.251590, 28.352645)">
                                        <ellipse cx="5.804" cy="19.528" rx="5.804" ry="6.236"/>
                                        <rect width="5.078" height="21.048" x="3.516" rx="2.539"/>
                                    </g>
                                </g>
                            </g>
                            <g mask="url(#5hulyk9ccb)">
                                <g>
                                    <g>
                                        <g>
                                            <path fill="#9BDCC1" d="M20.926 12.36c-4.49 2.69-11.26 2.025-16.459-2.876C2.903 6.853 1.414 4.248 0 1.666 8.24 7.422 19.08 6.574 26.355 0c-1.883 4.218-3.693 8.336-5.429 12.36" transform="translate(13.000000, 0.152432) translate(28.544538, 18.512866) translate(0.000000, 0.000000)"/>
                                            <path fill="#C4E8DA" d="M9.22 12.67c-1.655-.73-3.273-1.785-4.753-3.186C2.903 6.853 1.414 4.248 0 1.666c2.354 1.648 4.93 2.755 7.572 3.341.46 2.565 1.01 5.117 1.648 7.662" transform="translate(13.000000, 0.152432) translate(28.544538, 18.512866) translate(0.000000, 0.000000)"/>
                                            <path fill="#60B187" d="M21.293 11.492c.074-.253-.615-.49-1.008-.558-.261-.056-.694-.537-.702-.535-2.11 2.241-3.375 1.376-3.483 1.41-.005.01-.89.546-1.086.664-.16.113-1.234.962-1.747 1.349 2.77.301 5.513-.21 7.705-1.489M18.36 5.73c-.004.003.597-.941.957-1.054.355-.11.362.339.361.34-.44.255-.88.493-1.318.713M19.819 4.91c-.003 0 .47-.742.852-.872.384-.13.483.607.366.715-.1.113-1.207.164-1.218.157" transform="translate(13.000000, 0.152432) translate(28.544538, 18.512866) translate(0.000000, 0.000000)"/>
                                            <path fill="#FFF" d="M16.633 11.143l-.533.666c.001-.007.18.773.976.702.988-.095 1.878-.913 2.507-2.112-.08-.115-.166-.229-.255-.342-.007-.008-.608 1.133-1.772 1.464-.73.194-.92-.383-.923-.378" transform="translate(13.000000, 0.152432) translate(28.544538, 18.512866) translate(0.000000, 0.000000)"/>
                                            <path fill="#C4E8DA" d="M16.825 8.487c-.136.596-.27 1.19-.4 1.782-.005-.012-.168 1.54.991 1.411.013.007 1.126-.175 1.885-1.514.088-.15.131-.396.207-.57.263-.759.528-1.52.797-2.284.004-.015-.554-.196-1.984.341-.63.234-1.335.441-1.496.834" transform="translate(13.000000, 0.152432) translate(28.544538, 18.512866) translate(0.000000, 0.000000)"/>
                                        </g>
                                        <path fill="#50B579" d="M19.343 7.407c.316-.02.602.069.664.169.063.098-.192.759-.191.758-.002.002.385-.492.657-.575 0 0 .223-.479.244-.634.033-.14-1.364.299-1.374.282" transform="translate(13.000000, 0.152432) translate(28.544538, 18.512866)"/>
                                        <path fill="#C4E8DA" d="M19.913 8.221c-.002.002.396-.573.603-.555.203.02-.138.565-.233.753-.096.19-.208.565-.334.766-.128.202-.365.573-.498.496-.137-.074.458-1.456.462-1.46" transform="translate(13.000000, 0.152432) translate(28.544538, 18.512866)"/>
                                        <path fill="#60B086" d="M16.938 12.6c-.17-.306-.372-.467-.34-.994.01-.18.12-.456.12-.456.001 0 .038.178.262.171.095-.002.293-.121.293-.121s.175.075.361.011c.273-.093.433-.295.434-.294.001-.001.058.137-.228.679-.166.314-.907 1.012-.902 1.004" transform="translate(13.000000, 0.152432) translate(28.544538, 18.512866)"/>
                                        <path fill="#60B187" d="M16.825 8.487c-.002-.008.21-.3 1.309-.654 1.56-.54 2.14-.47 2.498-.43-.003.004.595-1.508.675-2.175.084-.66-.523-.777-1.787-.235-1.48.605-1.74 1.617-1.786 1.755 0 .001-.442.327-.67.86-.228.533-.238.879-.24.88" transform="translate(13.000000, 0.152432) translate(28.544538, 18.512866)"/>
                                    </g>
                                    <g>
                                        <path fill="#9BDCC1" d="M23.26 5.566C16.51 15.341 9.866 18.952 6.11 19.554 4.356 16.457 2.279 13.241 0 9.728 3.88 10.736 11.378 8.548 19.789 0c1.631 1.744 2.788 3.539 3.472 5.566" transform="translate(13.000000, 0.152432) translate(70.526988, 18.147558)"/>
                                        <path fill="#C4E8DA" d="M9.978 18.226c-1.475.738-2.777 1.156-3.868 1.328C4.355 16.457 2.278 13.241 0 9.728c1.128.289 2.528.315 4.163.006 2.267 2.967 4.234 5.739 5.815 8.492" transform="translate(13.000000, 0.152432) translate(70.526988, 18.147558)"/>
                                        <path fill="#60B187" d="M22.771 5.738l.005-.055c-.133-.006-1.461.984-2.185 1.534-.517.434-1.631.908-1.636.9-1.26 3-3.339 3.847-3.419 3.86-.003.004-.602 1.049-.725 1.295-.104.206-.798 1.813-1.055 2.578 2.805-2.085 7.35-6.87 9.505-10.291M13.093 7.123c.001-.001-.187-.792.146-.996.336-.204.795.016.794.016-.318.337-.632.664-.94.98M14.11 6.023c.002-.001-.13-.583.263-.824.397-.236 1.327-.014 1.266.092-.056.126-1.529.749-1.529.732" transform="translate(13.000000, 0.152432) translate(70.526988, 18.147558)"/>
                                        <path fill="#FFF" d="M15.657 11.176l-.12.8c.005-.006.732.313 1.68-.53 1.18-1.055 1.866-2.409 1.738-3.329-.226.074-.456.144-.688.21.005-.016.064.958-1.196 2.235-.78.778-1.41.61-1.414.614" transform="translate(13.000000, 0.152432) translate(70.526988, 18.147558)"/>
                                        <path fill="#C4E8DA" d="M13.78 9.512c.341.44.667.88.976 1.32.015-.016.922 1.084 2.26-.071-.004.021 1.35-1.224 1.31-2.38-.006-.128-.163-.233-.21-.355-.302-.455-.628-.907-.975-1.356.006-.005-1.062.414-2.344 1.522-.568.495-1.168.989-1.018 1.32" transform="translate(13.000000, 0.152432) translate(70.526988, 18.147558)"/>
                                        <path fill="#50B579" d="M15.88 7.427c.404-.221.895-.412 1.08-.432.188-.02.444.395.443.395 0 0 .092-.478.425-.746 0 0-.128-.32-.253-.375-.125-.032-1.698 1.181-1.695 1.158" transform="translate(13.000000, 0.152432) translate(70.526988, 18.147558)"/>
                                        <path fill="#C4E8DA" d="M17.437 7.272c0-.001.032-.508.366-.69.334-.186.342.256.375.395.035.137.221.33.217.503-.003.173-.02.509-.284.626-.257.113-.668-.836-.674-.834" transform="translate(13.000000, 0.152432) translate(70.526988, 18.147558)"/>
                                        <path fill="#60B086" d="M17.107 11.625c-.44.035-.795.133-1.145-.173-.12-.105-.2-.34-.2-.34 0-.001.175.066.44-.127.111-.081.263-.31.263-.31 0 .001.273-.117.461-.315.276-.29.327-.52.327-.52 0 .001.191-.007.246.475.029.275-.394 1.313-.392 1.31" transform="translate(13.000000, 0.152432) translate(70.526988, 18.147558)"/>
                                        <path fill="#60B187" d="M13.78 9.512c.002-.008-.048-.29.948-1.116 1.428-1.2 2.42-1.67 2.994-1.983.005-.003-.595-.887-1.182-1.142-.559-.25-1.651.087-2.734.935-1.248.967-.55 1.688-.506 1.796-.001 0-.206.4.002.843.206.445.477.668.477.667" transform="translate(13.000000, 0.152432) translate(70.526988, 18.147558)"/>
                                    </g>
                                    <g>
                                        <g fill="#9CDCC2">
                                            <path d="M24.269 10.625c-5.75 2.226-12.075 6.4-18.12 12.52-2.095-2.423-4.157-4.613-6.149-6.57C5.754 9.1 12.083 3.576 18.133 0c2.09 3.309 4.147 6.85 6.136 10.625" transform="translate(13.000000, 0.152432) translate(0.000000, 35.754597) translate(0.000068, 0.000000)"/>
                                        </g>
                                        <g fill="#C4E8DA">
                                            <path d="M6.149 12.511C4.054 10.088 1.992 7.898 0 5.941 1.648 3.802 3.343 1.822 5.064 0c2.079 2.347 4.196 4.927 6.318 7.74-1.754 1.431-3.505 3.022-5.233 4.771z" transform="translate(13.000000, 0.152432) translate(0.000000, 35.754597) translate(0.000000, 10.633831)"/>
                                        </g>
                                        <path fill="#60B187" d="M23.95 9.984c-.006-.021-.23-.232-.236-.254-.214-.245-1.77-.428-2.474-.45-.513-.037-1.692-.404-1.693-.398-.578 2.439-2.776 2.427-2.841 2.47 0-.001-.43.98-.517 1.231-.068.194-.875 2.125-1.026 2.975 2.825-1.923 6.428-3.842 9.106-4.933" transform="translate(13.000000, 0.152432) translate(0.000000, 35.754597)"/>
                                        <path fill="#50B579" d="M13.299 5.072s-.294-.958-.022-1.13c.272-.173.732.203.732.204-.236.306-.473.614-.71.926M14.06 4.028s-.22-.714.097-.877c.317-.169 1.231.444 1.2.55-.03.093-1.297.319-1.297.327" transform="translate(13.000000, 0.152432) translate(0.000000, 35.754597)"/>
                                        <path fill="#FFF" d="M16.653 10.481l.053.87s.897.625 1.781.213c1.097-.509 1.5-1.482 1.06-2.682-.244-.09-.488-.177-.732-.261 0 .004.355 1.114-.74 1.837-.682.455-1.422.022-1.422.023" transform="translate(13.000000, 0.152432) translate(0.000000, 35.754597)"/>
                                        <path fill="#C4E8DA" d="M14.356 7.982c.418.585.837 1.178 1.254 1.781 0 0 1.217 1.482 2.457.894.002-.007 1.217-.582.83-1.932-.044-.154-.252-.385-.337-.556-.467-.733-.935-1.455-1.405-2.165 0 0-.989-.134-2.035.733-.465.383-.97.828-.764 1.245" transform="translate(13.000000, 0.152432) translate(0.000000, 35.754597)"/>
                                        <path fill="#50B579" d="M16.043 6.262c.357-.086.816-.058 1.004.02.188.075.563.702.563.703 0 0-.023-.503.26-.608 0 0-.219-.45-.363-.59-.142-.148-1.463.466-1.464.475" transform="translate(13.000000, 0.152432) translate(0.000000, 35.754597)"/>
                                        <path fill="#C4E8DA" d="M17.617 6.868s-.096-.573.21-.58c.307-.004.436.519.51.701.076.182.335.534.38.734.046.2.122.576-.142.534-.263-.046-.958-1.391-.958-1.39" transform="translate(13.000000, 0.152432) translate(0.000000, 35.754597)"/>
                                        <path fill="#60B187" d="M18.409 11.706c-.506-.212-.888-.273-1.354-.779-.16-.174-.302-.477-.302-.477s.208.147.454.049c.105-.042.216-.23.216-.23s.276.001.436-.123c.234-.183.229-.416.229-.416s.213.103.411.697c.112.333-.09 1.28-.09 1.28M14.356 7.982c0 .003-.094-.376.735-1.032 1.18-.923 2.078-.888 2.607-.906 0-.002-.85-1.392-1.475-1.966-.608-.567-1.56-.64-2.413.083-.994.848-.245 1.85-.177 1.971 0 0-.133.426.14.98.273.553.583.87.583.87" transform="translate(13.000000, 0.152432) translate(0.000000, 35.754597)"/>
                                    </g>
                                    <g>
                                        <path fill="#9BDCC1" d="M18.701 16.496C12.996 11.166 5.383 10.187 0 13.562.313 9.958.634 6.37.96 2.795 6.7-1.312 14.51-.893 20 4.055c-.42 4.12-.853 8.267-1.298 12.44" transform="translate(13.000000, 0.152432) translate(94.979243, 44.106741)"/>
                                        <path fill="#C4E8DA" d="M4.005 11.927c-1.42.316-2.77.861-4.005 1.635C.313 9.958.634 6.37.96 2.795 2.278 1.853 3.703 1.149 5.184.683c-.397 3.731-.79 7.479-1.178 11.244" transform="translate(13.000000, 0.152432) translate(94.979243, 44.106741)"/>
                                        <path fill="#60B187" d="M18.365 15.383l.025-.05c-.062-.396-1.184-2.426-1.847-3.21-.47-.59-1.301-1.999-1.303-1.994-2.148.852-3.94-.74-3.992-.783 0-.008-.941.416-1.16.56-.172.095-1.719 1.097-2.324 1.716 3.476.252 7.772 2.173 10.837 4.874M12.84 1.977s.425-.958.727-.843c.305.115.387.79.387.789-.369.003-.74.022-1.113.054M14.07 1.886s.315-.696.655-.512c.344.184.628 1.458.535 1.493-.09.022-1.188-.994-1.19-.981" transform="translate(13.000000, 0.152432) translate(94.979243, 44.106741)"/>
                                        <path fill="#FFF" d="M11.768 8.664c-.173.224-.346.452-.52.682 0 .008.28 1.129 1.276 1.552 1.276.552 2.304.367 2.716-.769-.155-.292-.311-.58-.468-.867-.003.014-.444.981-1.859.535-.856-.251-1.146-1.128-1.145-1.133" transform="translate(13.000000, 0.152432) translate(94.979243, 44.106741)"/>
                                        <path fill="#C4E8DA" d="M11.694 5.012l-.244 2.314c-.002.015-.061 2.017 1.325 2.6.003-.017 1.427.647 1.997-.522.067-.137.042-.476.085-.664l.282-2.688c-.002.01-.712-1.057-2.083-1.336-.592-.12-1.239-.185-1.362.296" transform="translate(13.000000, 0.152432) translate(94.979243, 44.106741)"/>
                                        <g>
                                            <path fill="#50B579" d="M2.38 3.462c.338.263.688.71.788.935.102.227-.009.977-.01.977 0 0 .322-.34.63-.124 0 0 .121-.488.095-.714-.02-.25-1.498-1.097-1.502-1.074" transform="translate(13.000000, 0.152432) translate(94.979243, 44.106741) translate(11.693918, 1.726156)"/>
                                            <path fill="#C4E8DA" d="M3.243 5.307s.309-.45.57-.151c.263.302.019.742-.04.925-.06.184-.075.65-.171.815-.097.164-.285.465-.485.187-.199-.277.126-1.777.126-1.776" transform="translate(13.000000, 0.152432) translate(94.979243, 44.106741) translate(11.693918, 1.726156)"/>
                                            <path fill="#60B086" d="M.671 9.206c-.276-.556-.54-.897-.575-1.63-.013-.252.075-.584.075-.584 0 .001.065.27.322.396.11.053.322.012.322.012s.22.226.434.275c.313.072.465-.085.465-.086 0 0 .108.254-.12.82-.128.312-.922.79-.923.797" transform="translate(13.000000, 0.152432) translate(94.979243, 44.106741) translate(11.693918, 1.726156)"/>
                                            <path fill="#60B187" d="M0 3.286c0 .008.174-.378 1.201-.167 1.51.343 2.213 1.262 2.669 1.76 0 0 .229-1.681.121-2.658-.104-.941-.778-1.94-1.884-2.19C.857-.226.72 1.181.69 1.315c0 0-.368.211-.536.851C-.014 2.803 0 3.286 0 3.286" transform="translate(13.000000, 0.152432) translate(94.979243, 44.106741) translate(11.693918, 1.726156)"/>
                                        </g>
                                    </g>
                                    <g>
                                        <path fill="#9BDCC1" d="M18.701 16.496C12.996 11.166 5.383 10.187 0 13.562.313 9.958.634 6.37.96 2.795 6.7-1.312 14.51-.893 20 4.055c-.42 4.12-.853 8.267-1.298 12.44" transform="translate(13.000000, 0.152432) translate(66.428236, 12.142616) rotate(-150.000000) translate(-66.428236, -12.142616) translate(56.428727, 3.894750)"/>
                                        <path fill="#C4E8DA" d="M4.005 11.927c-1.42.316-2.77.861-4.005 1.635C.313 9.958.634 6.37.96 2.795 2.278 1.853 3.703 1.149 5.184.683c-.397 3.731-.79 7.479-1.178 11.244" transform="translate(13.000000, 0.152432) translate(66.428236, 12.142616) rotate(-150.000000) translate(-66.428236, -12.142616) translate(56.428727, 3.894750)"/>
                                        <path fill="#60B187" d="M18.365 15.383l.025-.05c-.062-.396-1.184-2.426-1.847-3.21-.47-.59-1.301-1.999-1.303-1.994-2.148.852-3.94-.74-3.992-.783 0-.008-.941.416-1.16.56-.172.095-1.719 1.097-2.324 1.716 3.476.252 7.772 2.173 10.837 4.874M12.84 1.977s.425-.958.727-.843c.305.115.387.79.387.789-.369.003-.74.022-1.113.054M14.07 1.886s.315-.696.655-.512c.344.184.628 1.458.535 1.493-.09.022-1.188-.994-1.19-.981" transform="translate(13.000000, 0.152432) translate(66.428236, 12.142616) rotate(-150.000000) translate(-66.428236, -12.142616) translate(56.428727, 3.894750)"/>
                                        <path fill="#FFF" d="M11.768 8.664c-.173.224-.346.452-.52.682 0 .008.28 1.129 1.276 1.552 1.276.552 2.304.367 2.716-.769-.155-.292-.311-.58-.468-.867-.003.014-.444.981-1.859.535-.856-.251-1.146-1.128-1.145-1.133" transform="translate(13.000000, 0.152432) translate(66.428236, 12.142616) rotate(-150.000000) translate(-66.428236, -12.142616) translate(56.428727, 3.894750)"/>
                                        <path fill="#C4E8DA" d="M11.694 5.012l-.244 2.314c-.002.015-.061 2.017 1.325 2.6.003-.017 1.427.647 1.997-.522.067-.137.042-.476.085-.664l.282-2.688c-.002.01-.712-1.057-2.083-1.336-.592-.12-1.239-.185-1.362.296" transform="translate(13.000000, 0.152432) translate(66.428236, 12.142616) rotate(-150.000000) translate(-66.428236, -12.142616) translate(56.428727, 3.894750)"/>
                                        <g>
                                            <path fill="#50B579" d="M2.38 3.462c.338.263.688.71.788.935.102.227-.009.977-.01.977 0 0 .322-.34.63-.124 0 0 .121-.488.095-.714-.02-.25-1.498-1.097-1.502-1.074" transform="translate(13.000000, 0.152432) translate(66.428236, 12.142616) rotate(-150.000000) translate(-66.428236, -12.142616) translate(56.428727, 3.894750) translate(11.693918, 1.726156)"/>
                                            <path fill="#C4E8DA" d="M3.243 5.307s.309-.45.57-.151c.263.302.019.742-.04.925-.06.184-.075.65-.171.815-.097.164-.285.465-.485.187-.199-.277.126-1.777.126-1.776" transform="translate(13.000000, 0.152432) translate(66.428236, 12.142616) rotate(-150.000000) translate(-66.428236, -12.142616) translate(56.428727, 3.894750) translate(11.693918, 1.726156)"/>
                                            <path fill="#60B086" d="M.671 9.206c-.276-.556-.54-.897-.575-1.63-.013-.252.075-.584.075-.584 0 .001.065.27.322.396.11.053.322.012.322.012s.22.226.434.275c.313.072.465-.085.465-.086 0 0 .108.254-.12.82-.128.312-.922.79-.923.797" transform="translate(13.000000, 0.152432) translate(66.428236, 12.142616) rotate(-150.000000) translate(-66.428236, -12.142616) translate(56.428727, 3.894750) translate(11.693918, 1.726156)"/>
                                            <path fill="#60B187" d="M0 3.286c0 .008.174-.378 1.201-.167 1.51.343 2.213 1.262 2.669 1.76 0 0 .229-1.681.121-2.658-.104-.941-.778-1.94-1.884-2.19C.857-.226.72 1.181.69 1.315c0 0-.368.211-.536.851C-.014 2.803 0 3.286 0 3.286" transform="translate(13.000000, 0.152432) translate(66.428236, 12.142616) rotate(-150.000000) translate(-66.428236, -12.142616) translate(56.428727, 3.894750) translate(11.693918, 1.726156)"/>
                                        </g>
                                    </g>
                                </g>
                            </g>
                        </g>
                    </g>
                </g>
            </g>
        </g>
    </g>
</svg>
