<svg xmlns="http://www.w3.org/2000/svg" xmlns:xlink="http://www.w3.org/1999/xlink" width="96" height="96" viewBox="0 0 96 96">
    <defs>
        <path id="gsoyi0kb7a" d="M0 0H96V96H0z"/>
        <path id="d9ntqpd80c" d="M0 10.921L49.067 10.921 49.067 16.654 0 16.654z"/>
    </defs>
    <g fill="none" fill-rule="evenodd">
        <g>
            <g>
                <g>
                    <g transform="translate(-140.000000, -895.000000) translate(16.000000, 39.000000) translate(0.000000, 832.000000) translate(124.000000, 24.000000)">
                        <mask id="k5y6b5qzub" fill="#fff">
                            <use xlink:href="#gsoyi0kb7a"/>
                        </mask>
                        <g mask="url(#k5y6b5qzub)">
                            <g transform="translate(4.508913, 32.465902)">
                                <path fill="#C6584D" d="M47.935 49.581H1.132C.507 49.581 0 49.076 0 48.454V16.742c0-3.215 2.618-5.82 5.847-5.82H43.22c3.23 0 5.847 2.605 5.847 5.82v31.712c0 .622-.507 1.127-1.132 1.127"/>
                                <path fill="#EEE" d="M46.221 24.032l-32.254 9.09c-.799.225-1.638-.241-1.864-1.036L6.108 11.002c-.227-.795.242-1.63 1.04-1.856L39.404.056c.799-.224 1.638.242 1.864 1.037l5.995 21.084c.227.795-.242 1.63-1.04 1.855"/>
                                <path fill="#DFDFDF" d="M43.82 10.073L8.661 19.981 7.358 15.4 42.518 5.492z"/>
                                <path fill="#F0695C" d="M50.407 59.698H5.081C2.275 59.698 0 57.433 0 54.64V15.98c0 2.793 2.274 5.058 5.08 5.058h45.326c2.806 0 5.081 2.264 5.081 5.058V54.64c0 2.793-2.275 5.058-5.08 5.058"/>
                                <path fill="#C6584D" d="M56.02 45.842h-8.994c-2.72 0-4.947-2.216-4.947-4.925 0-2.708 2.226-4.925 4.947-4.925h8.995c.935 0 1.693.755 1.693 1.686v6.478c0 .931-.758 1.686-1.693 1.686"/>
                                <path fill="#FFF" d="M45.137 40.917c0-.834.68-1.51 1.517-1.51.838 0 1.517.676 1.517 1.51s-.68 1.51-1.517 1.51c-.838 0-1.517-.676-1.517-1.51"/>
                            </g>
                        </g>
                        <g mask="url(#k5y6b5qzub)">
                            <g>
                                <g>
                                    <path fill="#AAA" stroke="#CECECE" stroke-dasharray="2.88 1.44" stroke-linejoin="round" stroke-width="1.632" d="M16.605 4.713c7.388 0 13.623 2.715 15.584 6.43h.641v2.55c-.056 4.9-7.299 8.864-16.225 8.864-8.96 0-16.224-3.994-16.224-8.922v.057h0v-2.549h.64c1.962-3.715 8.196-6.43 15.584-6.43z" transform="translate(24.051608, -2.278266) translate(19.746320, 17.501631) rotate(-27.000000) translate(-19.746320, -17.501631) translate(3.331268, 6.222978)"/>
                                    <path fill="#AAA" stroke="#CECECE" stroke-dasharray="2.88 1.44" stroke-linejoin="round" stroke-width="1.632" d="M16.225 17.845c8.96 0 16.225-3.995 16.225-8.923C32.45 3.995 25.186 0 16.225 0 7.265 0 0 3.995 0 8.922c0 4.928 7.264 8.923 16.225 8.923z" transform="translate(24.051608, -2.278266) translate(19.746320, 17.501631) rotate(-27.000000) translate(-19.746320, -17.501631) translate(3.331268, 6.222978)"/>
                                    <path fill="#CECECE" fill-rule="nonzero" d="M14.844 13.384l1.208-3.875c0-.026.019-.089.055-.189l.073-.202h1.172c.024.165.06.296.11.391l1.043 3.875h2.525l1.427-4.266h2.16v-1.33h-1.72L24.05 4.46h-2.251l-.97 3.326H18.98l-.896-3.326h-2.325l-1.006 3.326h-1.94l-.878-3.326H9.592l1.043 3.326H8.952v1.331h2.086l1.318 4.266h2.488zm2.76-4.462h-.52c.12-.347.215-.719.287-1.115l.232 1.115zm-3.662 2.23c-.142-.75-.313-1.494-.515-2.23h1.12c-.036.111-.237.855-.605 2.23zm5.613 0c-.036-.15-.087-.379-.152-.685-.066-.306-.129-.586-.188-.84-.06-.255-.12-.49-.18-.705h1.093c-.203.629-.394 1.372-.573 2.23z" transform="translate(24.051608, -2.278266) translate(19.746320, 17.501631) rotate(-27.000000) translate(-19.746320, -17.501631) translate(3.331268, 6.222978)"/>
                                </g>
                                <g>
                                    <path fill="#AAA" stroke="#CECECE" stroke-dasharray="2.88 1.44" stroke-linejoin="round" stroke-width="1.632" d="M17.48 5.843c7.916 0 14.596 2.91 16.697 6.89h.686v2.731c-.06 5.251-7.82 9.498-17.383 9.498-9.601 0-17.384-4.28-17.384-9.56l.001.062H.096v-2.731h.687c2.1-3.98 8.78-6.89 16.697-6.89z" transform="translate(24.051608, -2.278266) translate(52.548693, 46.636610) rotate(30.000000) translate(-52.548693, -46.636610) translate(35.116994, 34.155598)"/>
                                    <path fill="#AAA" stroke="#CECECE" stroke-dasharray="2.88 1.44" stroke-linejoin="round" stroke-width="1.632" d="M17.384 19.12c9.6 0 17.383-4.28 17.383-9.56S26.984 0 17.384 0C7.783 0 0 4.28 0 9.56s7.783 9.56 17.384 9.56z" transform="translate(24.051608, -2.278266) translate(52.548693, 46.636610) rotate(30.000000) translate(-52.548693, -46.636610) translate(35.116994, 34.155598)"/>
                                    <path fill="#CECECE" fill-rule="nonzero" d="M15.905 14.34l1.294-4.151c0-.028.02-.096.059-.203l.078-.217h1.255c.026.177.065.317.118.42l1.117 4.15h2.706l1.53-4.57h2.313V8.344h-1.843l1.235-3.564h-2.411l-1.04 3.564h-1.98l-.96-3.564h-2.49l-1.08 3.564h-2.078l-.94-3.564h-2.51l1.117 3.564H9.59v1.425h2.235l1.412 4.57h2.667zm2.956-4.78h-.557c.128-.373.23-.771.307-1.195l.25 1.195zm-3.923 2.39c-.152-.806-.336-1.602-.551-2.39h1.198c-.038.118-.253.915-.647 2.39zm6.014 0c-.039-.162-.093-.407-.163-.735s-.138-.629-.202-.901c-.064-.273-.128-.524-.192-.754h1.17c-.217.673-.422 1.47-.613 2.39z" transform="translate(24.051608, -2.278266) translate(52.548693, 46.636610) rotate(30.000000) translate(-52.548693, -46.636610) translate(35.116994, 34.155598)"/>
                                </g>
                            </g>
                        </g>
                    </g>
                </g>
            </g>
        </g>
    </g>
</svg>
