<svg xmlns="http://www.w3.org/2000/svg" xmlns:xlink="http://www.w3.org/1999/xlink" width="96" height="96" viewBox="0 0 96 96">
    <defs>
        <path id="siauk9nfua" d="M58.581 0c6.563 0 12.436 4.072 14.739 10.217l3.447 9.201-1.125 16.5h-.06c-.373 2.315-2.475 4.087-5.011 4.087H4.826c-2.415 0-4.415-1.773-4.77-4.087H0v-5.994c0-6.474 5.135-11.78 11.605-11.994l4.286-.14L22.16 7.531C25.02 2.854 30.106 0 35.59 0h22.992z"/>
        <path id="v543ajbgbb" d="M0 0H58.755c3.976 0 7.2 3.224 7.2 7.2v8.306c0 3.976-3.224 7.2-7.2 7.2H0V0z"/>
    </defs>
    <g fill="none" fill-rule="evenodd">
        <g>
            <g>
                <g>
                    <g>
                        <path d="M0 0H96V96H0z" transform="translate(-141.000000, -371.000000) translate(16.000000, 39.000000) translate(0.000000, 308.000000) translate(125.000000, 24.000000)"/>
                        <g>
                            <g>
                                <g transform="translate(-141.000000, -371.000000) translate(16.000000, 39.000000) translate(0.000000, 308.000000) translate(125.000000, 24.000000) translate(6.000000, 9.000000) translate(0.000000, 29.519495) translate(0.000000, 0.754829)">
                                    <use fill="#FFF" xlink:href="#siauk9nfua"/>
                                </g>
                                <g transform="translate(-141.000000, -371.000000) translate(16.000000, 39.000000) translate(0.000000, 308.000000) translate(125.000000, 24.000000) translate(6.000000, 9.000000) translate(0.000000, 29.519495) translate(18.380840, 18.054443)">
                                    <mask id="wkku6gosgc" fill="#fff">
                                        <use xlink:href="#v543ajbgbb"/>
                                    </mask>
                                    <use fill="#FFF" xlink:href="#v543ajbgbb"/>
                                    <path fill="#FFA75D" d="M62.385 8.76h3.57v6.087h-3.57c-1.449 0-2.623-1.174-2.623-2.623v-.841c0-1.449 1.174-2.623 2.623-2.623z" mask="url(#wkku6gosgc)"/>
                                </g>
                                <path fill="#FC0" d="M34.9 3.999h8.119c.724 0 1.311.587 1.311 1.311v11.433c.001.724-.586 1.311-1.31 1.311h-.001l-20.163-.012c-.724 0-1.311-.588-1.31-1.313 0-.237.064-.47.186-.673L25.898 9.1c1.895-3.165 5.313-5.101 9.001-5.101zM48.885 3.999h8.883c4.784 0 9.15 2.727 11.247 7.027l1.743 3.574c.58 1.192.086 2.628-1.106 3.21-.328.16-.688.242-1.053.242l-19.714-.011c-.724-.001-1.31-.588-1.311-1.312V5.31c0-.724.587-1.311 1.311-1.311z" transform="translate(-141.000000, -371.000000) translate(16.000000, 39.000000) translate(0.000000, 308.000000) translate(125.000000, 24.000000) translate(6.000000, 9.000000) translate(0.000000, 29.519495)"/>
                                <path fill="#767676" d="M21.084 48.329c5.076 0 9.19-4.115 9.19-9.19 0-5.076-4.114-9.191-9.19-9.191s-9.19 4.115-9.19 9.19c0 5.076 4.114 9.19 9.19 9.19zM63.252 48.329c5.075 0 9.19-4.115 9.19-9.19 0-5.076-4.115-9.191-9.19-9.191-5.076 0-9.19 4.115-9.19 9.19 0 5.076 4.114 9.19 9.19 9.19z" transform="translate(-141.000000, -371.000000) translate(16.000000, 39.000000) translate(0.000000, 308.000000) translate(125.000000, 24.000000) translate(6.000000, 9.000000) translate(0.000000, 29.519495)"/>
                                <path fill="#FFF" d="M21.084 44.004c2.687 0 4.865-2.179 4.865-4.866s-2.178-4.865-4.865-4.865c-2.687 0-4.866 2.178-4.866 4.865 0 2.687 2.179 4.866 4.866 4.866zM63.252 44.004c2.687 0 4.865-2.179 4.865-4.866s-2.178-4.865-4.865-4.865c-2.687 0-4.866 2.178-4.866 4.865 0 2.687 2.179 4.866 4.866 4.866z" transform="translate(-141.000000, -371.000000) translate(16.000000, 39.000000) translate(0.000000, 308.000000) translate(125.000000, 24.000000) translate(6.000000, 9.000000) translate(0.000000, 29.519495)"/>
                            </g>
                            <path stroke="#FFF" stroke-linecap="round" stroke-width="3" d="M46.453 0L46.453 6.904M26.466 5.69L30.438 11.337M67.277 5.69L63.018 11.124" transform="translate(-141.000000, -371.000000) translate(16.000000, 39.000000) translate(0.000000, 308.000000) translate(125.000000, 24.000000) translate(6.000000, 9.000000)"/>
                        </g>
                    </g>
                </g>
            </g>
        </g>
    </g>
</svg>
