<svg xmlns="http://www.w3.org/2000/svg" width="96" height="96" viewBox="0 0 96 96">
    <g fill="none" fill-rule="evenodd">
        <g>
            <g>
                <g>
                    <g>
                        <path d="M0 0H96V96H0z" transform="translate(-140.000000, -109.000000) translate(16.000000, 39.000000) translate(0.000000, 46.000000) translate(124.000000, 24.000000)"/>
                        <g>
                            <path fill="#F4B094" d="M22.201 28.005c3.727 0 6.748 3.02 6.748 6.747 0 .2-.009.4-.026.6-.192 2.148-.547 4.297-1.066 6.446-1.127 4.67-3.003 9.342-5.628 14.013L9.77 49.568c1.946-.51 3.542-3.341 4.786-8.497.551-2.282.897-4.565 1.036-6.848.214-3.494 3.11-6.218 6.61-6.218z" transform="translate(-140.000000, -109.000000) translate(16.000000, 39.000000) translate(0.000000, 46.000000) translate(124.000000, 24.000000) translate(22.000000, 4.000000)"/>
                            <path fill="#FFC7B0" d="M43.673 67.279c-.101-6.55-5.945-6.766-5.945-6.766s5.835-.368 5.734-6.918c-.1-6.55-5.946-6.765-5.946-6.765l-23.554.31c-3.032.039-5.452 2.522-5.405 5.545l.465 30.104c.046 3.022 2.542 5.441 5.574 5.401l23.554-.31s5.836-.367 5.734-6.918c-.1-6.55-5.945-6.765-5.945-6.765s5.835-.368 5.734-6.918" transform="translate(-140.000000, -109.000000) translate(16.000000, 39.000000) translate(0.000000, 46.000000) translate(124.000000, 24.000000) translate(22.000000, 4.000000)"/>
                            <path fill="#FC0" d="M0 22.624c1.703-.404 2.919-.97 3.648-1.7.822-.823 1.482-2.134 1.979-3.932.492 1.793 1.146 3.098 1.963 3.915.734.735 1.955 1.307 3.664 1.717-1.714.414-2.94.991-3.68 1.731-.811.812-1.46 2.113-1.947 3.9-.386-1.687-.935-2.886-1.646-3.598-.84-.84-2.167-1.518-3.981-2.033zM40.319 37.491c1.703-.404 2.919-.97 3.647-1.7.823-.822 1.482-2.133 1.98-3.932.492 1.793 1.146 3.099 1.963 3.916.734.735 1.955 1.307 3.664 1.716-1.714.415-2.94.992-3.68 1.732-.811.812-1.46 2.112-1.947 3.9-.386-1.687-.935-2.886-1.646-3.598-.84-.84-2.167-1.518-3.981-2.034zM13.82 10.384c2.498-.592 4.281-1.423 5.35-2.493C20.376 6.684 21.343 4.054 22.073 0c.721 4.046 1.68 6.668 2.879 7.867 1.076 1.078 2.868 1.917 5.374 2.517-2.514.608-4.313 1.455-5.396 2.54-1.191 1.191-2.143 3.806-2.857 7.844l-.113-.735c-.558-3.468-1.326-5.69-2.301-6.667-1.232-1.232-3.178-2.226-5.839-2.982z" transform="translate(-140.000000, -109.000000) translate(16.000000, 39.000000) translate(0.000000, 46.000000) translate(124.000000, 24.000000) translate(22.000000, 4.000000)"/>
                        </g>
                    </g>
                </g>
            </g>
        </g>
    </g>
</svg>
