<svg xmlns="http://www.w3.org/2000/svg" xmlns:xlink="http://www.w3.org/1999/xlink" width="96" height="96" viewBox="0 0 96 96">
    <defs>
        <path id="nabqc32v4a" d="M1.143 18.635C6.903 7.221 11.23 1.514 14.12 1.515c2.892 0 8.676 3.548 17.354 10.643L25.512 24.84c-2.936-.608-5.845-.913-8.726-.914-2.88 0-5.762.302-8.642.908l-7.001-6.199z"/>
    </defs>
    <g fill="none" fill-rule="evenodd">
        <g>
            <g>
                <g>
                    <g>
                        <path d="M0 0H96V96H0z" transform="translate(-140.000000, -633.000000) translate(16.000000, 39.000000) translate(0.000000, 570.000000) translate(124.000000, 24.000000)"/>
                        <g transform="translate(-140.000000, -633.000000) translate(16.000000, 39.000000) translate(0.000000, 570.000000) translate(124.000000, 24.000000) translate(8.000000, 7.000000)">
                            <path fill="#FF9EAA" d="M73.437 50.532c0 .757.597 1.385 1.187 1.615.144.055.631.215.898-.067.316-.333.345-1.328-.507-3.124-.894.34-1.578.996-1.578 1.576zm.884 2.373c-.824-.32-1.711-1.2-1.711-2.373 0-.92.83-1.832 2.018-2.305-.707-1.182-1.605-1.936-2.68-2.246-2.098-.606-4.214.672-4.235.685-.193.12-.45.06-.57-.13-.12-.19-.061-.442.131-.56.1-.061 2.442-1.486 4.9-.78 1.341.386 2.439 1.324 3.269 2.791 1.935-.388 3.616.495 4.517 2.37.098.205.01.448-.196.544-.206.097-.453.01-.55-.194-.943-1.958-2.51-2.073-3.384-1.957 1.072 2.328.76 3.398.297 3.886-.264.28-.629.423-1.038.423-.244 0-.504-.05-.768-.154z"/>
                            <path fill="#FF9EAA" d="M5.049 53.25s-.566-10.292 5.816-19.056c6.381-8.764 25.525-12.433 40.628-7.949 15.103 4.484 21.378 17.63 19.676 27.922-1.702 10.293-8.827 19.566-29.673 20.483-20.846.917-30.1-4.382-33.715-12.738 0 0-2.43-5.404-2.732-8.662"/>
                            <g>
                                <g>
                                    <path fill="#FFAEBC" d="M22.463 8.289c0 4.577-5.029 8.288-11.231 8.288C5.029 16.577 0 12.867 0 8.29S5.029 0 11.232 0c6.202 0 11.23 3.711 11.23 8.289" transform="translate(0.000000, 49.459585) translate(12.612088, 10.271947) rotate(11.000000) translate(-12.612088, -10.271947) translate(1.380663, 1.983371)"/>
                                    <path fill="#F56577" d="M14.504 8.289c0-1.013.833-1.835 1.86-1.835 1.029 0 1.861.822 1.861 1.835s-.832 1.834-1.86 1.834-1.86-.821-1.86-1.834M3.859 8.289c0-1.013.833-1.835 1.86-1.835 1.028 0 1.86.822 1.86 1.835s-.832 1.834-1.86 1.834c-1.027 0-1.86-.821-1.86-1.834" transform="translate(0.000000, 49.459585) translate(12.612088, 10.271947) rotate(11.000000) translate(-12.612088, -10.271947) translate(1.380663, 1.983371)"/>
                                </g>
                            </g>
                            <path fill="#603813" d="M31.715 50.532c0-1.013.832-1.834 1.86-1.834s1.86.821 1.86 1.834c0 1.014-.832 1.835-1.86 1.835s-1.86-.821-1.86-1.835"/>
                            <path fill="#FFCAD3" d="M42.532 39.102s2.519 2.784 3.462 4.559c0 0 4.48-4.006 3.248-5.347-1.232-1.341-6.71.788-6.71.788"/>
                            <path fill="#FF9EAA" d="M14.454 32.054S2.982 28.589 1.018 30.83c-1.964 2.242 7.855 14.616 7.855 14.616s6.821-9.521 5.581-13.393"/>
                            <path fill="#FFCAD3" d="M11.136 35.145s-4.407-1.33-5.16-.47c-.755.861 3.017 5.615 3.017 5.615s2.62-3.657 2.143-5.145"/>
                            <rect width="7.089" height="12.152" x="16.203" y="66.835" fill="#FF9EAA" rx="3.5"/>
                            <rect width="7.089" height="10.127" x="38.481" y="70.886" fill="#FF9EAA" rx="3.5"/>
                            <rect width="7.089" height="13.165" x="54.684" y="64.81" fill="#FF9EAA" rx="3.5"/>
                            <path fill="#603813" d="M7.946 46.787c0-1.014.833-1.835 1.86-1.835 1.028 0 1.86.821 1.86 1.835 0 1.013-.832 1.834-1.86 1.834-1.027 0-1.86-.821-1.86-1.834"/>
                            <path fill="#F56577" d="M23.99 27.052c3.987-.605 7.281-.907 9.883-.906 2.603.001 5.896.399 9.88 1.193.784.156 1.35.845 1.35 1.645 0 .616-.499 1.115-1.115 1.115-.073 0-.145-.007-.217-.02-4.032-.799-7.349-1.199-9.949-1.2-2.594 0-5.876.302-9.846.907-.638.098-1.234-.34-1.331-.978-.009-.059-.013-.117-.013-.176 0-.79.576-1.462 1.358-1.58z" transform="translate(33.867155, 28.248564) rotate(-6.000000) translate(-33.867155, -28.248564)"/>
                            <g transform="translate(15.981417, 5.063291)">
                                <mask id="ld183zgt3b" fill="#fff">
                                    <use xlink:href="#nabqc32v4a"/>
                                </mask>
                                <g mask="url(#ld183zgt3b)">
                                    <g transform="translate(16.938647, 19.718591) rotate(-360.000000) translate(-16.938647, -19.718591) translate(7.339825, 10.152922)">
                                        <ellipse cx="9.599" cy="9.566" fill="#FC0" rx="9.599" ry="9.566"/>
                                        <ellipse cx="9.599" cy="9.566" fill="#FC0" rx="7.905" ry="7.878"/>
                                        <path fill="#FFE78E" fill-rule="nonzero" d="M8.48 13.504l.697-3.176c0-.021.01-.073.031-.155l.043-.166h.675c.014.136.035.243.063.321l.602 3.176h1.456l.824-3.497h1.245v-1.09h-.992l.665-2.727H12.49l-.56 2.727h-1.066l-.517-2.727h-1.34l-.58 2.727h-1.12L6.803 6.19h-1.35l.6 2.727h-.97v1.09h1.203l.76 3.497H8.48zm1.38-4.501h-.523c.12-.35.217-.726.289-1.125l.235 1.125zm-1.695 2.25c-.072-.568-.159-1.13-.26-1.687h.565c-.018.083-.12.646-.305 1.688zm2.832 0c-.018-.114-.044-.287-.077-.518-.033-.232-.065-.444-.095-.637-.03-.192-.06-.37-.09-.532h.551c-.102.475-.199 1.038-.29 1.688z"/>
                                    </g>
                                </g>
                            </g>
                            <path fill="#4DADFF" d="M62.278 39.494c6.991 0 12.659-5.894 12.659-13.165 0-4.847-4.22-13.623-12.659-26.329C53.84 12.706 49.62 21.482 49.62 26.33c0 7.27 5.668 13.164 12.658 13.164z"/>
                        </g>
                    </g>
                </g>
            </g>
        </g>
    </g>
</svg>
