<svg xmlns="http://www.w3.org/2000/svg" xmlns:xlink="http://www.w3.org/1999/xlink" width="96" height="96" viewBox="0 0 96 96">
    <defs>
        <path id="40cgpx8jfa" d="M0 0L35.415 0 35.415 61.474 0 61.474z"/>
        <path id="0lfqh3asvc" d="M0 0L34.782 0 34.782 0.249 0 0.249z"/>
        <path id="rgiq0eny6e" d="M0 0L34.782 0 34.782 0.249 0 0.249z"/>
        <path id="7wfwgaxrig" d="M0 62.244L35.415 62.244 35.415 0 0 0z"/>
        <path id="yee5hljyyj" d="M0 0L18.244 0 18.244 10.697 0 10.697z"/>
        <linearGradient id="9xcshj0kvi" x1="50%" x2="50%" y1="0%" y2="100%">
            <stop offset="0%" stop-color="#00D275"/>
            <stop offset="100%" stop-color="#00C4B5"/>
        </linearGradient>
    </defs>
    <g fill="none" fill-rule="evenodd">
        <g>
            <g>
                <g>
                    <g>
                        <path d="M0 0H96V96H0z" transform="translate(-140.000000, -1210.000000) translate(16.000000, 1140.000000) translate(0.000000, 46.000000) translate(124.000000, 24.000000)"/>
                        <g>
                            <g>
                                <g transform="translate(-140.000000, -1210.000000) translate(16.000000, 1140.000000) translate(0.000000, 46.000000) translate(124.000000, 24.000000) translate(3.000000, 8.000000)">
                                    <g transform="translate(0.000000, 0.769861)">
                                        <mask id="nx7jzmem5b" fill="#fff">
                                            <use xlink:href="#40cgpx8jfa"/>
                                        </mask>
                                        <path fill="#DCDDDD" d="M30.987 0H5.06C2.62 0 .633 1.934.633 4.31v6.39H0v2.462h.633v1.386L0 14.855v4.31l.633.308v1.848L0 21.63v4.31l.633.308v30.917c0 2.376 1.985 4.31 4.426 4.31h25.928c2.442 0 4.428-1.934 4.428-4.31V4.31C35.415 1.934 33.429 0 30.987 0" mask="url(#nx7jzmem5b)"/>
                                    </g>
                                    <path fill="#E1E1E1" d="M34.782 57.164c0 2.04-1.699 3.694-3.794 3.694H5.059c-2.095 0-3.794-1.654-3.794-3.694V4.31c0-2.04 1.699-3.695 3.794-3.695h25.929c2.095 0 3.794 1.654 3.794 3.695v52.853zM30.988 0H5.059C2.62 0 .632 1.934.632 4.31v52.854c0 2.377 1.986 4.31 4.427 4.31h25.929c2.44 0 4.427-1.933 4.427-4.31V4.31c0-2.377-1.986-4.31-4.427-4.31z"/>
                                    <g transform="translate(0.632447, 9.416545)">
                                        <mask id="l4qv1qnr5d" fill="#fff">
                                            <use xlink:href="#0lfqh3asvc"/>
                                        </mask>
                                        <path stroke="#B5B5B6" stroke-width=".94" d="M34.782 0.125L0 0.125" mask="url(#l4qv1qnr5d)"/>
                                    </g>
                                    <g transform="translate(0.632447, 52.109477)">
                                        <mask id="lrs0msrvkf" fill="#fff">
                                            <use xlink:href="#rgiq0eny6e"/>
                                        </mask>
                                        <path stroke="#B5B5B6" stroke-width=".94" d="M34.782 0.125L0 0.125" mask="url(#lrs0msrvkf)"/>
                                    </g>
                                    <path fill="#EEE" d="M30.987.616H5.06c-2.096 0-3.794 1.654-3.794 3.695v52.853c0 2.04 1.698 3.694 3.794 3.694h25.928c2.096 0 3.795-1.654 3.795-3.694V4.31c0-2.04-1.699-3.695-3.795-3.695"/>
                                    <mask id="np69x0ua1h" fill="#fff">
                                        <use xlink:href="#7wfwgaxrig"/>
                                    </mask>
                                    <path fill="#B5B5B6" d="M0 13.162L.632 13.162.632 10.699 0 10.699zM0 19.166L.632 19.474.632 14.548 0 14.856zM0 25.939L.632 26.247.632 21.321 0 21.629z" mask="url(#np69x0ua1h)"/>
                                    <path fill="#FFF" d="M2.846 55.624c0 2.04 1.698 3.695 3.794 3.695h22.767c2.095 0 3.794-1.654 3.794-3.695V5.85c0-2.04-1.699-3.694-3.794-3.694H6.64c-2.096 0-3.794 1.654-3.794 3.694v49.774z" mask="url(#np69x0ua1h)"/>
                                    <g stroke-linecap="round" stroke-width="2" mask="url(#np69x0ua1h)">
                                        <g>
                                            <path stroke="#EEE" stroke-linejoin="bevel" d="M17.768 10.4V8.999C17.768 4.029 13.79 0 8.884 0 3.977 0 0 4.029 0 8.999v1.4" transform="translate(9.120897, 18.741177)"/>
                                            <path stroke="url(#9xcshj0kvi)" d="M15.399 2.795C13.772 1.073 11.476 0 8.93 0 3.998 0 0 4.029 0 8.999v1.4" transform="translate(9.120897, 18.741177)"/>
                                        </g>
                                    </g>
                                    <path fill="#EEE" d="M24.031 5.542h-13.28c-1.048 0-1.897-.827-1.897-1.847V.616H26.56V3.695c0 1.02-.85 1.847-1.898 1.847h-.632z" mask="url(#np69x0ua1h)"/>
                                    <path fill="#F5F5F5" d="M2.846 55.624c0 2.04 1.698 3.695 3.794 3.695h22.767c2.095 0 3.794-1.654 3.794-3.695v-.82H2.846v.82z" mask="url(#np69x0ua1h)"/>
                                    <path fill="#FFF" d="M12.068 49.672c0 1.417-1.18 2.566-2.635 2.566-1.455 0-2.635-1.149-2.635-2.566 0-1.417 1.18-2.566 2.635-2.566 1.456 0 2.635 1.149 2.635 2.566" mask="url(#np69x0ua1h)"/>
                                </g>
                                <g>
                                    <path fill="#DDD" d="M1.869 13.951h1.738c.276 0 .5-.224.5-.5v-1.78H1.369v1.78c0 .276.224.5.5.5zM14.747 13.951h1.738c.276 0 .5-.224.5-.5v-1.78h-2.738v1.78c0 .276.224.5.5.5z" transform="translate(-140.000000, -1210.000000) translate(16.000000, 1140.000000) translate(0.000000, 46.000000) translate(124.000000, 24.000000) translate(3.000000, 8.000000) translate(8.585366, 31.121951)"/>
                                    <g transform="translate(-140.000000, -1210.000000) translate(16.000000, 1140.000000) translate(0.000000, 46.000000) translate(124.000000, 24.000000) translate(3.000000, 8.000000) translate(8.585366, 31.121951)">
                                        <mask id="kfy56mwzik" fill="#fff">
                                            <use xlink:href="#yee5hljyyj"/>
                                        </mask>
                                        <path fill="#DDD" d="M15.36 9.466c-.726 0-1.316-.587-1.316-1.311s.59-1.31 1.316-1.31c.727 0 1.317.586 1.317 1.31 0 .724-.59 1.311-1.317 1.311zM2.59 5.614l1.637-3.83c.235-.536.515-.964 1.055-.964H13.021c.54 0 .819.437 1.055.975l1.49 3.819H2.592zm.467 3.852c-.727 0-1.317-.587-1.317-1.311s.59-1.31 1.317-1.31 1.316.586 1.316 1.31c0 .724-.59 1.311-1.316 1.311zm14.04-3.852h-.42L14.93 1.142C14.655.512 14.327 0 13.695 0H4.633C4 0 3.673.5 3.397 1.13L1.481 5.614h-.334C.514 5.614 0 6.124 0 6.754v3.943h18.244V6.755c0-.63-.514-1.141-1.146-1.141z" mask="url(#kfy56mwzik)"/>
                                    </g>
                                </g>
                            </g>
                            <g>
                                <path fill="#2D4969" d="M48 38.986v6.498c0 1.794 1.416 3.249 3.165 3.249h4.747c1.746 0 3.165-1.455 3.165-3.25v-6.497H48zM4.923 45.484c0 1.794 1.416 3.249 3.165 3.249h4.747c1.748 0 3.165-1.455 3.165-3.25v-6.497H4.923v6.498z" transform="translate(-140.000000, -1210.000000) translate(16.000000, 1140.000000) translate(0.000000, 46.000000) translate(124.000000, 24.000000) translate(3.000000, 8.000000) translate(21.320165, 31.414634)"/>
                                <path fill="#FFF" d="M53.08 7.112c-.704-2.749-3.226-4.675-6.12-4.675H15.81c-2.894 0-5.417 1.926-6.119 4.675L6.154 20.955l25.23 4.63 25.231-4.63L53.08 7.112z" transform="translate(-140.000000, -1210.000000) translate(16.000000, 1140.000000) translate(0.000000, 46.000000) translate(124.000000, 24.000000) translate(3.000000, 8.000000) translate(21.320165, 31.414634)"/>
                                <path fill="#5373FC" d="M55.167 5.843C54.289 2.403 51.153 0 47.537 0H16.463c-3.616 0-6.754 2.404-7.63 5.843L4.923 21.18l3.053.75 3.908-15.337c.527-2.065 2.41-3.507 4.58-3.507h31.073c2.17 0 4.053 1.442 4.58 3.507l3.908 15.337 3.052-.75-3.91-15.337z" transform="translate(-140.000000, -1210.000000) translate(16.000000, 1140.000000) translate(0.000000, 46.000000) translate(124.000000, 24.000000) translate(3.000000, 8.000000) translate(21.320165, 31.414634)"/>
                                <path fill="#5373FC" d="M4.8 38.986c-2.65 0-4.8-2.045-4.8-4.57V25.28c0-2.523 2.15-4.569 4.8-4.569h54.4c1.905 0 3.55 1.057 4.326 2.587l.25.072c.133.433.224.886.224 1.362l-.001.505.001.043v9.136c0 2.053-1.421 3.79-3.377 4.366-.438.133-.903.204-1.384.204l.185-.005c-.074.004-.149.005-.224.005l.187-.004-.148.004z" transform="translate(-140.000000, -1210.000000) translate(16.000000, 1140.000000) translate(0.000000, 46.000000) translate(124.000000, 24.000000) translate(3.000000, 8.000000) translate(21.320165, 31.414634)"/>
                                <path fill="#FFF" d="M56.615 29.848c0 1.681-1.376 3.047-3.077 3.047-1.698 0-3.076-1.366-3.076-3.047s1.378-3.045 3.076-3.045c1.7 0 3.077 1.364 3.077 3.045M6.154 29.848c0 1.681 1.378 3.047 3.078 3.047 1.699 0 3.076-1.366 3.076-3.047s-1.377-3.045-3.076-3.045c-1.7 0-3.078 1.364-3.078 3.045" transform="translate(-140.000000, -1210.000000) translate(16.000000, 1140.000000) translate(0.000000, 46.000000) translate(124.000000, 24.000000) translate(3.000000, 8.000000) translate(21.320165, 31.414634)"/>
                            </g>
                            <g fill="#FC0">
                                <path d="M19.317 21.463c1.95-.461 3.34-1.11 4.174-1.943.941-.94 1.696-2.44 2.265-4.496.563 2.05 1.312 3.543 2.246 4.477.84.84 2.238 1.494 4.193 1.962-1.96.474-3.364 1.134-4.21 1.98-.929.929-1.672 2.415-2.229 4.46-.442-1.93-1.07-3.301-1.883-4.115-.961-.96-2.48-1.736-4.556-2.325zM0 11.268c2.761-.643 4.732-1.544 5.913-2.705C7.246 7.253 8.316 4.4 9.122 0c.797 4.39 1.858 7.236 3.182 8.537 1.19 1.17 3.17 2.08 5.94 2.731-2.778.66-4.766 1.578-5.964 2.756-1.316 1.293-2.369 4.13-3.158 8.513l-.125-.798c-.617-3.763-1.465-6.175-2.543-7.235C5.092 13.167 2.94 12.088 0 11.268z" transform="translate(-140.000000, -1210.000000) translate(16.000000, 1140.000000) translate(0.000000, 46.000000) translate(124.000000, 24.000000) translate(3.000000, 8.000000) translate(57.804878, 1.219512)"/>
                            </g>
                        </g>
                    </g>
                </g>
            </g>
        </g>
    </g>
</svg>
