<svg xmlns="http://www.w3.org/2000/svg" xmlns:xlink="http://www.w3.org/1999/xlink" width="96" height="88" viewBox="0 0 96 88">
    <defs>
        <path id="rw58pj3asa" d="M0 0H96V88H0z"/>
    </defs>
    <g fill="none" fill-rule="evenodd">
        <g>
            <g>
                <g>
                    <g transform="translate(-239.000000, -549.000000) translate(16.000000, 473.000000) translate(24.000000, 76.000000) translate(199.000000, 0.000000)">
                        <mask id="pstexcdlob" fill="#fff">
                            <use xlink:href="#rw58pj3asa"/>
                        </mask>
                        <g mask="url(#pstexcdlob)">
                            <g>
                                <path fill="#FFC7B0" d="M59.36 56.897H29.749c-3.18 0-5.54-2.742-10.755-7.945C13.779 43.75 5.8 35.278 4.947 34.461c-.853-.817 3.606-4.13 6.86-.737 2.168 2.261 3.834 4.101 4.995 5.52V26.142c3.511-.697 5.267.757 5.267 4.363 0 3.606 5.216 6.156 15.65 7.65l13.58 5.595 8.06 2.366v10.782z" transform="translate(5.000000, 14.000000)"/>
                                <path fill="#FFC7B0" d="M18.534 25.596c2.439.67 4.067 2.966 3.892 5.49-.247 3.582-.641 7.35-1.181 11.305-.776 5.68-1.611 10.989-2.506 15.923l-8.92-7.142c.486-.942 1.158-4.55 2.014-10.82.53-3.885 1.134-7.77 1.81-11.655.37-2.129 2.396-3.554 4.525-3.183.123.021.245.048.366.082z" transform="translate(5.000000, 14.000000) translate(16.239087, 41.387922) scale(1, -1) rotate(-137.000000) translate(-16.239087, -41.387922)"/>
                                <path fill="#FFC7B0" d="M25.302 21.9c2.607.666 4.357 3.11 4.148 5.793-.274 3.505-.696 7.186-1.267 11.044-.844 5.698-1.75 11.022-2.72 15.971l-9.567-7.15c.524-.945 1.252-4.563 2.183-10.851.563-3.807 1.201-7.614 1.914-11.421.439-2.342 2.693-3.886 5.035-3.447.092.017.183.037.274.06z" transform="translate(5.000000, 14.000000) translate(22.813213, 37.738207) scale(1, -1) rotate(-162.000000) translate(-22.813213, -37.738207)"/>
                                <path fill="#FFC7B0" d="M35.214 19.902c2.607.666 4.358 3.11 4.148 5.793-.273 3.505-.695 7.187-1.267 11.045-.843 5.698-1.75 11.021-2.72 15.971l-9.566-7.15c.524-.946 1.251-4.563 2.182-10.852.564-3.807 1.202-7.614 1.915-11.42.438-2.343 2.692-3.886 5.034-3.447.092.017.184.037.274.06z" transform="translate(5.000000, 14.000000) translate(32.725694, 35.740897) scale(1, -1) rotate(-162.000000) translate(-32.725694, -35.740897)"/>
                                <path fill="#F4B094" d="M48.854 49.796c-3.325-.001-7.444 3.314-11.38 1.67-3.936-1.645-13.8-13.876-14.693-14.705-.892-.83 3.768-4.187 7.171-.744 2.27 2.294 4.011 4.161 5.226 5.601l-.006-13.29c3.67-.705 5.507.771 5.508 4.428.002 3.657 5.773 6.012 17.313 7.065-3.876 6.651-6.923 9.976-9.139 9.975z" transform="translate(5.000000, 14.000000) translate(40.331548, 40.040074) rotate(5.000000) translate(-40.331548, -40.040074)"/>
                                <g>
                                    <path fill="#4D69FF" d="M14.332 20.994c1.96 0 3.549 1.59 3.549 3.55l-.001.625.616-.8c1.15-1.492 3.182-1.963 4.862-1.153l.185.095c.132.072.258.155.378.246 1.27.979 1.506 2.801.528 4.071l-1.154 1.499c4.775 4.376 5.457 11.761 1.403 16.956-2.36 3.024-5.975 4.802-9.81 4.826-.259.002-.517.003-.778.003-.583 0-1.16-.004-1.728-.01-6.927-.087-12.473-5.773-12.386-12.7.044-3.543 1.584-6.898 4.233-9.24L3.2 27.628c-.978-1.27-.742-3.092.528-4.07.12-.092.246-.175.378-.247 1.713-.938 3.855-.489 5.047 1.059l1.629 2.115v-1.942c0-1.894 1.485-3.442 3.354-3.543z" transform="translate(5.000000, 14.000000) translate(17.101806, 0.000000)"/>
                                    <path stroke="#FFF" stroke-linecap="round" stroke-linejoin="round" d="M8.288 31.919L10.748 39.864 13.627 31.962 16.486 39.864 18.946 31.919M8.954 35.23L6.29 35.23M20.944 35.23L18.28 35.23" transform="translate(5.000000, 14.000000) translate(17.101806, 0.000000)"/>
                                    <g>
                                        <g transform="translate(5.000000, 14.000000) translate(17.101806, 0.000000) translate(2.041990, 0.000000) translate(27.932845, 13.958218) rotate(-27.000000) translate(-27.932845, -13.958218) translate(21.729832, 9.802107)">
                                            <path fill="#FC0" d="M6.203 1.312c2.824 0 5.208 1.066 5.958 2.523h.245v1c-.022 1.923-2.79 3.477-6.203 3.477C2.777 8.312 0 6.745 0 4.812l.001.022H0v-.999h.245c.75-1.457 3.134-2.523 5.958-2.523z"/>
                                            <ellipse cx="6.203" cy="3.5" fill="#FFE78E" rx="6.203" ry="3.5"/>
                                            <ellipse cx="6.203" cy="3.281" fill="#FC0" rx="5.347" ry="2.844"/>
                                            <path fill="#FFE78E" fill-rule="nonzero" d="M5.675 5.25l.462-1.52c0-.01.007-.035.021-.074l.028-.08h.448c.01.065.023.117.042.154l.399 1.52h.965l.546-1.673h.825v-.522h-.657l.44-1.305h-.86l-.37 1.305h-.707L6.914 1.75h-.889L5.64 3.055H4.9L4.563 1.75h-.896l.399 1.305h-.644v.522h.798l.504 1.673h.951zM6.73 3.5h-.198c.045-.136.082-.282.11-.438l.088.438zm-1.4.875c-.054-.295-.12-.587-.196-.875h.427c-.013.043-.09.335-.23.875zm2.146 0c-.014-.06-.033-.15-.058-.27-.025-.12-.05-.23-.072-.33-.023-.099-.046-.19-.068-.275h.417c-.077.246-.15.538-.219.875z"/>
                                        </g>
                                        <g transform="translate(5.000000, 14.000000) translate(17.101806, 0.000000) translate(2.041990, 0.000000) translate(7.965653, 7.204265) rotate(30.000000) translate(-7.965653, -7.204265) translate(1.319568, 2.751288)">
                                            <path fill="#FC0" d="M6.646 1.406c3.026 0 5.58 1.141 6.384 2.703h.262V5.18c-.024 2.06-2.99 3.726-6.646 3.726C2.976 8.906 0 7.227 0 5.156l.001.024H0V4.11h.263c.803-1.562 3.357-2.703 6.383-2.703z"/>
                                            <ellipse cx="6.646" cy="3.75" fill="#FFE78E" rx="6.646" ry="3.75"/>
                                            <ellipse cx="6.646" cy="3.516" fill="#FC0" rx="5.729" ry="3.047"/>
                                            <path fill="#FFE78E" fill-rule="nonzero" d="M6.08 5.625l.495-1.628c0-.011.008-.038.023-.08l.03-.085h.48c.01.07.025.124.045.165l.427 1.628h1.034L9.2 3.832h.885v-.56h-.705l.472-1.397H8.93l-.397 1.398h-.757l-.367-1.398h-.953l-.412 1.398H5.25l-.36-1.398h-.96l.427 1.398h-.69v.56h.855l.54 1.792h1.02zM7.21 3.75h-.212c.049-.146.088-.302.117-.469l.096.469zm-1.499.937c-.058-.315-.128-.628-.21-.937h.458c-.015.046-.097.359-.248.937zm2.3 0c-.016-.063-.036-.16-.063-.288-.027-.129-.053-.246-.077-.353-.025-.107-.05-.206-.074-.296h.448c-.083.264-.162.576-.235.937z"/>
                                        </g>
                                    </g>
                                </g>
                                <path fill="#FFC7B0" d="M59.36 39.938l-4.727 1.598h-7.67c-1.894 0-2.539 1.315-4.004 3.292-1.466 1.977-3.608 4.455-4.126 4.455-.345 0 6.497 1.208 20.527 3.624V39.938z" transform="translate(5.000000, 14.000000)"/>
                                <path fill="#FFC7B0" d="M42.666 31.821c2.965.606 4.982 3.368 4.657 6.377-.31 2.874-.756 5.875-1.336 9.003-.965 5.202-2.003 10.062-3.113 14.58L31.882 55.24c.601-.863 1.434-4.166 2.499-9.907.584-3.149 1.238-6.297 1.962-9.445.655-2.847 3.461-4.652 6.323-4.067z" transform="translate(5.000000, 14.000000) translate(39.817347, 46.281913) scale(1, -1) rotate(-111.000000) translate(-39.817347, -46.281913)"/>
                                <path fill="#383C40" d="M60.386 31.848L101.027 28.964 101.027 58.893 60.386 58.893z" transform="translate(5.000000, 14.000000)"/>
                                <path fill="#D2DBEA" d="M52.456 35.948L60.386 35.948 60.386 58.893 52.456 58.893z" transform="translate(5.000000, 14.000000)"/>
                            </g>
                        </g>
                    </g>
                </g>
            </g>
        </g>
    </g>
</svg>
