<svg xmlns="http://www.w3.org/2000/svg" width="96" height="96" viewBox="0 0 96 96">
    <g fill="none" fill-rule="evenodd">
        <g>
            <g>
                <g>
                    <g>
                        <g>
                            <g>
                                <path d="M0 0H96V96H0z" transform="translate(-140.000000, -2723.000000) translate(16.000000, 112.000000) translate(0.000000, 2521.000000) translate(0.000000, 46.000000) translate(24.000000, 44.000000) translate(100.000000, 0.000000)"/>
                                <g>
                                    <g transform="translate(-140.000000, -2723.000000) translate(16.000000, 112.000000) translate(0.000000, 2521.000000) translate(0.000000, 46.000000) translate(24.000000, 44.000000) translate(100.000000, 0.000000) translate(17.000000, 9.000000) translate(0.000000, 31.000000)">
                                        <ellipse cx="31.5" cy="39.094" fill="#DDD" opacity=".4" rx="31.5" ry="7.094"/>
                                        <g>
                                            <path fill="#2D4969" d="M41.926 34.053v5.675c0 1.567 1.237 2.838 2.764 2.838h4.147c1.525 0 2.764-1.27 2.764-2.838v-5.675h-9.675zM4.3 39.728c0 1.567 1.237 2.838 2.764 2.838h4.147c1.526 0 2.764-1.27 2.764-2.838v-5.675H4.3v5.675z" transform="translate(4.000000, 0.000000)"/>
                                            <path fill="#FFF" d="M46.363 6.212c-.614-2.4-2.817-4.084-5.346-4.084H13.809c-2.527 0-4.731 1.683-5.344 4.084l-3.09 12.091 22.038 4.044 22.038-4.044-3.088-12.091z" transform="translate(4.000000, 0.000000)"/>
                                            <path fill="#05B197" d="M48.186 5.104C47.42 2.099 44.68 0 41.521 0h-27.14c-3.16 0-5.9 2.1-6.666 5.104L4.3 18.5l2.667.655L10.38 5.758c.46-1.803 2.106-3.063 4-3.063h27.141c1.896 0 3.54 1.26 4.002 3.063l3.413 13.397L51.6 18.5 48.186 5.104z" transform="translate(4.000000, 0.000000)"/>
                                            <path fill="#05B197" d="M55.901 30.061c0 1.785-1.229 3.295-2.925 3.806l-.045.014-.033.01.033-.01c-.377.112-.775.172-1.188.172H4.193C1.877 34.053 0 32.266 0 30.06v-7.98c0-2.204 1.877-3.99 4.193-3.99h47.516c1.664 0 3.101.922 3.779 2.26l.218.061c.116.379.195.774.195 1.19z" transform="translate(4.000000, 0.000000)"/>
                                            <path fill="#FFF" d="M49.451 26.071c0 1.469-1.202 2.661-2.687 2.661-1.484 0-2.688-1.192-2.688-2.66 0-1.47 1.204-2.66 2.688-2.66 1.485 0 2.687 1.19 2.687 2.66M5.375 26.071c0 1.469 1.204 2.661 2.689 2.661 1.484 0 2.686-1.192 2.686-2.66 0-1.47-1.202-2.66-2.686-2.66-1.485 0-2.689 1.19-2.689 2.66" transform="translate(4.000000, 0.000000)"/>
                                        </g>
                                    </g>
                                    <g>
                                        <path fill="#FC0" d="M20.8 0c4.418 0 8 3.582 8 8v7.333c0 4.419-3.582 8-8 8h-3.734l-1.885 2.358c-.023.028-.048.056-.074.082l-.082.074c-.432.345-1.06.275-1.406-.156l-1.885-2.358H8c-4.418 0-8-3.581-8-8V8c0-4.418 3.582-8 8-8h12.8z" transform="translate(-140.000000, -2723.000000) translate(16.000000, 112.000000) translate(0.000000, 2521.000000) translate(0.000000, 46.000000) translate(24.000000, 44.000000) translate(100.000000, 0.000000) translate(17.000000, 9.000000) translate(17.000000, 0.000000)"/>
                                        <path stroke="#FFF" stroke-linecap="round" stroke-linejoin="round" stroke-width="1.5" d="M8 12.102h2.743m7.314 0H20.8M19.2 7.5l-2.355 8.403L14.491 7.5h-.182l-2.354 8.403L9.6 7.5" transform="translate(-140.000000, -2723.000000) translate(16.000000, 112.000000) translate(0.000000, 2521.000000) translate(0.000000, 46.000000) translate(24.000000, 44.000000) translate(100.000000, 0.000000) translate(17.000000, 9.000000) translate(17.000000, 0.000000)"/>
                                    </g>
                                </g>
                            </g>
                        </g>
                    </g>
                </g>
            </g>
        </g>
    </g>
</svg>
