<svg xmlns="http://www.w3.org/2000/svg" width="56" height="56" viewBox="0 0 56 56">
    <g fill="none" fill-rule="evenodd">
        <g>
            <g>
                <g>
                    <g>
                        <g transform="translate(-44.000000, -302.000000) translate(28.000000, 282.000000) translate(16.000000, 20.000000) translate(7.000000, 5.444444)">
                            <path fill="#D7DFE8" d="M2 42h29.444c1.105 0 2-.895 2-2V2c0-1.105-.895-2-2-2h-19.78L0 11.687V40c0 1.105.895 2 2 2z"/>
                            <path fill="#B0BDCD" d="M0 11.687h9.664c1.105 0 2-.895 2-2V0L0 11.687z"/>
                            <rect width="11.667" height="1.867" x="16.333" y="9.333" fill="#FFF" rx=".933"/>
                            <rect width="20.222" height="1.867" x="7.778" y="15.089" fill="#FFF" rx=".933"/>
                            <rect width="20.222" height="1.867" x="7.778" y="20.844" fill="#FFF" rx=".933"/>
                        </g>
                        <g>
                            <path fill="#5373FC" d="M17.38 2.402c-.932-.05-2.27-.15-3.425-.338C12.45 1.817 10.625.395 9.79.083c-.293-.11-.62-.11-.913 0-.835.312-2.661 1.734-4.165 1.98-1.156.19-2.493.29-3.424.34C.613 2.437.08 2.926.05 3.535-.063 5.81-.126 11.114 1.469 14.2c2.545 4.926 6.319 6.395 7.498 6.746.238.07.494.07.732 0 1.18-.35 4.954-1.82 7.499-6.746 1.595-3.087 1.531-8.391 1.418-10.665-.03-.609-.562-1.098-1.237-1.134z" transform="translate(-44.000000, -302.000000) translate(28.000000, 282.000000) translate(16.000000, 20.000000) translate(7.000000, 5.444444) translate(26.444444, 24.111111)"/>
                            <g fill="#FFF" transform="translate(-44.000000, -302.000000) translate(28.000000, 282.000000) translate(16.000000, 20.000000) translate(7.000000, 5.444444) translate(26.444444, 24.111111) translate(4.666667, 5.373737)">
                                <rect width="1.867" height="9.192" x="3.733" rx=".933"/>
                                <path d="M0 4.61c0-.515.418-.933.933-.933H8.4c.515 0 .933.418.933.933 0 .516-.418.933-.933.933H.933C.418 5.543 0 5.126 0 4.61z"/>
                            </g>
                        </g>
                    </g>
                </g>
            </g>
        </g>
    </g>
</svg>
