<svg xmlns="http://www.w3.org/2000/svg" xmlns:xlink="http://www.w3.org/1999/xlink" width="140" height="96" viewBox="0 0 140 96">
    <defs>
        <path id="93xqoppj1a" d="M58.581 0c6.563 0 12.436 4.072 14.739 10.217l3.447 9.201-1.125 16.5h-.06c-.373 2.315-2.475 4.087-5.011 4.087H4.826c-2.415 0-4.415-1.773-4.77-4.087H0v-5.994c0-6.474 5.135-11.78 11.605-11.994l4.286-.14L22.16 7.531C25.02 2.854 30.106 0 35.59 0h22.992z"/>
        <path id="yiwpk2e6hb" d="M0 0H58.755c3.976 0 7.2 3.224 7.2 7.2v8.306c0 3.976-3.224 7.2-7.2 7.2H0V0z"/>
    </defs>
    <g fill="none" fill-rule="evenodd">
        <g>
            <g>
                <g>
                    <g>
                        <g>
                            <path d="M0 0H140V96H0z" transform="translate(-119.000000, -664.000000) translate(16.000000, 112.000000) translate(0.000000, 414.000000) translate(0.000000, 46.000000) translate(103.000000, 92.000000)"/>
                            <g>
                                <g>
                                    <path fill="#F8F8F8" d="M.6 0C.268 0 0 .26 0 .58v58.765C0 61.363 1.69 63 3.776 63H46V.58c0-.32-.268-.58-.6-.58H.6z" transform="translate(-119.000000, -664.000000) translate(16.000000, 112.000000) translate(0.000000, 414.000000) translate(0.000000, 46.000000) translate(103.000000, 92.000000) translate(1.000000, 8.000000) translate(61.000000, 0.000000)"/>
                                    <path fill="#EEE" d="M53 53.603v5.6C53 61.3 51.268 63 49.131 63H2c2.137 0 3.869-1.7 3.869-3.797v-5.6c0-.333.275-.603.614-.603h45.903c.34 0 .614.27.614.603" transform="translate(-119.000000, -664.000000) translate(16.000000, 112.000000) translate(0.000000, 414.000000) translate(0.000000, 46.000000) translate(103.000000, 92.000000) translate(1.000000, 8.000000) translate(61.000000, 0.000000)"/>
                                    <path fill="#999" d="M39.705 13h-20.41c-.163 0-.295-.224-.295-.5s.132-.5.295-.5h20.41c.163 0 .295.224.295.5s-.132.5-.295.5M39.705 17h-20.41c-.163 0-.295-.224-.295-.5s.132-.5.295-.5h20.41c.163 0 .295.224.295.5s-.132.5-.295.5M39.705 22h-20.41c-.163 0-.295-.224-.295-.5s.132-.5.295-.5h20.41c.163 0 .295.224.295.5s-.132.5-.295.5M39.7 30H4.3c-.165 0-.3-.224-.3-.5s.135-.5.3-.5h35.4c.166 0 .3.224.3.5s-.134.5-.3.5M39.735 36h-7.47c-.146 0-.265-.224-.265-.5s.119-.5.265-.5h7.47c.146 0 .265.224.265.5s-.119.5-.265.5" transform="translate(-119.000000, -664.000000) translate(16.000000, 112.000000) translate(0.000000, 414.000000) translate(0.000000, 46.000000) translate(103.000000, 92.000000) translate(1.000000, 8.000000) translate(61.000000, 0.000000)"/>
                                    <path fill="#DDD" d="M16.35 23H4.65c-.359 0-.65-.269-.65-.6V11.6c0-.331.291-.6.65-.6h11.7c.359 0 .65.269.65.6v10.8c0 .331-.291.6-.65.6" transform="translate(-119.000000, -664.000000) translate(16.000000, 112.000000) translate(0.000000, 414.000000) translate(0.000000, 46.000000) translate(103.000000, 92.000000) translate(1.000000, 8.000000) translate(61.000000, 0.000000)"/>
                                </g>
                                <g>
                                    <g transform="translate(-119.000000, -664.000000) translate(16.000000, 112.000000) translate(0.000000, 414.000000) translate(0.000000, 46.000000) translate(103.000000, 92.000000) translate(1.000000, 8.000000) translate(0.000000, 32.754829)">
                                        <use fill="#2589FF" xlink:href="#93xqoppj1a"/>
                                    </g>
                                    <g transform="translate(-119.000000, -664.000000) translate(16.000000, 112.000000) translate(0.000000, 414.000000) translate(0.000000, 46.000000) translate(103.000000, 92.000000) translate(1.000000, 8.000000) translate(0.000000, 32.754829) translate(18.380840, 17.299614)">
                                        <mask id="ecpqv1lftc" fill="#fff">
                                            <use xlink:href="#yiwpk2e6hb"/>
                                        </mask>
                                        <use fill="#2589FF" xlink:href="#yiwpk2e6hb"/>
                                        <path fill="#FFA75D" d="M62.385 8.76h3.57v6.087h-3.57c-1.449 0-2.623-1.174-2.623-2.623v-.841c0-1.449 1.174-2.623 2.623-2.623z" mask="url(#ecpqv1lftc)"/>
                                    </g>
                                    <path fill="#E6F2FF" d="M34.9 3.244h8.119c.724 0 1.311.587 1.311 1.311v11.433c.001.724-.586 1.312-1.31 1.312l-.001-.001-20.163-.012c-.724 0-1.311-.588-1.31-1.313 0-.237.064-.47.186-.673l4.166-6.956c1.895-3.164 5.313-5.101 9.001-5.101zM48.885 3.244h8.883c4.784 0 9.15 2.728 11.247 7.028l1.743 3.573c.58 1.192.086 2.629-1.106 3.21-.328.16-.688.243-1.053.242l-19.714-.01c-.724-.002-1.31-.59-1.311-1.313V4.555c0-.724.587-1.311 1.311-1.311z" transform="translate(-119.000000, -664.000000) translate(16.000000, 112.000000) translate(0.000000, 414.000000) translate(0.000000, 46.000000) translate(103.000000, 92.000000) translate(1.000000, 8.000000) translate(0.000000, 32.754829)"/>
                                    <path fill="#767676" d="M21.084 47.574c5.076 0 9.19-4.115 9.19-9.19 0-5.076-4.114-9.19-9.19-9.19s-9.19 4.114-9.19 9.19c0 5.075 4.114 9.19 9.19 9.19zM63.252 47.574c5.075 0 9.19-4.115 9.19-9.19 0-5.076-4.115-9.19-9.19-9.19-5.076 0-9.19 4.114-9.19 9.19 0 5.075 4.114 9.19 9.19 9.19z" transform="translate(-119.000000, -664.000000) translate(16.000000, 112.000000) translate(0.000000, 414.000000) translate(0.000000, 46.000000) translate(103.000000, 92.000000) translate(1.000000, 8.000000) translate(0.000000, 32.754829)"/>
                                    <path fill="#FFF" d="M21.084 43.249c2.687 0 4.865-2.178 4.865-4.865 0-2.688-2.178-4.866-4.865-4.866-2.687 0-4.866 2.178-4.866 4.866 0 2.687 2.179 4.865 4.866 4.865zM63.252 43.249c2.687 0 4.865-2.178 4.865-4.865 0-2.688-2.178-4.866-4.865-4.866-2.687 0-4.866 2.178-4.866 4.866 0 2.687 2.179 4.865 4.866 4.865z" transform="translate(-119.000000, -664.000000) translate(16.000000, 112.000000) translate(0.000000, 414.000000) translate(0.000000, 46.000000) translate(103.000000, 92.000000) translate(1.000000, 8.000000) translate(0.000000, 32.754829)"/>
                                </g>
                                <g>
                                    <g transform="translate(-119.000000, -664.000000) translate(16.000000, 112.000000) translate(0.000000, 414.000000) translate(0.000000, 46.000000) translate(103.000000, 92.000000) translate(1.000000, 8.000000) translate(99.000000, 30.585303) translate(1.000000, 38.414697)">
                                        <ellipse cx="11" cy="5.5" fill="#FFD743" rx="11" ry="5.5"/>
                                        <path fill="#FFE78E" fill-rule="nonzero" d="M9.914 9.308l.95-2.94c0-.02.015-.067.043-.143.03-.076.048-.127.058-.153h.921c.02.125.048.224.087.296l.82 2.94h1.986l1.123-3.236H17.6v-1.01h-1.353l.907-2.524h-1.77l-.763 2.524h-1.454l-.705-2.524h-1.828l-.792 2.524H8.317l-.691-2.524H5.784l.82 2.524H5.28v1.01h1.64l1.037 3.236h1.957zm2.17-3.385h-.408c.094-.264.169-.546.225-.846l.183.846zM9.205 7.615c-.112-.57-.247-1.134-.405-1.692h.88c-.028.084-.186.648-.475 1.692zm4.414 0c-.028-.114-.068-.288-.12-.52-.051-.232-.1-.445-.148-.638-.047-.193-.094-.371-.14-.534h.858c-.16.477-.31 1.04-.45 1.692z"/>
                                    </g>
                                    <g transform="translate(-119.000000, -664.000000) translate(16.000000, 112.000000) translate(0.000000, 414.000000) translate(0.000000, 46.000000) translate(103.000000, 92.000000) translate(1.000000, 8.000000) translate(99.000000, 30.585303) translate(0.000000, 33.414697)">
                                        <path fill="#FC0" d="M12 2.526c5.464 0 10.075 2.05 11.526 4.855H24v1.926C23.958 13.007 18.601 16 12 16 5.373 16 0 12.984 0 9.263l.001.043H0V7.383h.474C1.925 4.575 6.536 2.525 12 2.525z"/>
                                        <ellipse cx="12" cy="6.737" fill="#FFE78E" rx="12" ry="6.737"/>
                                        <ellipse cx="12" cy="6.316" fill="#FC0" rx="10.345" ry="5.474"/>
                                        <path fill="#FFE78E" fill-rule="nonzero" d="M10.98 10.105l.892-2.925c0-.02.014-.067.041-.143l.054-.152h.866c.018.124.046.223.082.295l.771 2.925h1.868l1.056-3.22h1.597V5.88h-1.272l.852-2.512h-1.665l-.717 2.512h-1.367l-.663-2.512h-1.72l-.744 2.512H9.477l-.65-2.512H7.094l.772 2.512H6.62v1.005h1.543l.974 3.22h1.841zm2.04-3.368h-.384c.088-.263.158-.543.211-.842l.173.842zM10.312 8.42c-.105-.567-.232-1.129-.381-1.684h.828c-.027.083-.176.645-.447 1.684zm4.15 0c-.026-.114-.063-.287-.112-.518-.048-.231-.095-.443-.139-.635-.044-.192-.088-.369-.132-.531h.808c-.15.474-.292 1.036-.424 1.684z"/>
                                    </g>
                                    <g transform="translate(-119.000000, -664.000000) translate(16.000000, 112.000000) translate(0.000000, 414.000000) translate(0.000000, 46.000000) translate(103.000000, 92.000000) translate(1.000000, 8.000000) translate(99.000000, 30.585303) translate(0.000000, 28.414697)">
                                        <path fill="#FC0" d="M12 2.526c5.464 0 10.075 2.05 11.526 4.855H24v1.926C23.958 13.007 18.601 16 12 16 5.373 16 0 12.984 0 9.263l.001.043H0V7.383h.474C1.925 4.575 6.536 2.525 12 2.525z"/>
                                        <ellipse cx="12" cy="6.737" fill="#FFE78E" rx="12" ry="6.737"/>
                                        <ellipse cx="12" cy="6.316" fill="#FC0" rx="10.345" ry="5.474"/>
                                        <path fill="#FFE78E" fill-rule="nonzero" d="M10.98 10.105l.892-2.925c0-.02.014-.067.041-.143l.054-.152h.866c.018.124.046.223.082.295l.771 2.925h1.868l1.056-3.22h1.597V5.88h-1.272l.852-2.512h-1.665l-.717 2.512h-1.367l-.663-2.512h-1.72l-.744 2.512H9.477l-.65-2.512H7.094l.772 2.512H6.62v1.005h1.543l.974 3.22h1.841zm2.04-3.368h-.384c.088-.263.158-.543.211-.842l.173.842zM10.312 8.42c-.105-.567-.232-1.129-.381-1.684h.828c-.027.083-.176.645-.447 1.684zm4.15 0c-.026-.114-.063-.287-.112-.518-.048-.231-.095-.443-.139-.635-.044-.192-.088-.369-.132-.531h.808c-.15.474-.292 1.036-.424 1.684z"/>
                                    </g>
                                    <g transform="translate(-119.000000, -664.000000) translate(16.000000, 112.000000) translate(0.000000, 414.000000) translate(0.000000, 46.000000) translate(103.000000, 92.000000) translate(1.000000, 8.000000) translate(99.000000, 30.585303) translate(23.933163, 13.345226) rotate(30.000000) translate(-23.933163, -13.345226) translate(11.623964, 5.042206)">
                                        <path fill="#FC0" d="M12.4 3.03c5.564 0 10.259 2.066 11.735 4.892h.483v1.94c-.043 3.729-5.496 6.744-12.218 6.744-6.748 0-12.218-3.039-12.218-6.788v.044-1.94h.483C2.142 5.096 6.837 3.03 12.4 3.03z"/>
                                        <ellipse cx="12.218" cy="6.788" fill="#FFE78E" rx="12.218" ry="6.788"/>
                                        <ellipse cx="11.539" cy="5.612" fill="#FC0" rx="10.861" ry="5.43"/>
                                        <path fill="#FFE78E" fill-rule="nonzero" d="M9.778 9.933l.942-2.947c0-.02.014-.068.043-.144l.057-.154h.913c.02.126.048.225.086.298l.814 2.947h1.97l1.113-3.245H17.4V5.676h-1.342l.9-2.53h-1.756l-.757 2.53h-1.441l-.7-2.53h-1.812l-.785 2.53H8.194l-.686-2.53H5.681l.814 2.53H5.182v1.012h1.627l1.028 3.245h1.941zM11.93 6.54h-.405c.093-.264.167-.547.223-.848l.182.848zM9.075 8.236C8.964 7.665 8.83 7.1 8.673 6.54h.873c-.028.085-.185.65-.471 1.697zm4.377 0c-.028-.115-.068-.288-.119-.521-.051-.233-.1-.447-.146-.64-.047-.194-.094-.372-.14-.536h.852c-.159.478-.307 1.044-.447 1.697z"/>
                                    </g>
                                </g>
                            </g>
                        </g>
                    </g>
                </g>
            </g>
        </g>
    </g>
</svg>
