<svg xmlns="http://www.w3.org/2000/svg" width="56" height="56" viewBox="0 0 56 56">
    <g fill="none" fill-rule="evenodd">
        <g>
            <g>
                <g>
                    <g>
                        <path fill="#EEE" d="M26.963 9.86c3.864.934 10.522 7.404 10.522 15.823 0 1.755.024 3.614.06 5.475l.025 1.116.017.742.019.738c.146 5.644.374 10.852.387 12.651v.216c0 .293-.01.45-.031.45H2.232c-1.23 0-2.232-.995-2.232-2.218v-.999c0-1.224 1.001-2.22 2.233-2.22h.782V25.683c0-6.701 3.955-12.854 10.076-15.676l.062-.026.644-.227c.377-.133 9.301-.827 13.166.107zM20.946 0c.959 0 1.758.685 1.932 1.587.21-.44.572-.784 1.029-.971.485-.2 1.02-.198 1.505.003l1.02.422c1 .413 1.475 1.559 1.059 2.554-.014.035-.03.068-.051.1l-2.706 4.399c-.136.222-.374.344-.618.344h-.359c-.6-.003-1.87-.01-3.21-.036l-.577-.012c-1.924-.045-3.814-.13-3.916-.296l-2.706-4.4c-.02-.031-.036-.064-.05-.098-.202-.482-.203-1.013-.003-1.496.2-.483.577-.859 1.062-1.06L15.376.62C15.86.418 16.395.417 16.88.616c.458.187.82.53 1.029.973C18.083.685 18.884 0 19.842 0h1.104z" transform="translate(-44.000000, -85.000000) translate(28.000000, 65.000000) translate(16.000000, 20.000000) translate(4.375000, 4.375000)"/>
                        <g stroke="#BDBDBD" stroke-linecap="round" stroke-linejoin="round" stroke-width="2.2">
                            <path d="M0 8.151l8.56 4.099-4.922-8.181s8.799 4.31 8.609 4.14C12.057 8.04 7.179 0 7.179 0M1.75 11.375L10.634 1.735" transform="translate(-44.000000, -85.000000) translate(28.000000, 65.000000) translate(16.000000, 20.000000) translate(4.375000, 4.375000) translate(20.408043, 26.273993) rotate(-312.000000) translate(-20.408043, -26.273993) translate(14.283043, 20.148993)"/>
                        </g>
                        <path fill="#989898" d="M16.125 10.532c-.974 0-1.766-.698-1.766-1.556 0-.858.792-1.556 1.766-1.556h7.959c.974 0 1.767.698 1.767 1.556 0 .858-.793 1.556-1.767 1.556h-7.96z" transform="translate(-44.000000, -85.000000) translate(28.000000, 65.000000) translate(16.000000, 20.000000) translate(4.375000, 4.375000)"/>
                    </g>
                    <g>
                        <g>
                            <path fill="#7FC7A2" d="M0 0H26.917V7H0z" transform="translate(-44.000000, -85.000000) translate(28.000000, 65.000000) translate(16.000000, 20.000000) translate(4.375000, 4.375000) translate(21.000000, 28.000000) translate(2.833333, 7.000000)"/>
                            <path fill="#9CDCC2" d="M0 0H9.827V7H0z" transform="translate(-44.000000, -85.000000) translate(28.000000, 65.000000) translate(16.000000, 20.000000) translate(4.375000, 4.375000) translate(21.000000, 28.000000) translate(2.833333, 7.000000)"/>
                            <path fill="#FFF2DE" d="M14.526 0H18.798000000000002V7H14.526z" transform="translate(-44.000000, -85.000000) translate(28.000000, 65.000000) translate(16.000000, 20.000000) translate(4.375000, 4.375000) translate(21.000000, 28.000000) translate(2.833333, 7.000000)"/>
                        </g>
                        <g>
                            <path fill="#7FC7A2" d="M0 0H26.917V7H0z" transform="translate(-44.000000, -85.000000) translate(28.000000, 65.000000) translate(16.000000, 20.000000) translate(4.375000, 4.375000) translate(21.000000, 28.000000) translate(0.000000, 14.000000)"/>
                            <path fill="#9CDCC2" d="M0 0H9.827V7H0z" transform="translate(-44.000000, -85.000000) translate(28.000000, 65.000000) translate(16.000000, 20.000000) translate(4.375000, 4.375000) translate(21.000000, 28.000000) translate(0.000000, 14.000000)"/>
                            <path fill="#FFF2DE" d="M14.526 0H18.798000000000002V7H14.526z" transform="translate(-44.000000, -85.000000) translate(28.000000, 65.000000) translate(16.000000, 20.000000) translate(4.375000, 4.375000) translate(21.000000, 28.000000) translate(0.000000, 14.000000)"/>
                        </g>
                        <g>
                            <path fill="#7FC7A2" d="M0 0H26.917V7H0z" transform="translate(-44.000000, -85.000000) translate(28.000000, 65.000000) translate(16.000000, 20.000000) translate(4.375000, 4.375000) translate(21.000000, 28.000000)"/>
                            <path fill="#9CDCC2" d="M0 0H9.827V7H0z" transform="translate(-44.000000, -85.000000) translate(28.000000, 65.000000) translate(16.000000, 20.000000) translate(4.375000, 4.375000) translate(21.000000, 28.000000)"/>
                            <path fill="#FFF2DE" d="M14.526 0H18.798000000000002V7H14.526z" transform="translate(-44.000000, -85.000000) translate(28.000000, 65.000000) translate(16.000000, 20.000000) translate(4.375000, 4.375000) translate(21.000000, 28.000000)"/>
                        </g>
                    </g>
                </g>
            </g>
        </g>
    </g>
</svg>
