<svg xmlns="http://www.w3.org/2000/svg" width="56" height="56" viewBox="0 0 56 56">
    <g fill="none" fill-rule="evenodd">
        <g>
            <g>
                <g>
                    <g>
                        <g>
                            <path fill="#222" d="M35.891 16.775h1.078c1.657 0 3 1.343 3 3v7.023c0 .948-.768 1.716-1.716 1.716h-3.646c-.948 0-1.716-.768-1.716-1.716v-7.023c0-1.657 1.343-3 3-3z" transform="translate(-44.000000, -716.000000) translate(28.000000, 696.000000) translate(16.000000, 20.000000) translate(1.750000, 0.000000) translate(0.000000, 16.721372) translate(22.215812, 17.429945) rotate(-354.000000) translate(-22.215812, -17.429945) translate(1.490733, 2.082285) translate(36.430338, 22.644575) rotate(-16.000000) translate(-36.430338, -22.644575)"/>
                            <path fill="#222" d="M3.608 25.178h7.078v3.801c0 .948-.768 1.716-1.716 1.716H5.324c-.948 0-1.716-.768-1.716-1.716v-3.801z" transform="translate(-44.000000, -716.000000) translate(28.000000, 696.000000) translate(16.000000, 20.000000) translate(1.750000, 0.000000) translate(0.000000, 16.721372) translate(22.215812, 17.429945) rotate(-354.000000) translate(-22.215812, -17.429945) translate(1.490733, 2.082285)"/>
                            <path fill="#FFF" d="M34.226 15.633L31.826 4.7c-.324-1.471-1.482-2.5-2.814-2.5H9.918c-1.333 0-2.49 1.029-2.814 2.5L4.702 15.633h29.524z" transform="translate(-44.000000, -716.000000) translate(28.000000, 696.000000) translate(16.000000, 20.000000) translate(1.750000, 0.000000) translate(0.000000, 16.721372) translate(22.215812, 17.429945) rotate(-354.000000) translate(-22.215812, -17.429945) translate(1.490733, 2.082285)"/>
                            <path fill="#05B197" d="M34.226 15.633L31.826 4.7c-.324-1.471-1.482-2.5-2.814-2.5H9.918c-1.333 0-2.49 1.029-2.814 2.5L4.702 15.633 2.827 15.1 5.229 4.165C5.77 1.713 7.696 0 9.918 0h19.094c2.221 0 4.15 1.713 4.688 4.165L36.102 15.1l-1.876.534z" transform="translate(-44.000000, -716.000000) translate(28.000000, 696.000000) translate(16.000000, 20.000000) translate(1.750000, 0.000000) translate(0.000000, 16.721372) translate(22.215812, 17.429945) rotate(-354.000000) translate(-22.215812, -17.429945) translate(1.490733, 2.082285)"/>
                            <path fill="#05B197" d="M35.927 11.979c1.464 0 2.66 1.308 2.733 2.953l.004.16v7.246c0 .008-.005.015-.013.023-.127 1.526-1.221 2.731-2.578 2.813l-.146.004H2.737c-1.464 0-2.595-1.467-2.668-3.112l-.017-2.575L0 15.093c0-1.666 1.15-3.027 2.596-3.11l.14-.004h33.19z" transform="translate(-44.000000, -716.000000) translate(28.000000, 696.000000) translate(16.000000, 20.000000) translate(1.750000, 0.000000) translate(0.000000, 16.721372) translate(22.215812, 17.429945) rotate(-354.000000) translate(-22.215812, -17.429945) translate(1.490733, 2.082285)"/>
                            <path fill="#F9F9F9" d="M7.403 18.852c0 1.137-.922 2.059-2.06 2.059-1.136 0-2.059-.922-2.059-2.06 0-1.136.923-2.059 2.06-2.059s2.06.923 2.06 2.06M35.204 18.852c0 1.137-.922 2.059-2.06 2.059-1.136 0-2.058-.922-2.058-2.06 0-1.136.922-2.059 2.059-2.059s2.06.923 2.06 2.06" transform="translate(-44.000000, -716.000000) translate(28.000000, 696.000000) translate(16.000000, 20.000000) translate(1.750000, 0.000000) translate(0.000000, 16.721372) translate(22.215812, 17.429945) rotate(-354.000000) translate(-22.215812, -17.429945) translate(1.490733, 2.082285)"/>
                        </g>
                    </g>
                    <g>
                        <path fill="#3981FF" d="M13.563 0C6.072 0 0 5.956 0 13.303c0 4.38 2.158 8.265 5.487 10.689L4.914 28l4.345-2.078c1.352.444 2.8.684 4.303.684 7.49 0 13.563-5.956 13.563-13.303S21.053 0 13.562 0z" transform="translate(-44.000000, -716.000000) translate(28.000000, 696.000000) translate(16.000000, 20.000000) translate(1.750000, 0.000000) translate(27.125000, 0.000000)"/>
                        <path fill="#FFF" fill-rule="nonzero" d="M6.124 16.633v-.764H3.917l.65-.66c.674-.692 1.509-1.559 1.509-2.53 0-.986-.618-1.559-1.822-1.559-.634 0-1.196.2-1.565.414l.16.724c.306-.183.755-.366 1.14-.366.698 0 1.06.255 1.06.915 0 .684-.61 1.36-1.373 2.155L2.625 16.06v.573h3.499zm2.303.095c1.147 0 2.126-.723 2.126-2.64v-.343c0-1.917-.979-2.625-2.118-2.625-1.132 0-2.143.7-2.143 2.65v.341c0 1.854.931 2.617 2.135 2.617zm0-.747c-.747 0-1.108-.605-1.108-1.87v-.421c0-1.273.37-1.814 1.116-1.814.722 0 1.1.573 1.1 1.87v.405c0 1.305-.37 1.83-1.108 1.83zm9.036-.342V10.5h-.94v.811H14.75v.724h1.774v.517H14.75v.716h1.774v2.37h.939zm-4.847-.923c.874 0 2.166-.072 2.913-.247l-.113-.747c-.73.175-1.717.246-2.584.214v-2.983h-.93v3.763h.714zm4.999 2.68v-.74h-3.924V15.25h-.93v2.148h4.854zm5.866-3.141v-1.52H24.5v-.755h-1.02V10.5h-.946v3.755h.947zm-4.606-.287c.875 0 2.207-.087 3.121-.31-.04-.255-.096-.501-.136-.756-.875.207-1.773.279-2.76.279v-2.355h-.94v3.142h.715zM23.48 17.5v-2.887h-.939v.74h-2.76v-.725h-.931V17.5h4.63zm-.939-.74h-2.76v-.692h2.76v.692z" transform="translate(-44.000000, -716.000000) translate(28.000000, 696.000000) translate(16.000000, 20.000000) translate(1.750000, 0.000000) translate(27.125000, 0.000000)"/>
                    </g>
                </g>
            </g>
        </g>
    </g>
</svg>
