<svg xmlns="http://www.w3.org/2000/svg" xmlns:xlink="http://www.w3.org/1999/xlink" width="140" height="96" viewBox="0 0 140 96">
    <defs>
        <path id="ljc45vmyaa" d="M0 0H140V96H0z"/>
    </defs>
    <g fill="none" fill-rule="evenodd">
        <g>
            <g>
                <g>
                    <g transform="translate(-118.000000, -1349.000000) translate(0.000000, 112.000000) translate(16.000000, 1161.000000) translate(102.000000, 76.000000)">
                        <mask id="90a62crlmb" fill="#fff">
                            <use xlink:href="#ljc45vmyaa"/>
                        </mask>
                        <g mask="url(#90a62crlmb)">
                            <g>
                                <g>
                                    <path fill="#F8F8F8" d="M.704 0C.315 0 0 .28 0 .626V64.054C0 66.234 1.985 68 4.433 68H54V.626C54 .28 53.685 0 53.296 0H.704z" transform="translate(6.000000, 3.000000) translate(29.729748, 0.000000) translate(27.000000, 34.000000) scale(1, -1) translate(-27.000000, -34.000000)"/>
                                    <g transform="translate(6.000000, 3.000000) translate(29.729748, 0.000000) translate(7.405405, 10.880000)">
                                        <ellipse cx="6.757" cy="6.8" fill="#FF9C49" rx="6.757" ry="6.8"/>
                                        <g stroke="#FFF" stroke-width=".5">
                                            <path d="M3.379.361l2.208 2.302c.614.64.92 1.478.92 2.316 0 .838-.306 1.677-.92 2.317-.61.635-1.409.954-2.209.954S1.78 7.931 1.17 7.296C.556 6.656.25 5.817.25 4.979c0-.838.306-1.677.92-2.316h0L3.379.36z" transform="translate(3.378378, 2.550000)"/>
                                            <path stroke-linecap="round" stroke-linejoin="round" d="M2.111 4.675L4.645 4.675M3.378 3.4L3.378 5.95" transform="translate(3.378378, 2.550000)"/>
                                        </g>
                                    </g>
                                    <g transform="translate(6.000000, 3.000000) translate(29.729748, 0.000000) translate(7.405405, 29.920000)">
                                        <ellipse cx="6.757" cy="6.8" fill="#85D1E9" rx="6.757" ry="6.8"/>
                                        <g stroke="#FFF" transform="translate(2.702703, 2.720000)">
                                            <g stroke-linecap="round" stroke-linejoin="round" stroke-width=".3">
                                                <path d="M.397 0L.838 2.04 1.355.014 1.871 2.04 2.315.001M.541.995L0 .995M2.703.995L2.162.995" transform="translate(1.351351, 3.400000)"/>
                                            </g>
                                            <rect width="4.905" height="7.66" x=".25" y=".25" stroke-width=".5" rx="2"/>
                                            <g stroke-linecap="round" stroke-width=".5">
                                                <path d="M1.359 4.08L1.359.358M0 1.617L1.351 0 2.703 1.617" transform="translate(6.081081, 2.040000)"/>
                                            </g>
                                        </g>
                                    </g>
                                    <path fill="#AAA" d="M46.678 13.626H26.295c-.163 0-.295-.14-.295-.313s.132-.313.295-.313h20.383c.163 0 .295.14.295.313s-.132.313-.295.313M46.678 17.626H26.295c-.163 0-.295-.14-.295-.313s.132-.313.295-.313h20.383c.163 0 .295.14.295.313s-.132.313-.295.313M46.678 21.626H26.295c-.163 0-.295-.14-.295-.313s.132-.313.295-.313h20.383c.163 0 .295.14.295.313s-.132.313-.295.313" transform="translate(6.000000, 3.000000) translate(29.729748, 0.000000)"/>
                                    <path fill="#AAA" d="M38.865 34.68H26.108c-.06 0-.108-.152-.108-.34 0-.188.048-.34.108-.34h12.757c.06 0 .108.152.108.34 0 .188-.048.34-.108.34" transform="translate(6.000000, 3.000000) translate(29.729748, 0.000000) translate(32.486486, 34.340000) scale(1, -1) translate(-32.486486, -34.340000)"/>
                                    <path fill="#AAA" d="M35.146 38.626h-8.832c-.173 0-.314-.14-.314-.313s.14-.313.314-.313h8.832c.173 0 .313.14.313.313s-.14.313-.313.313" transform="translate(6.000000, 3.000000) translate(29.729748, 0.000000)"/>
                                </g>
                                <g>
                                    <g transform="translate(6.000000, 3.000000) translate(22.079748, 52.000000) translate(1.350000, 21.823529)">
                                        <ellipse cx="10.8" cy="5.412" fill="#FFD743" rx="10.8" ry="5.412"/>
                                        <path fill="#FFE78E" fill-rule="nonzero" d="M9.734 9.158l.933-2.892c0-.02.014-.066.042-.14l.057-.152h.904c.019.123.047.22.085.292l.805 2.892h1.95l1.103-3.184h1.667v-.993h-1.328l.89-2.483h-1.738l-.75 2.483h-1.426l-.693-2.483h-1.794L9.663 4.98H8.166l-.679-2.483H5.68l.805 2.483h-1.3v.993h1.61l1.018 3.184h1.922zm2.13-3.33h-.4c.092-.26.165-.537.22-.833l.18.833zM9.038 7.493c-.11-.56-.243-1.116-.398-1.665h.864c-.027.083-.183.638-.466 1.665zm4.333 0c-.027-.113-.067-.283-.117-.512-.05-.228-.1-.438-.145-.628-.046-.19-.093-.365-.139-.525h.844c-.157.469-.304 1.024-.443 1.665z"/>
                                    </g>
                                    <g transform="translate(6.000000, 3.000000) translate(22.079748, 52.000000) translate(0.000000, 16.411765)">
                                        <path fill="#FC0" d="M12.15 2.563c5.532 0 10.2 2.08 11.67 4.926l.48.001v1.954c-.043 3.755-5.466 6.791-12.15 6.791C5.44 16.235 0 13.175 0 9.4l.001.044H0V7.49h.48c1.47-2.846 6.138-4.927 11.67-4.927z"/>
                                        <ellipse cx="12.15" cy="6.836" fill="#FFE78E" rx="12.15" ry="6.836"/>
                                        <ellipse cx="12.15" cy="6.409" fill="#FC0" rx="10.474" ry="5.554"/>
                                        <path fill="#FFE78E" fill-rule="nonzero" d="M11.116 10.254l.905-2.968c0-.02.013-.069.04-.145l.056-.155h.877c.018.126.045.226.082.3l.781 2.968h1.891l1.07-3.268h1.616v-1.02h-1.288l.864-2.548h-1.686l-.726 2.548h-1.384l-.672-2.548h-1.74l-.754 2.548H9.595l-.658-2.548H7.183l.781 2.548h-1.26v1.02h1.562l.986 3.268h1.864zm2.066-3.418h-.388c.089-.266.16-.551.214-.855l.174.855zm-2.741 1.709c-.107-.576-.235-1.145-.386-1.71h.838c-.026.086-.177.655-.452 1.71zm4.203 0c-.027-.116-.065-.291-.114-.526-.05-.234-.096-.449-.141-.644-.045-.195-.09-.375-.134-.54h.818c-.152.482-.295 1.052-.43 1.71z"/>
                                    </g>
                                    <g transform="translate(6.000000, 3.000000) translate(22.079748, 52.000000) translate(0.000000, 12.000000)">
                                        <path fill="#FC0" d="M12.15 2.563c5.532 0 10.2 2.08 11.67 4.926l.48.001v1.954c-.043 3.755-5.466 6.791-12.15 6.791C5.44 16.235 0 13.175 0 9.4l.001.044H0V7.49h.48c1.47-2.846 6.138-4.927 11.67-4.927z"/>
                                        <ellipse cx="12.15" cy="6.836" fill="#FFE78E" rx="12.15" ry="6.836"/>
                                        <ellipse cx="12.15" cy="6.409" fill="#FC0" rx="10.474" ry="5.554"/>
                                        <path fill="#FFE78E" fill-rule="nonzero" d="M11.116 10.254l.905-2.968c0-.02.013-.069.04-.145l.056-.155h.877c.018.126.045.226.082.3l.781 2.968h1.891l1.07-3.268h1.616v-1.02h-1.288l.864-2.548h-1.686l-.726 2.548h-1.384l-.672-2.548h-1.74l-.754 2.548H9.595l-.658-2.548H7.183l.781 2.548h-1.26v1.02h1.562l.986 3.268h1.864zm2.066-3.418h-.388c.089-.266.16-.551.214-.855l.174.855zm-2.741 1.709c-.107-.576-.235-1.145-.386-1.71h.838c-.026.086-.177.655-.452 1.71zm4.203 0c-.027-.116-.065-.291-.114-.526-.05-.234-.096-.449-.141-.644-.045-.195-.09-.375-.134-.54h.818c-.152.482-.295 1.052-.43 1.71z"/>
                                    </g>
                                    <g transform="translate(6.000000, 3.000000) translate(22.079748, 52.000000) translate(0.000000, 8.000000)">
                                        <path fill="#FC0" d="M12.15 2.563c5.532 0 10.2 2.08 11.67 4.926l.48.001v1.954c-.043 3.755-5.466 6.791-12.15 6.791C5.44 16.235 0 13.175 0 9.4l.001.044H0V7.49h.48c1.47-2.846 6.138-4.927 11.67-4.927z"/>
                                        <ellipse cx="12.15" cy="6.836" fill="#FFE78E" rx="12.15" ry="6.836"/>
                                        <ellipse cx="12.15" cy="6.409" fill="#FC0" rx="10.474" ry="5.554"/>
                                        <path fill="#FFE78E" fill-rule="nonzero" d="M11.116 10.254l.905-2.968c0-.02.013-.069.04-.145l.056-.155h.877c.018.126.045.226.082.3l.781 2.968h1.891l1.07-3.268h1.616v-1.02h-1.288l.864-2.548h-1.686l-.726 2.548h-1.384l-.672-2.548h-1.74l-.754 2.548H9.595l-.658-2.548H7.183l.781 2.548h-1.26v1.02h1.562l.986 3.268h1.864zm2.066-3.418h-.388c.089-.266.16-.551.214-.855l.174.855zm-2.741 1.709c-.107-.576-.235-1.145-.386-1.71h.838c-.026.086-.177.655-.452 1.71zm4.203 0c-.027-.116-.065-.291-.114-.526-.05-.234-.096-.449-.141-.644-.045-.195-.09-.375-.134-.54h.818c-.152.482-.295 1.052-.43 1.71z"/>
                                    </g>
                                    <g transform="translate(6.000000, 3.000000) translate(22.079748, 52.000000) translate(0.000000, 4.000000)">
                                        <path fill="#FC0" d="M12.15 2.563c5.532 0 10.2 2.08 11.67 4.926l.48.001v1.954c-.043 3.755-5.466 6.791-12.15 6.791C5.44 16.235 0 13.175 0 9.4l.001.044H0V7.49h.48c1.47-2.846 6.138-4.927 11.67-4.927z"/>
                                        <ellipse cx="12.15" cy="6.836" fill="#FFE78E" rx="12.15" ry="6.836"/>
                                        <ellipse cx="12.15" cy="6.409" fill="#FC0" rx="10.474" ry="5.554"/>
                                        <path fill="#FFE78E" fill-rule="nonzero" d="M11.116 10.254l.905-2.968c0-.02.013-.069.04-.145l.056-.155h.877c.018.126.045.226.082.3l.781 2.968h1.891l1.07-3.268h1.616v-1.02h-1.288l.864-2.548h-1.686l-.726 2.548h-1.384l-.672-2.548h-1.74l-.754 2.548H9.595l-.658-2.548H7.183l.781 2.548h-1.26v1.02h1.562l.986 3.268h1.864zm2.066-3.418h-.388c.089-.266.16-.551.214-.855l.174.855zm-2.741 1.709c-.107-.576-.235-1.145-.386-1.71h.838c-.026.086-.177.655-.452 1.71zm4.203 0c-.027-.116-.065-.291-.114-.526-.05-.234-.096-.449-.141-.644-.045-.195-.09-.375-.134-.54h.818c-.152.482-.295 1.052-.43 1.71z"/>
                                    </g>
                                    <g transform="translate(6.000000, 3.000000) translate(22.079748, 52.000000)">
                                        <path fill="#FC0" d="M12.15 2.563c5.532 0 10.2 2.08 11.67 4.926l.48.001v1.954c-.043 3.755-5.466 6.791-12.15 6.791C5.44 16.235 0 13.175 0 9.4l.001.044H0V7.49h.48c1.47-2.846 6.138-4.927 11.67-4.927z"/>
                                        <ellipse cx="12.15" cy="6.836" fill="#FFE78E" rx="12.15" ry="6.836"/>
                                        <ellipse cx="12.15" cy="6.409" fill="#FC0" rx="10.474" ry="5.554"/>
                                        <path fill="#FFE78E" fill-rule="nonzero" d="M11.116 10.254l.905-2.968c0-.02.013-.069.04-.145l.056-.155h.877c.018.126.045.226.082.3l.781 2.968h1.891l1.07-3.268h1.616v-1.02h-1.288l.864-2.548h-1.686l-.726 2.548h-1.384l-.672-2.548h-1.74l-.754 2.548H9.595l-.658-2.548H7.183l.781 2.548h-1.26v1.02h1.562l.986 3.268h1.864zm2.066-3.418h-.388c.089-.266.16-.551.214-.855l.174.855zm-2.741 1.709c-.107-.576-.235-1.145-.386-1.71h.838c-.026.086-.177.655-.452 1.71zm4.203 0c-.027-.116-.065-.291-.114-.526-.05-.234-.096-.449-.141-.644-.045-.195-.09-.375-.134-.54h.818c-.152.482-.295 1.052-.43 1.71z"/>
                                    </g>
                                </g>
                                <g transform="translate(6.000000, 3.000000) translate(14.893363, 75.952381) scale(-1, 1) rotate(30.000000) translate(-14.893363, -75.952381) translate(2.516205, 67.603521)">
                                    <path fill="#FC0" d="M12.469 3.047c5.594 0 10.315 2.077 11.8 4.92h.485v1.95c-.043 3.749-5.527 6.78-12.285 6.78-6.786 0-12.286-3.055-12.286-6.825v.044-1.95h.485c1.485-2.842 6.206-4.92 11.8-4.92z"/>
                                    <ellipse cx="12.286" cy="6.825" fill="#FFE78E" rx="12.286" ry="6.825"/>
                                    <ellipse cx="11.603" cy="5.643" fill="#FC0" rx="10.921" ry="5.46"/>
                                    <path fill="#FFE78E" fill-rule="nonzero" d="M9.832 9.988l.947-2.963c0-.02.015-.069.043-.145l.058-.155h.918c.02.127.048.226.086.3l.818 2.963h1.981l1.12-3.263h1.693V5.707h-1.349l.904-2.544h-1.765l-.76 2.544h-1.45l-.704-2.544H10.55l-.79 2.544H8.24l-.69-2.544H5.714l.818 2.544H5.21v1.018h1.636L7.88 9.988h1.952zm2.164-3.412h-.407c.093-.266.168-.55.224-.854l.183.854zM9.125 8.282c-.112-.575-.246-1.144-.404-1.706h.877c-.028.084-.185.653-.473 1.706zm4.401 0c-.028-.116-.068-.29-.12-.525-.05-.234-.1-.448-.147-.643-.046-.195-.093-.374-.14-.538h.856c-.159.48-.308 1.049-.449 1.706z"/>
                                </g>
                                <g>
                                    <path fill="#2D4969" d="M49.5 40.8v6.8c0 1.877 1.46 3.4 3.264 3.4h4.895c1.8 0 3.264-1.523 3.264-3.4v-6.8H49.5zM5.077 47.6c0 1.877 1.46 3.4 3.264 3.4h4.895c1.802 0 3.264-1.523 3.264-3.4v-6.8H5.077v6.8z" transform="translate(6.000000, 3.000000) translate(62.729748, 35.000000)"/>
                                    <path fill="#FFF" d="M54.738 7.443c-.725-2.877-3.326-4.893-6.311-4.893H16.304c-2.984 0-5.586 2.016-6.31 4.893L6.346 21.93l26.02 4.845 26.019-4.845-3.647-14.487z" transform="translate(6.000000, 3.000000) translate(62.729748, 35.000000)"/>
                                    <path fill="#2589FF" d="M56.89 6.115C55.987 2.515 52.752 0 49.023 0H16.978c-3.73 0-6.965 2.515-7.869 6.115l-4.032 16.05 3.149.785L12.255 6.9c.544-2.161 2.486-3.67 4.723-3.67h32.044c2.238 0 4.18 1.509 4.724 3.67l4.03 16.05 3.147-.784-4.032-16.05z" transform="translate(6.000000, 3.000000) translate(62.729748, 35.000000)"/>
                                    <path fill="#2589FF" d="M61.05 21.675c1.965 0 3.662 1.106 4.462 2.708l.258.074c.136.453.23.927.23 1.425l-.001.531.001.043v9.561c0 2.142-1.457 3.955-3.465 4.564-.463.143-.945.219-1.445.219l.023-.001-.063.001H4.95C2.216 40.8 0 38.66 0 36.017v-9.56c0-2.641 2.216-4.782 4.95-4.782z" transform="translate(6.000000, 3.000000) translate(62.729748, 35.000000)"/>
                                    <path fill="#FFF" d="M58.385 31.237c0 1.76-1.42 3.188-3.173 3.188-1.752 0-3.174-1.429-3.174-3.188 0-1.76 1.422-3.187 3.174-3.187 1.753 0 3.173 1.427 3.173 3.187M6.346 31.237c0 1.76 1.421 3.188 3.175 3.188 1.752 0 3.171-1.429 3.171-3.188 0-1.76-1.42-3.187-3.171-3.187-1.754 0-3.175 1.427-3.175 3.187" transform="translate(6.000000, 3.000000) translate(62.729748, 35.000000)"/>
                                </g>
                            </g>
                        </g>
                    </g>
                </g>
            </g>
        </g>
    </g>
</svg>
