<svg xmlns="http://www.w3.org/2000/svg" width="140" height="96" viewBox="0 0 140 96">
    <g fill="none" fill-rule="evenodd">
        <g>
            <g>
                <g>
                    <g>
                        <g>
                            <path d="M0 0H140V96H0z" transform="translate(-118.000000, -1034.000000) translate(16.000000, 112.000000) translate(0.000000, 784.000000) translate(0.000000, 46.000000) translate(102.000000, 92.000000)"/>
                            <g>
                                <g>
                                    <path fill="#DDD" d="M51.976 8H7.024C3.15 8 0 11.178 0 15.083v53.834C0 72.822 3.15 76 7.024 76h44.952C55.85 76 59 72.822 59 68.917V15.083C59 11.178 55.85 8 51.976 8" transform="translate(-118.000000, -1034.000000) translate(16.000000, 112.000000) translate(0.000000, 784.000000) translate(0.000000, 46.000000) translate(102.000000, 92.000000) translate(32.000000, 7.000000)"/>
                                    <path fill="#FFF" d="M5.833 71C4.271 71 3 69.677 3 68.05v-53.1C3 13.323 4.27 12 5.833 12h45.334C52.729 12 54 13.323 54 14.95v53.1c0 1.627-1.27 2.95-2.833 2.95H5.833" transform="translate(-118.000000, -1034.000000) translate(16.000000, 112.000000) translate(0.000000, 784.000000) translate(0.000000, 46.000000) translate(102.000000, 92.000000) translate(32.000000, 7.000000)"/>
                                    <path fill="#FFC348" d="M36.537 6.726C36.351 2.985 33.267 0 29.5 0s-6.851 2.985-7.037 6.726C17.283 8.391 14 11.786 14 15.583c0 .782.63 1.417 1.41 1.417h28.18c.78 0 1.41-.635 1.41-1.417 0-3.798-3.283-7.192-8.463-8.857" transform="translate(-118.000000, -1034.000000) translate(16.000000, 112.000000) translate(0.000000, 784.000000) translate(0.000000, 46.000000) translate(102.000000, 92.000000) translate(32.000000, 7.000000)"/>
                                    <path fill="#00C8C3" d="M16.6 41h-4.2c-.773 0-1.4-.596-1.4-1.333v-5.334c0-.736.627-1.333 1.4-1.333h4.2c.773 0 1.4.597 1.4 1.333v5.334c0 .737-.627 1.333-1.4 1.333M25.6 42h-4.2c-.773 0-1.4-.67-1.4-1.5v-9c0-.828.627-1.5 1.4-1.5h4.2c.773 0 1.4.672 1.4 1.5v9c0 .83-.627 1.5-1.4 1.5M36.6 42h-4.2c-.773 0-1.4-.633-1.4-1.417V26.417c0-.782.627-1.417 1.4-1.417h4.2c.773 0 1.4.635 1.4 1.417v14.166c0 .784-.627 1.417-1.4 1.417M45.6 41h-4.2c-.773 0-1.4-.626-1.4-1.4V28.4c0-.773.627-1.4 1.4-1.4h4.2c.773 0 1.4.627 1.4 1.4v11.2c0 .774-.627 1.4-1.4 1.4" transform="translate(-118.000000, -1034.000000) translate(16.000000, 112.000000) translate(0.000000, 784.000000) translate(0.000000, 46.000000) translate(102.000000, 92.000000) translate(32.000000, 7.000000)"/>
                                    <path fill="#EEE" d="M46.607 51H10.393C9.624 51 9 50.553 9 50c0-.553.624-1 1.393-1h36.214c.77 0 1.393.447 1.393 1 0 .553-.623 1-1.393 1M46.607 58H10.393C9.624 58 9 57.553 9 57c0-.553.624-1 1.393-1h36.214c.77 0 1.393.447 1.393 1 0 .553-.623 1-1.393 1" transform="translate(-118.000000, -1034.000000) translate(16.000000, 112.000000) translate(0.000000, 784.000000) translate(0.000000, 46.000000) translate(102.000000, 92.000000) translate(32.000000, 7.000000)"/>
                                </g>
                                <g>
                                    <path fill="#2589FF" d="M29.793 4.184c-1.597-.087-3.89-.26-5.871-.59-2.577-.43-5.708-2.906-7.14-3.45-.502-.192-1.063-.192-1.564 0-1.432.544-4.562 3.02-7.14 3.45-1.982.33-4.274.503-5.87.59-1.158.062-2.07.913-2.12 1.973-.196 3.96-.304 13.198 2.43 18.575C6.88 33.31 13.35 35.868 15.372 36.479c.408.123.848.123 1.255 0 2.023-.611 8.492-3.17 12.855-11.747 2.735-5.377 2.625-14.615 2.431-18.575-.052-1.06-.964-1.91-2.12-1.973z" transform="translate(-118.000000, -1034.000000) translate(16.000000, 112.000000) translate(0.000000, 784.000000) translate(0.000000, 46.000000) translate(102.000000, 92.000000) translate(32.000000, 7.000000) translate(45.000000, 46.000000)"/>
                                    <g fill="#FFF" transform="translate(-118.000000, -1034.000000) translate(16.000000, 112.000000) translate(0.000000, 784.000000) translate(0.000000, 46.000000) translate(102.000000, 92.000000) translate(32.000000, 7.000000) translate(45.000000, 46.000000) translate(8.000000, 9.142857)">
                                        <rect width="3.2" height="16" x="6.4" rx="1.32"/>
                                        <path d="M0 8.33v-.61C0 6.991.591 6.4 1.32 6.4h13.36c.729 0 1.32.591 1.32 1.32v.61c0 .728-.591 1.32-1.32 1.32H1.32C.591 9.65 0 9.057 0 8.33z"/>
                                    </g>
                                </g>
                            </g>
                        </g>
                    </g>
                </g>
            </g>
        </g>
    </g>
</svg>
