<svg xmlns="http://www.w3.org/2000/svg" xmlns:xlink="http://www.w3.org/1999/xlink" width="56" height="56" viewBox="0 0 56 56">
    <defs>
        <path id="l16yoirwga" d="M0 0L9.778 0 9.778 9.778 0 9.778z"/>
    </defs>
    <g fill="none" fill-rule="evenodd">
        <g>
            <g>
                <g>
                    <path d="M0 0H56V56H0z" transform="translate(-44.000000, -456.000000) translate(28.000000, 436.000000) translate(16.000000, 20.000000)"/>
                    <g>
                        <g>
                            <path fill="#FFCDCD" d="M18 0L0 5.684v11.32C0 28.858 6.913 38.093 18 39.6c11.087-1.508 18-10.743 18-22.595V5.684L18 0z" transform="translate(-44.000000, -456.000000) translate(28.000000, 436.000000) translate(16.000000, 20.000000) translate(5.000000, 5.000000)"/>
                            <path stroke="#FFF" stroke-linecap="round" stroke-linejoin="round" stroke-width="2" d="M12.558 19.37L24.279 19.37M18 13.774L18 25.826" transform="translate(-44.000000, -456.000000) translate(28.000000, 436.000000) translate(16.000000, 20.000000) translate(5.000000, 5.000000)"/>
                        </g>
                        <g>
                            <path fill="#626C78" d="M13.875 13.873c-2.508 2.508-6.572 2.508-9.08 0s-2.508-6.571 0-9.08c2.506-2.505 6.572-2.508 9.08 0 2.508 2.509 2.505 6.575 0 9.08M2.734 2.733c-3.645 3.644-3.645 9.557 0 13.201 3.645 3.645 9.554 3.642 13.199-.003 3.645-3.645 3.645-9.55 0-13.196-3.645-3.645-9.554-3.648-13.2-.003" transform="translate(-44.000000, -456.000000) translate(28.000000, 436.000000) translate(16.000000, 20.000000) translate(5.000000, 5.000000) translate(22.125000, 22.125000)"/>
                            <g transform="translate(-44.000000, -456.000000) translate(28.000000, 436.000000) translate(16.000000, 20.000000) translate(5.000000, 5.000000) translate(22.125000, 22.125000) translate(14.222222, 14.222222)">
                                <mask id="3idwdrtwub" fill="#fff">
                                    <use xlink:href="#l16yoirwga"/>
                                </mask>
                                <path fill="#D0D0D0" d="M7.858 4.56c2.11 2.11 2.318 3.795 1.408 4.706-.91.91-2.596.702-4.706-1.408C2.45 5.748-.75 1.07.16.16 1.07-.75 5.747 2.45 7.857 4.56" mask="url(#3idwdrtwub)"/>
                            </g>
                            <path fill="#3C4B59" d="M18.162 13.98c-.282-.287-.607-.503-.954-.647-.035.049-.062.098-.113.144-1.227 1.101-2.29 2.84-3.762 3.279.12.51.365.995.754 1.393 1.125 1.151 2 .183 3.125-.968s2.075-2.05.95-3.2" transform="translate(-44.000000, -456.000000) translate(28.000000, 436.000000) translate(16.000000, 20.000000) translate(5.000000, 5.000000) translate(22.125000, 22.125000)"/>
                            <path fill="#626C78" d="M13.875 13.873c-2.508 2.508-6.572 2.508-9.08 0s-2.508-6.571 0-9.08c2.506-2.505 6.572-2.508 9.08 0 2.508 2.509 2.505 6.575 0 9.08M2.734 2.733c-3.645 3.644-3.645 9.557 0 13.201 3.645 3.645 9.554 3.642 13.199-.003 3.645-3.645 3.645-9.55 0-13.196-3.645-3.645-9.554-3.648-13.2-.003" transform="translate(-44.000000, -456.000000) translate(28.000000, 436.000000) translate(16.000000, 20.000000) translate(5.000000, 5.000000) translate(22.125000, 22.125000)"/>
                        </g>
                    </g>
                </g>
            </g>
        </g>
    </g>
</svg>
