<svg xmlns="http://www.w3.org/2000/svg" xmlns:xlink="http://www.w3.org/1999/xlink" width="56" height="56" viewBox="0 0 56 56">
    <defs>
        <path id="7hnv76oxza" d="M0 0H56V56H0z"/>
        <path id="3a7yht90uc" d="M0 0L12.685 0 12.685 8.881 0 8.881z"/>
        <path id="41pyyyb6fe" d="M0 0L37.979 0 37.979 21.561 0 21.561z"/>
    </defs>
    <g fill="none" fill-rule="evenodd">
        <g>
            <g>
                <g transform="translate(-44.000000, -979.000000) translate(28.000000, 959.000000) translate(16.000000, 20.000000)">
                    <mask id="bkxgxg4ejb" fill="#fff">
                        <use xlink:href="#7hnv76oxza"/>
                    </mask>
                    <g mask="url(#bkxgxg4ejb)">
                        <g>
                            <g>
                                <path fill="#FBD3AE" d="M13.079 7.88s.517 11.61 6.443 11.61c5.926 0 5.753-11.61 5.753-11.61s-.23-4.862-6.098-4.74c-5.868.121-6.098 4.74-6.098 4.74" transform="translate(0.775087, 0.387543) translate(-0.000000, 12.207612)"/>
                                <path fill="#FBD3AE" d="M13.882 9.096s-1.283-1.01-2.266-.179c-.983.832.072 3.884 2.262 3.975l.004-3.796zM24.567 9.096s1.283-1.01 2.266-.179c.983.832-.072 3.884-2.262 3.975l-.004-3.796z" transform="translate(0.775087, 0.387543) translate(-0.000000, 12.207612)"/>
                                <g transform="translate(0.775087, 0.387543) translate(-0.000000, 12.207612) translate(12.927374, 0.000000)">
                                    <mask id="vgou7eygdd" fill="#fff">
                                        <use xlink:href="#3a7yht90uc"/>
                                    </mask>
                                    <path fill="#EBEBEB" d="M7.458 0H5.226C2.34 0 0 2.377 0 5.31v3.57h12.685V5.31c0-2.933-2.34-5.31-5.227-5.31" mask="url(#vgou7eygdd)"/>
                                </g>
                                <g transform="translate(0.775087, 0.387543) translate(-0.000000, 12.207612) translate(0.000000, 19.489262)">
                                    <mask id="qgpuwxlusf" fill="#fff">
                                        <use xlink:href="#41pyyyb6fe"/>
                                    </mask>
                                    <path fill="#F0695C" d="M11.196 0c-4.76 0-9.09 3.941-9.71 9.126l-.603 5.052c-.433 3.62 2.15 6.904 5.77 7.337.26.03.521.046.783.046h23.107c3.645 0 6.6-2.955 6.6-6.6 0-.262-.015-.523-.046-.783l-.604-5.052C35.873 3.94 31.543 0 26.783 0H11.197z" mask="url(#qgpuwxlusf)"/>
                                </g>
                                <path fill="#222" d="M25.035 11.313c.046.964-.666 1.49-1.345 1.765-.513.207-1.191.099-1.688-.203-1-.608-2.297-.981-2.72-.907-.425-.074-1.721.299-2.721.907-.498.302-1.176.41-1.69.203-.678-.274-1.39-.801-1.344-1.765 0 0-1.012.59-.6 4.48.534 5.037 4.558 6.032 6.122 6.192 0 .033.464.033.464.033 1.564-.193 5.75-1.188 6.284-6.225.412-3.89-.762-4.48-.762-4.48M32.123 41.08h-2.78c0-5.594-4.48-10.145-9.986-10.145-5.507 0-9.987 4.551-9.987 10.145H6.591c0-7.152 5.727-12.968 12.766-12.968s12.766 5.816 12.766 12.968" transform="translate(0.775087, 0.387543) translate(-0.000000, 12.207612)"/>
                                <path fill="#FBD3AE" d="M6.185 38.522s0-3.647 3.127-6.764c3.126-3.117 3.886-2.41 3.767-1.764-.12.647-2.436 2.823-2.436 2.823s2.062 2.503 1.216 4.352c-1.158 2.529-5.153 2.882-5.674 1.353M33.031 38.522s0-3.647-3.126-6.764c-3.127-3.117-3.887-2.41-3.767-1.764.12.647 2.435 2.823 2.435 2.823s-2.062 2.503-1.216 4.352c1.158 2.529 5.153 2.882 5.674 1.353" transform="translate(0.775087, 0.387543) translate(-0.000000, 12.207612)"/>
                                <path fill="#2B2E4E" d="M17.224 9.528c0 .52-.35.94-.78.94-.432 0-.782-.42-.782-.94 0-.519.35-.94.781-.94.432 0 .781.421.781.94M23.051 9.528c0 .52-.35.94-.781.94-.431 0-.781-.42-.781-.94 0-.519.35-.94.781-.94.431 0 .781.421.781.94" transform="translate(0.775087, 0.387543) translate(-0.000000, 12.207612)"/>
                                <path fill="#E8AF7B" d="M19.168 12.498c-.787 0-1.16-.364-1.333-.67-.598-1.05.377-2.86.579-3.213.143-.252.463-.338.712-.192.249.147.333.47.189.723-.378.664-.79 1.782-.578 2.152.067.118.271.121.438.141.29 0 .522.236.523.527.002.297-.227.534-.53.532" transform="translate(0.775087, 0.387543) translate(-0.000000, 12.207612)"/>
                                <path fill="#222" d="M25.895 7.833c-4.404-.681-8.846-.681-13.25 0-.13.02-.231.25-.231.524 0 .29.11.524.248.524h13.215c.138 0 .249-.235.249-.524 0-.274-.101-.504-.231-.524" transform="translate(0.775087, 0.387543) translate(-0.000000, 12.207612)"/>
                                <path fill="#E8AF7B" d="M19.185 15.044c-.793 0-1.418-.387-1.728-.714-.2-.21-.193-.544.014-.748.206-.201.533-.197.733.01.091.092.918.868 2.133-.053.232-.175.558-.124.73.108.171.234.124.566-.107.741-.637.483-1.243.656-1.775.656" transform="translate(0.775087, 0.387543) translate(-0.000000, 12.207612)"/>
                            </g>
                            <g>
                                <path fill="#3981FF" d="M13.516 0C6.05 0 0 5.935 0 13.257c0 4.364 2.15 8.236 5.468 10.652l-.57 3.994 4.329-2.07c1.347.441 2.79.68 4.289.68 7.464 0 13.515-5.935 13.515-13.256C27.031 5.935 20.98 0 13.516 0z" transform="translate(0.775087, 0.387543) translate(28.104913, 0.000000)"/>
                                <path fill="#FFF" fill-rule="nonzero" d="M7.99 15.735v-5.477h-.508l-1.362.618v.57l.9-.182v4.471h.97zm6.569-1.022V9.592h-.916v.808h-1.73v.722h1.73v.515h-1.73v.713h1.73v2.363h.916zm-4.728-.92c.853 0 2.113-.071 2.841-.246l-.11-.745c-.712.175-1.675.246-2.52.214v-2.972h-.908v3.749h.697zm4.877 2.671v-.737H10.88v-1.403H9.97v2.14h4.737zm6.113-3.13v-1.515h.995v-.753h-.995V9.592h-.923v3.741h.923zm-4.493-.286c.853 0 2.153-.087 3.045-.31l-.133-.752c-.853.206-1.73.277-2.693.277V9.917h-.916v3.13h.697zm4.493 3.52V13.69h-.916v.737h-2.692v-.721h-.909v2.861h4.517zm-.916-.738h-2.692v-.69h2.692v.69z" transform="translate(0.775087, 0.387543) translate(28.104913, 0.000000)"/>
                            </g>
                        </g>
                    </g>
                </g>
            </g>
        </g>
    </g>
</svg>
