<svg xmlns="http://www.w3.org/2000/svg" width="56" height="56" viewBox="0 0 56 56">
    <g fill="none" fill-rule="evenodd">
        <g>
            <g>
                <g>
                    <path d="M0 0H56V56H0z" transform="translate(-32.000000, -112.000000) translate(16.000000, 96.000000) translate(16.000000, 16.000000)"/>
                    <g>
                        <path fill="#FFC7B0" d="M40.383 46.356h-20.13c-2.162 0-3.767-1.886-7.312-5.465-3.545-3.578-8.969-9.405-9.549-9.967-.58-.562 2.451-2.84 4.663-.507 1.475 1.556 2.607 2.821 3.397 3.797v-9.012c2.386-.48 3.58.52 3.58 3s3.546 4.234 10.639 5.262l9.232 3.849 5.48 1.627v7.416z" transform="translate(-32.000000, -112.000000) translate(16.000000, 96.000000) translate(16.000000, 16.000000) translate(2.000000, 3.000000)"/>
                        <path fill="#FFC7B0" d="M12.592 24.887c1.674.47 2.792 2.046 2.682 3.78-.155 2.448-.41 5.021-.762 7.72-.508 3.884-1.058 7.511-1.65 10.884L6.737 42.35c.329-.644.773-3.108 1.333-7.394.347-2.652.743-5.303 1.19-7.954.242-1.445 1.61-2.42 3.056-2.176.093.015.185.036.276.061z" transform="translate(-32.000000, -112.000000) translate(16.000000, 96.000000) translate(16.000000, 16.000000) translate(2.000000, 3.000000) translate(11.076660, 35.682984) scale(1, -1) rotate(-137.000000) translate(-11.076660, -35.682984)"/>
                        <path fill="#FFC7B0" d="M17.206 22.3c1.78.465 2.973 2.134 2.838 3.969-.178 2.413-.457 4.95-.838 7.607-.56 3.912-1.165 7.568-1.814 10.966l-6.527-4.934c.354-.65.84-3.133 1.46-7.451.375-2.62.802-5.24 1.279-7.86.288-1.583 1.805-2.632 3.388-2.344.072.013.143.03.214.048z" transform="translate(-32.000000, -112.000000) translate(16.000000, 96.000000) translate(16.000000, 16.000000) translate(2.000000, 3.000000) translate(15.543580, 33.177365) scale(1, -1) rotate(-162.000000) translate(-15.543580, -33.177365)"/>
                        <path fill="#FFC7B0" d="M23.945 20.927c1.78.465 2.973 2.134 2.838 3.968-.178 2.414-.457 4.95-.838 7.607-.56 3.912-1.165 7.568-1.814 10.966l-6.527-4.934c.354-.65.84-3.133 1.46-7.451.375-2.62.801-5.24 1.279-7.86.288-1.583 1.805-2.632 3.388-2.343.072.013.143.028.214.047z" transform="translate(-32.000000, -112.000000) translate(16.000000, 96.000000) translate(16.000000, 16.000000) translate(2.000000, 3.000000) translate(22.282275, 31.803609) scale(1, -1) rotate(-162.000000) translate(-22.282275, -31.803609)"/>
                        <path fill="#F4B094" d="M33.248 41.477c-2.26-.003-5.059 2.274-7.736 1.14-2.677-1.134-9.392-9.552-10-10.123-.606-.57 2.56-2.876 4.876-.507 1.544 1.58 2.73 2.865 3.557 3.856l-.013-9.14c2.494-.482 3.744.534 3.747 3.05.004 2.514 3.93 4.138 11.776 4.87-2.63 4.572-4.7 6.856-6.207 6.854z" transform="translate(-32.000000, -112.000000) translate(16.000000, 96.000000) translate(16.000000, 16.000000) translate(2.000000, 3.000000) translate(27.445994, 34.760073) rotate(5.000000) translate(-27.445994, -34.760073)"/>
                        <g>
                            <g>
                                <g transform="translate(-32.000000, -112.000000) translate(16.000000, 96.000000) translate(16.000000, 16.000000) translate(2.000000, 3.000000) translate(8.580301, 0.000000) translate(22.026930, 8.203875) rotate(-27.000000) translate(-22.026930, -8.203875) translate(17.152088, 4.899301)">
                                    <path fill="#FC0" d="M4.875 1.044c2.22 0 4.092.846 4.682 2.005h.193v.795C9.733 5.373 7.557 6.61 4.875 6.61 2.183 6.61 0 5.363 0 3.826l.001.018H0V3.05h.193c.59-1.159 2.462-2.005 4.682-2.005z"/>
                                    <ellipse cx="4.875" cy="2.783" fill="#FFE78E" rx="4.875" ry="2.783"/>
                                    <ellipse cx="4.875" cy="2.609" fill="#FC0" rx="4.202" ry="2.261"/>
                                    <path fill="#FFE78E" fill-rule="nonzero" d="M4.46 4.174l.363-1.208c0-.008.005-.028.016-.06l.022-.062h.352c.008.051.019.092.033.122l.314 1.208h.759l.428-1.33h.65v-.415h-.518l.347-1.038H6.55L6.258 2.43h-.555l-.27-1.038h-.698L4.433 2.43H3.85L3.586 1.39h-.704l.313 1.038H2.69v.415h.626l.396 1.33h.748zm.829-1.391h-.156c.036-.109.065-.225.086-.348l.07.348zm-1.1.695c-.043-.234-.094-.466-.155-.695h.337c-.011.034-.072.266-.182.695zm1.686 0c-.01-.047-.026-.118-.045-.213l-.057-.263c-.018-.08-.036-.152-.054-.22h.328c-.06.197-.118.429-.172.696z"/>
                                </g>
                                <g transform="translate(-32.000000, -112.000000) translate(16.000000, 96.000000) translate(16.000000, 16.000000) translate(2.000000, 3.000000) translate(8.580301, 0.000000) translate(6.526693, 5.888074) rotate(30.000000) translate(-6.526693, -5.888074) translate(1.110203, 2.216324)">
                                    <path fill="#FC0" d="M5.416 1.16c2.467 0 4.549.94 5.203 2.228h.214v.883c-.019 1.699-2.437 3.072-5.417 3.072C2.425 7.343 0 5.96 0 4.251l.001.02H0v-.883h.214C.868 2.101 2.95 1.16 5.416 1.16z"/>
                                    <ellipse cx="5.416" cy="3.092" fill="#FFE78E" rx="5.416" ry="3.092"/>
                                    <ellipse cx="5.416" cy="2.899" fill="#FC0" rx="4.669" ry="2.512"/>
                                    <path fill="#FFE78E" fill-rule="nonzero" d="M4.956 4.638l.403-1.343c0-.009.006-.03.018-.065l.025-.07h.39c.009.057.021.102.037.135l.349 1.343h.843l.476-1.478h.721v-.461h-.574l.385-1.153h-.752l-.324 1.153h-.617l-.299-1.153h-.776l-.336 1.153h-.647l-.294-1.153h-.782l.348 1.153h-.562v.46h.697l.44 1.479h.83zm.92-1.546h-.173c.04-.12.072-.25.096-.387l.078.387zm-1.221.773c-.048-.26-.105-.518-.172-.773h.373c-.012.038-.079.296-.201.773zm1.873 0c-.012-.052-.029-.132-.05-.238l-.063-.291c-.02-.088-.04-.17-.06-.244h.364c-.067.218-.131.475-.19.773z"/>
                                </g>
                            </g>
                            <g>
                                <path fill="#3981FF" d="M15.892 5.88c2.277.557 6.202 4.415 6.202 9.435 0 .886.01 1.816.026 2.754l.012.626.006.313.015.625c.084 3.531.23 6.874.24 8.02v.178c0 .155-.007.239-.018.239H1.316C.59 28.07 0 27.476 0 26.747v-.596c0-.73.59-1.323 1.316-1.323h.461v-9.513c0-3.996 2.331-7.665 5.939-9.348l.037-.015.38-.135c.221-.08 5.481-.494 7.759.063zM12.345 0c.566 0 1.037.408 1.14.947.123-.264.336-.468.606-.58.286-.119.6-.118.887.002l.6.252c.59.246.87.93.625 1.523-.008.02-.018.04-.03.06l-1.595 2.622c-.08.133-.22.206-.364.206h-.264c-.354-.002-1.021-.007-1.735-.02l-.48-.01c-1.122-.026-2.213-.078-2.273-.176L7.868 2.203c-.012-.019-.022-.038-.03-.059-.12-.287-.12-.604-.002-.892.118-.287.34-.512.626-.631l.6-.252c.286-.12.601-.12.888-.002.27.112.483.317.606.58C10.658.41 11.13 0 11.696 0h.65z" transform="translate(-32.000000, -112.000000) translate(16.000000, 96.000000) translate(16.000000, 16.000000) translate(2.000000, 3.000000) translate(8.580301, 0.000000) translate(1.242519, 13.412124)"/>
                                <g stroke="#ECF5FF" stroke-linecap="round" stroke-linejoin="round" stroke-width="2">
                                    <path d="M0 4.86l5.046 2.445-2.902-4.879s5.186 2.57 5.074 2.47C7.107 4.793 4.231 0 4.231 0M1.031 6.783L6.268 1.035" transform="translate(-32.000000, -112.000000) translate(16.000000, 96.000000) translate(16.000000, 16.000000) translate(2.000000, 3.000000) translate(8.580301, 0.000000) translate(1.242519, 13.412124) translate(12.028498, 15.667751) rotate(-312.000000) translate(-12.028498, -15.667751) translate(8.418424, 12.015281)"/>
                                </g>
                                <path fill="#ECF5FF" d="M9.504 6.28c-.574 0-1.041-.416-1.041-.927 0-.512.467-.928 1.041-.928h4.69c.575 0 1.042.416 1.042.928 0 .511-.467.928-1.041.928H9.504z" transform="translate(-32.000000, -112.000000) translate(16.000000, 96.000000) translate(16.000000, 16.000000) translate(2.000000, 3.000000) translate(8.580301, 0.000000) translate(1.242519, 13.412124)"/>
                            </g>
                        </g>
                        <path fill="#FFC7B0" d="M40.383 34.691l-3.214 1.1h-5.214c-1.287 0-1.726.904-2.722 2.263-.996 1.36-2.453 3.065-2.804 3.065-.235 0 4.416.83 13.954 2.492v-8.92z" transform="translate(-32.000000, -112.000000) translate(16.000000, 96.000000) translate(16.000000, 16.000000) translate(2.000000, 3.000000)"/>
                        <path fill="#FFC7B0" d="M29.025 29.21c2.04.422 3.43 2.323 3.21 4.395-.205 1.944-.502 3.972-.889 6.086-.649 3.539-1.348 6.845-2.099 9.919l-7.566-4.484c.41-.586.974-2.832 1.69-6.738.39-2.13.828-4.258 1.313-6.386.446-1.956 2.375-3.197 4.34-2.791z" transform="translate(-32.000000, -112.000000) translate(16.000000, 96.000000) translate(16.000000, 16.000000) translate(2.000000, 3.000000) translate(27.100765, 39.049556) scale(1, -1) rotate(-111.000000) translate(-27.100765, -39.049556)"/>
                        <path fill="#383C40" d="M41.08 29.127L52 27.144 52 47.728 41.08 47.728z" transform="translate(-32.000000, -112.000000) translate(16.000000, 96.000000) translate(16.000000, 16.000000) translate(2.000000, 3.000000)"/>
                        <path fill="#D2DBEA" d="M35.689 31.947L41.08 31.947 41.08 47.728 35.689 47.728z" transform="translate(-32.000000, -112.000000) translate(16.000000, 96.000000) translate(16.000000, 16.000000) translate(2.000000, 3.000000)"/>
                    </g>
                </g>
            </g>
        </g>
    </g>
</svg>
