<svg xmlns="http://www.w3.org/2000/svg" xmlns:xlink="http://www.w3.org/1999/xlink" width="96" height="96" viewBox="0 0 96 96">
    <defs>
        <path id="35o7prrata" d="M0 0L27.644 0 27.644 33.031 0 33.031z"/>
        <path id="w90h7bu5hc" d="M0 0L28.233 0 28.233 33.43 0 33.43z"/>
    </defs>
    <g fill="none" fill-rule="evenodd">
        <g>
            <g>
                <g>
                    <g>
                        <g>
                            <g>
                                <path d="M0 0H96V96H0z" transform="translate(-139.000000, -3168.000000) translate(16.000000, 112.000000) translate(0.000000, 2521.000000) translate(0.000000, 491.000000) translate(24.000000, 44.000000) translate(99.000000, 0.000000)"/>
                                <g>
                                    <g>
                                        <path fill="#FFC7B0" d="M29.943 14.775s8.444 2.663 12.711 2.663l11.317 2.645s-7.917 8.84 1.783 14.61c.34.203 1.258.68 1.996 1.277 0 0 8.96 4.574-1.821 4.025 0 0 .322 4.073-4.103 2.429 0 0 .724 3.368-3.54 3.446 0 0 .804 6.266-9.574.391-10.378-5.874-19.47-17.231-19.47-17.231l10.7-14.255z" transform="translate(-139.000000, -3168.000000) translate(16.000000, 112.000000) translate(0.000000, 2521.000000) translate(0.000000, 491.000000) translate(24.000000, 44.000000) translate(99.000000, 0.000000) translate(0.000000, 9.000000) translate(0.000000, 23.000000)"/>
                                        <g fill="#F4B094">
                                            <path d="M15.861 1.587c2.681.417 4.517 2.928 4.1 5.608l-.007.043c-.278 1.694-.64 3.448-1.084 5.263-.906 3.695-1.877 7.148-2.914 10.36L5.854 18.237c.557-.614 1.334-2.96 2.333-7.04.468-1.907.982-3.815 1.543-5.722.78-2.65 3.402-4.313 6.131-3.889z" transform="translate(-139.000000, -3168.000000) translate(16.000000, 112.000000) translate(0.000000, 2521.000000) translate(0.000000, 491.000000) translate(24.000000, 44.000000) translate(99.000000, 0.000000) translate(0.000000, 9.000000) translate(0.000000, 23.000000) translate(26.914440, 12.564778) translate(13.198273, 11.860079) rotate(-120.000000) translate(-13.198273, -11.860079)"/>
                                            <path d="M8.969 10.727s7.075-9.515 15.376-7.113c8.302 2.402 8.962 3.362 8.962 3.362L39.44 4.63l6.415 17.643-10.74 4.952s-14.781-7.538-15.163-15.667c0 0-16.454 4.988-10.982-.831" transform="translate(-139.000000, -3168.000000) translate(16.000000, 112.000000) translate(0.000000, 2521.000000) translate(0.000000, 491.000000) translate(24.000000, 44.000000) translate(99.000000, 0.000000) translate(0.000000, 9.000000) translate(0.000000, 23.000000) translate(26.914440, 12.564778)"/>
                                        </g>
                                        <path fill="#FFC7B0" d="M55.906 36.963s3.303-.178 3.246-3.345c-.057-3.168-3.366-3.272-3.366-3.272l-13.334.15c-1.717.02-3.086 1.22-3.06 2.682l.263 14.557c.027 1.46 1.44 2.63 3.156 2.611l13.334-.15s3.304-.177 3.246-3.345c-.057-3.167-3.366-3.27-3.366-3.27s3.304-.179 3.246-3.346c-.057-3.168-3.365-3.272-3.365-3.272z" transform="translate(-139.000000, -3168.000000) translate(16.000000, 112.000000) translate(0.000000, 2521.000000) translate(0.000000, 491.000000) translate(24.000000, 44.000000) translate(99.000000, 0.000000) translate(0.000000, 9.000000) translate(0.000000, 23.000000) translate(49.391767, 40.346489) rotate(39.000000) translate(-49.391767, -40.346489)"/>
                                        <path fill="#F4B094" d="M41.302 38.732s3.141-.098 3.107-3.107c-.034-3.01-3.179-3.179-3.179-3.179l-8 .143c-1.03.018-1.852 1.158-1.836 2.547l.158 13.83c.015 1.387.863 2.499 1.893 2.48l8-.142s3.142-.098 3.107-3.107c-.034-3.009-3.178-3.179-3.178-3.179s3.141-.098 3.107-3.107c-.034-3.009-3.179-3.179-3.179-3.179z" transform="translate(-139.000000, -3168.000000) translate(16.000000, 112.000000) translate(0.000000, 2521.000000) translate(0.000000, 491.000000) translate(24.000000, 44.000000) translate(99.000000, 0.000000) translate(0.000000, 9.000000) translate(0.000000, 23.000000) translate(37.973142, 41.946424) rotate(-45.000000) translate(-37.973142, -41.946424)"/>
                                        <path fill="#D2DBEA" d="M26.109 9.693L32.129 13.457 20.959 35.199 14.093 29.455z" transform="translate(-139.000000, -3168.000000) translate(16.000000, 112.000000) translate(0.000000, 2521.000000) translate(0.000000, 491.000000) translate(24.000000, 44.000000) translate(99.000000, 0.000000) translate(0.000000, 9.000000) translate(0.000000, 23.000000)"/>
                                        <g transform="translate(-139.000000, -3168.000000) translate(16.000000, 112.000000) translate(0.000000, 2521.000000) translate(0.000000, 491.000000) translate(24.000000, 44.000000) translate(99.000000, 0.000000) translate(0.000000, 9.000000) translate(0.000000, 23.000000)">
                                            <mask id="e8snj8x8tb" fill="#fff">
                                                <use xlink:href="#35o7prrata"/>
                                            </mask>
                                            <path fill="#1E324A" d="M13.19 0L27.644 8.281 13.19 33.031 0 23.903z" mask="url(#e8snj8x8tb)"/>
                                        </g>
                                        <path fill="#D2DBEA" d="M68.807 11.575L62.787 15.339 72.769 36.231 80.823 31.337z" transform="translate(-139.000000, -3168.000000) translate(16.000000, 112.000000) translate(0.000000, 2521.000000) translate(0.000000, 491.000000) translate(24.000000, 44.000000) translate(99.000000, 0.000000) translate(0.000000, 9.000000) translate(0.000000, 23.000000)"/>
                                        <g transform="translate(-139.000000, -3168.000000) translate(16.000000, 112.000000) translate(0.000000, 2521.000000) translate(0.000000, 491.000000) translate(24.000000, 44.000000) translate(99.000000, 0.000000) translate(0.000000, 9.000000) translate(0.000000, 23.000000) translate(67.766886, 1.223401)">
                                            <mask id="9w9e40kand" fill="#fff">
                                                <use xlink:href="#w90h7bu5hc"/>
                                            </mask>
                                            <path fill="#1E324A" d="M15.043 0L0 8.618 14.347 33.43 28.233 23.903z" mask="url(#9w9e40kand)"/>
                                        </g>
                                    </g>
                                    <g>
                                        <path fill="#00C8C3" d="M20.8 0c4.418 0 8 3.582 8 8v7.333c0 4.419-3.582 8-8 8h-3.734l-1.885 2.358c-.023.028-.048.056-.074.082l-.082.074c-.432.345-1.06.275-1.406-.156l-1.885-2.358H8c-4.418 0-8-3.581-8-8V8c0-4.418 3.582-8 8-8h12.8z" transform="translate(-139.000000, -3168.000000) translate(16.000000, 112.000000) translate(0.000000, 2521.000000) translate(0.000000, 491.000000) translate(24.000000, 44.000000) translate(99.000000, 0.000000) translate(0.000000, 9.000000) translate(32.640000, 0.000000)"/>
                                        <path stroke="#FFF" stroke-linecap="round" stroke-linejoin="round" stroke-width="1.5" d="M8 12.102h2.743m7.314 0H20.8M19.2 7.5l-2.355 8.403L14.491 7.5h-.182l-2.354 8.403L9.6 7.5" transform="translate(-139.000000, -3168.000000) translate(16.000000, 112.000000) translate(0.000000, 2521.000000) translate(0.000000, 491.000000) translate(24.000000, 44.000000) translate(99.000000, 0.000000) translate(0.000000, 9.000000) translate(32.640000, 0.000000)"/>
                                    </g>
                                </g>
                            </g>
                        </g>
                    </g>
                </g>
            </g>
        </g>
    </g>
</svg>
