<svg xmlns="http://www.w3.org/2000/svg" xmlns:xlink="http://www.w3.org/1999/xlink" width="140" height="96" viewBox="0 0 140 96">
    <defs>
        <path id="lrj93mf8ea" d="M51.546 0c6.565 0 12.44 4.074 14.74 10.223L69 17.474l-1.012 14.848h-.053C67.6 34.405 65.711 36 63.43 36H4.342C2.17 36 .37 34.405.051 32.322H0V28.09c0-6.474 5.135-11.78 11.605-11.993l2.679-.089 5.169-8.469C22.31 2.857 27.4 0 32.887 0h18.659z"/>
        <path id="0cj77x6p2b" d="M0 0h52.8C56.776 0 60 3.224 60 7.2v6.6c0 3.976-3.224 7.2-7.2 7.2H0V0z"/>
    </defs>
    <g fill="none" fill-rule="evenodd">
        <g>
            <g>
                <g>
                    <g>
                        <path d="M0 0H140V96H0z" transform="translate(-118.000000, -292.000000) translate(16.000000, 112.000000) translate(0.000000, 88.000000) translate(102.000000, 92.000000)"/>
                        <g>
                            <g transform="translate(-118.000000, -292.000000) translate(16.000000, 112.000000) translate(0.000000, 88.000000) translate(102.000000, 92.000000) translate(3.000000, 12.000000) translate(20.000000, 0.000000)">
                                <circle cx="16" cy="16" r="16" fill="#FF9C49"/>
                                <g stroke="#FFF">
                                    <path d="M8 .72l5.297 5.485c1.47 1.522 2.203 3.516 2.203 5.51 0 1.995-.733 3.99-2.203 5.511C11.834 18.741 9.917 19.5 8 19.5c-1.917 0-3.834-.759-5.297-2.274C1.233 15.705.5 13.71.5 11.716c0-1.995.733-3.99 2.203-5.51h0L8 .72z" transform="translate(8.000000, 6.000000)"/>
                                    <path stroke-linecap="round" stroke-linejoin="round" d="M5 11L11 11M8 8L8 14" transform="translate(8.000000, 6.000000)"/>
                                </g>
                            </g>
                            <g transform="translate(-118.000000, -292.000000) translate(16.000000, 112.000000) translate(0.000000, 88.000000) translate(102.000000, 92.000000) translate(3.000000, 12.000000) translate(111.000000, 13.000000)">
                                <circle cx="12" cy="12" r="12" fill="#C9D562"/>
                                <g stroke="#FFF">
                                    <path d="M7 .523l6.5 2V6.44c0 2.145-.642 4.054-1.812 5.484-1.12 1.37-2.723 2.295-4.688 2.57-1.965-.275-3.568-1.2-4.688-2.57C1.142 10.495.5 8.585.5 6.441h0V2.522L7 .523z" transform="translate(5.000000, 5.000000)"/>
                                    <path stroke-linecap="round" stroke-linejoin="round" d="M4.667 7.5L9.333 7.5M7 5.294L7 9.706" transform="translate(5.000000, 5.000000)"/>
                                </g>
                            </g>
                            <g transform="translate(-118.000000, -292.000000) translate(16.000000, 112.000000) translate(0.000000, 88.000000) translate(102.000000, 92.000000) translate(3.000000, 12.000000) translate(0.000000, 37.000000)">
                                <circle cx="10" cy="10" r="10" fill="#85D1E9"/>
                                <g stroke="#FFF" transform="translate(4.000000, 4.000000)">
                                    <g stroke-linecap="round" stroke-linejoin="round" stroke-width=".5">
                                        <path d="M.588 0L1.241 3 2.006.021 2.768 3 3.427.001M.8 1.464L0 1.464M4 1.464L3.2 1.464" transform="translate(2.000000, 5.000000)"/>
                                    </g>
                                    <rect width="7" height="11" x=".5" y=".5" rx="2"/>
                                    <g stroke-linecap="round">
                                        <path d="M2.012 6L2.012.526M0 2.378L2 0 4 2.378" transform="translate(9.000000, 3.000000)"/>
                                    </g>
                                </g>
                            </g>
                            <g>
                                <g transform="translate(-118.000000, -292.000000) translate(16.000000, 112.000000) translate(0.000000, 88.000000) translate(102.000000, 92.000000) translate(3.000000, 12.000000) translate(35.000000, 28.000000)">
                                    <use fill="#2589FF" xlink:href="#lrj93mf8ea"/>
                                </g>
                                <g transform="translate(-118.000000, -292.000000) translate(16.000000, 112.000000) translate(0.000000, 88.000000) translate(102.000000, 92.000000) translate(3.000000, 12.000000) translate(35.000000, 28.000000) translate(16.000000, 16.000000)">
                                    <mask id="weoa2608dc" fill="#fff">
                                        <use xlink:href="#0cj77x6p2b"/>
                                    </mask>
                                    <use fill="#2589FF" xlink:href="#0cj77x6p2b"/>
                                    <path fill="#FFA75D" d="M56.99 8.102H60v5.63h-3.01c-1.45 0-2.624-1.175-2.624-2.623v-.384c0-1.449 1.175-2.623 2.623-2.623z" mask="url(#weoa2608dc)"/>
                                </g>
                                <path fill="#E6F2FF" d="M32.512 3h6.176C39.413 3 40 3.587 40 4.312v10.376c0 .725-.586 1.312-1.31 1.312h-.002l-17.43-.012c-.723 0-1.31-.588-1.31-1.312 0-.228.06-.452.173-.65l3.282-5.741C25.272 5.017 28.748 3 32.513 3zM44.312 3h7.451c4.376 0 8.355 2.535 10.205 6.5l1.438 3.083c.56 1.201.04 2.63-1.16 3.19-.318.148-.665.225-1.016.225l-16.918-.01c-.724-.002-1.311-.589-1.312-1.313V4.312C43 3.587 43.587 3 44.312 3z" transform="translate(-118.000000, -292.000000) translate(16.000000, 112.000000) translate(0.000000, 88.000000) translate(102.000000, 92.000000) translate(3.000000, 12.000000) translate(35.000000, 28.000000)"/>
                                <path fill="#767676" d="M19.5 44c4.694 0 8.5-3.806 8.5-8.5S24.194 27 19.5 27 11 30.806 11 35.5s3.806 8.5 8.5 8.5zM57.5 44c4.694 0 8.5-3.806 8.5-8.5S62.194 27 57.5 27 49 30.806 49 35.5s3.806 8.5 8.5 8.5z" transform="translate(-118.000000, -292.000000) translate(16.000000, 112.000000) translate(0.000000, 88.000000) translate(102.000000, 92.000000) translate(3.000000, 12.000000) translate(35.000000, 28.000000)"/>
                                <path fill="#FFF" d="M19.5 40c2.485 0 4.5-2.015 4.5-4.5S21.985 31 19.5 31 15 33.015 15 35.5s2.015 4.5 4.5 4.5zM57.5 40c2.485 0 4.5-2.015 4.5-4.5S59.985 31 57.5 31 53 33.015 53 35.5s2.015 4.5 4.5 4.5z" transform="translate(-118.000000, -292.000000) translate(16.000000, 112.000000) translate(0.000000, 88.000000) translate(102.000000, 92.000000) translate(3.000000, 12.000000) translate(35.000000, 28.000000)"/>
                            </g>
                        </g>
                    </g>
                </g>
            </g>
        </g>
    </g>
</svg>
