<svg xmlns="http://www.w3.org/2000/svg" xmlns:xlink="http://www.w3.org/1999/xlink" width="124" height="122" viewBox="0 0 124 122">
    <defs>
        <path id="k6o05epkea" d="M0 0H124V122H0z"/>
        <path id="ih89k9x2dc" d="M0 0L77.564 0 77.564 35.501 0 35.501z"/>
        <path id="8859zd3sfe" d="M0 0L17.888 0 17.888 17.888 0 17.888z"/>
        <path id="qd8gdj05jg" d="M0 0L17.888 0 17.888 17.888 0 17.888z"/>
        <path id="pet83amdci" d="M0 0L5.499 0 5.499 3.571 0 3.571z"/>
    </defs>
    <g fill="none" fill-rule="evenodd">
        <g>
            <g>
                <g>
                    <g transform="translate(-251.000000, -180.000000) translate(16.000000, 112.000000) translate(0.000000, 68.000000) translate(235.000000, 0.000000)">
                        <mask id="wr9q8a2b7b" fill="#fff">
                            <use xlink:href="#k6o05epkea"/>
                        </mask>
                        <g mask="url(#wr9q8a2b7b)">
                            <g>
                                <g transform="translate(10.000000, 67.000000)">
                                    <mask id="rcagaq5g7d" fill="#fff">
                                        <use xlink:href="#ih89k9x2dc"/>
                                    </mask>
                                    <path fill="#2589FF" d="M15.32 15.036c1.394 0 2.728-.566 3.698-1.568L29.923 2.187C31.274.79 33.134 0 35.078 0h20.534c8.367 0 15.15 6.782 15.15 15.149 2.96.552 5.204 3.145 5.204 6.267v3.98c.925.305 1.598 1.166 1.598 2.195v6.324c0 .876-.71 1.586-1.585 1.586H2.349c-1.298 0-2.35-1.05-2.35-2.348v-2.796c0-8.462 6.86-15.32 15.32-15.32" mask="url(#rcagaq5g7d)"/>
                                </g>
                                <path fill="#FFF" d="M51.457 15.036h13.42c.29 0 .526-.234.526-.524v-1.963c0-4.995-4.05-9.045-9.046-9.045h-4.9c-.549 0-.994.445-.994.994v9.544c0 .55.445.994.994.994M26.668 15.036H46.01c.564 0 1.02-.456 1.02-1.02V4.524c0-.563-.456-1.02-1.02-1.02h-9.78c-1.14 0-2.223.496-2.97 1.356l-7.362 8.49c-.572.66-.103 1.687.771 1.687" transform="translate(10.000000, 67.000000)"/>
                                <g transform="translate(10.000000, 67.000000) translate(51.590134, 24.815369)">
                                    <mask id="rfxljb63sf" fill="#fff">
                                        <use xlink:href="#8859zd3sfe"/>
                                    </mask>
                                    <path fill="#5E6063" d="M0 8.944c0 4.94 4.004 8.944 8.944 8.944 4.94 0 8.944-4.004 8.944-8.944C17.888 4.004 13.884 0 8.944 0 4.004 0 0 4.004 0 8.944" mask="url(#rfxljb63sf)"/>
                                </g>
                                <path fill="#E8E8E8" d="M56.386 33.76c0 2.29 1.858 4.147 4.148 4.147 2.291 0 4.148-1.857 4.148-4.148 0-2.29-1.857-4.148-4.148-4.148-2.29 0-4.148 1.858-4.148 4.148" transform="translate(10.000000, 67.000000)"/>
                                <g transform="translate(10.000000, 67.000000) translate(9.230570, 24.815369)">
                                    <mask id="e1560599jh" fill="#fff">
                                        <use xlink:href="#qd8gdj05jg"/>
                                    </mask>
                                    <path fill="#5E6063" d="M0 8.944c0 4.94 4.004 8.944 8.944 8.944 4.94 0 8.944-4.004 8.944-8.944C17.888 4.004 13.884 0 8.944 0 4.004 0 0 4.004 0 8.944" mask="url(#e1560599jh)"/>
                                </g>
                                <path fill="#E8E8E8" d="M14.026 33.76c0 2.29 1.858 4.147 4.149 4.147 2.29 0 4.148-1.857 4.148-4.148 0-2.29-1.857-4.148-4.148-4.148-2.29 0-4.149 1.858-4.149 4.148" transform="translate(10.000000, 67.000000)"/>
                                <path fill="#FFF" d="M42.857 19.73h3.569c.33 0 .603-.27.603-.603v-.247c0-.332-.272-.603-.603-.603h-3.569c-.332 0-.603.271-.603.603v.247c0 .333.27.604.603.604" transform="translate(10.000000, 67.000000)"/>
                                <path fill="#FC6559" d="M1.519 23.74c1.084-2.256 2.699-4.2 4.69-5.679.193 1.087.224 2.405-.346 3.545-.896 1.793-2.784 2.351-4.344 2.134" transform="translate(10.000000, 67.000000)"/>
                                <g transform="translate(10.000000, 67.000000) translate(72.500615, 25.191192)">
                                    <mask id="bz6h64039j" fill="#fff">
                                        <use xlink:href="#pet83amdci"/>
                                    </mask>
                                    <path fill="#FFA300" d="M.94 3.571h3.62c.517 0 .94-.423.94-.94V.942C5.5.422 5.077 0 4.56 0H.94C.422 0 0 .423 0 .94v1.692c0 .516.422.94.94.94" mask="url(#bz6h64039j)"/>
                                </g>
                            </g>
                        </g>
                        <g mask="url(#wr9q8a2b7b)">
                            <g>
                                <path fill="#DDAC98" d="M26.02 43.945c5.378 5.278 8.84 7.906 9.407 7.67 1.81-.752 1.61-3.58.018-6.255 4.585 5.57 4.921 5.637 5.987 4.758 1.51-1.247.828-3.791.323-5.221 3.079 3.099 4.429 4.543 5.192 4.242.966-.38 1.991-3.815-1.298-6.709-3-2.638-21.39-.213-19.629 1.515" transform="translate(41.973208, -1.000000)"/>
                                <path fill="#FFC7B0" d="M48.737 44.286c-11.456 2.91-19.891-6.27-26.442-5.557-6.369.695-4.07 11.123-8.936 13.338-1.4.637-2.355-.026-2.286-.433.348-2.087 1.576-14.886 2.412-17.987.457-1.692 13.318-14.31 18.486-19.05 2.287-1.354 22.923 5.875 30.44 4.242 6.205-1.345 12.363-3.948 12.363-3.948s1.427 13.522 4.429 17.27c-4.847.517-11.457 1.934-14.225 3.32-3.842 1.926-4.786 5.895-16.24 8.805z" transform="translate(41.973208, -1.000000)"/>
                                <path fill="#DDAC98" d="M30.554 29.335c-3.916 4.31-9.218 6.832-10.562 7.712 0 0-.02 0 0 0-.521.163-.64 2.52-1.112 2.739-4.444 2.044-3.16 6.46-.752 7.384.752-3.08 1.472-6.019 4.544-6.649.335-.069.68-.109 1.033-.126.56-.05 1.143-.043 1.751.022 1.6-.402 1.952-.81 1.555-1.112 2.133-.105 4.47-.3 6.524-.654 5.584-.962 8.808-5.111 9.081-6.673.16-.913-2.26-.436-12.062-2.643" transform="translate(41.973208, -1.000000)"/>
                                <path fill="#6F6F6F" d="M69.754 38.115c-2.811-2.931-8.21-13.867-8.32-21.772 5.502-1.985 22.873-7.694 22.873-7.694L112.517 0 120 29.62s-36.425 6.18-50.246 8.495" transform="translate(41.973208, -1.000000)"/>
                                <path fill="#E9E9E9" d="M.456 45.141C-1.508 52.79 3.051 60.565 10.64 62.508c7.586 1.945 15.33-2.68 17.294-10.327 1.963-7.648-2.596-15.424-10.184-17.368C10.162 32.869 2.42 37.493.456 45.14" transform="translate(41.973208, -1.000000)"/>
                                <path fill="#FFF" d="M2.32 45.619c-1.698 6.61 2.242 13.332 8.8 15.011 6.56 1.682 13.251-2.317 14.949-8.926 1.697-6.612-2.243-13.332-8.802-15.013-6.557-1.68-13.25 2.317-14.948 8.928" transform="translate(41.973208, -1.000000)"/>
                                <path stroke="#ACACAC" stroke-linecap="round" stroke-linejoin="round" stroke-width="1.5" d="M8.419 49.925h2.475m6.6 0h2.475m-1.444-4.153l-2.123 7.582-2.126-7.582h-.164l-2.125 7.582-2.125-7.582" transform="translate(41.973208, -1.000000)"/>
                                <path fill="#FFC7B0" d="M61.525 37.93c-3.407 4.584-13.574 9.551-21.88 7.735-8.305-1.817-12.084.472-18.502 1.855-4.483.966-7.596-4.606-2.118-7.527 4.321-2.305 14.259-2.865 18.256-9.19 3.181-5.035 28.462 1.447 24.244 7.126" transform="translate(41.973208, -1.000000)"/>
                            </g>
                        </g>
                    </g>
                </g>
            </g>
        </g>
    </g>
</svg>
