<svg xmlns="http://www.w3.org/2000/svg" width="220" height="80" viewBox="0 0 220 80">
    <g fill="none" fill-rule="evenodd">
        <g>
            <g>
                <g>
                    <g>
                        <g>
                            <path d="M0 0H220V80H0z" transform="translate(-78.000000, -2425.000000) translate(16.000000, 112.000000) translate(0.000000, 2177.000000) translate(0.000000, 46.000000) translate(62.000000, 90.000000)"/>
                            <g>
                                <path fill="#FFE02E" d="M30.5 40.28s-4.267-1.823-5.257-5.28L21.5 37.062s1.893 5.385 5.867 5.938l3.133-2.72z" transform="translate(-78.000000, -2425.000000) translate(16.000000, 112.000000) translate(0.000000, 2177.000000) translate(0.000000, 46.000000) translate(62.000000, 90.000000) translate(13.000000, 3.000000)"/>
                                <path fill="#9AEF75" d="M67.982 0s.017 3.89-2.482 5.795L68.535 8s3.769-3.237 2.808-6.483L67.982 0z" transform="translate(-78.000000, -2425.000000) translate(16.000000, 112.000000) translate(0.000000, 2177.000000) translate(0.000000, 46.000000) translate(62.000000, 90.000000) translate(13.000000, 3.000000)"/>
                                <path fill="#FFE02E" d="M113.884 7.105s.018 3.946-2.513 5.877l3.074 2.236s3.817-3.283 2.844-6.575c-1.702-.77-3.405-1.538-3.405-1.538z" transform="translate(-78.000000, -2425.000000) translate(16.000000, 112.000000) translate(0.000000, 2177.000000) translate(0.000000, 46.000000) translate(62.000000, 90.000000) translate(13.000000, 3.000000) translate(114.409464, 11.161579) rotate(42.000000) translate(-114.409464, -11.161579)"/>
                                <path fill="#FFAE00" d="M96.981 20S97 23.89 94.5 25.795L97.535 28s3.769-3.237 2.808-6.483L96.981 20z" transform="translate(-78.000000, -2425.000000) translate(16.000000, 112.000000) translate(0.000000, 2177.000000) translate(0.000000, 46.000000) translate(62.000000, 90.000000) translate(13.000000, 3.000000)"/>
                                <path fill="#FFAE00" d="M195.256 59.09s.02 3.943-2.51 5.87l3.078 2.238s3.818-3.278 2.841-6.569l-3.409-1.54z" transform="translate(-78.000000, -2425.000000) translate(16.000000, 112.000000) translate(0.000000, 2177.000000) translate(0.000000, 46.000000) translate(62.000000, 90.000000) translate(13.000000, 3.000000) translate(195.785045, 63.143598) rotate(47.000000) translate(-195.785045, -63.143598)"/>
                                <path fill="#67E82F" d="M201.592 32s-.53 3.858-3.092 5.418L200.98 40s3.915-2.715 3.487-6.057L201.592 32z" transform="translate(-78.000000, -2425.000000) translate(16.000000, 112.000000) translate(0.000000, 2177.000000) translate(0.000000, 46.000000) translate(62.000000, 90.000000) translate(13.000000, 3.000000)"/>
                                <path fill="#FF7070" d="M53.5 33.853S50.22 31.467 49.841 28L46.5 29.422s.877 5.455 4.078 6.578l2.922-2.147z" transform="translate(-78.000000, -2425.000000) translate(16.000000, 112.000000) translate(0.000000, 2177.000000) translate(0.000000, 46.000000) translate(62.000000, 90.000000) translate(13.000000, 3.000000)"/>
                                <path fill="#FF7070" d="M7.5 30.853S4.22 28.467 3.841 25L.5 26.423S1.377 31.877 4.578 33L7.5 30.853z" transform="translate(-78.000000, -2425.000000) translate(16.000000, 112.000000) translate(0.000000, 2177.000000) translate(0.000000, 46.000000) translate(62.000000, 90.000000) translate(13.000000, 3.000000) translate(4.000000, 29.000000) rotate(-90.000000) translate(-4.000000, -29.000000)"/>
                            </g>
                        </g>
                    </g>
                </g>
            </g>
        </g>
    </g>
</svg>
